<svg width="173" height="173" viewBox="0 0 173 173" fill="none" xmlns="http://www.w3.org/2000/svg">
<path d="M49.5178 67.9283C53.558 68.4089 57.6329 69.0287 61.9455 69.6958C80.6012 72.5588 99.899 75.5151 115.911 65.9797C124.329 60.9407 129.96 53.3842 132.158 44.0932C134.57 33.9419 132.507 22.6737 126.477 13.1951C126.408 13.1145 125.094 10.8729 122.526 8.05456C95.5169 -4.50448 62.7038 -2.69385 36.5547 15.7248C11.839 33.1329 -0.941012 61.1968 0.0539905 89.3307C10.2324 73.5787 28.7188 65.4802 49.5322 67.9448L49.5178 67.9283Z" fill="#A5351C"/>
<path d="M145.471 98.3666C133.693 109.031 128.896 130.181 131.518 159.584C132.958 158.679 134.401 157.744 135.819 156.746C158.131 141.018 170.697 116.653 172.225 91.3493C161.349 89.8179 152.346 92.1556 145.473 98.3363L145.471 98.3666Z" fill="#A5351C"/>
<path d="M134.718 14.9595C139.375 24.6384 140.77 35.5551 138.367 45.5862C136.354 54.0146 131.803 61.4552 125.272 67.0874C123.402 68.7005 121.36 70.18 119.182 71.4686C101.21 82.1877 79.8382 78.9114 61.0049 76.0048C56.7524 75.342 52.7371 74.7272 48.8017 74.2692C28.8702 71.9156 11.4263 80.408 3.29749 96.4178C3.29749 96.4178 2.36095 98.4629 1.35547 101.439C3.48336 113.467 8.21294 125.22 15.7102 135.88C40.7563 171.475 87.8165 182.32 125.443 163C122.059 130.037 127.487 106.065 141.207 93.6409C149.176 86.3178 159.974 83.3885 172.387 84.9431C172.164 68.1784 167.044 51.3067 156.68 36.5683C150.534 27.8369 143.056 20.5917 134.721 14.9297L134.718 14.9595Z" fill="#A5351C"/>
</svg>
