<svg width="833" height="481" viewBox="0 0 833 481" fill="none" xmlns="http://www.w3.org/2000/svg">
<path d="M261.125 479.102L3.125 330.602L572.125 1.60156L829.625 150.102L261.125 479.102Z" fill="#D119DB"/>
<rect x="111.49" y="267.863" width="2.69886" height="298.273" transform="rotate(-60 111.49 267.863)" fill="white"/>
<rect x="470.492" y="60.4414" width="2.69886" height="298.73" transform="rotate(-60 470.492 60.4414)" fill="white"/>
<rect x="286.492" y="166.441" width="2.69886" height="298.73" transform="rotate(-60 286.492 166.441)" fill="white"/>
<path d="M832.444 150.306L260.337 480.612L257.638 479.054L257.67 479.036L2.73145 331.848L2.69922 331.865L0 330.308L572.108 0L832.444 150.306ZM5.43066 330.289L260.369 477.478L827.335 150.14L572.396 2.95117L5.43066 330.289Z" fill="white"/>
<rect x="241.314" y="342.594" width="2.69886" height="416.001" transform="rotate(-120 241.314 342.594)" fill="white"/>
<path d="M282.816 161.41V100.42L276.346 100.41V161.4L282.816 161.41Z" fill="white"/>
<path d="M282.815 100.421C282.815 101.451 281.375 102.281 279.595 102.281C277.805 102.281 276.355 101.441 276.355 100.411C276.355 99.3808 277.795 98.5508 279.575 98.5508C281.365 98.5508 282.815 99.3908 282.815 100.421Z" fill="#F2F2F2"/>
<path d="M282.815 161.411C282.815 162.441 281.375 163.271 279.595 163.271C277.805 163.271 276.355 162.431 276.355 161.401C276.355 160.371 277.795 159.541 279.575 159.541C281.365 159.541 282.815 160.381 282.815 161.411Z" fill="white"/>
<path d="M548.844 304.952L284.814 152.512V153.142L548.844 305.592V304.952Z" fill="black"/>
<path d="M548.844 297.821L284.814 145.381V146.011L548.844 298.451V297.821Z" fill="black"/>
<path d="M548.844 290.69L284.814 138.24V138.88L548.844 291.32V290.69Z" fill="black"/>
<path d="M548.844 283.551L284.814 131.111V131.741L548.844 284.181V283.551Z" fill="black"/>
<path d="M548.844 276.421L284.814 123.971V124.611L548.844 277.051V276.421Z" fill="black"/>
<path d="M548.844 269.282L284.814 116.842V117.472L548.844 269.922V269.282Z" fill="black"/>
<path d="M548.844 262.151L284.814 109.711V110.341L548.844 262.781V262.151Z" fill="black"/>
<path d="M548.846 262.781V304.951L549.406 305.271V263.101L548.846 262.781Z" fill="black"/>
<path d="M542.967 259.391V301.561L543.527 301.881V259.711L542.967 259.391Z" fill="black"/>
<path d="M537.086 255.992V298.162L537.646 298.482V256.312L537.086 255.992Z" fill="black"/>
<path d="M531.217 252.602V294.772L531.767 295.092V252.922L531.217 252.602Z" fill="black"/>
<path d="M525.336 249.201V291.371L525.886 291.691V249.521L525.336 249.201Z" fill="black"/>
<path d="M519.455 245.811V287.981L520.005 288.301V246.131L519.455 245.811Z" fill="black"/>
<path d="M513.576 242.412V284.592L514.126 284.902V242.732L513.576 242.412Z" fill="black"/>
<path d="M507.695 239.021V281.191L508.245 281.511V239.341L507.695 239.021Z" fill="black"/>
<path d="M501.816 235.631V277.801L502.366 278.111V235.941L501.816 235.631Z" fill="black"/>
<path d="M495.936 232.232V274.402L496.486 274.722V232.552L495.936 232.232Z" fill="black"/>
<path d="M490.057 228.842V271.012L490.607 271.332V229.152L490.057 228.842Z" fill="black"/>
<path d="M484.176 225.441V267.611L484.726 267.931V225.761L484.176 225.441Z" fill="black"/>
<path d="M478.295 222.051V264.221L478.845 264.541V222.371L478.295 222.051Z" fill="black"/>
<path d="M472.416 218.652V260.822L472.966 261.142V218.972L472.416 218.652Z" fill="black"/>
<path d="M466.535 215.262V257.432L467.085 257.752V215.582L466.535 215.262Z" fill="black"/>
<path d="M460.656 211.861V254.031L461.206 254.351V212.181L460.656 211.861Z" fill="black"/>
<path d="M454.775 208.471V250.641L455.325 250.961V208.791L454.775 208.471Z" fill="black"/>
<path d="M448.896 205.072V247.242L449.447 247.562V205.392L448.896 205.072Z" fill="black"/>
<path d="M443.016 201.682V243.852L443.566 244.172V202.002L443.016 201.682Z" fill="black"/>
<path d="M437.137 198.281V240.451L437.687 240.771V198.601L437.137 198.281Z" fill="black"/>
<path d="M431.256 194.891V237.061L431.806 237.381V195.211L431.256 194.891Z" fill="black"/>
<path d="M425.375 191.492V233.662L425.925 233.982V191.812L425.375 191.492Z" fill="black"/>
<path d="M419.496 188.102V230.272L420.046 230.592V188.422L419.496 188.102Z" fill="black"/>
<path d="M413.615 184.701V226.881L414.165 227.191V185.021L413.615 184.701Z" fill="black"/>
<path d="M407.736 181.311V223.481L408.286 223.801V181.631L407.736 181.311Z" fill="black"/>
<path d="M401.855 177.922V220.092L402.405 220.402V178.232L401.855 177.922Z" fill="black"/>
<path d="M395.977 174.521V216.691L396.527 217.011V174.841L395.977 174.521Z" fill="black"/>
<path d="M390.096 171.131V213.301L390.646 213.621V171.441L390.096 171.131Z" fill="black"/>
<path d="M384.217 167.732V209.902L384.767 210.222V168.052L384.217 167.732Z" fill="black"/>
<path d="M378.336 164.342V206.512L378.886 206.832V164.662L378.336 164.342Z" fill="black"/>
<path d="M372.455 160.941V203.111L373.005 203.431V161.261L372.455 160.941Z" fill="black"/>
<path d="M366.576 157.551V199.721L367.126 200.041V157.871L366.576 157.551Z" fill="black"/>
<path d="M360.695 154.152V196.322L361.245 196.642V154.472L360.695 154.152Z" fill="black"/>
<path d="M354.816 150.762V192.932L355.366 193.252V151.082L354.816 150.762Z" fill="black"/>
<path d="M348.936 147.361V189.531L349.486 189.851V147.681L348.936 147.361Z" fill="black"/>
<path d="M343.057 143.971V186.141L343.607 186.461V144.291L343.057 143.971Z" fill="black"/>
<path d="M337.176 140.572V182.742L337.726 183.062V140.892L337.176 140.572Z" fill="black"/>
<path d="M331.295 137.182V179.352L331.845 179.672V137.502L331.295 137.182Z" fill="black"/>
<path d="M325.416 133.781V175.951L325.966 176.271V134.101L325.416 133.781Z" fill="black"/>
<path d="M319.535 130.391V172.561L320.085 172.881V130.711L319.535 130.391Z" fill="black"/>
<path d="M313.656 126.992V169.172L314.206 169.482V127.312L313.656 126.992Z" fill="black"/>
<path d="M307.775 123.602V165.772L308.335 166.092V123.922L307.775 123.602Z" fill="black"/>
<path d="M301.896 120.211V162.381L302.456 162.691V120.521L301.896 120.211Z" fill="black"/>
<path d="M296.016 116.811V158.981L296.576 159.301V117.131L296.016 116.811Z" fill="black"/>
<path d="M290.137 113.422V155.592L290.697 155.912V113.742L290.137 113.422Z" fill="black"/>
<path d="M284.256 110.021V152.191L284.816 152.511V110.341L284.256 110.021Z" fill="black"/>
<path d="M548.844 262.78L284.814 110.34V106.68L548.844 259.12V262.78Z" fill="#EDEDED"/>
<path d="M552.956 310.991L548.846 308.621V259.121L552.956 261.491V310.991Z" fill="#EDEDED"/>
<path d="M280.705 104.311L284.815 106.681V156.171L280.705 153.801V104.311Z" fill="#EDEDED"/>
<path d="M557.136 319.791V258.801L550.666 258.791V319.781L557.136 319.791Z" fill="white"/>
<path d="M557.136 258.802C557.136 259.832 555.696 260.662 553.916 260.662C552.126 260.662 550.676 259.822 550.676 258.792C550.676 257.762 552.116 256.932 553.896 256.932C555.686 256.932 557.136 257.772 557.136 258.802Z" fill="#F2F2F2"/>
<path d="M557.136 319.792C557.136 320.822 555.696 321.652 553.916 321.652C552.136 321.652 550.676 320.812 550.676 319.782C550.676 318.752 552.116 317.922 553.896 317.922C555.676 317.922 557.136 318.762 557.136 319.792Z" fill="white"/>
</svg>
