<svg width="172" height="216" viewBox="0 0 172 216" fill="none" xmlns="http://www.w3.org/2000/svg">
<ellipse cx="78" cy="200" rx="78" ry="16" fill="black" fill-opacity="0.14"/>
<path fill-rule="evenodd" clip-rule="evenodd" d="M146.749 66.4153C138.68 63.1792 132.318 61.2486 128.73 57.6092C128.842 56.7835 128.858 55.9077 128.873 55.008C128.877 54.7431 128.882 54.4758 128.885 54.2061C128.894 53.7121 128.913 53.2133 128.953 52.7146L133.064 48.9583C138.547 52.8052 144.136 56.793 149.785 60.8644C148.177 62.4418 147.015 64.2245 146.744 66.4153H146.749ZM154.92 64.5729C154.92 64.5729 160.864 64.7591 164.167 64.9476C166.994 65.1099 169.394 66.1981 171.489 68.5679C172.732 69.9711 171.423 70.6011 170.594 69.8041C170.173 69.3984 169.646 69.0261 169.646 69.0261L166.239 67.1718C167.762 68.4438 169.513 70.9209 169.876 72.2072C170.138 73.1332 169.425 73.6582 168.691 72.9972C168.41 72.7442 168.116 72.2287 168.116 72.2287C167.812 73.6797 166.593 72.854 166.284 72.2574C165.671 71.0808 165.032 70.2599 163.297 69.9783L164.2 71.4388C164.2 71.4388 164.906 72.539 163.913 72.434C162.404 72.2717 160.836 71.4961 159.258 71.0045C157.377 70.4174 155.552 71.2598 152.627 68.9163C153.014 67.2792 153.741 65.8139 154.92 64.5705V64.5729ZM123.377 184.03C123.242 181.021 119.775 162.712 118.637 156.724C117.696 151.777 117.197 145.484 117.197 145.484C115.715 141.821 114.612 138.222 113.805 131.754L106.891 113.305C111.54 109.157 120.797 106.009 127.148 108.489C127.129 110.78 127.008 126.335 127.131 131.459C127.233 135.563 128.167 134.587 128.842 139.558C129.564 144.887 130.956 147.684 130.975 155.156C130.994 163.504 128.34 180.042 128.597 183.39C127.029 183.517 124.698 183.844 123.379 184.028L123.377 184.03ZM44.4633 173.456C45.6917 171.733 49.4266 166.473 51.085 163.852C53.6391 159.824 56.6827 152.681 60.0446 148.937C63.1452 145.484 71.4775 141.026 71.4775 141.026L77.5266 112.868C78.0517 112.584 78.5744 112.331 79.0971 112.109C86.3437 111.14 92.9392 113.627 97.261 116.851C95.8378 119.851 89.1472 133.981 87.0065 138.806C83.3761 146.992 84.1531 145.603 81.1166 148.037C82.9247 146.741 64.8867 163.91 61.1898 166.583C60.7811 166.879 51.4058 175.98 49.056 178.264C46.9652 177.582 45.3638 175.751 44.4609 173.453L44.4633 173.456ZM119.656 12.2734C119.687 12.7913 119.711 13.4667 119.561 14.0466L119.751 17.3232C119.751 17.3232 119.906 20.5903 119.355 22.7572C118.761 25.1031 116.736 28.9787 115.294 29.7949L115.209 30.9571L116.266 31.1576C117.972 37.6201 117.252 41.7201 115.546 43.634C113.84 45.548 108.989 45.4358 106.482 43.856C103.619 42.0494 98.1686 33.4128 98.1686 33.4128C98.1686 33.4128 101.412 33.0548 102.255 31.6468C103.096 30.2388 102.417 25.0912 102.417 25.0912C99.6417 24.7451 96.4627 21.8432 96.6076 18.989C96.7027 17.1514 98.1686 17.0798 98.1686 17.0798L98.1781 17.075C100.079 16.8053 101.675 18.3184 102.438 20.4566C102.652 22.33 105.396 24.3609 105.919 24.3609C107.038 24.3609 106.71 24.3537 106.199 22.898C105.662 21.3611 105.078 19.335 105.491 14.5668C107.784 15.0274 110.685 14.2614 111.859 13.1373C114.593 13.1373 116.848 13.5765 119.654 12.2758L119.656 12.2734ZM60.0565 106.386C60.0493 106.346 60.0422 106.308 60.0351 106.267C61.4654 103.673 66.1887 102.162 68.5005 100.148C70.6269 100.272 73.1383 101.833 74.3191 103.539C74.5947 106.563 72.9054 108.026 71.9147 109.508C72.2449 110.543 72.492 112.204 72.2331 113.033C71.6937 114.779 70.0805 114.235 70.0805 114.235C69.5982 116.209 68.27 116.457 67.5834 116.011C66.7827 117.175 65.4546 117.147 65.1647 116.114C63.8413 118.128 62.4657 117.638 62.3041 116.302C62.2352 115.72 62.8577 114.414 63.1903 113.491C63.6061 112.341 63.9292 109.596 64.68 109.491C65.6209 109.357 65.9939 110.269 65.9939 110.269C66.0343 109.863 66.3764 109.181 67.0868 109.186C67.6119 109.19 68.1988 109.873 68.1988 109.873C68.1988 109.873 68.2867 109.059 68.8925 109.045C69.5293 109.03 69.8144 109.417 69.9355 109.804L70.1826 109.625C70.2515 109.398 70.349 109.178 70.4868 109.028C70.6103 108.894 71.0023 108.649 71.3468 108.73C71.5963 108.386 71.5702 107.84 71.2518 107.401L69.6718 105.207C69.294 104.682 68.6478 104.506 68.2273 104.811L63.3139 108.377C63.5372 109.99 63.8199 113.35 62.2946 113.431C60.8572 113.507 60.3701 108.615 60.0303 106.377L60.0517 106.384L60.0565 106.386ZM70.874 94.5756C73.4923 87.5188 75.5332 79.4693 79.9263 73.4936L80.3848 65.7781L90.9862 70.1644C90.0287 73.422 87.964 76.2356 87.1824 79.1805C84.9133 87.7432 80.2542 94.0506 77.194 98.4322C76.0417 96.0338 73.8701 94.6401 70.8717 94.5756H70.874Z" fill="#E4572E"/>
<path fill-rule="evenodd" clip-rule="evenodd" d="M98.1697 33.4128C98.1697 33.4128 103.618 42.0495 106.483 43.856C108.99 45.4383 113.841 45.5504 115.547 43.6341C117.253 41.7201 117.973 37.6178 116.267 31.1576L115.21 30.9572L115.257 30.3057C117.814 29.3463 124.459 27.2271 127.094 30.0169C130.701 33.8352 130.974 43.4575 130.974 43.4575L131.478 45.1423L133.067 48.9583L128.957 52.7146C128.767 55.0414 129.069 57.3825 128.32 59.2559C127.681 60.8549 127.358 63.7616 126.412 65.8163C125.426 68.4391 126.336 70.4246 125.376 72.2312C125.376 72.2312 125.966 73.6869 125.847 74.3026C125.536 75.9135 124.934 76.1044 124.923 77.2762C124.908 78.856 125.814 83.3855 125.814 83.3855C114.789 88.705 97.6517 89.6954 85.632 85.3806C86.1475 83.197 86.3043 82.4572 87.6539 80.8487C87.6539 80.8487 87.7917 79.3238 88.091 78.794C88.4023 78.2403 89.2006 77.4504 89.2006 77.4504L89.039 74.8038L90.992 70.2051L80.184 65.6994C79.9511 64.2413 79.6969 62.4443 80.2885 61.1198C80.2885 61.1198 79.9654 49.3043 86.6797 39.5508C89.1459 35.9664 93.539 33.1957 98.1649 33.4105L98.1697 33.4128ZM98.1697 33.4128L99.0797 33.2601C98.5475 33.3723 98.1697 33.4128 98.1697 33.4128ZM146.75 66.4153C147.019 64.2246 148.183 62.4442 149.791 60.8644C151.497 62.0934 153.208 63.3296 154.921 64.5706C153.742 65.8116 153.013 67.2792 152.628 68.9164C150.585 67.988 148.622 67.1647 146.75 66.4153ZM74.3226 103.542C73.1418 101.833 70.628 100.275 68.504 100.15C69.3807 98.4131 70.1505 96.5326 70.8751 94.5757C73.8712 94.6401 76.0451 96.0314 77.1974 98.4322C75.6935 100.59 74.5744 102.279 74.3226 103.542ZM122.789 189.345C122.509 188.533 122.492 187.708 122.692 186.877C122.247 186.051 121.558 184.245 122.461 184.152C123.262 184.068 129.244 183.142 130.107 183.383C130.679 183.543 130.577 185.314 130.323 186.409C130.698 186.913 130.938 188.154 130.489 188.557L122.787 189.345H122.789ZM40.8696 175.973C41.2949 175.434 41.5634 175.047 42.749 174.649L44.0676 172.255C45.0085 175.73 47.4485 178.491 50.7725 178.553C50.2022 179.887 49.0238 180.462 48.1304 181.088L47.3203 182.67C44.2553 183.916 40.8221 180.532 40.8696 175.971V175.973Z" fill="#2E2E2E"/>
<path fill-rule="evenodd" clip-rule="evenodd" d="M128.731 109.268C128.202 109.475 127.669 109.681 127.137 109.876C127.142 109.246 127.147 108.771 127.147 108.492C127.698 108.707 128.228 108.965 128.729 109.268H128.731ZM106.892 113.306L107.343 114.511C106.757 114.566 106.167 114.611 105.578 114.652C105.958 114.196 106.4 113.745 106.892 113.306ZM98.1819 117.575C97.7043 117.797 97.1935 117.986 96.6518 118.143L97.2648 116.852C97.5832 117.088 97.8897 117.329 98.1819 117.575ZM79.1009 112.11C78.5782 112.332 78.0555 112.583 77.5304 112.869L77.2572 114.146C76.6584 113.745 76.0811 113.32 75.5251 112.869C76.7297 112.518 77.9248 112.268 79.1033 112.11H79.1009ZM44.4647 173.454C44.3127 173.068 44.182 172.667 44.0703 172.256C44.4006 172.38 44.7142 172.526 45.0159 172.683C44.7997 172.987 44.6144 173.247 44.4647 173.457V173.454ZM49.9222 177.428C50.2049 177.802 50.4877 178.179 50.7728 178.554L49.9436 178.48C49.6395 178.432 49.3449 178.361 49.0574 178.265L49.9222 177.428Z" fill="black"/>
<path fill-rule="evenodd" clip-rule="evenodd" d="M40.8686 175.973C40.8211 180.569 44.3065 183.97 47.3905 182.64C45.2189 185.955 42.4628 190.1 40.3625 193.432C38.324 196.668 36.0193 202.181 34.7839 202.639C28.8084 204.856 25.1162 197.599 25.1329 194.625C25.1495 191.554 26.9291 188.501 31.0133 184.812C31.0133 184.812 32.9639 181.905 34.254 180.75C35.8982 179.278 38.8467 176.505 40.8686 175.973ZM122.788 189.344L130.752 188.528C130.752 188.528 131.441 192.943 132.553 195.059C134.271 198.324 136.212 202.937 134.119 205.706C133.028 207.149 122.928 207.445 122.258 206.295C121.638 205.233 120.564 203.558 121.232 199.794C121.498 198.3 122.265 195.57 122.265 195.57C123.08 193.31 122.952 191.372 122.788 189.346V189.344ZM123.363 84.4609C125.772 91.9902 127.668 99.5124 128.73 107.032C129.027 107.679 128.982 108.579 128.73 109.268C121.826 105.104 109.858 109.514 105.577 114.655C104.845 114.206 104.429 113.001 104.315 111.822C103.586 110.569 102.954 108.591 102.346 106.45L102.072 106.209C101.281 109.488 100.428 112.669 99.0572 115.075C99.024 116.165 98.5916 116.611 98.1805 117.576C93.26 113.476 84.6901 110.192 75.5214 112.869C75.4097 111.901 75.5713 110.998 76.3149 110.24C77.004 101.751 81.5087 93.5605 85.6333 85.3821C96.7954 89.389 112.367 88.821 123.361 84.4609H123.363Z" fill="#F7F4ED"/>
<path fill-rule="evenodd" clip-rule="evenodd" d="M95.0929 19.5016C92.2988 24.432 89.2553 27.2529 85.1402 25.4272C82.3128 25.5966 79.6661 27.7134 80.5974 30.0092C76.2756 28.952 74.1516 18.5828 83.3963 17.6473C80.5642 17.1843 77.8604 16.5424 76.9314 20.3416C76.758 15.7835 78.1692 14.5521 84.5106 14.3444C87.882 14.2323 86.6299 8.25178 89.6616 5.81042C93.3561 2.83927 96.2262 5.36415 96.2262 5.36415C98.5974 2.58153 102.261 0.0470997 105.958 0.00175676C111.254 -0.0602914 116.174 1.51239 118.999 6.13737C115.21 4.89163 104.913 6.83661 103.219 9.61684C101.235 9.6073 96.3046 12.0534 95.0858 14.3373L95.656 16.7882C98.3479 14.385 101.201 13.3875 104.955 12.4925C104.955 12.4925 105.633 14.0939 106.771 14.0414C108.538 13.9602 112.584 10.9151 117.087 10.7385C118.774 10.674 120.209 10.8077 121.292 10.927C121.333 11.4998 121.23 11.9842 120.95 12.3064C120.339 13.0056 119.677 12.2611 119.677 12.2611C116.861 13.5712 114.604 13.1321 111.862 13.1321C110.688 14.2585 107.787 15.0246 105.495 14.5616C105.081 19.3298 105.663 21.3559 106.203 22.8928C106.714 24.3485 107.041 24.3533 105.922 24.3557C105.476 24.3557 103.409 22.8737 102.682 21.2747C102.558 21.0003 102.473 20.7235 102.442 20.4514C101.679 18.3155 100.08 16.8001 98.1816 17.0698L98.1721 17.0746C98.1721 17.0746 96.7062 17.1462 96.6111 18.9837C96.4638 21.8356 99.6452 24.7399 102.42 25.0859C102.42 25.0859 102.572 26.241 102.644 27.6061C100.482 25.4606 96.7038 24.3199 95.0929 19.4968V19.5016Z" fill="black"/>
<path fill-rule="evenodd" clip-rule="evenodd" d="M95.0844 14.3398C96.3033 12.056 101.233 9.60985 103.217 9.61939C105.047 6.61483 116.905 4.58871 119.77 6.49789C120.471 6.96564 123.733 10.7124 123.462 10.9773C123.08 11.352 120.642 10.6026 117.083 10.741C112.581 10.9152 108.534 13.9604 106.767 14.0439C105.629 14.0964 104.952 12.4951 104.952 12.4951C101.198 13.39 98.3442 14.3899 95.6523 16.7907L95.082 14.3398H95.0844Z" fill="#EBC74A"/>
<path fill-rule="evenodd" clip-rule="evenodd" d="M63.3208 108.379L68.2342 104.813C68.6548 104.508 69.301 104.687 69.6788 105.209L71.2564 107.403C71.5748 107.844 71.6009 108.388 71.3515 108.734C71.0069 108.651 70.6149 108.897 70.4914 109.03C70.3512 109.181 70.2538 109.4 70.1849 109.627L69.9378 109.806C69.8142 109.417 69.5315 109.03 68.8924 109.047C68.2865 109.061 68.1986 109.875 68.1986 109.875C68.1986 109.875 67.6118 109.192 67.0867 109.19C66.3763 109.185 66.0341 109.865 65.9938 110.274C65.9938 110.274 65.6207 109.362 64.6799 109.496C63.9291 109.601 63.606 112.343 63.1902 113.495C63.0072 114.001 62.7364 114.622 62.5439 115.175L58.6712 117.984C58.645 118.003 58.6189 118.02 58.5928 118.034L58.6023 118.006L55.7227 113.891L60.6527 110.314C61.002 112.013 61.5056 113.479 62.2968 113.436C63.8222 113.354 63.5394 109.994 63.3161 108.381L63.3208 108.379Z" fill="#F7F4ED"/>
<path fill-rule="evenodd" clip-rule="evenodd" d="M52.7273 132.922C49.0351 140.542 40.3488 146.284 31.7931 146.284C22.0162 146.284 16.0882 138.788 18.5616 129.557C20.9684 120.569 30.4578 113.229 39.9781 112.844C40.2371 112.835 43.1856 112.949 44.2952 113.181L55.7257 113.89L58.6053 118.004L53.8155 130.161C53.528 131.103 53.1621 132.024 52.7273 132.922ZM53.9533 123.085L56.3577 117.72L55.0723 115.913L48.9567 115.775C51.5987 117.596 53.566 120.763 53.9533 123.085Z" fill="#2F1B14"/>
<path fill-rule="evenodd" clip-rule="evenodd" d="M26.1845 125.56C26.5789 125.323 27.085 125.445 27.3131 125.832C27.5412 126.218 27.4105 126.724 27.0161 126.96C26.6217 127.197 26.1156 127.077 25.8851 126.691C25.6547 126.304 25.7877 125.798 26.1845 125.562V125.56ZM29.6629 123.471C30.0573 123.235 30.5633 123.354 30.7938 123.741C31.0243 124.128 30.8912 124.634 30.4944 124.87C30.1 125.106 29.594 124.984 29.3659 124.598C29.1378 124.211 29.2684 123.705 29.6629 123.469V123.471ZM33.1412 121.383C33.5356 121.147 34.0417 121.266 34.2721 121.653C34.5026 122.039 34.3695 122.545 33.9728 122.782C33.5784 123.018 33.0723 122.896 32.8442 122.51C32.6161 122.123 32.7468 121.617 33.1412 121.381V121.383ZM36.6219 119.295C37.0163 119.059 37.5224 119.178 37.7529 119.565C37.9833 119.951 37.8503 120.457 37.4535 120.693C37.0567 120.93 36.553 120.81 36.3226 120.424C36.0921 120.037 36.2275 119.531 36.6219 119.295ZM28.0995 128.776C28.4939 128.54 29 128.662 29.2281 129.049C29.4561 129.435 29.3255 129.941 28.9311 130.177C28.5367 130.414 28.0306 130.294 27.8001 129.908C27.5697 129.521 27.7027 129.015 28.0995 128.779V128.776ZM31.5755 126.691C31.9699 126.454 32.4783 126.576 32.7064 126.96C32.9345 127.345 32.8038 127.853 32.407 128.089C32.0126 128.325 31.5066 128.204 31.2785 127.817C31.048 127.43 31.1811 126.925 31.5755 126.688V126.691ZM35.0562 124.603C35.4506 124.366 35.959 124.488 36.1871 124.872C36.4152 125.256 36.2845 125.765 35.8878 126.001C35.4934 126.237 34.9873 126.116 34.7592 125.729C34.5287 125.342 34.6618 124.836 35.0562 124.6V124.603ZM38.5345 122.512C38.9289 122.276 39.4374 122.397 39.6655 122.782C39.8936 123.166 39.7629 123.674 39.3661 123.91C38.9693 124.147 38.4656 124.027 38.2352 123.641C38.0047 123.254 38.1401 122.748 38.5345 122.512ZM30.0121 131.993C30.4065 131.757 30.9126 131.879 31.1407 132.265C31.3688 132.652 31.2381 133.158 30.8437 133.394C30.4493 133.631 29.9432 133.511 29.7127 133.125C29.4823 132.738 29.6153 132.232 30.0121 131.996V131.993ZM33.4905 129.908C33.8849 129.671 34.3933 129.793 34.6214 130.177C34.8495 130.562 34.7188 131.07 34.322 131.306C33.9276 131.542 33.4216 131.421 33.1935 131.034C32.963 130.647 33.0961 130.142 33.4905 129.905V129.908ZM36.9688 127.819C37.3632 127.583 37.8717 127.705 38.0997 128.089C38.3278 128.473 38.1972 128.982 37.8004 129.218C37.406 129.454 36.8999 129.333 36.6718 128.946C36.4437 128.559 36.5744 128.053 36.9688 127.817V127.819ZM40.4495 125.731C40.8439 125.495 41.3524 125.617 41.5805 126.001C41.8086 126.385 41.6779 126.894 41.2811 127.13C40.8867 127.366 40.3806 127.247 40.1502 126.86C39.9197 126.474 40.0551 125.968 40.4495 125.731ZM31.9271 135.213C32.3215 134.977 32.8276 135.098 33.0557 135.485C33.2838 135.871 33.1531 136.377 32.7587 136.614C32.3643 136.85 31.8582 136.731 31.6277 136.344C31.3973 135.957 31.5303 135.451 31.9271 135.215V135.213ZM35.4031 133.125C35.7975 132.888 36.3059 133.01 36.534 133.394C36.7621 133.779 36.6314 134.287 36.2346 134.523C35.8402 134.759 35.3342 134.638 35.1061 134.251C34.8756 133.864 35.0087 133.358 35.4031 133.122V133.125ZM38.8838 131.036C39.2782 130.8 39.7866 130.922 40.0147 131.306C40.2428 131.69 40.1121 132.199 39.7154 132.435C39.321 132.671 38.8149 132.549 38.5868 132.163C38.3563 131.776 38.4894 131.27 38.8838 131.034V131.036ZM42.3621 128.948C42.7565 128.712 43.265 128.834 43.4931 129.218C43.7212 129.602 43.5905 130.11 43.1937 130.347C42.7993 130.583 42.2932 130.464 42.0628 130.077C41.8323 129.69 41.9677 129.185 42.3621 128.948ZM33.8397 138.43C34.2341 138.193 34.7402 138.315 34.9683 138.702C35.1964 139.088 35.0657 139.594 34.6713 139.831C34.2769 140.067 33.7684 139.945 33.538 139.559C33.3075 139.172 33.4406 138.666 33.8373 138.43H33.8397ZM37.3181 136.342C37.7125 136.105 38.2209 136.227 38.449 136.611C38.6771 136.995 38.5464 137.504 38.152 137.742C37.7576 137.981 37.2515 137.857 37.0211 137.47C36.7906 137.084 36.9237 136.578 37.3181 136.342ZM40.7988 134.253C41.1932 134.017 41.7016 134.139 41.9297 134.523C42.1578 134.907 42.0271 135.416 41.6327 135.654C41.2383 135.893 40.7323 135.769 40.5018 135.382C40.2713 134.996 40.4044 134.49 40.7988 134.253ZM44.2771 132.165C44.6715 131.929 45.18 132.051 45.4081 132.435C45.6362 132.819 45.5055 133.327 45.1111 133.566C44.7167 133.805 44.2082 133.681 43.9778 133.294C43.7473 132.907 43.8827 132.402 44.2771 132.165ZM29.2114 138.707C28.9738 138.306 29.0879 137.793 29.468 137.566C29.8482 137.339 30.3495 137.48 30.5895 137.881C30.8294 138.282 30.7154 138.792 30.3352 139.019C29.9551 139.246 29.4538 139.107 29.2138 138.707H29.2114ZM27.1064 135.165C26.8688 134.764 26.9828 134.253 27.363 134.024C27.7431 133.798 28.2444 133.938 28.482 134.339C28.7196 134.74 28.6079 135.253 28.2278 135.48C27.8476 135.707 27.344 135.566 27.1064 135.165ZM24.9989 131.624C24.7613 131.223 24.8754 130.712 25.2555 130.483C25.6357 130.256 26.137 130.397 26.3746 130.798C26.6122 131.199 26.5005 131.712 26.1204 131.939C25.7402 132.165 25.2389 132.027 24.9989 131.624ZM45.3368 129.029C45.0992 128.628 45.2132 128.115 45.5934 127.889C45.9735 127.662 46.4749 127.803 46.7148 128.204C46.9524 128.605 46.8408 129.115 46.4606 129.342C46.0805 129.569 45.5791 129.43 45.3392 129.029H45.3368ZM43.2294 125.488C42.9918 125.087 43.1058 124.576 43.486 124.347C43.8661 124.12 44.3674 124.261 44.605 124.662C44.8426 125.063 44.7309 125.576 44.3508 125.803C43.9706 126.03 43.4669 125.889 43.2294 125.488ZM41.1219 121.946C40.8843 121.545 40.9984 121.035 41.3785 120.806C41.7587 120.579 42.26 120.72 42.4976 121.121C42.7375 121.524 42.6235 122.035 42.2433 122.261C41.8632 122.488 41.3619 122.35 41.1219 121.946Z" fill="#F7F4ED"/>
<path fill-rule="evenodd" clip-rule="evenodd" d="M121.287 204.068C121.237 203.958 121.23 203.83 121.278 203.708C122.131 201.61 123.518 200.3 124.941 199.51C124.925 197.696 124.958 196.336 124.929 194.632C124.53 194.945 124.096 195.157 123.635 195.202C122.886 195.279 122.325 194.992 122.076 194.592C121.81 194.167 121.817 193.544 122.42 192.919C123.14 192.172 123.993 191.527 124.785 191.029C124.758 190.609 124.73 190.162 124.697 189.687C124.68 189.442 124.865 189.227 125.11 189.208C125.355 189.191 125.569 189.377 125.588 189.623C125.599 189.785 125.609 189.943 125.621 190.098C125.652 190.117 125.683 190.138 125.709 190.167L125.925 190.384C125.999 190.348 126.07 190.315 126.136 190.282C126.526 190.1 126.856 189.986 127.084 189.936L127.189 189.869L127.334 189.814L127.488 189.795L127.638 189.811L127.776 189.857L127.892 189.926L127.987 190.01L127.992 190.014C128.256 189.99 128.522 190 128.788 190.038C128.757 189.747 128.729 189.456 128.707 189.158C128.688 188.912 128.873 188.697 129.118 188.678C129.363 188.659 129.577 188.845 129.596 189.091C129.627 189.492 129.665 189.89 129.712 190.282C130.164 190.451 130.606 190.687 131.024 190.964C132.53 191.959 133.72 193.458 133.939 193.902C134.129 194.286 134.143 194.584 134.086 194.771L133.996 194.959L133.844 195.112L133.63 195.214C133.542 195.241 133.44 195.253 133.321 195.248C133.036 195.234 132.599 195.09 132.052 194.782C131.549 194.501 130.933 194.076 130.237 193.508C130.653 195.589 131.131 197.455 131.321 199.014C133.276 199.897 134.174 201.331 134.984 202.62C135.046 202.717 135.065 202.83 135.046 202.932C135.079 203.123 134.987 203.319 134.806 203.41C133.423 204.106 132.017 204.596 128.828 204.798C125.813 204.989 123.228 204.717 121.691 204.627C121.446 204.61 121.256 204.4 121.273 204.152C121.273 204.118 121.28 204.09 121.287 204.059V204.068ZM125.832 195.907C125.835 196.758 125.83 197.57 125.83 198.47C126.509 197.758 127.037 197.195 127.457 196.739C126.989 196.446 126.46 196.162 125.832 195.907ZM126.802 198.744C128.097 198.376 129.223 198.372 129.75 198.496C129.788 198.505 129.826 198.513 129.867 198.522C129.325 198.135 128.809 197.692 128.206 197.248C127.838 197.646 127.379 198.135 126.804 198.742L126.802 198.744ZM125.799 193.742C125.809 194.033 125.816 194.315 125.818 194.589C126.274 194.078 126.726 193.549 127.175 193.016C126.992 192.826 126.816 192.635 126.635 192.439C126.429 192.816 126.184 193.219 125.908 193.594C125.873 193.642 125.835 193.692 125.799 193.74V193.742ZM124.842 192.064C124.233 192.48 123.606 192.983 123.062 193.546C122.843 193.773 122.736 193.966 122.834 194.119C122.943 194.296 123.216 194.348 123.547 194.315C124.06 194.262 124.507 193.897 124.899 193.437C124.884 193.007 124.865 192.554 124.842 192.064ZM134.036 202.796C133.181 201.446 132.133 199.973 129.548 199.367C128.403 199.1 124.098 199.584 122.223 203.772C123.765 203.88 126.098 204.083 128.774 203.913C131.494 203.739 132.841 203.355 134.039 202.796H134.036ZM127.277 191.174C127.225 191.282 127.153 191.427 127.07 191.597C127.303 191.85 127.522 192.088 127.752 192.329C127.925 192.122 128.097 191.916 128.268 191.711C128.085 191.527 127.902 191.336 127.714 191.136C127.636 191.162 127.548 191.177 127.462 191.181C127.4 191.184 127.336 191.181 127.277 191.172V191.174ZM128.895 190.967C128.85 190.957 128.807 190.947 128.762 190.94L128.845 191.024L128.895 190.964V190.967ZM129.976 192.112C130.995 193.036 131.879 193.68 132.547 194.043C132.777 194.169 132.977 194.26 133.143 194.312V194.303C132.946 193.911 131.867 192.601 130.532 191.716C130.311 191.57 130.08 191.434 129.848 191.317C129.888 191.585 129.931 191.85 129.974 192.112H129.976ZM130.204 197.672C130.078 196.997 129.921 196.279 129.755 195.522C129.503 195.804 129.23 196.119 128.797 196.596C129.299 196.971 129.745 197.338 130.202 197.67L130.204 197.672ZM129.413 193.902C129.325 193.468 129.237 193.021 129.156 192.57C129.073 192.494 128.99 192.417 128.909 192.339C128.736 192.546 128.56 192.756 128.382 192.969C128.679 193.258 129.014 193.563 129.413 193.904V193.902ZM125.704 191.52C125.716 191.759 125.73 191.99 125.74 192.215C125.83 192.055 125.915 191.9 125.994 191.749C125.915 191.666 125.835 191.58 125.749 191.492L125.702 191.518L125.704 191.52ZM127.807 193.651C127.365 194.179 126.916 194.701 126.467 195.205C127.082 195.477 127.602 195.775 128.063 196.078C128.576 195.513 128.876 195.167 129.156 194.854C128.612 194.403 128.184 194.014 127.807 193.651ZM129.178 47.4442C129.567 49.1458 129.406 50.6445 129.32 52.2601C129.308 52.5059 129.097 52.6968 128.852 52.6825C128.605 52.6706 128.417 52.4582 128.429 52.2124C128.51 50.6683 128.681 49.2341 128.299 47.6017C128.253 47.406 128.265 47.2437 128.332 46.9049C128.443 46.3369 128.707 45.0768 128.788 41.2012C128.793 40.9554 128.997 40.7573 129.244 40.7621C129.489 40.7669 129.686 40.9721 129.681 41.2203C129.62 44.1676 129.453 45.6424 129.325 46.4467C129.871 46.2009 130.266 45.9765 131.069 45.3704C131.266 45.2224 131.546 45.2606 131.694 45.4587C131.841 45.6567 131.803 45.936 131.606 46.0863C130.572 46.8691 130.161 47.0648 129.363 47.4108C129.304 47.4371 129.242 47.449 129.18 47.4466L129.178 47.4442ZM114.744 30.202C109.572 30.4883 105.623 29.5743 102.14 25.8013C101.973 25.6199 101.983 25.336 102.163 25.1689C102.344 25.0018 102.627 25.0114 102.793 25.1928C106.207 28.8918 110.104 29.6388 115.264 29.2736C115.509 29.2569 115.723 29.4431 115.742 29.6889C115.742 29.7127 115.742 29.7366 115.742 29.7581C115.747 29.8034 115.742 29.8512 115.732 29.8989C114.67 34.4666 114.665 34.8246 114.563 36.9581C114.551 37.2039 114.342 37.3948 114.098 37.3829C113.853 37.3709 113.663 37.1609 113.675 36.9151C113.775 34.815 113.779 34.3974 114.746 30.2043L114.744 30.202ZM93.0874 66.5885C93.1587 66.7197 93.161 66.8868 93.0826 67.0252C92.9591 67.24 92.6859 67.3116 92.4744 67.1899C91.5787 66.6696 86.4372 63.6841 80.5734 62.0924C80.3358 62.0279 80.1956 61.7821 80.2598 61.5435C80.3239 61.3048 80.5687 61.164 80.8063 61.2285C85.9858 62.6341 90.6141 65.1089 92.3413 66.0849C92.6882 65.3499 93.0137 64.6674 93.3202 64.0278C93.287 63.9992 93.2585 63.9657 93.2323 63.9276C90.8255 60.2023 88.1692 57.7967 88.0956 57.7156C87.9293 57.5342 87.9411 57.2502 88.1241 57.0832C88.3047 56.9161 88.5874 56.9304 88.7537 57.1118C88.8274 57.1929 91.3767 59.5054 93.7669 63.1114C96.8128 56.8493 97.8559 55.3434 98.83 51.6897C98.8941 51.4511 99.1389 51.3079 99.3764 51.3723C99.614 51.4368 99.7542 51.6826 99.6924 51.9212C98.8347 55.1406 97.9295 56.7109 95.67 61.2619C97.2452 59.6033 97.8226 58.8969 99.7328 56.7419C99.8944 56.5581 100.177 56.5414 100.362 56.7061C100.545 56.8708 100.562 57.1548 100.398 57.3385C97.8559 60.207 97.6634 60.5197 94.3823 63.887C93.9855 64.7079 93.5554 65.6052 93.0898 66.5932L93.0874 66.5885ZM160.656 67.5454C160.333 67.6982 160.046 67.8557 159.806 67.9917C161.067 68.7339 161.086 68.6074 162.944 69.3162C163.821 69.6503 164.234 70.1228 164.439 70.5238C164.664 70.9629 164.65 71.3399 164.643 71.4569C164.633 71.7027 164.427 71.896 164.18 71.8864C163.935 71.8769 163.742 71.6669 163.752 71.4211C163.754 71.3614 163.761 71.1633 163.645 70.9342C163.507 70.6669 163.213 70.3758 162.626 70.1539C160.411 69.309 160.716 69.6002 158.691 68.3664C158.546 68.2781 158.466 68.1182 158.477 67.9511C158.489 67.7841 158.596 67.6361 158.751 67.5717C158.948 67.4882 159.535 67.092 160.34 66.7173C160.392 66.6768 160.454 66.6481 160.521 66.6362C161.359 66.2663 162.407 65.9441 163.488 66.0109C165.681 66.147 168.929 67.8342 169.929 68.6838C170.117 68.8437 170.141 69.1253 169.984 69.3138C169.825 69.5023 169.542 69.5262 169.357 69.3687C168.435 68.5883 165.451 67.0324 163.434 66.9059C163.013 66.8796 162.6 66.9226 162.205 67.0061C163.683 67.3808 164.752 67.7364 165.6 68.4666C166.563 69.2947 168.478 71.9652 168.706 72.285C168.851 72.4854 168.803 72.7647 168.604 72.9102C168.404 73.0534 168.126 73.0081 167.981 72.8076C167.763 72.4998 165.943 69.9391 165.021 69.1468C164.023 68.2876 162.678 68.0371 160.656 67.5478V67.5454ZM34.8512 202.651C34.7681 202.722 34.6588 202.763 34.5423 202.756C32.7319 202.67 30.8502 201.617 29.3652 200.317C27.8755 199.009 26.7945 197.455 26.545 196.436C26.1316 194.754 26.4262 193.036 27.1865 191.169C27.9183 189.382 29.0825 187.449 30.4368 185.268C30.5674 185.058 30.843 184.993 31.0497 185.124C31.2588 185.256 31.323 185.53 31.1923 185.743C29.8713 187.874 28.7285 189.761 28.0133 191.508C27.7163 192.234 27.493 192.935 27.3671 193.62C28.1107 193.296 29.6361 192.787 31.4465 193.2L31.7506 192.826L31.7625 192.814C34.8037 189.079 35.7493 187.754 38.2963 184.743C37.8853 184.738 37.5146 184.726 37.1867 184.685C36.158 184.559 35.4903 184.184 35.1482 183.237C35.0033 182.836 35.0484 182.523 35.1862 182.28C35.3169 182.048 35.5521 181.869 35.8681 181.755C36.885 181.392 38.9734 181.764 39.1896 181.807C39.7171 181.907 40.1614 182.012 40.551 182.122C40.9193 181.697 41.3185 181.242 41.7461 180.755C41.9077 180.569 42.1904 180.552 42.3758 180.714C42.5587 180.877 42.5777 181.161 42.4161 181.347C42.0811 181.728 41.7651 182.086 41.4681 182.43C42.3853 182.798 42.9412 183.222 43.7086 183.74C43.7775 183.786 43.8274 183.848 43.8631 183.917C43.9938 184.029 44.1529 184.203 44.324 184.428C44.7065 183.874 44.9964 183.459 45.2269 183.132C45.3694 182.931 45.6474 182.884 45.8493 183.027C46.0489 183.17 46.0964 183.449 45.9539 183.652C45.6854 184.031 45.3385 184.528 44.8562 185.227C44.9227 185.337 44.9869 185.454 45.051 185.573C45.6925 186.771 46.2723 188.406 46.2176 189.881C46.1796 190.895 45.8945 191.589 45.5547 191.969C45.2435 192.317 44.8752 192.449 44.5283 192.403C43.9652 192.334 43.578 191.821 43.4021 190.94C43.2382 190.129 43.2216 188.957 43.1123 187.766C42.725 188.334 42.2902 188.969 41.8008 189.68C38.2274 194.904 37.0632 197.544 36.7163 198.331C36.6997 198.369 36.6807 198.4 36.6569 198.429L36.6617 198.47C36.8636 200.207 36.0178 201.737 35.0128 202.57C34.9653 202.61 34.9106 202.639 34.8536 202.653L34.8512 202.651ZM27.2506 194.656C27.234 195.186 27.2839 195.706 27.4098 196.224C27.6308 197.128 28.6263 198.482 29.9497 199.644C31.2517 200.782 32.8792 201.739 34.4663 201.858C35.2646 201.183 35.9323 199.961 35.7707 198.575C35.659 197.615 35.1506 196.591 34.0505 195.601C30.8977 192.771 27.7995 194.391 27.3433 194.623C27.3124 194.639 27.2815 194.649 27.2483 194.656H27.2506ZM32.4088 193.503C33.1334 193.794 33.889 194.25 34.6445 194.933C35.2979 195.52 35.7683 196.121 36.0914 196.718C36.2506 195.31 36.3053 194.358 36.2269 192.759C35.2219 192.978 34.243 193.191 32.4064 193.506L32.4088 193.503ZM39.1017 185.17C38.4911 185.89 37.9732 186.513 37.498 187.093C38.1537 187.007 38.5909 187.041 39.3227 187.043C39.268 186.454 39.1968 185.867 39.0994 185.17H39.1017ZM35.9418 189.024C35.1577 190.007 34.338 191.05 33.2023 192.453C34.5115 192.217 35.324 192.038 36.177 191.852C36.1247 191.079 36.0463 190.165 35.9441 189.024H35.9418ZM39.8953 182.872C39.6316 182.807 39.3417 182.745 39.021 182.683C38.8594 182.652 37.4861 182.385 36.5334 182.514C36.3552 182.538 36.1936 182.573 36.0677 182.638C36.0178 182.664 35.9703 182.685 35.956 182.733C35.9394 182.786 35.956 182.85 35.9869 182.929C36.2696 183.714 36.9444 183.807 37.9399 183.841C38.2773 183.852 38.6503 183.852 39.0542 183.852C39.3179 183.545 39.5983 183.22 39.8977 182.874L39.8953 182.872ZM42.5136 184.936C41.5632 184.805 40.7055 184.762 39.9428 184.75C40.0664 185.618 40.1543 186.32 40.2184 187.026C40.7673 187.003 41.4586 186.955 42.3758 186.857C42.4613 186.847 42.5444 186.864 42.6157 186.898L42.9293 186.439C42.8391 185.948 42.7155 185.473 42.5421 185.043C42.5254 185.007 42.5183 184.972 42.5112 184.934L42.5136 184.936ZM40.2208 183.862C40.9241 183.879 41.7034 183.924 42.5611 184.039C42.0574 183.702 41.5703 183.409 40.8385 183.151C40.6223 183.399 40.418 183.635 40.2232 183.862H40.2208ZM43.7847 185.198C43.7585 185.16 43.7324 185.122 43.7039 185.086C43.654 185.139 43.6017 185.182 43.5447 185.218C43.5685 185.294 43.5898 185.37 43.6112 185.449L43.7823 185.201L43.7847 185.198ZM43.8607 186.664C44.0365 187.859 44.0674 189.115 44.1743 190.1C44.2218 190.558 44.286 190.952 44.4048 191.236C44.4642 191.377 44.5141 191.496 44.6353 191.511C44.7683 191.527 44.8752 191.408 44.9845 191.239C45.1746 190.938 45.3005 190.47 45.3243 189.842C45.3718 188.542 44.8538 187.108 44.2884 186.041L43.8607 186.664ZM37.1036 195.522C37.5811 194.646 38.2226 193.539 39.0803 192.176C38.2797 192.324 37.6595 192.451 37.1107 192.565C37.1772 193.775 37.1701 194.623 37.1036 195.522ZM40.4085 190.134C40.6176 189.823 40.8338 189.501 41.0595 189.172C41.3992 188.675 41.7105 188.22 42.0027 187.795C41.2971 187.864 40.7435 187.898 40.2897 187.914C40.3348 188.556 40.3705 189.258 40.4085 190.134ZM39.3987 187.926C38.4412 187.919 37.9898 187.859 36.7567 188.139C36.8921 189.597 36.9895 190.733 37.0584 191.663C37.7213 191.525 38.4935 191.37 39.5627 191.179C39.508 189.785 39.4629 188.804 39.4011 187.926H39.3987ZM43.3546 184.678C43.3546 184.678 43.3665 184.681 43.3736 184.678C43.3618 184.666 43.3499 184.654 43.338 184.645C43.338 184.645 43.3499 184.666 43.3546 184.678ZM101.622 100.455C100.12 100.376 100.089 100.367 98.4974 100.452C98.2526 100.467 98.0412 100.276 98.0293 100.03C98.015 99.7843 98.2051 99.5719 98.4498 99.5599C100.144 99.4692 100.12 99.4812 101.836 99.5719C104.34 97.7725 104.359 97.7558 106.998 95.9134C107.2 95.7726 107.478 95.8227 107.619 96.0256C107.759 96.2284 107.709 96.5076 107.507 96.6484C104.922 98.4526 104.853 98.5027 102.494 100.2C102.767 102.922 102.629 102.97 102.762 106.44C102.772 106.686 102.579 106.896 102.334 106.905C102.09 106.915 101.881 106.722 101.871 106.476C101.74 103.106 101.871 102.992 101.624 100.457L101.622 100.455ZM89.2788 77.8311C89.0364 77.7834 88.8773 77.5495 88.9248 77.3061C88.9723 77.0627 89.2051 76.9052 89.4475 76.9505C92.7381 77.5877 92.7144 77.614 95.9741 78.4468C96.2117 78.5089 96.3567 78.7523 96.2973 78.9909C96.2379 79.2296 95.9931 79.3752 95.7555 79.3155C92.5195 78.4898 92.5457 78.4612 89.2788 77.8287V77.8311ZM86.202 84.6517C85.9644 84.5872 85.8218 84.3414 85.886 84.1028C85.9501 83.8641 86.1948 83.7209 86.4324 83.7854C89.8633 84.7042 95.1235 86.1909 104.789 86.3604C105.034 86.3651 105.231 86.568 105.226 86.8162C105.221 87.0644 105.017 87.2601 104.772 87.2553C94.9929 87.0835 89.6732 85.58 86.202 84.6517ZM83.4174 29.2116C83.4839 29.4502 83.3461 29.696 83.1085 29.7629C82.8709 29.8297 82.6238 29.6913 82.5573 29.4526C82.2746 28.4384 82.3459 27.6795 82.612 27.1067C83.0135 26.2428 83.8855 25.7727 84.8572 25.5173C85.8004 25.2715 86.8316 25.2262 87.4707 25.1092C88.547 24.9112 93.1444 23.5413 92.3033 18.3364C92.2629 18.093 92.4293 17.8615 92.6716 17.8233C92.9139 17.7828 93.1444 17.9498 93.1848 18.1932C94.1542 24.1809 88.8701 25.7631 87.6323 25.9922C87.0098 26.1068 86.0024 26.1474 85.0805 26.386C84.3749 26.5698 83.712 26.8609 83.4198 27.4862C83.2226 27.9062 83.2083 28.4646 83.415 29.2092L83.4174 29.2116ZM107.935 35.0847C107.792 34.8818 107.839 34.6026 108.041 34.4618C108.241 34.3186 108.521 34.3664 108.662 34.5692C111.289 38.3016 111.249 38.3088 114.15 41.8551C114.307 42.046 114.278 42.3276 114.088 42.4851C113.898 42.6426 113.618 42.614 113.461 42.4231C110.539 38.8505 110.579 38.8434 107.935 35.0847ZM112.648 16.2721C113.009 16.2721 113.304 16.7542 113.304 17.3461C113.304 17.9379 113.009 18.42 112.648 18.42C112.287 18.42 111.993 17.9379 111.993 17.3461C111.993 16.7542 112.287 16.2721 112.648 16.2721ZM118.524 16.0359C118.826 16.0359 119.07 16.475 119.07 17.0143C119.07 17.5537 118.826 17.9928 118.524 17.9928C118.222 17.9928 117.978 17.5537 117.978 17.0143C117.978 16.475 118.222 16.0359 118.524 16.0359ZM96.0787 4.85527C96.2521 4.68106 96.5348 4.68106 96.7083 4.85527C96.8817 5.02948 96.8817 5.31347 96.7059 5.48768C93.9879 8.20349 93.5246 13.6279 95.373 19.0691C95.4514 19.303 95.3279 19.5583 95.095 19.6371C94.8622 19.7158 94.608 19.5917 94.5296 19.3578C92.5528 13.5396 93.1705 7.75722 96.0787 4.8505V4.85527ZM102.667 9.5232C102.548 9.30604 102.627 9.03398 102.843 8.91465C103.059 8.79533 103.33 8.87408 103.449 9.09125C103.964 10.0315 104.663 11.8285 105.205 12.9382C105.314 13.1602 105.221 13.4275 105 13.5372C104.779 13.647 104.513 13.554 104.404 13.332C103.867 12.2342 103.178 10.4539 102.667 9.5232ZM98.236 18.914C98.0055 18.828 97.8867 18.5703 97.9723 18.3388C98.0554 18.1073 98.312 17.988 98.5449 18.0739C101.002 18.9808 101.508 20.1549 102.218 21.3744C102.342 21.5868 102.27 21.8613 102.059 21.9877C101.847 22.1118 101.574 22.0402 101.448 21.8278C100.826 20.7563 100.393 19.711 98.236 18.914ZM114.922 15.3008C114.865 15.0598 115.012 14.8188 115.252 14.7615C115.492 14.7042 115.732 14.8522 115.789 15.0932C116.276 17.148 116.93 17.8591 118.415 19.7731C118.533 19.9282 118.541 20.143 118.427 20.3053L117.075 22.2455C116.934 22.4483 116.654 22.4961 116.452 22.3553C116.25 22.2144 116.203 21.9328 116.343 21.7324L117.507 20.0642C116.063 18.2052 115.419 17.4081 114.92 15.3032L114.922 15.3008ZM113.456 26.0758C113.219 26.1426 112.971 26.0042 112.905 25.7679C112.836 25.5293 112.974 25.2834 113.211 25.2142C115.117 24.6701 115.122 24.7322 116.371 24.6152C116.616 24.5914 116.835 24.7727 116.856 25.0186C116.88 25.2644 116.697 25.4839 116.455 25.5054C115.271 25.6152 115.264 25.5579 113.456 26.0758ZM109.545 24.842C109.562 24.8085 109.574 24.7751 109.588 24.7393C109.712 24.4052 109.745 24.0043 109.752 23.9399C109.773 23.6941 109.992 23.5127 110.237 23.5342C110.481 23.558 110.662 23.7752 110.638 24.021C110.629 24.1212 110.558 24.8205 110.322 25.2811C110.168 25.5818 109.942 25.787 109.678 25.8514L109.534 25.8729L109.386 25.861L109.248 25.8204L109.13 25.756C108.982 25.6581 108.84 25.4791 108.735 25.2357C108.467 24.6105 108.388 23.453 108.381 23.317C108.365 23.0712 108.552 22.8588 108.799 22.8421C109.044 22.8278 109.256 23.0163 109.27 23.2621C109.277 23.3623 109.32 24.1117 109.479 24.6606C109.495 24.7179 109.522 24.7823 109.548 24.8396L109.545 24.842ZM113.779 13.9048C114.022 13.9453 114.186 14.1768 114.145 14.4202C114.105 14.6637 113.874 14.8283 113.632 14.7878C112.237 14.5539 112.256 14.4918 109.945 14.4202C109.697 14.4131 109.505 14.2055 109.512 13.9597C109.522 13.7115 109.726 13.5182 109.971 13.5253C112.361 13.6017 112.342 13.6637 113.779 13.9048ZM117.193 14.561C116.956 14.6302 116.709 14.4942 116.64 14.2556C116.571 14.0193 116.706 13.7687 116.944 13.6995C118.016 13.3869 117.997 13.3225 119.12 13.2509C119.365 13.2342 119.579 13.4227 119.593 13.6685C119.61 13.9143 119.422 14.1291 119.177 14.1434C118.153 14.2078 118.172 14.2723 117.196 14.5587L117.193 14.561ZM93.8501 71.1562C93.6125 71.0989 93.4628 70.8579 93.5174 70.6192C93.5721 70.3782 93.812 70.2278 94.052 70.2851C97.2096 71.0249 98.7326 70.8889 101.291 70.4689C101.534 70.4283 101.764 70.5953 101.805 70.8388C101.843 71.0822 101.679 71.3137 101.436 71.3519C98.7563 71.791 97.1597 71.9294 93.8501 71.1562ZM111.468 73.0152C111.28 73.1751 110.997 73.1513 110.84 72.9603C110.681 72.7718 110.705 72.4878 110.893 72.3303C115.492 68.4356 115.134 68.0919 119.992 62.7105C120.159 62.5267 120.441 62.5124 120.622 62.6794C120.805 62.8465 120.817 63.1281 120.653 63.3119C115.751 68.7411 116.11 69.0871 111.468 73.0152ZM116.749 70.4498C116.566 70.6168 116.286 70.6025 116.12 70.4211C115.953 70.2374 115.967 69.9558 116.15 69.7887C118.353 67.7769 118.322 67.765 120.32 65.5527C120.486 65.369 120.769 65.3571 120.95 65.5217C121.133 65.6888 121.147 65.9704 120.981 66.1541C118.954 68.3998 118.985 68.4093 116.752 70.4522L116.749 70.4498ZM115.233 76.7501C115.022 76.8765 114.749 76.8073 114.623 76.5949C114.497 76.3825 114.568 76.1081 114.777 75.9816C117.058 74.6189 122.309 70.3042 125.932 65.4358C126.079 65.2377 126.36 65.1972 126.555 65.3451C126.752 65.4931 126.792 65.7747 126.645 65.9728C122.941 70.9509 117.566 75.3587 115.233 76.7524V76.7501ZM124.63 62.8727C124.4 62.9563 124.143 62.8369 124.058 62.6055C123.974 62.374 124.093 62.1162 124.324 62.0327C125.234 61.701 126.913 60.7798 127.669 58.7752C127.757 58.5437 128.013 58.4267 128.244 58.515C128.474 58.6033 128.588 58.8611 128.503 59.0926C127.626 61.417 125.683 62.4885 124.628 62.8727H124.63ZM85.9953 78.065C86.1117 77.8478 86.3802 77.7643 86.5988 77.8812C86.815 77.9982 86.8981 78.2679 86.7817 78.4874C86.594 78.8382 86.2566 79.4802 84.0565 82.647C83.9163 82.8499 83.6384 82.9 83.4364 82.7568C83.2344 82.616 83.1846 82.3368 83.3271 82.1339C85.4797 79.0363 85.8123 78.411 85.9953 78.0674V78.065ZM65.6313 116.282C65.5291 116.506 65.2654 116.609 65.042 116.506C64.8187 116.406 64.7165 116.139 64.8187 115.914C65.4103 114.59 65.8688 111.893 65.5695 110.485C65.5172 110.244 65.6716 110.006 65.9116 109.953C66.1516 109.901 66.3892 110.056 66.4414 110.297C66.7717 111.848 66.287 114.821 65.6336 116.28L65.6313 116.282ZM68.1331 115.879C68.0404 116.108 67.7815 116.217 67.5534 116.124C67.3253 116.031 67.216 115.769 67.3087 115.542C67.8361 114.244 68.0761 111.6 67.8242 110.113C67.7838 109.869 67.9478 109.638 68.1901 109.597C68.4325 109.557 68.6629 109.722 68.7033 109.965C68.9765 111.588 68.7081 114.468 68.1331 115.881V115.879ZM70.4045 114.452C70.3142 114.681 70.0552 114.795 69.8248 114.704C69.5967 114.614 69.485 114.354 69.5729 114.125C70.0386 112.941 70.0148 111.686 69.7178 110.707C69.6442 110.471 69.7796 110.22 70.0125 110.149C70.25 110.077 70.4971 110.211 70.5684 110.447C70.9153 111.595 70.9462 113.065 70.4021 114.454L70.4045 114.452ZM73.8614 141.101C73.802 140.863 73.9446 140.619 74.1846 140.557C74.4222 140.497 74.6645 140.643 74.7263 140.882C74.9876 141.929 74.6859 142.629 74.2986 143.364C73.8353 144.244 73.258 145.194 73.9731 147.254C74.0539 147.487 73.9327 147.743 73.6999 147.824C73.467 147.905 73.2128 147.781 73.132 147.547C72.424 145.502 72.7947 144.375 73.2508 143.447C73.6215 142.695 74.1133 142.115 73.8614 141.099V141.101ZM77.1877 150.027C76.9525 150.101 76.703 149.969 76.6294 149.733C76.5557 149.499 76.6864 149.246 76.9216 149.172C79.1336 148.475 79.4829 148.063 80.7635 147.304C80.9749 147.177 81.2482 147.249 81.3741 147.461C81.5 147.674 81.4287 147.948 81.2173 148.074C79.8725 148.872 79.5043 149.299 77.1877 150.027ZM124.352 133.269C124.276 133.035 124.404 132.782 124.637 132.703C124.87 132.624 125.122 132.753 125.2 132.99C126.212 136.078 125.702 136.135 125.352 139.383C125.326 139.629 125.105 139.808 124.861 139.779C124.616 139.753 124.44 139.531 124.466 139.285C124.796 136.228 125.307 136.176 124.354 133.269H124.352ZM116.421 132.422C116.267 132.231 116.295 131.947 116.485 131.792C116.676 131.636 116.956 131.665 117.113 131.856C118.275 133.286 118.507 133.498 119.341 135.825C119.424 136.059 119.303 136.314 119.073 136.397C118.842 136.481 118.586 136.359 118.503 136.128C117.726 133.956 117.509 133.756 116.424 132.422H116.421ZM123.658 187.084C123.414 187.06 123.235 186.84 123.259 186.594C123.283 186.349 123.502 186.17 123.746 186.194C125.272 186.346 127.113 186.489 129.641 185.905C129.881 185.85 130.121 186 130.175 186.241C130.23 186.482 130.08 186.723 129.843 186.778C127.191 187.392 125.262 187.246 123.661 187.084H123.658ZM41.8934 176.204C41.8578 175.958 42.0265 175.731 42.2688 175.695C42.5112 175.66 42.7393 175.829 42.7749 176.073C43.2335 179.237 45.2744 180.425 46.8496 180.674C47.092 180.712 47.2583 180.941 47.2203 181.184C47.1822 181.43 46.9541 181.595 46.7118 181.557C44.8657 181.266 42.4304 179.91 41.8934 176.201V176.204ZM104.903 112.051C104.72 112.215 104.437 112.199 104.273 112.015C104.109 111.831 104.126 111.547 104.309 111.383C107.338 108.669 112.275 105.622 119.275 104.679C123.73 104.078 127.636 105.886 128.284 106.333C128.486 106.474 128.538 106.753 128.401 106.956C128.261 107.158 127.985 107.211 127.781 107.073C127.177 106.657 123.54 105.008 119.394 105.567C112.617 106.481 107.837 109.423 104.903 112.053V112.051ZM77.2329 110.325C77.0048 110.418 76.7458 110.309 76.6531 110.079C76.5581 109.85 76.6698 109.59 76.8955 109.495C79.3451 108.488 81.4739 107.586 90.0153 109.38C95.7841 110.59 97.1645 112.607 98.7825 114.182C98.9583 114.354 98.963 114.638 98.792 114.814C98.6209 114.991 98.3382 114.996 98.1624 114.824C96.6251 113.327 95.3136 111.406 89.8324 110.256C81.6283 108.533 79.585 109.356 77.2329 110.323V110.325ZM69.8865 105.495C70.0291 105.039 70.2999 104.481 70.7466 103.882C70.8939 103.684 71.1743 103.643 71.3715 103.791C71.5687 103.939 71.6091 104.221 71.4618 104.419C70.7822 105.33 70.6492 106.063 70.6231 106.548C70.452 106.283 70.2287 106.013 69.8865 105.497V105.495Z" fill="black"/>
<path fill-rule="evenodd" clip-rule="evenodd" d="M89.5526 7.94246C89.4291 8.15724 89.1559 8.22884 88.9444 8.10474C88.733 7.98064 88.6593 7.7062 88.7828 7.4938C89.1321 6.88526 89.5788 5.98794 90.9236 5.46531C91.154 5.37701 91.4106 5.49156 91.5009 5.72066C91.5888 5.95215 91.4748 6.20988 91.2467 6.30057C90.1704 6.7182 89.8354 7.45562 89.555 7.94246H89.5526ZM89.0252 9.01637C88.9349 9.24547 88.6759 9.36002 88.4478 9.26934C88.2174 9.17865 88.1057 8.91853 88.196 8.68943L88.2364 8.58442C88.3267 8.35532 88.5856 8.24077 88.8137 8.33146C89.0442 8.42214 89.1559 8.68227 89.0656 8.91137L89.0252 9.01637ZM109.216 1.69468C108.971 1.67559 108.788 1.45842 108.807 1.21262C108.826 0.96681 109.04 0.783052 109.287 0.802144C111.337 0.96681 113.264 1.68514 114.963 2.7686C115.17 2.89985 115.232 3.17668 115.101 3.38669C114.97 3.59431 114.695 3.65636 114.486 3.52511C112.906 2.5204 111.119 1.8498 109.216 1.69468ZM115.738 4.22196C115.533 4.08593 115.479 3.80671 115.614 3.60147C115.75 3.39624 116.028 3.34135 116.232 3.47738L116.365 3.56568C116.569 3.7017 116.624 3.98092 116.488 4.18616C116.353 4.39139 116.075 4.44628 115.871 4.31025L115.738 4.22196ZM19.5747 131.371C19.5129 131.609 19.2658 131.75 19.0306 131.686C18.793 131.621 18.6504 131.375 18.7146 131.137C19.6032 127.815 19.6982 127.755 21.3305 124.724C21.4469 124.507 21.7178 124.426 21.9363 124.543C22.1526 124.66 22.2333 124.932 22.1169 125.149C20.5322 128.087 20.4371 128.147 19.5771 131.368L19.5747 131.371ZM22.3783 123.34C22.5018 123.128 22.775 123.054 22.9889 123.18C23.2003 123.304 23.2716 123.579 23.1481 123.794L23.0673 123.93C22.9437 124.142 22.6705 124.214 22.4567 124.09C22.2452 123.965 22.1739 123.691 22.2975 123.476L22.3783 123.34Z" fill="#F7F4ED"/>
</svg>
