<svg width="171" height="217" viewBox="0 0 171 217" fill="none" xmlns="http://www.w3.org/2000/svg">
<ellipse cx="93.002" cy="201" rx="78" ry="16" fill="black" fill-opacity="0.14"/>
<path fill-rule="evenodd" clip-rule="evenodd" d="M25.2529 66.4153C33.3215 63.1792 39.6843 61.2486 43.2719 57.6092C43.1602 56.7835 43.1436 55.9077 43.1293 55.008C43.1246 54.7431 43.1198 54.4758 43.1175 54.2061C43.1079 53.7121 43.0889 53.2133 43.0486 52.7146L38.9382 48.9583C33.4546 52.8052 27.8664 56.793 22.2165 60.8644C23.825 62.4418 24.9868 64.2245 25.2577 66.4153H25.2529ZM17.0821 64.5729C17.0821 64.5729 11.1376 64.7591 7.83504 64.9476C5.0077 65.1099 2.60802 66.1981 0.512457 68.5679C-0.730149 69.9711 0.578987 70.6011 1.40818 69.8041C1.82872 69.3984 2.35617 69.0261 2.35617 69.0261L5.76325 67.1718C4.24028 68.4438 2.48923 70.9209 2.12572 72.2072C1.86436 73.1332 2.57714 73.6582 3.3113 72.9972C3.59166 72.7442 3.88627 72.2287 3.88627 72.2287C4.19038 73.6797 5.40924 72.854 5.71811 72.2574C6.33109 71.0808 6.97022 70.2599 8.70464 69.9783L7.80178 71.4388C7.80178 71.4388 7.09613 72.539 8.08927 72.434C9.59798 72.2717 11.1661 71.4961 12.7437 71.0045C14.6254 70.4174 16.4501 71.2598 19.3749 68.9163C18.9876 67.2792 18.2606 65.8139 17.0821 64.5705V64.5729ZM48.6248 184.03C48.7603 181.021 52.2267 162.712 53.3648 156.724C54.3057 151.777 54.8046 145.484 54.8046 145.484C56.2872 141.821 57.3896 138.222 58.1974 131.754L65.1113 113.305C60.4617 109.157 51.2051 106.009 44.8542 108.489C44.8733 110.78 44.9944 126.335 44.8709 131.459C44.7687 135.563 43.835 134.587 43.1602 139.558C42.4379 144.887 41.0457 147.684 41.0266 155.156C41.0076 163.504 43.6615 180.042 43.4049 183.39C44.9731 183.517 47.3038 183.844 48.6225 184.028L48.6248 184.03ZM127.539 173.456C126.31 171.733 122.575 166.473 120.917 163.852C118.363 159.824 115.319 152.681 111.957 148.937C108.857 145.484 100.524 141.026 100.524 141.026L94.4753 112.868C93.9503 112.584 93.4276 112.331 92.9049 112.109C85.6583 111.14 79.0627 113.627 74.7409 116.851C76.1641 119.851 82.8547 133.981 84.9954 138.806C88.6258 146.992 87.8489 145.603 90.8853 148.037C89.0772 146.741 107.115 163.91 110.812 166.583C111.221 166.879 120.596 175.98 122.946 178.264C125.037 177.582 126.638 175.751 127.541 173.453L127.539 173.456ZM52.3455 12.2734C52.3146 12.7913 52.2909 13.4667 52.4406 14.0466L52.2505 17.3232C52.2505 17.3232 52.0961 20.5903 52.6473 22.7572C53.2413 25.1031 55.2655 28.9787 56.7077 29.7949L56.7932 30.9571L55.736 31.1576C54.0301 37.6201 54.75 41.7201 56.4559 43.634C58.1618 45.548 63.0134 45.4358 65.52 43.856C68.383 42.0494 73.8333 33.4128 73.8333 33.4128C73.8333 33.4128 70.5902 33.0548 69.7468 31.6468C68.9057 30.2388 69.5852 25.0912 69.5852 25.0912C72.3603 24.7451 75.5393 21.8432 75.3943 18.989C75.2993 17.1514 73.8333 17.0798 73.8333 17.0798L73.8238 17.075C71.9231 16.8053 70.3265 18.3184 69.5638 20.4566C69.35 22.33 66.6058 24.3609 66.0831 24.3609C64.964 24.3609 65.2919 24.3537 65.8027 22.898C66.3397 21.3611 66.9242 19.335 66.5108 14.5668C64.218 15.0274 61.317 14.2614 60.1433 13.1373C57.4086 13.1373 55.1539 13.5765 52.3479 12.2758L52.3455 12.2734ZM111.945 106.386C111.953 106.346 111.96 106.308 111.967 106.267C110.537 103.673 105.813 102.162 103.501 100.148C101.375 100.272 98.8637 101.833 97.6828 103.539C97.4072 106.563 99.0965 108.026 100.087 109.508C99.757 110.543 99.5099 112.204 99.7689 113.033C100.308 114.779 101.921 114.235 101.921 114.235C102.404 116.209 103.732 116.457 104.419 116.011C105.219 117.175 106.547 117.147 106.837 116.114C108.161 118.128 109.536 117.638 109.698 116.302C109.767 115.72 109.144 114.414 108.812 113.491C108.396 112.341 108.073 109.596 107.322 109.491C106.381 109.357 106.008 110.269 106.008 110.269C105.968 109.863 105.626 109.181 104.915 109.186C104.39 109.19 103.803 109.873 103.803 109.873C103.803 109.873 103.715 109.059 103.109 109.045C102.473 109.03 102.188 109.417 102.066 109.804L101.819 109.625C101.75 109.398 101.653 109.178 101.515 109.028C101.392 108.894 101 108.649 100.655 108.73C100.406 108.386 100.432 107.84 100.75 107.401L102.33 105.207C102.708 104.682 103.354 104.506 103.775 104.811L108.688 108.377C108.465 109.99 108.182 113.35 109.707 113.431C111.145 113.507 111.632 108.615 111.972 106.377L111.95 106.384L111.945 106.386ZM101.128 94.5756C98.5097 87.5188 96.4687 79.4693 92.0757 73.4936L91.6171 65.7781L81.0158 70.1644C81.9732 73.422 84.0379 76.2356 84.8196 79.1805C87.0886 87.7432 91.7478 94.0506 94.808 98.4322C95.9603 96.0338 98.1319 94.6401 101.13 94.5756H101.128Z" fill="#E4572E"/>
<path fill-rule="evenodd" clip-rule="evenodd" d="M73.8323 33.4128C73.8323 33.4128 68.3843 42.0495 65.5189 43.856C63.0123 45.4383 58.1607 45.5504 56.4548 43.6341C54.7489 41.7201 54.029 37.6178 55.7349 31.1576L56.7922 30.9572L56.7446 30.3057C54.1882 29.3463 47.5427 27.2271 44.9078 30.0169C41.3012 33.8352 41.0279 43.4575 41.0279 43.4575L40.5242 45.1423L38.9348 48.9583L43.0451 52.7146C43.2352 55.0414 42.9334 57.3825 43.6818 59.2559C44.321 60.8549 44.6441 63.7616 45.5897 65.8163C46.5757 68.4391 45.6657 70.4246 46.6256 72.2312C46.6256 72.2312 46.0364 73.6869 46.1552 74.3026C46.4664 75.9135 47.0675 76.1044 47.0794 77.2762C47.0937 78.856 46.1884 83.3855 46.1884 83.3855C57.2127 88.705 74.3502 89.6954 86.37 85.3806C85.8544 83.197 85.6976 82.4572 84.3481 80.8487C84.3481 80.8487 84.2103 79.3238 83.9109 78.794C83.5997 78.2403 82.8014 77.4504 82.8014 77.4504L82.9629 74.8038L81.0099 70.2051L91.818 65.6994C92.0508 64.2413 92.305 62.4443 91.7134 61.1198C91.7134 61.1198 92.0366 49.3043 85.3222 39.5508C82.856 35.9664 78.4629 33.1957 73.837 33.4105L73.8323 33.4128ZM73.8323 33.4128L72.9223 33.2601C73.4545 33.3723 73.8323 33.4128 73.8323 33.4128ZM25.2518 66.4153C24.9833 64.2246 23.8191 62.4442 22.2107 60.8644C20.5047 62.0934 18.7941 63.3296 17.081 64.5706C18.2595 65.8116 18.9889 67.2792 19.3738 68.9164C21.4171 67.988 23.3796 67.1647 25.2518 66.4153ZM97.6794 103.542C98.8602 101.833 101.374 100.275 103.498 100.15C102.621 98.4131 101.851 96.5326 101.127 94.5757C98.1308 94.6401 95.9568 96.0314 94.8045 98.4322C96.3085 100.59 97.4275 102.279 97.6794 103.542ZM49.213 189.345C49.4933 188.533 49.51 187.708 49.3104 186.877C49.7547 186.051 50.4437 184.245 49.5409 184.152C48.7402 184.068 42.7576 183.142 41.8951 183.383C41.3226 183.543 41.4247 185.314 41.6789 186.409C41.3035 186.913 41.0636 188.154 41.5126 188.557L49.2154 189.345H49.213ZM131.132 175.973C130.707 175.434 130.439 175.047 129.253 174.649L127.934 172.255C126.993 175.73 124.553 178.491 121.229 178.553C121.8 179.887 122.978 180.462 123.872 181.088L124.682 182.67C127.747 183.916 131.18 180.532 131.132 175.971V175.973Z" fill="#F7F4ED"/>
<path fill-rule="evenodd" clip-rule="evenodd" d="M43.2705 109.268C43.8003 109.475 44.3325 109.681 44.8647 109.876C44.86 109.246 44.8552 108.771 44.8552 108.492C44.304 108.707 43.7742 108.965 43.2729 109.268H43.2705ZM65.1099 113.306L64.6585 114.511C65.2454 114.566 65.8346 114.611 66.4238 114.652C66.0437 114.196 65.6018 113.745 65.1099 113.306ZM73.8201 117.575C74.2976 117.797 74.8084 117.986 75.3502 118.143L74.7372 116.852C74.4188 117.088 74.1123 117.329 73.8201 117.575ZM92.9011 112.11C93.4238 112.332 93.9465 112.583 94.4716 112.869L94.7448 114.146C95.3435 113.745 95.9209 113.32 96.4768 112.869C95.2722 112.518 94.0772 112.268 92.8987 112.11H92.9011ZM127.537 173.454C127.689 173.068 127.82 172.667 127.932 172.256C127.601 172.38 127.288 172.526 126.986 172.683C127.202 172.987 127.388 173.247 127.537 173.457V173.454ZM122.08 177.428C121.797 177.802 121.514 178.179 121.229 178.554L122.058 178.48C122.362 178.432 122.657 178.361 122.945 178.265L122.08 177.428Z" fill="black"/>
<path fill-rule="evenodd" clip-rule="evenodd" d="M131.133 175.973C131.181 180.569 127.695 183.97 124.611 182.64C126.783 185.955 129.539 190.1 131.639 193.432C133.678 196.668 135.983 202.181 137.218 202.639C143.194 204.856 146.886 197.599 146.869 194.625C146.852 191.554 145.073 188.501 140.989 184.812C140.989 184.812 139.038 181.905 137.748 180.75C136.104 179.278 133.155 176.505 131.133 175.973ZM49.214 189.344L41.2499 188.528C41.2499 188.528 40.5609 192.943 39.449 195.059C37.7312 198.324 35.7901 202.937 37.8833 205.706C38.9738 207.149 49.0738 207.445 49.7438 206.295C50.364 205.233 51.4379 203.558 50.7702 199.794C50.5041 198.3 49.7367 195.57 49.7367 195.57C48.9218 193.31 49.0501 191.372 49.214 189.346V189.344ZM48.639 84.4609C46.2299 91.9902 44.3339 99.5124 43.2718 107.032C42.9749 107.679 43.02 108.579 43.2718 109.268C50.1763 105.104 62.1438 109.514 66.4252 114.655C67.157 114.206 67.5728 113.001 67.6868 111.822C68.4162 110.569 69.0482 108.591 69.6564 106.45L69.9297 106.209C70.7208 109.488 71.5738 112.669 72.9447 115.075C72.978 116.165 73.4104 116.611 73.8214 117.576C78.742 113.476 87.3119 110.192 96.4806 112.869C96.5922 111.901 96.4307 110.998 95.687 110.24C94.998 101.751 90.4933 93.5605 86.3687 85.3821C75.2066 89.389 59.6348 88.821 48.6414 84.4609H48.639Z" fill="#2E2E2E"/>
<path fill-rule="evenodd" clip-rule="evenodd" d="M76.909 19.5016C79.7031 24.432 82.7467 27.2529 86.8618 25.4272C89.6891 25.5966 92.3359 27.7134 91.4045 30.0092C95.7263 28.952 97.8504 18.5828 88.6057 17.6473C91.4378 17.1843 94.1416 16.5424 95.0706 20.3416C95.244 15.7835 93.8327 14.5521 87.4914 14.3444C84.1199 14.2323 85.3721 8.25178 82.3404 5.81042C78.6458 2.83927 75.7757 5.36415 75.7757 5.36415C73.4045 2.58153 69.7409 0.0470997 66.0439 0.00175676C60.748 -0.0602914 55.8275 1.51239 53.0025 6.13737C56.7921 4.89163 67.0893 6.83661 68.7834 9.61684C70.7673 9.6073 75.6973 12.0534 76.9162 14.3373L76.3459 16.7882C73.654 14.385 70.8005 13.3875 67.0466 12.4925C67.0466 12.4925 66.3694 14.0939 65.2314 14.0414C63.4637 13.9602 59.4175 10.9151 54.9151 10.7385C53.2282 10.674 51.7932 10.8077 50.7098 10.927C50.6694 11.4998 50.7715 11.9842 51.0519 12.3064C51.6625 13.0056 52.3254 12.2611 52.3254 12.2611C55.1408 13.5712 57.398 13.1321 60.1398 13.1321C61.3135 14.2585 64.2145 15.0246 66.5072 14.5616C66.9207 19.3298 66.3386 21.3559 65.7992 22.8928C65.2884 24.3485 64.9605 24.3533 66.0796 24.3557C66.5263 24.3557 68.5933 22.8737 69.3203 21.2747C69.4439 21.0003 69.5294 20.7235 69.5603 20.4514C70.323 18.3155 71.922 16.8001 73.8203 17.0698L73.8298 17.0746C73.8298 17.0746 75.2958 17.1462 75.3908 18.9837C75.5381 21.8356 72.3568 24.7399 69.5817 25.0859C69.5817 25.0859 69.4296 26.241 69.3584 27.6061C71.5204 25.4606 75.2982 24.3199 76.909 19.4968V19.5016Z" fill="black"/>
<path fill-rule="evenodd" clip-rule="evenodd" d="M76.9175 14.3398C75.6987 12.056 70.7687 9.60985 68.7848 9.61939C66.9553 6.61483 55.0971 4.58871 52.2317 6.49789C51.5308 6.96564 48.2687 10.7124 48.5396 10.9773C48.9221 11.352 51.3598 10.6026 54.9189 10.741C59.4213 10.9152 63.4675 13.9604 65.2351 14.0439C66.3732 14.0964 67.0503 12.4951 67.0503 12.4951C70.8043 13.39 73.6578 14.3899 76.3497 16.7907L76.9199 14.3398H76.9175Z" fill="#EBC74A"/>
<path fill-rule="evenodd" clip-rule="evenodd" d="M108.681 108.379L103.768 104.813C103.347 104.508 102.701 104.687 102.323 105.209L100.746 107.403C100.427 107.844 100.401 108.388 100.65 108.734C100.995 108.651 101.387 108.897 101.511 109.03C101.651 109.181 101.748 109.4 101.817 109.627L102.064 109.806C102.188 109.417 102.47 109.03 103.11 109.047C103.715 109.061 103.803 109.875 103.803 109.875C103.803 109.875 104.39 109.192 104.915 109.19C105.626 109.185 105.968 109.865 106.008 110.274C106.008 110.274 106.381 109.362 107.322 109.496C108.073 109.601 108.396 112.343 108.812 113.495C108.995 114.001 109.266 114.622 109.458 115.175L113.331 117.984C113.357 118.003 113.383 118.02 113.409 118.034L113.4 118.006L116.279 113.891L111.349 110.314C111 112.013 110.496 113.479 109.705 113.436C108.18 113.354 108.463 109.994 108.686 108.381L108.681 108.379Z" fill="#F7F4ED"/>
<path fill-rule="evenodd" clip-rule="evenodd" d="M119.275 132.922C122.967 140.542 131.653 146.284 140.209 146.284C149.986 146.284 155.914 138.788 153.44 129.557C151.034 120.569 141.544 113.229 132.024 112.844C131.765 112.835 128.816 112.949 127.707 113.181L116.276 113.89L113.397 118.004L118.186 130.161C118.474 131.103 118.84 132.024 119.275 132.922ZM118.049 123.085L115.644 117.72L116.93 115.913L123.045 115.775C120.403 117.596 118.436 120.763 118.049 123.085Z" fill="#2F1B14"/>
<path fill-rule="evenodd" clip-rule="evenodd" d="M145.817 125.56C145.423 125.323 144.917 125.445 144.689 125.832C144.461 126.218 144.591 126.724 144.986 126.96C145.38 127.197 145.886 127.077 146.117 126.691C146.347 126.304 146.214 125.798 145.817 125.562V125.56ZM142.339 123.471C141.945 123.235 141.439 123.354 141.208 123.741C140.978 124.128 141.111 124.634 141.508 124.87C141.902 125.106 142.408 124.984 142.636 124.598C142.864 124.211 142.734 123.705 142.339 123.469V123.471ZM138.861 121.383C138.466 121.147 137.96 121.266 137.73 121.653C137.499 122.039 137.632 122.545 138.029 122.782C138.424 123.018 138.93 122.896 139.158 122.51C139.386 122.123 139.255 121.617 138.861 121.381V121.383ZM135.38 119.295C134.986 119.059 134.48 119.178 134.249 119.565C134.019 119.951 134.152 120.457 134.548 120.693C134.945 120.93 135.449 120.81 135.679 120.424C135.91 120.037 135.774 119.531 135.38 119.295ZM143.902 128.776C143.508 128.54 143.002 128.662 142.774 129.049C142.546 129.435 142.676 129.941 143.071 130.177C143.465 130.414 143.971 130.294 144.202 129.908C144.432 129.521 144.299 129.015 143.902 128.779V128.776ZM140.426 126.691C140.032 126.454 139.524 126.576 139.296 126.96C139.067 127.345 139.198 127.853 139.595 128.089C139.989 128.325 140.495 128.204 140.723 127.817C140.954 127.43 140.821 126.925 140.426 126.688V126.691ZM136.946 124.603C136.551 124.366 136.043 124.488 135.815 124.872C135.587 125.256 135.717 125.765 136.114 126.001C136.509 126.237 137.015 126.116 137.243 125.729C137.473 125.342 137.34 124.836 136.946 124.6V124.603ZM133.467 122.512C133.073 122.276 132.565 122.397 132.336 122.782C132.108 123.166 132.239 123.674 132.636 123.91C133.033 124.147 133.536 124.027 133.767 123.641C133.997 123.254 133.862 122.748 133.467 122.512ZM141.99 131.993C141.595 131.757 141.089 131.879 140.861 132.265C140.633 132.652 140.764 133.158 141.158 133.394C141.553 133.631 142.059 133.511 142.289 133.125C142.52 132.738 142.387 132.232 141.99 131.996V131.993ZM138.511 129.908C138.117 129.671 137.609 129.793 137.381 130.177C137.152 130.562 137.283 131.07 137.68 131.306C138.074 131.542 138.58 131.421 138.808 131.034C139.039 130.647 138.906 130.142 138.511 129.905V129.908ZM135.033 127.819C134.639 127.583 134.13 127.705 133.902 128.089C133.674 128.473 133.805 128.982 134.202 129.218C134.596 129.454 135.102 129.333 135.33 128.946C135.558 128.559 135.428 128.053 135.033 127.817V127.819ZM131.552 125.731C131.158 125.495 130.65 125.617 130.421 126.001C130.193 126.385 130.324 126.894 130.721 127.13C131.115 127.366 131.621 127.247 131.852 126.86C132.082 126.474 131.947 125.968 131.552 125.731ZM140.075 135.213C139.68 134.977 139.174 135.098 138.946 135.485C138.718 135.871 138.849 136.377 139.243 136.614C139.638 136.85 140.144 136.731 140.374 136.344C140.605 135.957 140.472 135.451 140.075 135.215V135.213ZM136.599 133.125C136.204 132.888 135.696 133.01 135.468 133.394C135.24 133.779 135.371 134.287 135.767 134.523C136.162 134.759 136.668 134.638 136.896 134.251C137.126 133.864 136.993 133.358 136.599 133.122V133.125ZM133.118 131.036C132.724 130.8 132.215 130.922 131.987 131.306C131.759 131.69 131.89 132.199 132.287 132.435C132.681 132.671 133.187 132.549 133.415 132.163C133.646 131.776 133.513 131.27 133.118 131.034V131.036ZM129.64 128.948C129.245 128.712 128.737 128.834 128.509 129.218C128.281 129.602 128.411 130.11 128.808 130.347C129.203 130.583 129.709 130.464 129.939 130.077C130.17 129.69 130.034 129.185 129.64 128.948ZM138.162 138.43C137.768 138.193 137.262 138.315 137.034 138.702C136.806 139.088 136.936 139.594 137.331 139.831C137.725 140.067 138.234 139.945 138.464 139.559C138.694 139.172 138.561 138.666 138.165 138.43H138.162ZM134.684 136.342C134.289 136.105 133.781 136.227 133.553 136.611C133.325 136.995 133.456 137.504 133.85 137.742C134.244 137.981 134.75 137.857 134.981 137.47C135.211 137.084 135.078 136.578 134.684 136.342ZM131.203 134.253C130.809 134.017 130.3 134.139 130.072 134.523C129.844 134.907 129.975 135.416 130.369 135.654C130.764 135.893 131.27 135.769 131.5 135.382C131.731 134.996 131.598 134.49 131.203 134.253ZM127.725 132.165C127.33 131.929 126.822 132.051 126.594 132.435C126.366 132.819 126.496 133.327 126.891 133.566C127.285 133.805 127.794 133.681 128.024 133.294C128.255 132.907 128.119 132.402 127.725 132.165ZM142.791 138.707C143.028 138.306 142.914 137.793 142.534 137.566C142.154 137.339 141.652 137.48 141.412 137.881C141.173 138.282 141.287 138.792 141.667 139.019C142.047 139.246 142.548 139.107 142.788 138.707H142.791ZM144.896 135.165C145.133 134.764 145.019 134.253 144.639 134.024C144.259 133.798 143.758 133.938 143.52 134.339C143.282 134.74 143.394 135.253 143.774 135.48C144.154 135.707 144.658 135.566 144.896 135.165ZM147.003 131.624C147.241 131.223 147.127 130.712 146.746 130.483C146.366 130.256 145.865 130.397 145.627 130.798C145.39 131.199 145.501 131.712 145.882 131.939C146.262 132.165 146.763 132.027 147.003 131.624ZM126.665 129.029C126.903 128.628 126.789 128.115 126.409 127.889C126.028 127.662 125.527 127.803 125.287 128.204C125.05 128.605 125.161 129.115 125.541 129.342C125.921 129.569 126.423 129.43 126.663 129.029H126.665ZM128.773 125.488C129.01 125.087 128.896 124.576 128.516 124.347C128.136 124.12 127.635 124.261 127.397 124.662C127.159 125.063 127.271 125.576 127.651 125.803C128.031 126.03 128.535 125.889 128.773 125.488ZM130.88 121.946C131.118 121.545 131.004 121.035 130.623 120.806C130.243 120.579 129.742 120.72 129.504 121.121C129.264 121.524 129.378 122.035 129.759 122.261C130.139 122.488 130.64 122.35 130.88 121.946Z" fill="#F7F4ED"/>
<path fill-rule="evenodd" clip-rule="evenodd" d="M50.7148 204.068C50.7647 203.958 50.7718 203.83 50.7243 203.708C49.8713 201.61 48.4838 200.3 47.0606 199.51C47.0772 197.696 47.044 196.336 47.0725 194.632C47.4716 194.945 47.9064 195.157 48.3674 195.202C49.1158 195.279 49.6765 194.992 49.926 194.592C50.1921 194.167 50.1849 193.544 49.5815 192.919C48.8616 192.172 48.0086 191.527 47.2174 191.029C47.2436 190.609 47.2721 190.162 47.3053 189.687C47.322 189.442 47.1366 189.227 46.8919 189.208C46.6472 189.191 46.4334 189.377 46.4144 189.623C46.4025 189.785 46.393 189.943 46.3811 190.098C46.3502 190.117 46.3193 190.138 46.2932 190.167L46.077 190.384C46.0033 190.348 45.932 190.315 45.8655 190.282C45.4759 190.1 45.1456 189.986 44.9175 189.936L44.813 189.869L44.6681 189.814L44.5136 189.795L44.3639 189.811L44.2261 189.857L44.1097 189.926L44.0147 190.01L44.0099 190.014C43.7462 189.99 43.4801 190 43.214 190.038C43.2449 189.747 43.2734 189.456 43.2948 189.158C43.3138 188.912 43.1285 188.697 42.8837 188.678C42.639 188.659 42.4252 188.845 42.4062 189.091C42.3753 189.492 42.3373 189.89 42.2898 190.282C41.8383 190.451 41.3964 190.687 40.9783 190.964C39.4719 191.959 38.2816 193.458 38.063 193.902C37.8729 194.286 37.8587 194.584 37.9157 194.771L38.006 194.959L38.158 195.112L38.3719 195.214C38.4598 195.241 38.5619 195.253 38.6807 195.248C38.9659 195.234 39.403 195.09 39.9495 194.782C40.4532 194.501 41.0685 194.076 41.7647 193.508C41.3489 195.589 40.8713 197.455 40.6813 199.014C38.7259 199.897 37.8278 201.331 37.0176 202.62C36.9558 202.717 36.9368 202.83 36.9558 202.932C36.9226 203.123 37.0152 203.319 37.1958 203.41C38.5786 204.106 39.9851 204.596 43.1736 204.798C46.1886 204.989 48.7736 204.717 50.3109 204.627C50.5556 204.61 50.7457 204.4 50.729 204.152C50.729 204.118 50.7219 204.09 50.7148 204.059V204.068ZM46.1696 195.907C46.1673 196.758 46.172 197.57 46.172 198.47C45.4925 197.758 44.965 197.195 44.5445 196.739C45.0126 196.446 45.5424 196.162 46.1696 195.907ZM45.2003 198.744C43.9054 198.376 42.7792 198.372 42.2517 198.496C42.2137 198.505 42.1757 198.513 42.1353 198.522C42.677 198.135 43.1926 197.692 43.7961 197.248C44.1644 197.646 44.6229 198.135 45.1979 198.742L45.2003 198.744ZM46.2029 193.742C46.1934 194.033 46.1863 194.315 46.1839 194.589C45.7277 194.078 45.2763 193.549 44.8272 193.016C45.0102 192.826 45.186 192.635 45.3666 192.439C45.5733 192.816 45.818 193.219 46.0936 193.594C46.1292 193.642 46.1673 193.692 46.2029 193.74V193.742ZM47.1604 192.064C47.7686 192.48 48.3959 192.983 48.94 193.546C49.1585 193.773 49.2655 193.966 49.168 194.119C49.0588 194.296 48.7855 194.348 48.4553 194.315C47.9421 194.262 47.4954 193.897 47.1034 193.437C47.1176 193.007 47.1366 192.554 47.1604 192.064ZM37.9656 202.796C38.8209 201.446 39.8687 199.973 42.4537 199.367C43.5989 199.1 47.9041 199.584 49.7787 203.772C48.2367 203.88 45.9035 204.083 43.2282 203.913C40.5078 203.739 39.1607 203.355 37.9632 202.796H37.9656ZM44.7251 191.174C44.7774 191.282 44.8486 191.427 44.9318 191.597C44.6989 191.85 44.4804 192.088 44.2499 192.329C44.0765 192.122 43.9054 191.916 43.7343 191.711C43.9173 191.527 44.1002 191.336 44.2879 191.136C44.3663 191.162 44.4542 191.177 44.5398 191.181C44.6015 191.184 44.6657 191.181 44.7251 191.172V191.174ZM43.1071 190.967C43.1522 190.957 43.195 190.947 43.2401 190.94L43.157 191.024L43.1071 190.964V190.967ZM42.026 192.112C41.0068 193.036 40.1229 193.68 39.4553 194.043C39.2248 194.169 39.0253 194.26 38.8589 194.312V194.303C39.0561 193.911 40.1348 192.601 41.4701 191.716C41.691 191.57 41.9215 191.434 42.1543 191.317C42.1139 191.585 42.0712 191.85 42.0284 192.112H42.026ZM41.7979 197.672C41.9239 196.997 42.0807 196.279 42.247 195.522C42.4988 195.804 42.7721 196.119 43.2045 196.596C42.7032 196.971 42.2565 197.338 41.8003 197.67L41.7979 197.672ZM42.5891 193.902C42.677 193.468 42.7649 193.021 42.8457 192.57C42.9289 192.494 43.012 192.417 43.0928 192.339C43.2663 192.546 43.4421 192.756 43.6203 192.969C43.3233 193.258 42.9883 193.563 42.5891 193.904V193.902ZM46.2979 191.52C46.2861 191.759 46.2718 191.99 46.2623 192.215C46.172 192.055 46.0865 191.9 46.0081 191.749C46.0865 191.666 46.1673 191.58 46.2528 191.492L46.3003 191.518L46.2979 191.52ZM44.1953 193.651C44.6372 194.179 45.0862 194.701 45.5353 195.205C44.9199 195.477 44.3996 195.775 43.9387 196.078C43.4255 195.513 43.1261 195.167 42.8457 194.854C43.3898 194.403 43.8175 194.014 44.1953 193.651ZM42.8243 47.4442C42.4347 49.1458 42.5963 50.6445 42.6818 52.2601C42.6937 52.5059 42.9051 52.6968 43.1498 52.6825C43.3969 52.6706 43.5846 52.4582 43.5728 52.2124C43.492 50.6683 43.3209 49.2341 43.7034 47.6017C43.7486 47.406 43.7367 47.2437 43.6702 46.9049C43.5585 46.3369 43.2948 45.0768 43.214 41.2012C43.2092 40.9554 43.0049 40.7573 42.7578 40.7621C42.5131 40.7669 42.3159 40.9721 42.3207 41.2203C42.3824 44.1676 42.5487 45.6424 42.677 46.4467C42.1306 46.2009 41.7362 45.9765 40.9331 45.3704C40.7359 45.2224 40.4556 45.2606 40.3082 45.4587C40.1609 45.6567 40.199 45.936 40.3962 46.0863C41.4297 46.8691 41.8407 47.0648 42.639 47.4108C42.6984 47.4371 42.7602 47.449 42.822 47.4466L42.8243 47.4442ZM57.2581 30.202C62.4304 30.4883 66.3792 29.5743 69.8623 25.8013C70.0286 25.6199 70.0191 25.336 69.8386 25.1689C69.658 25.0018 69.3752 25.0114 69.2089 25.1928C65.7947 28.8918 61.8982 29.6388 56.7377 29.2736C56.493 29.2569 56.2792 29.4431 56.2602 29.6889C56.2602 29.7127 56.2602 29.7366 56.2602 29.7581C56.2554 29.8034 56.2602 29.8512 56.2697 29.8989C57.3317 34.4666 57.3365 34.8246 57.4386 36.9581C57.4505 37.2039 57.6596 37.3948 57.9043 37.3829C58.149 37.3709 58.3391 37.1609 58.3272 36.9151C58.2274 34.815 58.2227 34.3974 57.2557 30.2043L57.2581 30.202ZM78.9146 66.5885C78.8433 66.7197 78.8409 66.8868 78.9193 67.0252C79.0429 67.24 79.3161 67.3116 79.5276 67.1899C80.4233 66.6696 85.5648 63.6841 91.4285 62.0924C91.6661 62.0279 91.8063 61.7821 91.7422 61.5435C91.678 61.3048 91.4333 61.164 91.1957 61.2285C86.0162 62.6341 81.3879 65.1089 79.6606 66.0849C79.3137 65.3499 78.9882 64.6674 78.6817 64.0278C78.715 63.9992 78.7435 63.9657 78.7696 63.9276C81.1764 60.2023 83.8327 57.7967 83.9064 57.7156C84.0727 57.5342 84.0608 57.2502 83.8779 57.0832C83.6973 56.9161 83.4146 56.9304 83.2482 57.1118C83.1746 57.1929 80.6252 59.5054 78.2351 63.1114C75.1891 56.8493 74.1461 55.3434 73.172 51.6897C73.1078 51.4511 72.8631 51.3079 72.6255 51.3723C72.3879 51.4368 72.2477 51.6826 72.3095 51.9212C73.1672 55.1406 74.0724 56.7109 76.3319 61.2619C74.7567 59.6033 74.1794 58.8969 72.2691 56.7419C72.1076 56.5581 71.8248 56.5414 71.6395 56.7061C71.4566 56.8708 71.4399 57.1548 71.6039 57.3385C74.1461 60.207 74.3385 60.5197 77.6197 63.887C78.0165 64.7079 78.4465 65.6052 78.9122 66.5932L78.9146 66.5885ZM11.3458 67.5454C11.6689 67.6982 11.9564 67.8557 12.1964 67.9917C10.9347 68.7339 10.9157 68.6074 9.05777 69.3162C8.18106 69.6503 7.76764 70.1228 7.56331 70.5238C7.3376 70.9629 7.35186 71.3399 7.35898 71.4569C7.36849 71.7027 7.5752 71.896 7.82229 71.8864C8.06701 71.8769 8.25946 71.6669 8.24995 71.4211C8.24758 71.3614 8.24045 71.1633 8.35687 70.9342C8.49468 70.6669 8.78929 70.3758 9.37614 70.1539C11.5905 69.309 11.2864 69.6002 13.3107 68.3664C13.4556 68.2781 13.5364 68.1182 13.5245 67.9511C13.5126 67.7841 13.4057 67.6361 13.2513 67.5717C13.0541 67.4882 12.4672 67.092 11.6618 66.7173C11.6095 66.6768 11.5477 66.6481 11.4812 66.6362C10.6425 66.2663 9.59472 65.9441 8.51368 66.0109C6.3207 66.147 3.07283 67.8342 2.07256 68.6838C1.88487 68.8437 1.86111 69.1253 2.01792 69.3138C2.17711 69.5023 2.45985 69.5262 2.64517 69.3687C3.56702 68.5883 6.55118 67.0324 8.56833 66.9059C8.98887 66.8796 9.40228 66.9226 9.79668 67.0061C8.31886 67.3808 7.2497 67.7364 6.4015 68.4666C5.43925 69.2947 3.52426 71.9652 3.29617 72.285C3.15124 72.4854 3.19875 72.7647 3.39833 72.9102C3.59791 73.0534 3.87589 73.0081 4.02082 72.8076C4.2394 72.4998 6.05936 69.9391 6.98122 69.1468C7.97911 68.2876 9.32388 68.0371 11.3458 67.5478V67.5454ZM137.151 202.651C137.234 202.722 137.343 202.763 137.46 202.756C139.27 202.67 141.152 201.617 142.637 200.317C144.126 199.009 145.207 197.455 145.457 196.436C145.87 194.754 145.576 193.036 144.815 191.169C144.084 189.382 142.919 187.449 141.565 185.268C141.435 185.058 141.159 184.993 140.952 185.124C140.743 185.256 140.679 185.53 140.81 185.743C142.131 187.874 143.273 189.761 143.989 191.508C144.286 192.234 144.509 192.935 144.635 193.62C143.891 193.296 142.366 192.787 140.555 193.2L140.251 192.826L140.239 192.814C137.198 189.079 136.253 187.754 133.706 184.743C134.117 184.738 134.487 184.726 134.815 184.685C135.844 184.559 136.512 184.184 136.854 183.237C136.999 182.836 136.954 182.523 136.816 182.28C136.685 182.048 136.45 181.869 136.134 181.755C135.117 181.392 133.029 181.764 132.812 181.807C132.285 181.907 131.841 182.012 131.451 182.122C131.083 181.697 130.683 181.242 130.256 180.755C130.094 180.569 129.812 180.552 129.626 180.714C129.443 180.877 129.424 181.161 129.586 181.347C129.921 181.728 130.237 182.086 130.534 182.43C129.617 182.798 129.061 183.222 128.293 183.74C128.224 183.786 128.175 183.848 128.139 183.917C128.008 184.029 127.849 184.203 127.678 184.428C127.295 183.874 127.006 183.459 126.775 183.132C126.633 182.931 126.355 182.884 126.153 183.027C125.953 183.17 125.906 183.449 126.048 183.652C126.317 184.031 126.663 184.528 127.146 185.227C127.079 185.337 127.015 185.454 126.951 185.573C126.309 186.771 125.73 188.406 125.784 189.881C125.822 190.895 126.107 191.589 126.447 191.969C126.758 192.317 127.127 192.449 127.474 192.403C128.037 192.334 128.424 191.821 128.6 190.94C128.764 190.129 128.78 188.957 128.89 187.766C129.277 188.334 129.712 188.969 130.201 189.68C133.775 194.904 134.939 197.544 135.286 198.331C135.302 198.369 135.321 198.4 135.345 198.429L135.34 198.47C135.138 200.207 135.984 201.737 136.989 202.57C137.037 202.61 137.091 202.639 137.148 202.653L137.151 202.651ZM144.751 194.656C144.768 195.186 144.718 195.706 144.592 196.224C144.371 197.128 143.376 198.482 142.052 199.644C140.75 200.782 139.123 201.739 137.536 201.858C136.737 201.183 136.07 199.961 136.231 198.575C136.343 197.615 136.851 196.591 137.951 195.601C141.104 192.771 144.202 194.391 144.659 194.623C144.69 194.639 144.72 194.649 144.754 194.656H144.751ZM139.593 193.503C138.869 193.794 138.113 194.25 137.357 194.933C136.704 195.52 136.234 196.121 135.911 196.718C135.751 195.31 135.697 194.358 135.775 192.759C136.78 192.978 137.759 193.191 139.596 193.506L139.593 193.503ZM132.9 185.17C133.511 185.89 134.029 186.513 134.504 187.093C133.848 187.007 133.411 187.041 132.679 187.043C132.734 186.454 132.805 185.867 132.903 185.17H132.9ZM136.06 189.024C136.844 190.007 137.664 191.05 138.8 192.453C137.49 192.217 136.678 192.038 135.825 191.852C135.877 191.079 135.956 190.165 136.058 189.024H136.06ZM132.107 182.872C132.37 182.807 132.66 182.745 132.981 182.683C133.143 182.652 134.516 182.385 135.469 182.514C135.647 182.538 135.808 182.573 135.934 182.638C135.984 182.664 136.032 182.685 136.046 182.733C136.063 182.786 136.046 182.85 136.015 182.929C135.732 183.714 135.058 183.807 134.062 183.841C133.725 183.852 133.352 183.852 132.948 183.852C132.684 183.545 132.404 183.22 132.104 182.874L132.107 182.872ZM129.488 184.936C130.439 184.805 131.296 184.762 132.059 184.75C131.936 185.618 131.848 186.32 131.784 187.026C131.235 187.003 130.543 186.955 129.626 186.857C129.541 186.847 129.458 186.864 129.386 186.898L129.073 186.439C129.163 185.948 129.286 185.473 129.46 185.043C129.477 185.007 129.484 184.972 129.491 184.934L129.488 184.936ZM131.781 183.862C131.078 183.879 130.299 183.924 129.441 184.039C129.945 183.702 130.432 183.409 131.163 183.151C131.38 183.399 131.584 183.635 131.779 183.862H131.781ZM128.217 185.198C128.243 185.16 128.27 185.122 128.298 185.086C128.348 185.139 128.4 185.182 128.457 185.218C128.433 185.294 128.412 185.37 128.391 185.449L128.22 185.201L128.217 185.198ZM128.141 186.664C127.965 187.859 127.935 189.115 127.828 190.1C127.78 190.558 127.716 190.952 127.597 191.236C127.538 191.377 127.488 191.496 127.367 191.511C127.234 191.527 127.127 191.408 127.017 191.239C126.827 190.938 126.701 190.47 126.678 189.842C126.63 188.542 127.148 187.108 127.714 186.041L128.141 186.664ZM134.898 195.522C134.421 194.646 133.779 193.539 132.922 192.176C133.722 192.324 134.342 192.451 134.891 192.565C134.825 193.775 134.832 194.623 134.898 195.522ZM131.593 190.134C131.384 189.823 131.168 189.501 130.942 189.172C130.603 188.675 130.291 188.22 129.999 187.795C130.705 187.864 131.258 187.898 131.712 187.914C131.667 188.556 131.631 189.258 131.593 190.134ZM132.603 187.926C133.561 187.919 134.012 187.859 135.245 188.139C135.11 189.597 135.012 190.733 134.944 191.663C134.281 191.525 133.508 191.37 132.439 191.179C132.494 189.785 132.539 188.804 132.601 187.926H132.603ZM128.647 184.678C128.647 184.678 128.635 184.681 128.628 184.678C128.64 184.666 128.652 184.654 128.664 184.645C128.664 184.645 128.652 184.666 128.647 184.678ZM70.3803 100.455C71.8818 100.376 71.9127 100.367 73.5046 100.452C73.7493 100.467 73.9608 100.276 73.9727 100.03C73.9869 99.7843 73.7968 99.5719 73.5521 99.5599C71.8581 99.4692 71.8818 99.4812 70.1664 99.5719C67.6622 97.7725 67.6432 97.7558 65.0036 95.9134C64.8016 95.7726 64.5236 95.8227 64.3834 96.0256C64.2433 96.2284 64.2932 96.5076 64.4951 96.6484C67.0801 98.4526 67.149 98.5027 69.5083 100.2C69.2351 102.922 69.3729 102.97 69.2398 106.44C69.2303 106.686 69.4228 106.896 69.6675 106.905C69.9122 106.915 70.1213 106.722 70.1308 106.476C70.2615 103.106 70.1308 102.992 70.3779 100.457L70.3803 100.455ZM82.7232 77.8311C82.9655 77.7834 83.1247 77.5495 83.0772 77.3061C83.0297 77.0627 82.7968 76.9052 82.5545 76.9505C79.2638 77.5877 79.2876 77.614 76.0278 78.4468C75.7902 78.5089 75.6453 78.7523 75.7047 78.9909C75.7641 79.2296 76.0088 79.3752 76.2464 79.3155C79.4824 78.4898 79.4563 78.4612 82.7232 77.8287V77.8311ZM85.8 84.6517C86.0376 84.5872 86.1801 84.3414 86.116 84.1028C86.0518 83.8641 85.8071 83.7209 85.5695 83.7854C82.1387 84.7042 76.8784 86.1909 67.2132 86.3604C66.9684 86.3651 66.7712 86.568 66.776 86.8162C66.7807 87.0644 66.9851 87.2601 67.2298 87.2553C77.0091 87.0835 82.3288 85.58 85.8 84.6517ZM88.5846 29.2116C88.518 29.4502 88.6558 29.696 88.8934 29.7629C89.131 29.8297 89.3781 29.6913 89.4446 29.4526C89.7274 28.4384 89.6561 27.6795 89.39 27.1067C88.9885 26.2428 88.1165 25.7727 87.1447 25.5173C86.2015 25.2715 85.1704 25.2262 84.5312 25.1092C83.4549 24.9112 78.8575 23.5413 79.6986 18.3364C79.739 18.093 79.5727 17.8615 79.3304 17.8233C79.088 17.7828 78.8575 17.9498 78.8172 18.1932C77.8478 24.1809 83.1318 25.7631 84.3697 25.9922C84.9922 26.1068 85.9996 26.1474 86.9214 26.386C87.6271 26.5698 88.2899 26.8609 88.5822 27.4862C88.7794 27.9062 88.7936 28.4646 88.5869 29.2092L88.5846 29.2116ZM64.0674 35.0847C64.21 34.8818 64.1625 34.6026 63.9605 34.4618C63.761 34.3186 63.4806 34.3664 63.3404 34.5692C60.7126 38.3016 60.753 38.3088 57.852 41.8551C57.6952 42.046 57.7237 42.3276 57.9138 42.4851C58.1039 42.6426 58.3842 42.614 58.5411 42.4231C61.4634 38.8505 61.423 38.8434 64.0674 35.0847ZM59.3536 16.2721C58.9925 16.2721 58.6979 16.7542 58.6979 17.3461C58.6979 17.9379 58.9925 18.42 59.3536 18.42C59.7148 18.42 60.0094 17.9379 60.0094 17.3461C60.0094 16.7542 59.7148 16.2721 59.3536 16.2721ZM53.478 16.0359C53.1762 16.0359 52.9315 16.475 52.9315 17.0143C52.9315 17.5537 53.1762 17.9928 53.478 17.9928C53.7797 17.9928 54.0244 17.5537 54.0244 17.0143C54.0244 16.475 53.7797 16.0359 53.478 16.0359ZM75.9233 4.85527C75.7498 4.68106 75.4671 4.68106 75.2937 4.85527C75.1202 5.02948 75.1202 5.31347 75.296 5.48768C78.0141 8.20349 78.4774 13.6279 76.6289 19.0691C76.5505 19.303 76.6741 19.5583 76.9069 19.6371C77.1398 19.7158 77.394 19.5917 77.4724 19.3578C79.4491 13.5396 78.8314 7.75722 75.9233 4.8505V4.85527ZM69.3349 9.5232C69.4537 9.30604 69.3753 9.03398 69.159 8.91465C68.9428 8.79533 68.672 8.87408 68.5532 9.09125C68.0376 10.0315 67.3391 11.8285 66.7974 12.9382C66.6881 13.1602 66.7807 13.4275 67.0017 13.5372C67.2227 13.647 67.4888 13.554 67.5981 13.332C68.135 12.2342 68.824 10.4539 69.3349 9.5232ZM73.7659 18.914C73.9964 18.828 74.1152 18.5703 74.0297 18.3388C73.9465 18.1073 73.6899 17.988 73.4571 18.0739C71.0004 18.9808 70.4943 20.1549 69.7839 21.3744C69.6604 21.5868 69.7316 21.8613 69.9431 21.9877C70.1546 22.1118 70.4278 22.0402 70.5537 21.8278C71.1762 20.7563 71.6086 19.711 73.7659 18.914ZM57.0799 15.3008C57.1369 15.0598 56.9896 14.8188 56.7496 14.7615C56.5096 14.7042 56.2697 14.8522 56.2127 15.0932C55.7256 17.148 55.0722 17.8591 53.5873 19.7731C53.4685 19.9282 53.4613 20.143 53.5754 20.3053L54.9273 22.2455C55.0675 22.4483 55.3478 22.4961 55.5498 22.3553C55.7517 22.2144 55.7992 21.9328 55.6591 21.7324L54.4949 20.0642C55.9394 18.2052 56.5833 17.4081 57.0822 15.3032L57.0799 15.3008ZM58.5458 26.0758C58.7834 26.1426 59.0305 26.0042 59.097 25.7679C59.1659 25.5293 59.0281 25.2834 58.7905 25.2142C56.885 24.6701 56.8803 24.7322 55.6306 24.6152C55.3858 24.5914 55.1672 24.7727 55.1459 25.0186C55.1221 25.2644 55.3051 25.4839 55.5474 25.5054C56.7306 25.6152 56.7377 25.5579 58.5458 26.0758ZM62.4566 24.842C62.4399 24.8085 62.4281 24.7751 62.4138 24.7393C62.2903 24.4052 62.257 24.0043 62.2499 23.9399C62.2285 23.6941 62.0099 23.5127 61.7652 23.5342C61.5205 23.558 61.3399 23.7752 61.3637 24.021C61.3732 24.1212 61.4444 24.8205 61.6796 25.2811C61.8341 25.5818 62.0598 25.787 62.3235 25.8514L62.4685 25.8729L62.6158 25.861L62.7536 25.8204L62.8724 25.756C63.0197 25.6581 63.1622 25.4791 63.2668 25.2357C63.5352 24.6105 63.6136 23.453 63.6208 23.317C63.6374 23.0712 63.4497 22.8588 63.2026 22.8421C62.9579 22.8278 62.7464 23.0163 62.7322 23.2621C62.725 23.3623 62.6823 24.1117 62.5231 24.6606C62.5065 24.7179 62.4803 24.7823 62.4542 24.8396L62.4566 24.842ZM58.2227 13.9048C57.9803 13.9453 57.8164 14.1768 57.8568 14.4202C57.8972 14.6637 58.1276 14.8283 58.37 14.7878C59.7647 14.5539 59.7456 14.4918 62.0574 14.4202C62.3045 14.4131 62.497 14.2055 62.4898 13.9597C62.4803 13.7115 62.276 13.5182 62.0313 13.5253C59.6411 13.6017 59.6601 13.6637 58.2227 13.9048ZM54.8085 14.561C55.0461 14.6302 55.2932 14.4942 55.3621 14.2556C55.431 14.0193 55.2955 13.7687 55.058 13.6995C53.9864 13.3869 54.0054 13.3225 52.8816 13.2509C52.6369 13.2342 52.4231 13.4227 52.4088 13.6685C52.3922 13.9143 52.5799 14.1291 52.8246 14.1434C53.8486 14.2078 53.8296 14.2723 54.8061 14.5587L54.8085 14.561ZM78.1519 71.1562C78.3895 71.0989 78.5392 70.8579 78.4845 70.6192C78.4299 70.3782 78.1899 70.2278 77.9499 70.2851C74.7923 71.0249 73.2694 70.8889 70.7105 70.4689C70.4682 70.4283 70.2377 70.5953 70.1973 70.8388C70.1593 71.0822 70.3232 71.3137 70.5656 71.3519C73.2456 71.791 74.8422 71.9294 78.1519 71.1562ZM60.5344 73.0152C60.7221 73.1751 61.0049 73.1513 61.1617 72.9603C61.3209 72.7718 61.2971 72.4878 61.1094 72.3303C56.5096 68.4356 56.8684 68.0919 52.0097 62.7105C51.8433 62.5267 51.5606 62.5124 51.38 62.6794C51.1971 62.8465 51.1852 63.1281 51.3491 63.3119C56.2507 68.7411 55.8919 69.0871 60.5344 73.0152ZM55.2528 70.4498C55.4357 70.6168 55.7161 70.6025 55.8824 70.4211C56.0487 70.2374 56.0345 69.9558 55.8515 69.7887C53.649 67.7769 53.6799 67.765 51.6818 65.5527C51.5155 65.369 51.2327 65.3571 51.0522 65.5217C50.8692 65.6888 50.855 65.9704 51.0213 66.1541C53.0479 68.3998 53.017 68.4093 55.2504 70.4522L55.2528 70.4498ZM56.7686 76.7501C56.9801 76.8765 57.2533 76.8073 57.3792 76.5949C57.5052 76.3825 57.4339 76.1081 57.2248 75.9816C54.9439 74.6189 49.6931 70.3042 46.0699 65.4358C45.9225 65.2377 45.6422 65.1972 45.4474 65.3451C45.2502 65.4931 45.2098 65.7747 45.3571 65.9728C49.0611 70.9509 54.4355 75.3587 56.7686 76.7524V76.7501ZM47.3719 62.8727C47.6023 62.9563 47.8589 62.8369 47.9445 62.6055C48.0276 62.374 47.9088 62.1162 47.6783 62.0327C46.7684 61.701 45.0886 60.7798 44.3331 58.7752C44.2451 58.5437 43.9885 58.4267 43.7581 58.515C43.5276 58.6033 43.4136 58.8611 43.4991 59.0926C44.3758 61.417 46.3193 62.4885 47.3742 62.8727H47.3719ZM86.0067 78.065C85.8903 77.8478 85.6218 77.7643 85.4032 77.8812C85.187 77.9982 85.1038 78.2679 85.2203 78.4874C85.408 78.8382 85.7453 79.4802 87.9454 82.647C88.0856 82.8499 88.3636 82.9 88.5656 82.7568C88.7675 82.616 88.8174 82.3368 88.6748 82.1339C86.5223 79.0363 86.1896 78.411 86.0067 78.0674V78.065ZM106.371 116.282C106.473 116.506 106.737 116.609 106.96 116.506C107.183 116.406 107.285 116.139 107.183 115.914C106.592 114.59 106.133 111.893 106.432 110.485C106.485 110.244 106.33 110.006 106.09 109.953C105.85 109.901 105.613 110.056 105.561 110.297C105.23 111.848 105.715 114.821 106.368 116.28L106.371 116.282ZM103.869 115.879C103.962 116.108 104.22 116.217 104.449 116.124C104.677 116.031 104.786 115.769 104.693 115.542C104.166 114.244 103.926 111.6 104.178 110.113C104.218 109.869 104.054 109.638 103.812 109.597C103.569 109.557 103.339 109.722 103.299 109.965C103.025 111.588 103.294 114.468 103.869 115.881V115.879ZM101.597 114.452C101.688 114.681 101.947 114.795 102.177 114.704C102.405 114.614 102.517 114.354 102.429 114.125C101.963 112.941 101.987 111.686 102.284 110.707C102.358 110.471 102.222 110.22 101.989 110.149C101.752 110.077 101.505 110.211 101.434 110.447C101.087 111.595 101.056 113.065 101.6 114.454L101.597 114.452ZM98.1405 141.101C98.1999 140.863 98.0574 140.619 97.8174 140.557C97.5798 140.497 97.3374 140.643 97.2757 140.882C97.0143 141.929 97.3161 142.629 97.7033 143.364C98.1666 144.244 98.744 145.194 98.0288 147.254C97.9481 147.487 98.0692 147.743 98.3021 147.824C98.5349 147.905 98.7891 147.781 98.8699 147.547C99.5779 145.502 99.2073 144.375 98.7511 143.447C98.3805 142.695 97.8887 142.115 98.1405 141.099V141.101ZM94.8142 150.027C95.0494 150.101 95.2989 149.969 95.3726 149.733C95.4462 149.499 95.3155 149.246 95.0803 149.172C92.8683 148.475 92.5191 148.063 91.2385 147.304C91.027 147.177 90.7538 147.249 90.6278 147.461C90.5019 147.674 90.5732 147.948 90.7847 148.074C92.1294 148.872 92.4977 149.299 94.8142 150.027ZM47.6498 133.269C47.7259 133.035 47.5976 132.782 47.3647 132.703C47.1319 132.624 46.88 132.753 46.8016 132.99C45.7895 136.078 46.3003 136.135 46.6496 139.383C46.6757 139.629 46.8967 139.808 47.1414 139.779C47.3861 139.753 47.5619 139.531 47.5358 139.285C47.2055 136.228 46.6947 136.176 47.6475 133.269H47.6498ZM55.5807 132.422C55.7351 132.231 55.7066 131.947 55.5165 131.792C55.3264 131.636 55.0461 131.665 54.8893 131.856C53.7274 133.286 53.4946 133.498 52.6607 135.825C52.5775 136.059 52.6987 136.314 52.9291 136.397C53.1596 136.481 53.4162 136.359 53.4994 136.128C54.2763 133.956 54.4925 133.756 55.5783 132.422H55.5807ZM48.3436 187.084C48.5883 187.06 48.7665 186.84 48.7428 186.594C48.719 186.349 48.5004 186.17 48.2557 186.194C46.7304 186.346 44.889 186.489 42.361 185.905C42.1211 185.85 41.8811 186 41.8265 186.241C41.7718 186.482 41.9215 186.723 42.1591 186.778C44.8106 187.392 46.7399 187.246 48.3412 187.084H48.3436ZM130.109 176.204C130.144 175.958 129.975 175.731 129.733 175.695C129.491 175.66 129.263 175.829 129.227 176.073C128.768 179.237 126.728 180.425 125.152 180.674C124.91 180.712 124.744 180.941 124.782 181.184C124.82 181.43 125.048 181.595 125.29 181.557C127.136 181.266 129.572 179.91 130.109 176.201V176.204ZM67.0991 112.051C67.2821 112.215 67.5648 112.199 67.7287 112.015C67.8927 111.831 67.876 111.547 67.6931 111.383C64.6638 108.669 59.7266 105.622 52.7272 104.679C48.2723 104.078 44.3663 105.886 43.7177 106.333C43.5157 106.474 43.4635 106.753 43.6013 106.956C43.7414 107.158 44.0171 107.211 44.2214 107.073C44.8249 106.657 48.4624 105.008 52.6084 105.567C59.3845 106.481 64.1649 109.423 67.0991 112.053V112.051ZM94.7691 110.325C94.9972 110.418 95.2561 110.309 95.3488 110.079C95.4438 109.85 95.3322 109.59 95.1065 109.495C92.6569 108.488 90.5281 107.586 81.9866 109.38C76.2179 110.59 74.8375 112.607 73.2195 114.182C73.0437 114.354 73.0389 114.638 73.21 114.814C73.381 114.991 73.6638 114.996 73.8396 114.824C75.3768 113.327 76.6883 111.406 82.1696 110.256C90.3736 108.533 92.4169 109.356 94.7691 110.323V110.325ZM102.115 105.495C101.973 105.039 101.702 104.481 101.255 103.882C101.108 103.684 100.828 103.643 100.63 103.791C100.433 103.939 100.393 104.221 100.54 104.419C101.22 105.33 101.353 106.063 101.379 106.548C101.55 106.283 101.773 106.013 102.115 105.497V105.495Z" fill="black"/>
<path fill-rule="evenodd" clip-rule="evenodd" d="M82.4493 7.94246C82.5729 8.15724 82.8461 8.22884 83.0575 8.10474C83.269 7.98064 83.3427 7.7062 83.2191 7.4938C82.8698 6.88526 82.4232 5.98794 81.0784 5.46531C80.8479 5.37701 80.5913 5.49156 80.5011 5.72066C80.4131 5.95215 80.5272 6.20988 80.7553 6.30057C81.8316 6.7182 82.1666 7.45562 82.4469 7.94246H82.4493ZM82.9768 9.01637C83.067 9.24547 83.326 9.36002 83.5541 9.26934C83.7846 9.17865 83.8962 8.91853 83.806 8.68943L83.7656 8.58442C83.6753 8.35532 83.4163 8.24077 83.1882 8.33146C82.9578 8.42214 82.8461 8.68227 82.9364 8.91137L82.9768 9.01637ZM62.7862 1.69468C63.0309 1.67559 63.2139 1.45842 63.1949 1.21262C63.1758 0.96681 62.962 0.783052 62.7149 0.802144C60.6645 0.96681 58.7376 1.68514 57.0388 2.7686C56.8321 2.89985 56.7704 3.17668 56.901 3.38669C57.0317 3.59431 57.3073 3.65636 57.5164 3.52511C59.0964 2.5204 60.8831 1.8498 62.7862 1.69468ZM56.2643 4.22196C56.4686 4.08593 56.5233 3.80671 56.3878 3.60147C56.2524 3.39624 55.9744 3.34135 55.7701 3.47738L55.6371 3.56568C55.4327 3.7017 55.3781 3.98092 55.5135 4.18616C55.6489 4.39139 55.9269 4.44628 56.1312 4.31025L56.2643 4.22196ZM152.427 131.371C152.489 131.609 152.736 131.75 152.971 131.686C153.209 131.621 153.352 131.375 153.287 131.137C152.399 127.815 152.304 127.755 150.671 124.724C150.555 124.507 150.284 124.426 150.066 124.543C149.849 124.66 149.769 124.932 149.885 125.149C151.47 128.087 151.565 128.147 152.425 131.368L152.427 131.371ZM149.624 123.34C149.5 123.128 149.227 123.054 149.013 123.18C148.802 123.304 148.73 123.579 148.854 123.794L148.935 123.93C149.058 124.142 149.331 124.214 149.545 124.09C149.757 123.965 149.828 123.691 149.704 123.476L149.624 123.34Z" fill="#F7F4ED"/>
</svg>
