<svg width="1152" height="183" viewBox="0 0 1152 183" fill="none" xmlns="http://www.w3.org/2000/svg">
<path d="M127.579 46.7695H150.475L161.471 27.7227H213.985L195.808 59.208H143.252L135.089 73.2021H187.729L160.573 120.236H108.059L127.808 86.0293H104.912L85.1631 120.236H32.6484L86.0605 27.7227H138.575L127.579 46.7695ZM448.923 46.2266L479.391 27.7227H566.8L513.387 120.236H460.872L502.888 47.4668H480.024L438.012 120.236H385.497L427.509 47.4668H404.648L362.635 120.236H319.96C334.49 109.142 342.674 92.664 343.706 75.5762C340.952 75.1886 338.369 75.1546 335.965 75.4697L338.668 70.7881C340.334 70.7522 342.054 70.8434 343.82 71.0645C343.785 68.3714 343.567 65.6744 343.169 62.9922L363.532 27.7227H438.343L448.923 46.2266ZM685.714 86.418H633.203L633.246 86.3379H596.676L588.548 100.412H677.637L666.189 120.236H613.679L613.721 120.155H577.151L577.104 120.236H524.59L578.003 27.7227H719.603L685.714 86.418ZM901.748 120.236H840.799L882.811 47.4668H862.057L820.045 120.236H759.096L801.107 47.4668H780.354L738.342 120.236H677.392L730.805 27.7227H955.161L901.748 120.236ZM1066.02 120.236H1005.07L1024.64 86.3379H991.358L971.79 120.236H910.837L964.249 27.7227H1119.43L1066.02 120.236ZM314.527 112.602C314.514 115.041 314.592 117.587 314.76 120.236H310.262C310.257 120.162 310.252 120.088 310.248 120.014L314.527 112.602ZM608.073 66.5938H644.647L655.69 47.4668H619.116L608.073 66.5938ZM1002.76 66.5938H1036.04L1047.08 47.4668H1013.8L1002.76 66.5938Z" fill="#24ACDC"/>
<path d="M1076.59 139.291H0L75.0684 9.26953V8.68359H1152L1076.59 139.291ZM308.688 16.9141C291.782 9.0571 271.65 9.18508 254.447 18.4014H80.5391L16.3545 129.573H263.789C276.149 133.698 289.718 133.82 302.373 129.573H1071.46L1135.64 18.4014H309.953C309.595 17.9492 309.174 17.4461 308.688 16.9141Z" fill="#A43200"/>
<path d="M274.413 0.548223C313.854 -4.31476 349.768 23.7154 354.632 63.1556C358.129 91.5218 344.612 118.064 322.073 132.542L322.122 132.589L320.028 133.808C319.624 134.049 319.216 134.286 318.807 134.519L254.142 172.171L258.106 151.664L181.083 182.262L194.56 155.532L150.801 182.389L191.96 116.898L171.771 121.37L220.779 36.1556L220.793 36.1693C231.682 17.2117 251.045 3.42961 274.413 0.548223ZM317.275 21.7679C320.557 28.5855 321.54 36.2747 319.847 43.3402C318.428 49.277 315.221 54.5185 310.619 58.4857C309.301 59.6219 307.862 60.664 306.326 61.5717C293.661 69.1219 278.598 66.8143 265.325 64.767C262.328 64.3002 259.499 63.8669 256.726 63.5443C242.679 61.8865 230.385 67.8681 224.656 79.1449C224.656 79.1449 223.996 80.5857 223.287 82.682C224.787 91.1543 228.121 99.4325 233.404 106.941C251.056 132.013 284.221 139.652 310.739 126.043C308.354 102.826 312.179 85.9399 321.849 77.1888C327.464 72.0306 335.075 69.9679 343.823 71.0629C343.667 59.2542 340.058 47.37 332.753 36.9887C328.422 30.8385 323.152 25.7346 317.277 21.7465L317.275 21.7679ZM343.709 75.5746C336.044 74.4959 329.699 76.142 324.855 80.4955L324.854 80.517C316.554 88.0288 313.173 102.927 315.021 123.637C316.036 123 317.053 122.341 318.052 121.638C333.776 110.559 342.633 93.3981 343.709 75.5746ZM308.686 16.9125C289.651 8.06629 266.525 9.34124 248.097 22.3148C230.678 34.5767 221.672 54.3447 222.373 74.1615C229.546 63.0661 242.575 57.3611 257.243 59.0971L257.233 59.0853C260.081 59.4239 262.952 59.8605 265.991 60.3304C279.139 62.3471 292.739 64.4296 304.023 57.7133C309.957 54.164 313.926 48.8414 315.475 42.2972C317.174 35.1469 315.72 27.2091 311.471 20.5326C311.42 20.4727 310.494 18.8955 308.686 16.9125Z" fill="#A5351C"/>
</svg>
