<svg width="543" height="86" viewBox="0 0 543 86" fill="none" xmlns="http://www.w3.org/2000/svg">
<path d="M60.0508 22.0107H70.8262L76.002 13.0469H100.718L92.1621 27.8652H67.4268L63.585 34.4512H88.3604L75.5791 56.5879H50.8633L60.1582 40.4893H49.3828L40.0879 56.5879H15.3711L40.5098 13.0469H65.2266L60.0508 22.0107ZM211.291 21.7559L225.631 13.0469H266.771L241.632 56.5879H216.915L236.69 22.3389H225.929L206.156 56.5879H181.44L201.213 22.3389H190.454L170.68 56.5879H150.593C157.432 51.3666 161.285 43.6121 161.771 35.5693C160.475 35.387 159.259 35.3703 158.128 35.5186L159.399 33.3154C160.184 33.2985 160.993 33.3413 161.824 33.4453C161.807 32.1779 161.705 30.9088 161.518 29.6465L171.103 13.0469H206.312L211.291 21.7559ZM322.737 40.6719H298.023L298.043 40.6338H280.831L277.006 47.2578H318.936L313.548 56.5879H288.834L288.854 56.5508H271.642L271.62 56.5879H246.904L272.043 13.0469H338.687L322.737 40.6719ZM424.414 56.5879H395.728L415.501 22.3389H405.733L385.96 56.5879H357.274L377.047 22.3389H367.279L347.507 56.5879H318.82L343.959 13.0469H449.553L424.414 56.5879ZM501.729 56.5879H473.043L482.255 40.6338H466.589L457.379 56.5879H428.691L453.83 13.0469H526.868L501.729 56.5879ZM148.038 52.9951C148.032 54.1432 148.069 55.3413 148.147 56.5879H146.031C146.029 56.5527 146.026 56.5176 146.024 56.4824L148.038 52.9951ZM286.195 31.3418H303.409L308.606 22.3389H291.393L286.195 31.3418ZM471.954 31.3418H487.618L492.816 22.3389H477.152L471.954 31.3418Z" fill="currentColor"/>
<path d="M506.697 65.5566H0L35.3311 4.36133V4.08594H542.188L506.697 65.5566ZM145.284 7.95996C137.327 4.26198 127.852 4.32207 119.755 8.66016H37.9062L7.69727 60.9824H124.151C129.968 62.9235 136.353 62.9801 142.309 60.9824H504.282L534.491 8.66016H145.88C145.711 8.44723 145.513 8.21051 145.284 7.95996Z" fill="currentColor"/>
<path d="M129.15 0.258031C147.713 -2.03082 164.617 11.1621 166.906 29.7248C168.552 43.0756 162.19 55.5669 151.581 62.3811L151.605 62.4035L150.389 63.1115C150.291 63.1686 150.194 63.2263 150.096 63.2824L119.61 81.0324L121.476 71.3811L85.2256 85.7815L91.5674 73.2014L70.9727 85.842L90.3447 55.0178L80.8428 57.1233L103.908 17.0168L103.915 17.0227C109.04 8.10066 118.153 1.61425 129.15 0.258031ZM149.324 10.2453C150.869 13.454 151.331 17.0733 150.534 20.3987C149.866 23.1926 148.357 25.6595 146.191 27.5266C145.571 28.0613 144.894 28.5516 144.171 28.9787C138.21 32.5323 131.121 31.4462 124.874 30.4826C123.464 30.2629 122.131 30.0593 120.826 29.9074C114.215 29.1272 108.429 31.9419 105.732 37.2492C105.732 37.2492 105.422 37.9277 105.089 38.9143C105.795 42.9018 107.363 46.7984 109.85 50.3322C118.157 62.1327 133.767 65.7273 146.248 59.3225C145.125 48.3951 146.926 40.448 151.477 36.3293C154.12 33.9017 157.701 32.9303 161.818 33.4455C161.745 27.8878 160.046 22.2943 156.608 17.4084C154.57 14.5141 152.09 12.1125 149.325 10.2356L149.324 10.2453ZM161.765 35.5696C158.157 35.062 155.171 35.837 152.892 37.886L152.891 37.8957C148.984 41.4312 147.393 48.4428 148.263 58.1897C148.741 57.8897 149.219 57.58 149.689 57.2492C157.09 52.0351 161.258 43.9581 161.765 35.5696ZM145.281 7.96018C136.323 3.79675 125.439 4.39637 116.766 10.5022C108.568 16.2731 104.328 25.5769 104.658 34.9035C108.034 29.6817 114.167 26.9976 121.07 27.8147L121.065 27.8088C122.405 27.9682 123.757 28.1736 125.188 28.3947C131.375 29.3439 137.776 30.3234 143.087 27.1623C145.879 25.4919 147.747 22.9874 148.477 19.9074C149.277 16.5422 148.592 12.8066 146.592 9.66428C146.569 9.63757 146.133 8.89444 145.281 7.96018Z" fill="currentColor"/>
</svg>
