<svg width="158" height="196" viewBox="0 0 158 196" fill="none" xmlns="http://www.w3.org/2000/svg">
<ellipse cx="78" cy="180" rx="78" ry="16" fill="black" fill-opacity="0.14"/>
<path fill-rule="evenodd" clip-rule="evenodd" d="M130.568 13.2732C130.577 13.5347 130.561 13.8214 130.51 14.1265C130.344 15.1129 130.112 16.8218 130.075 18.033C130.041 19.1731 130.517 19.9232 129.776 22.2928C129.503 23.1714 126.558 28.7478 123.561 30.4958C122.813 30.9316 121.419 30.2641 121.419 30.2641L120.715 33.3035L122.325 34.2647C121.707 38.2721 121.391 42.5663 119.988 43.9885C117.796 46.2136 110.087 44.5001 106.651 42.1511L102.446 28.4496C103.504 28.4175 105.317 28.2868 105.779 27.7706C106.888 26.5342 109.436 20.4577 109.436 20.4577C108.567 19.2671 107.601 18.423 108.636 16.8608C108.427 16.1405 108.321 15.3079 108.291 14.3903C108.933 13.8925 109.503 13.4039 109.503 13.4039L109.832 15.1358L112.397 12.2638C112.397 12.2638 112.489 13.8948 113.117 13.5209C113.745 13.147 116.114 11.2431 116.114 11.2431C116.114 11.2431 116.071 13.3236 116.528 13.4337C116.989 13.5416 118.87 10.6099 118.87 10.6099C118.87 10.6099 122.434 12.6882 123.08 12.6102C123.726 12.5322 122.744 10.1328 122.744 10.1328C122.744 10.1328 127.658 13.0988 128.569 13.1745C129.399 13.2433 128.203 10.5801 128.203 10.5801C128.203 10.5801 129.197 11.6147 130.073 12.6722C130.241 12.874 130.407 13.0782 130.565 13.2778L130.568 13.2732ZM135.918 78.6953C134.52 78.9407 132.79 78.9476 131.771 78.8972L131.366 78.5737C131.366 78.5737 127.586 81.542 125.695 81.8563C123.683 82.1912 120.6 81.464 119.282 80.5901C119.254 80.5717 119.229 80.5534 119.204 80.5327C119.204 79.9111 118.643 78.2044 118.643 78.2044C118.304 76.8854 118.636 75.204 119.038 73.4835C121.421 68.6618 124.554 62.0026 126.404 56.5201L127.179 52.8843C127.49 55.1874 128.141 57.2473 129.496 59.7431C129.197 60.6216 128.861 61.491 128.458 62.3489C128.891 64.6727 128.644 69.4073 127.635 71.903L129.167 71.5796C129.944 70.2354 131.61 68.4301 133.392 68.008L134.494 68.7856C134.623 68.9898 134.754 69.1871 134.881 69.3752L134.943 69.171C134.943 69.171 135.875 69.5128 136.866 70.0106L136.666 69.6275L137.333 69.7445C137.333 69.7445 138.913 69.7514 140.252 69.7261C140.588 69.7192 141.048 69.6275 141.483 69.5174L139.861 71.5177H138.987C139.123 71.7081 139.199 71.8985 139.187 72.0843C139.178 72.2494 139.1 72.4123 138.936 72.566C138.391 73.0798 137.206 72.933 136.146 72.6531L135.916 78.6976L135.918 78.6953ZM141.237 72.0797C140.717 71.4374 140.634 70.5473 142.808 70.6185C142.5 70.5175 142.155 70.3891 142.049 70.1138C141.752 69.327 142.184 68.7283 143.314 68.6342C144.156 68.5654 146.1 68.8407 146.153 70.0129C146.185 70.7492 145.467 70.935 144.717 70.9281C145.472 71.2745 145.741 71.9375 145.426 72.527C145.03 73.2702 143.797 73.323 142.161 72.7357C142.108 72.7151 142.053 72.6967 141.998 72.6738C141.98 72.6669 141.961 72.66 141.945 72.6509C141.715 72.5476 141.444 72.3343 141.239 72.0797H141.237ZM142.092 74.5089C142.313 74.5915 142.548 74.7039 142.794 74.8507C143.611 75.4792 143.3 76.5344 142.014 76.5459C141.708 76.5482 141.342 76.4908 140.926 76.3532C140.172 76.1032 139.861 75.6261 139.898 75.1971C139.925 74.8828 140.142 74.5938 140.507 74.4378C140.65 74.3759 140.818 74.3369 141.007 74.3231C141.315 74.3025 141.681 74.3529 142.09 74.5089H142.092ZM79.7089 105.568C77.0957 108.557 73.9488 111.861 70.8985 113.971C67.5032 119.075 62.233 124.741 55.2146 131.37C49.0658 143.379 35.5051 156.491 30.4605 163.999L30.4536 164.01C27.9048 161.936 26.7454 161.455 24.4082 160.296C24.4887 160.062 26.2623 154.97 27.6908 151.38C29.6254 146.517 34.8656 136.697 38.4082 131.643C41.1686 127.707 48.3527 121.483 48.3527 121.483L58.281 102.155C63.979 100.74 74.5078 102.499 79.7112 105.571L79.7089 105.568ZM127.671 94.4751L137.832 108.523C140.16 110.002 142.053 113.379 142.571 115.705C143.061 117.907 140.928 122.878 140.928 122.878C137.752 131.407 140.144 128.675 136.213 138.747C134.184 143.943 131.6 150.116 130.673 154.874C130.666 154.91 130.66 154.947 130.653 154.981C129.107 155.355 127.846 155.289 126.024 154.832C124.865 154.541 123.86 154.068 123.117 153.651C123.177 152.609 124.223 134.605 124.911 129.081C125.3 125.97 127.809 119.687 127.809 119.687C127.409 119.339 127.354 118.203 126.772 117.765C125.102 116.503 117.784 111.948 117.784 111.948C115.339 110.856 112.774 109.36 110.115 107.543C111.424 99.1271 121.84 93.4244 127.674 94.4728L127.671 94.4751ZM88.9863 31.4386C93.4328 32.6888 97.256 39.4718 99.2413 49.3333C100.237 51.2189 100.523 52.5035 100.757 54.1941C100.856 54.9052 101.256 55.8136 101.385 56.7449C102.131 62.0897 104.314 68.6434 104.56 73.7129C109.229 76.0206 118.251 84.1777 123.305 85.5931L129.781 87.0979C129.781 87.0979 131.672 83.6639 133.204 81.9412C133.986 81.0603 138.035 79.3307 139.631 79.2573C141.025 79.1931 141.828 81.3058 143.259 83.2946C144.135 84.5126 142.297 84.5998 142.297 84.5998C142.297 84.5998 144.473 85.3614 144.158 86.6712C143.894 87.7814 142.385 87.8204 142.385 87.8204C143.744 88.9055 143.744 90.0157 142.546 90.8713C143.314 91.7522 142.424 93.2318 141.2 92.9152C138.748 92.2844 138.048 91.704 136.208 92.4748C134.152 93.335 133.04 95.6564 129.783 94.147C127.018 93.8626 124.736 94.1539 121.697 93.1675C121.697 93.1675 101.875 86.1642 97.4884 81.62C94.5324 78.5577 92.7335 71.2378 91.565 68.648C87.7026 60.0803 83.3297 51.1868 83.1226 43.0847C83.378 36.9738 85.1124 32.7736 88.9886 31.4363L88.9863 31.4386ZM137.505 83.6593C137.551 83.6891 140.268 84.2007 140.682 83.6937C140.995 83.3083 138.98 81.9595 137.864 83.1913C137.814 83.2464 137.538 83.6203 137.538 83.6203C137.538 83.6203 137.517 83.6455 137.505 83.6593Z" fill="#E4572E"/>
<path fill-rule="evenodd" clip-rule="evenodd" d="M116.627 13.4191C116.186 15.8483 115.652 18.1308 115.01 20.232C114.097 17.4357 112.086 15.5891 110.513 15.6763C109.807 15.7153 109.004 16.2865 108.638 16.86C108.429 16.1397 108.323 15.307 108.293 14.3894C108.935 13.8916 109.505 13.403 109.505 13.403L109.834 15.1349L112.399 12.263C112.399 12.263 112.491 13.8939 113.119 13.52C113.747 13.1461 116.116 11.2422 116.116 11.2422C116.116 11.2422 116.073 13.3228 116.531 13.4329C116.558 13.4397 116.59 13.4352 116.625 13.4214L116.627 13.4191Z" fill="black"/>
<path fill-rule="evenodd" clip-rule="evenodd" d="M82.1262 107.573C80.4147 108.272 78.6043 108.68 76.718 108.836C77.7647 107.754 78.7699 106.641 79.7062 105.568C80.7574 106.187 81.5902 106.861 82.1239 107.573H82.1262ZM58.2783 102.152L57.2386 104.178C56.6773 103.916 56.116 103.648 55.5547 103.37C56.2241 102.831 57.158 102.43 58.2806 102.152H58.2783ZM128.939 94.8414C128.805 95.1212 128.669 95.3942 128.529 95.6603L127.671 94.4744C128.122 94.5546 128.547 94.6762 128.939 94.8414ZM110.112 107.543C110.763 107.988 111.41 108.414 112.049 108.818C111.412 109.107 110.729 109.355 109.979 109.538C109.965 108.857 110.011 108.192 110.112 107.54V107.543ZM82.7289 35.2962C83.0555 34.0667 83.603 32.8785 84.1091 32.2178C86.5221 30.8805 88.6339 30.6924 89.5931 31.6443C89.393 31.5641 89.1906 31.4952 88.9881 31.4379C86.2208 32.3922 84.5438 34.8076 83.718 38.3357C83.2855 37.1979 83.0026 35.9592 82.8324 35.0577C82.8025 35.1242 82.768 35.2045 82.7312 35.2962H82.7289Z" fill="black"/>
<path fill-rule="evenodd" clip-rule="evenodd" d="M118.724 0.0915291C119.186 0.160346 120.318 0.281923 120.318 0.281923C120.318 0.281923 124.748 0.635184 125.215 0.7797C125.65 0.912747 124.596 1.9473 124.596 1.9473C124.596 1.9473 129.71 2.51389 130.299 3.35805C130.566 3.74113 128.917 4.26185 128.917 4.26185C128.917 4.26185 132.793 6.1979 133.094 6.69797C133.395 7.19575 130.571 7.37697 130.571 7.37697C133.135 8.92765 133.996 13.075 134.281 13.8641C134.566 14.6532 132.553 12.6828 132.553 12.6828C132.553 12.6828 132.691 15.2496 132.201 15.0661C131.808 14.917 130.996 13.7793 130.078 12.669C129.202 11.6115 128.208 10.577 128.208 10.577C128.208 10.577 129.404 13.2402 128.574 13.1714C127.665 13.098 122.749 10.1297 122.749 10.1297C122.749 10.1297 123.732 12.5268 123.085 12.6071C122.439 12.6874 118.875 10.6068 118.875 10.6068C118.875 10.6068 116.991 13.5384 116.534 13.4306C116.074 13.3228 116.12 11.2399 116.12 11.2399C116.12 11.2399 113.748 13.1461 113.122 13.5177C112.494 13.8917 112.402 12.2607 112.402 12.2607L109.837 15.1327L109.508 13.4008C109.508 13.4008 106.851 15.6832 106.55 15.3896C106.249 15.096 107.958 10.8201 107.958 10.8201C107.958 10.8201 105.628 11.2514 105.883 10.5724C107.132 7.24163 111.65 -0.954491 118.724 0.0915291ZM127.182 52.8834L126.407 56.5193C124.557 62.0017 121.424 68.6586 119.041 73.4827C118.639 75.2031 118.307 76.8845 118.645 78.2035C118.645 78.2035 119.209 79.9079 119.207 80.5318C119.207 81.0296 119.016 81.5205 119.092 81.9403C119.207 82.5734 119.876 83.3488 120.442 84.3581C115.326 81.587 108.441 75.6321 104.56 73.7144C104.316 68.6448 102.133 62.0912 101.386 56.7464C101.257 55.8173 100.857 54.9089 100.758 54.1955C100.523 52.5049 100.24 51.2181 99.2419 49.3348C97.3464 39.9229 93.7785 33.3187 89.5919 31.6465C88.6326 30.6968 86.5232 30.8826 84.1078 32.2199C84.3056 32.0295 84.7749 30.683 86.7417 29.949C88.1012 29.442 94.6067 28.9947 94.6067 28.9947C97.1417 27.9625 100.995 28.1161 102.442 28.4488L106.647 42.1502C110.086 44.4969 117.792 46.2105 119.984 43.9877C121.387 42.5632 121.703 38.2713 122.321 34.2638L130.085 38.2965C128.003 41.313 126.798 45.1805 126.931 49.6031C126.968 50.7845 127.037 51.858 127.177 52.8834H127.182ZM115.972 91.0196C111.714 91.7284 106.785 90.3131 101.515 87.9159C101.515 87.9159 89.8679 89.9506 84.3792 89.306C78.8906 88.6614 68.5804 84.0461 68.5804 84.0461C68.5574 82.1559 69.9008 81.9105 70.2642 80.986C70.5748 80.1992 70.2665 79.183 70.7634 78.5017C71.2603 77.8205 73.2409 76.8937 73.2409 76.8937C73.2409 76.8937 72.9281 74.4874 73.2616 73.3106C73.5952 72.1339 75.6241 69.9455 75.6241 69.9455C75.6241 69.9455 76.91 57.8681 78.1039 51.7411C78.9481 47.4102 80.6619 42.8384 81.4762 39.0489C81.6349 38.3125 82.5045 35.7824 82.8334 35.0598C83.0013 35.9613 83.2866 37.2 83.719 38.3378C83.3878 39.7508 83.1946 41.3405 83.121 43.0885C83.328 51.1905 87.701 60.084 91.5633 68.6517C92.7319 71.2415 94.5307 78.5614 97.4867 81.6237C100.346 84.5852 109.759 88.5903 115.97 91.0219L115.972 91.0196Z" fill="#2E2E2E"/>
<path fill-rule="evenodd" clip-rule="evenodd" d="M27.4836 170.146C27.8677 170.74 27.4422 172.573 26.7728 174.86C25.7675 178.017 25.6824 180.767 25.9377 183.295C28.4175 188.881 28.4819 190.927 27.2627 193.067C27.2627 193.067 24.9049 194.01 21.7212 194.003C18.2269 193.994 14.3968 194.053 12.6393 192.565C10.8819 191.078 10.8152 187.594 11.174 185.077C11.6617 181.655 14.0909 175.626 15.478 172.81C16.6857 170.357 19.6163 167.988 19.6163 167.988C19.7613 167.859 19.9016 167.726 20.0373 167.591C21.3002 169.46 20.4583 169.94 21.0104 170.289C21.8684 170.83 23.5408 170.903 25.6755 172.137C26.7682 171.195 26.9913 170.818 27.4882 170.149L27.4836 170.146ZM120.565 160.776C121.529 162.056 121.589 162.297 122.201 163.916C123.278 163.033 124.221 162.026 126.273 161.471C127.802 161.058 129.364 161.597 130.342 161.845C130.837 161.184 130.912 160.932 131.044 160.613L132.067 160.09L141.568 167.201C141.568 167.201 148.703 171.316 149.789 172.968C150.608 174.211 149.382 175.982 148.08 176.377C145.952 177.019 137.015 176.831 137.015 176.831C137.015 176.831 131.214 175.126 129.176 174.886C127.729 174.716 126.243 175.629 124.791 175.39C122.783 175.064 117.313 173.589 116.924 172.521C116.487 171.321 117.593 164.71 120.441 160.927C120.483 160.877 120.522 160.826 120.563 160.773L120.565 160.776Z" fill="#F7F4ED"/>
<path fill-rule="evenodd" clip-rule="evenodd" d="M30.4515 164.01C29.1863 165.893 27.6865 168.35 27.4542 170.107C27.4634 170.118 27.4749 170.132 27.4841 170.146C26.9872 170.816 26.7641 171.192 25.6714 172.135C23.5367 170.903 21.8643 170.827 21.0063 170.286C20.4542 169.937 21.2961 169.458 20.0332 167.588C22.1587 165.473 22.9984 162.831 24.4016 160.303V160.294C26.7434 161.452 27.9027 161.934 30.4492 164.007L30.4515 164.01ZM130.653 154.981C130.255 157.153 130.612 159.53 131.049 160.612L130.98 160.782C130.885 160.973 130.835 161.186 130.347 161.844C129.369 161.594 127.821 161.11 126.278 161.47C124.12 161.973 123.464 163.019 122.206 163.916C121.592 162.296 121.534 162.058 120.57 160.775C121.815 159.133 122.28 156.405 123.115 153.696V153.65C123.86 154.07 124.865 154.54 126.025 154.832C127.849 155.291 129.107 155.355 130.653 154.981Z" fill="#2E2E2E"/>
<path fill-rule="evenodd" clip-rule="evenodd" d="M68.7131 84.1035C69.9346 84.6426 79.2557 88.7028 84.3786 89.3038C89.8672 89.9484 101.514 87.9137 101.514 87.9137C108.953 91.2972 115.712 92.724 120.865 88.9872L128.939 94.839C123.117 92.3914 109.77 99.3626 109.979 109.541C104.238 105.526 98.1324 101.617 91.558 98.2202C88.3398 99.5782 85.4229 104.116 82.1265 107.572C78.4321 102.645 60.3145 99.5438 55.5527 103.372C59.5554 97.2407 63.8271 90.2374 68.7131 84.1058V84.1035Z" fill="#F7F4ED"/>
<path fill-rule="evenodd" clip-rule="evenodd" d="M70.678 84.945C68.0923 88.7758 63.5698 95.7263 59.6937 101.739C59.5649 101.938 59.2981 101.996 59.0979 101.867C58.8978 101.739 58.8403 101.473 58.9691 101.273C62.8015 95.3295 67.2642 88.4684 69.8682 84.6055C70.1098 84.7087 70.3812 84.8234 70.678 84.9473V84.945ZM72.5021 85.6882C69.8613 89.6291 65.6563 96.0979 62.0194 101.736C61.8906 101.936 61.6237 101.993 61.4236 101.865C61.2235 101.736 61.166 101.47 61.2948 101.271C64.8902 95.6965 69.0378 89.3171 71.6855 85.3579C71.9455 85.4634 72.2192 85.5735 72.5021 85.6859V85.6882Z" fill="black"/>
<path fill-rule="evenodd" clip-rule="evenodd" d="M141.234 72.0781C141.455 72.3511 141.756 72.5805 141.996 72.6722C142.051 72.6929 142.106 72.7135 142.159 72.7342L142.092 74.5097C141.681 74.356 141.317 74.3032 141.009 74.3239C139.691 74.4156 139.403 75.8516 140.926 76.354C141.345 76.4916 141.708 76.5489 142.014 76.5467L141.842 81.1161C141.138 80.0219 140.5 79.2167 139.631 79.258C138.78 79.297 137.232 79.8086 135.851 80.4096L136.146 72.6539C137.206 72.936 138.389 73.0829 138.936 72.5667C139.1 72.413 139.178 72.2502 139.187 72.085L141.234 72.0804V72.0781ZM141.393 92.9503L141.388 93.0788C141.37 93.5399 140.914 93.9046 140.369 93.8954L136.334 93.822C135.789 93.8129 135.359 93.4298 135.378 92.971V92.9159C135.642 92.7508 135.916 92.5994 136.208 92.4755C138.048 91.7048 138.748 92.2851 141.2 92.9159C141.266 92.932 141.331 92.9458 141.395 92.9526L141.393 92.9503ZM137.505 83.6578C137.517 83.644 137.538 83.6188 137.538 83.6188C137.538 83.6188 137.814 83.2448 137.864 83.1898C138.98 81.958 140.997 83.3068 140.682 83.6922C140.27 84.1991 137.551 83.6876 137.505 83.6578Z" fill="#2E2E2E"/>
<path fill-rule="evenodd" clip-rule="evenodd" d="M141.237 72.0784H139.187C139.199 71.8972 139.123 71.7045 138.987 71.5141H139.861L142.171 68.6605C140.126 69.5964 137.786 69.5964 136.194 68.7202L136.866 70.0093C135.877 69.5116 134.945 69.1698 134.945 69.1698L134.883 69.3739C133.289 67.0089 131.504 63.4419 129.498 59.7418C127.543 56.1335 127.053 53.4359 126.938 49.6028C126.609 38.6861 134.439 31.1552 143.443 31.4374C152.446 31.7172 159.398 35.9839 157.76 48.2356C157.224 52.2385 154.008 57.5076 151.547 60.2557C148.467 63.6965 146.118 66.4676 144.374 68.6904C143.974 68.6215 143.59 68.6101 143.319 68.6307C142.189 68.7248 141.757 69.3235 142.053 70.1103C142.159 70.3855 142.502 70.514 142.81 70.6149C140.634 70.5461 140.722 71.4339 141.239 72.0761L141.237 72.0784Z" fill="white"/>
<path fill-rule="evenodd" clip-rule="evenodd" d="M137.034 39.168C137.406 39.168 137.659 39.5763 137.602 40.0764C137.544 40.5764 137.195 40.9847 136.822 40.9847C136.449 40.9847 136.194 40.5764 136.254 40.0764C136.313 39.5763 136.661 39.168 137.034 39.168ZM140.061 39.168C140.433 39.168 140.686 39.5763 140.629 40.0764C140.571 40.5764 140.222 40.9847 139.849 40.9847C139.476 40.9847 139.223 40.5764 139.281 40.0764C139.338 39.5763 139.688 39.168 140.061 39.168ZM143.088 39.168C143.461 39.168 143.714 39.5763 143.656 40.0764C143.599 40.5764 143.249 40.9847 142.876 40.9847C142.504 40.9847 142.251 40.5764 142.308 40.0764C142.366 39.5763 142.715 39.168 143.088 39.168ZM146.115 39.168C146.488 39.168 146.743 39.5763 146.684 40.0764C146.624 40.5764 146.276 40.9847 145.904 40.9847C145.531 40.9847 145.278 40.5764 145.336 40.0764C145.393 39.5763 145.743 39.168 146.115 39.168ZM136.587 43.0103C136.96 43.0103 137.213 43.4186 137.155 43.9186C137.098 44.421 136.748 44.827 136.376 44.827C136.003 44.827 135.748 44.4187 135.807 43.9186C135.865 43.4163 136.215 43.0103 136.587 43.0103ZM139.615 43.0103C139.987 43.0103 140.24 43.4186 140.183 43.9186C140.125 44.421 139.776 44.827 139.403 44.827C139.03 44.827 138.777 44.4187 138.835 43.9186C138.892 43.4186 139.242 43.0103 139.615 43.0103ZM142.642 43.0103C143.014 43.0103 143.267 43.4186 143.21 43.9186C143.152 44.4187 142.803 44.827 142.43 44.827C142.057 44.827 141.804 44.4187 141.862 43.9186C141.919 43.4163 142.269 43.0103 142.642 43.0103ZM145.667 43.0103C146.039 43.0103 146.295 43.4186 146.235 43.9186C146.177 44.421 145.828 44.827 145.455 44.827C145.082 44.827 144.829 44.4187 144.887 43.9186C144.944 43.4186 145.294 43.0103 145.667 43.0103ZM136.139 46.8548C136.511 46.8548 136.764 47.2632 136.707 47.7632C136.649 48.2656 136.3 48.6716 135.927 48.6716C135.554 48.6716 135.299 48.2633 135.359 47.7632C135.419 47.2632 135.766 46.8548 136.139 46.8548ZM139.166 46.8548C139.539 46.8548 139.792 47.2632 139.734 47.7632C139.677 48.2633 139.327 48.6716 138.954 48.6716C138.582 48.6716 138.329 48.2633 138.386 47.7632C138.444 47.2632 138.793 46.8548 139.166 46.8548ZM142.193 46.8548C142.566 46.8548 142.819 47.2632 142.761 47.7632C142.704 48.2633 142.354 48.6716 141.982 48.6716C141.609 48.6716 141.356 48.2633 141.413 47.7632C141.471 47.2609 141.821 46.8548 142.193 46.8548ZM145.22 46.8548C145.593 46.8548 145.848 47.2632 145.789 47.7632C145.729 48.2633 145.382 48.6716 145.009 48.6716C144.636 48.6716 144.383 48.2633 144.441 47.7632C144.498 47.2632 144.848 46.8548 145.22 46.8548ZM135.692 50.6994C136.065 50.6994 136.318 51.1077 136.261 51.6078C136.203 52.1079 135.853 52.5162 135.481 52.5162C135.108 52.5162 134.853 52.1079 134.913 51.6078C134.972 51.1077 135.32 50.6994 135.692 50.6994ZM138.72 50.6994C139.092 50.6994 139.345 51.1077 139.288 51.6078C139.23 52.1079 138.881 52.5162 138.508 52.5162C138.135 52.5162 137.882 52.1079 137.94 51.6078C137.997 51.1077 138.347 50.6994 138.72 50.6994ZM141.745 50.6994C142.117 50.6994 142.37 51.1077 142.313 51.6078C142.255 52.1079 141.906 52.5162 141.533 52.5162C141.16 52.5162 140.907 52.1079 140.965 51.6078C141.022 51.1077 141.372 50.6994 141.745 50.6994ZM144.772 50.6994C145.145 50.6994 145.4 51.1077 145.34 51.6078C145.28 52.1079 144.933 52.5162 144.56 52.5162C144.188 52.5162 143.935 52.1079 143.992 51.6078C144.05 51.1077 144.399 50.6994 144.772 50.6994ZM135.244 54.5417C135.616 54.5417 135.87 54.95 135.812 55.4501C135.755 55.9502 135.405 56.3585 135.032 56.3585C134.66 56.3585 134.404 55.9502 134.464 55.4501C134.524 54.95 134.871 54.5417 135.244 54.5417ZM138.271 54.5417C138.644 54.5417 138.897 54.95 138.839 55.4501C138.782 55.9502 138.432 56.3585 138.059 56.3585C137.687 56.3585 137.434 55.9502 137.491 55.4501C137.549 54.95 137.898 54.5417 138.271 54.5417ZM141.298 54.5417C141.671 54.5417 141.924 54.95 141.867 55.4501C141.809 55.9502 141.459 56.3585 141.087 56.3585C140.714 56.3585 140.461 55.9502 140.519 55.4501C140.576 54.95 140.926 54.5417 141.298 54.5417ZM144.326 54.5417C144.698 54.5417 144.954 54.95 144.894 55.4501C144.834 55.9502 144.487 56.3585 144.114 56.3585C143.741 56.3585 143.488 55.9502 143.546 55.4501C143.603 54.95 143.953 54.5417 144.326 54.5417ZM131.644 53.5072C131.699 53.0369 132.065 52.6561 132.463 52.6561C132.861 52.6561 133.137 53.0369 133.081 53.5072C133.026 53.9774 132.661 54.3582 132.263 54.3582C131.865 54.3582 131.589 53.9774 131.644 53.5072ZM132.09 49.6786C132.145 49.2084 132.511 48.8276 132.909 48.8276C133.307 48.8276 133.583 49.2084 133.528 49.6786C133.473 50.1489 133.107 50.5297 132.709 50.5297C132.311 50.5297 132.035 50.1489 132.09 49.6786ZM132.536 45.8501C132.591 45.3799 132.957 44.9991 133.355 44.9991C133.753 44.9991 134.029 45.3799 133.974 45.8501C133.919 46.3204 133.553 46.7011 133.155 46.7011C132.757 46.7011 132.481 46.3204 132.536 45.8501ZM132.983 42.0216C133.038 41.5513 133.404 41.1705 133.801 41.1705C134.199 41.1705 134.475 41.5513 134.42 42.0216C134.365 42.4918 133.999 42.8726 133.601 42.8726C133.203 42.8726 132.927 42.4918 132.983 42.0216ZM146.727 53.5072C146.782 53.0369 147.148 52.6561 147.544 52.6561C147.94 52.6561 148.218 53.0369 148.165 53.5072C148.112 53.9774 147.744 54.3582 147.346 54.3582C146.948 54.3582 146.672 53.9774 146.727 53.5072ZM147.173 49.6786C147.229 49.2084 147.594 48.8276 147.99 48.8276C148.386 48.8276 148.664 49.2084 148.611 49.6786C148.558 50.1489 148.19 50.5297 147.792 50.5297C147.394 50.5297 147.118 50.1489 147.173 49.6786ZM147.62 45.8501C147.675 45.3799 148.041 44.9991 148.436 44.9991C148.832 44.9991 149.11 45.3799 149.057 45.8501C149.005 46.3204 148.637 46.7011 148.239 46.7011C147.841 46.7011 147.565 46.3204 147.62 45.8501ZM148.066 42.0216C148.121 41.5513 148.487 41.1705 148.883 41.1705C149.278 41.1705 149.557 41.5513 149.504 42.0216C149.451 42.4918 149.083 42.8726 148.685 42.8726C148.287 42.8726 148.011 42.4918 148.066 42.0216Z" fill="black"/>
<path fill-rule="evenodd" clip-rule="evenodd" d="M111.757 3.84754C111.612 4.03564 111.341 4.07005 111.152 3.92553C110.963 3.78102 110.929 3.51034 111.074 3.32224C111.946 2.19364 113.756 1.21873 114.782 0.831057C115.005 0.746183 115.254 0.858584 115.339 1.08109C115.424 1.3036 115.311 1.55134 115.088 1.63622C114.172 1.9826 112.537 2.83822 111.759 3.84754H111.757ZM110.839 4.66417C110.699 4.85686 110.43 4.89815 110.236 4.76051C110.043 4.62059 110.002 4.3522 110.14 4.15951L110.25 4.00811C110.391 3.81543 110.66 3.77414 110.853 3.91177C111.046 4.0517 111.088 4.32008 110.95 4.51277L110.839 4.66417ZM132.044 38.3478C131.885 38.5268 131.614 38.5428 131.434 38.3846C131.257 38.2263 131.239 37.9556 131.398 37.7767C134.6 34.1775 138.747 32.2988 142.653 32.0947C142.89 32.0832 143.095 32.2644 143.109 32.503C143.12 32.7393 142.938 32.9434 142.699 32.9549C139 33.1476 135.076 34.9391 132.044 38.3478ZM130.901 39.8939C130.788 40.1027 130.526 40.1807 130.316 40.0683C130.107 39.9559 130.029 39.6944 130.142 39.4856L130.316 39.1622C130.429 38.9534 130.691 38.8754 130.901 38.9878C131.11 39.1002 131.188 39.3618 131.075 39.5705L130.901 39.8939Z" fill="#F7F4ED"/>
<path fill-rule="evenodd" clip-rule="evenodd" d="M122.99 15.5966C123.388 15.5966 123.71 16.1242 123.71 16.7733C123.71 17.4225 123.388 17.9501 122.99 17.9501C122.592 17.9501 122.27 17.4225 122.27 16.7733C122.27 16.1242 122.592 15.5966 122.99 15.5966ZM129.205 15.8374C129.541 15.8489 129.794 16.3513 129.774 16.9568C129.753 17.5624 129.463 18.0442 129.127 18.0327C128.791 18.0212 128.538 17.5189 128.559 16.9133C128.58 16.3077 128.869 15.826 129.205 15.8374ZM109.901 15.2204C109.76 15.241 109.622 15.2387 109.487 15.2066L109.284 15.1263L109.121 14.9887L109.013 14.8258C108.987 14.7753 108.967 14.7203 108.951 14.6607C108.932 14.5895 108.921 14.5093 108.916 14.4221C108.889 14.4519 108.861 14.4794 108.831 14.5093C108.668 14.6813 108.394 14.6882 108.221 14.5253C108.049 14.3624 108.042 14.0895 108.205 13.9174C108.543 13.5619 108.928 13.1994 109.259 12.954C109.406 12.8462 109.609 12.8416 109.76 12.9448C109.912 13.048 109.981 13.2361 109.933 13.4128C109.868 13.6467 109.809 13.8991 109.783 14.1239C109.783 14.1422 109.779 14.1629 109.779 14.1835L109.979 14.289C110.103 14.2179 110.227 14.1124 110.361 13.9839C110.492 13.8578 110.628 13.711 110.768 13.5504C110.782 13.532 110.796 13.516 110.812 13.4999C111.26 12.9792 111.759 12.314 112.341 11.651C113.142 10.4169 113.137 10.4215 113.211 10.3091C113.303 10.1715 113.418 10.0499 113.51 9.90998C113.641 9.7127 113.91 9.65765 114.108 9.79069C114.306 9.92145 114.361 10.1898 114.228 10.3871C114.136 10.5247 114.021 10.6463 113.929 10.7862C113.881 10.8566 113.627 11.2489 113.165 11.963C113.25 12.2888 113.351 12.6076 113.441 12.8622C114.191 12.2429 115.587 11.0845 115.725 10.9422C115.84 10.8252 116.01 10.7817 116.167 10.8321C116.323 10.8826 116.438 11.0179 116.461 11.1785C116.687 12.7131 116.675 12.8186 116.763 13.1237C116.827 13.3531 116.694 13.5894 116.466 13.6559C116.236 13.7201 115.999 13.5871 115.932 13.36C115.859 13.0985 115.847 12.9769 115.721 12.0823C115.364 12.3828 114.913 12.759 114.513 13.0916C115.09 13.321 115.753 13.5596 116.298 13.8096C116.514 13.9083 116.609 14.1652 116.51 14.3808C116.411 14.5964 116.153 14.6905 115.937 14.5918C115.263 14.2845 114.414 13.9931 113.763 13.7133L113.521 13.9128C113.416 14 113.273 14.0321 113.14 13.9977C113.006 13.9633 112.896 13.8693 112.845 13.7408C112.845 13.7408 112.677 13.3256 112.507 12.7842C112.259 13.0847 112.024 13.3784 111.801 13.649C113.678 14.5299 113.494 14.484 115.721 15.5622C115.935 15.6654 116.024 15.9246 115.921 16.1379C115.817 16.3513 115.557 16.4407 115.343 16.3375C113.041 15.2227 113.324 15.3121 111.219 14.328C111.081 14.4794 110.945 14.6148 110.816 14.7318C112.548 15.647 113.236 16.0095 115.507 17.1862C115.718 17.2963 115.801 17.5556 115.691 17.7666C115.58 17.9776 115.32 18.0602 115.109 17.9501C112.624 16.6609 112.031 16.349 109.901 15.2204ZM13.251 189.679C11.1991 187.272 11.5188 183.74 11.5902 182.914C11.6109 182.678 11.8202 182.501 12.0571 182.524C12.2941 182.542 12.4712 182.753 12.4505 182.99C12.393 183.655 12.1123 186.307 13.3844 188.405C13.7617 187.089 14.4449 185.845 15.1534 185.114C15.4525 184.806 15.7607 184.584 16.0598 184.465C16.115 183.173 16.2047 181.154 17.0397 178.253C16.8051 178.379 16.5405 178.5 16.2668 178.594C15.6986 178.789 15.0844 178.867 14.5323 178.691C14.2264 178.592 14.0446 178.425 13.9434 178.232C13.8445 178.044 13.8215 177.819 13.8928 177.562C13.9618 177.31 14.139 177.009 14.4219 176.686C15.1971 175.796 16.8258 174.663 18.6776 173.8C19.1514 172.727 19.715 171.573 20.3821 170.336C20.4949 170.128 20.7571 170.05 20.9664 170.162C21.1758 170.274 21.254 170.536 21.1413 170.745C20.6559 171.642 20.228 172.495 19.8508 173.305C20.8054 172.942 21.7831 172.672 22.7055 172.559C22.9171 172.534 23.1127 172.667 23.1725 172.864C23.7959 173.181 24.3664 173.488 24.8862 173.782C24.9622 173.36 25.0427 172.924 25.1301 172.477C25.1738 172.245 25.4015 172.091 25.6339 172.135C25.8685 172.178 26.0226 172.406 25.9766 172.637C25.8708 173.192 25.7696 173.729 25.6776 174.248C27.0647 175.089 28.0262 175.83 28.6634 176.445C29.4065 177.163 29.7285 177.75 29.7998 178.143C29.8619 178.496 29.7607 178.757 29.5882 178.932C29.4249 179.097 29.1741 179.2 28.8452 179.182C28.0193 179.136 27.0762 178.633 26.1514 177.897C25.8432 177.652 25.5349 177.381 25.2336 177.099C24.9115 179.702 24.9438 181.82 25.6362 183.71C26.2481 183.873 26.5264 184.318 26.7265 184.664C26.8461 184.871 26.7748 185.134 26.5678 185.251C26.3608 185.371 26.0985 185.3 25.9789 185.093C25.8409 184.855 25.6569 184.501 25.1071 184.506C22.2247 184.533 18.5741 185.029 16.5589 185.215C16.2001 185.247 15.8274 185.602 15.4571 186.086C14.836 186.896 14.2908 188.1 14.0607 189.296C14.7048 189.977 15.5882 190.537 16.7959 190.851C19.3125 191.505 26.3516 190.559 27.4741 190.181C27.6996 190.105 27.9457 190.225 28.0216 190.452C28.0975 190.676 27.9779 190.92 27.7525 190.998C26.577 191.394 19.2136 192.367 16.5796 191.686C15.0959 191.3 14.04 190.589 13.2924 189.731C13.2786 189.718 13.2671 189.702 13.2556 189.688L13.251 189.679ZM25.3808 176.032C25.8064 176.459 26.2481 176.865 26.692 177.218C27.4534 177.824 28.2126 178.278 28.8935 178.315C28.9096 178.315 28.9303 178.315 28.9487 178.315C28.9441 178.276 28.9326 178.214 28.9142 178.168C28.8452 177.991 28.7117 177.778 28.5047 177.528C27.9825 176.902 27.0417 176.101 25.5211 175.156C25.4705 175.454 25.4245 175.748 25.3808 176.034V176.032ZM16.9293 184.309C18.9237 184.107 22.0752 183.705 24.7068 183.646C24.0397 181.579 24.0696 179.241 24.4722 176.335C24.0098 175.856 23.5727 175.367 23.1771 174.915C23.1426 176.856 22.8412 178.184 20.8583 181.62C20.7387 181.827 20.4764 181.898 20.2694 181.778C20.0624 181.659 19.9911 181.398 20.1107 181.191C21.8567 178.163 22.2293 176.865 22.3029 175.22C21.2816 176.686 19.3125 179.338 17.2651 181.099C17.0282 182.448 16.9661 183.508 16.9293 184.306V184.309ZM18.1623 177.537C17.9161 178.296 17.7206 178.998 17.5665 179.647C19.0456 178.188 20.4074 176.399 21.2885 175.163C18.9444 176.897 18.4383 177.324 18.1623 177.539V177.537ZM18.6914 176.032C19.3148 175.555 20.3269 174.796 22.0453 173.534C21.1505 173.722 20.2234 174.039 19.3401 174.429C19.0985 174.986 18.8846 175.518 18.6891 176.032H18.6914ZM18.1669 175C16.812 175.722 15.6687 176.56 15.0729 177.246C14.9372 177.399 14.8337 177.544 14.767 177.677C14.7416 177.727 14.7255 177.801 14.7163 177.831C14.7347 177.842 14.7693 177.86 14.7969 177.867C15.1764 177.989 15.5951 177.911 15.9815 177.776C16.6141 177.558 17.1708 177.172 17.4262 177.002C17.6378 176.372 17.8816 175.704 18.1669 174.998V175ZM24.7275 174.676C24.3595 174.463 23.9638 174.243 23.5405 174.018C23.8695 174.401 24.2398 174.823 24.6332 175.25C24.6631 175.062 24.6953 174.869 24.7275 174.676ZM121.377 172.91C121.4 173.302 121.414 173.725 121.419 174.183C121.421 174.422 121.23 174.617 120.993 174.619C120.756 174.621 120.558 174.431 120.556 174.192C120.531 172.112 120.351 170.832 119.903 169.864C119.461 168.912 118.759 168.272 117.722 167.437C117.536 167.288 117.508 167.017 117.658 166.831C117.807 166.648 118.078 166.616 118.265 166.767C119.426 167.701 120.193 168.437 120.687 169.501C120.988 170.155 121.189 170.937 121.304 171.979C123.588 172.752 124.786 172.534 126.091 172.311C127.531 172.066 129.088 171.811 132.147 172.69C132.723 172.857 133.27 173.016 133.797 173.167C133.797 173.149 133.801 173.128 133.808 173.107C134.351 170.933 135.29 170.196 137.02 168.797C136.224 168.075 135.61 167.515 135.087 167.031C135.122 167.62 135.149 168.297 135.177 169.084C135.184 169.32 134.998 169.52 134.761 169.529C134.524 169.538 134.324 169.35 134.314 169.114C134.273 167.887 134.225 166.939 134.165 166.168C133.882 165.902 133.615 165.643 133.337 165.375C132.686 167.827 131.768 169.345 131.163 169.919C130.783 170.277 130.429 170.323 130.229 170.254L130.073 170.169L129.951 170.047L129.861 169.887C129.836 169.82 129.815 169.742 129.808 169.648C129.592 167.341 130.464 164.976 131.273 163.333C130.954 163.017 130.599 162.666 130.201 162.271C130.033 162.104 130.031 161.831 130.201 161.663C130.369 161.493 130.643 161.493 130.811 161.661C131.131 161.98 131.423 162.269 131.692 162.535C132.131 161.741 132.481 161.236 132.511 161.184C132.55 161.117 132.603 161.064 132.665 161.028C132.741 160.888 132.893 160.796 133.065 160.803C133.477 160.821 136.33 160.957 138.296 161.684C139.246 162.035 139.987 162.542 140.275 163.184L140.311 163.317L140.3 163.468C140.277 163.569 140.139 164.081 139.401 164.219C139.147 164.267 138.8 164.269 138.329 164.154C137.316 163.909 137.158 163.7 135.497 162.881C137.717 165.267 138.584 167.336 138.791 167.825C138.883 168.043 138.779 168.295 138.561 168.389C138.342 168.481 138.089 168.377 137.995 168.159C137.79 167.673 136.895 165.556 134.572 163.161C134.768 163.891 134.901 164.641 135.002 165.772C135.727 166.453 136.576 167.23 137.912 168.439C138.791 168.74 140.726 168.976 142.722 168.1C142.941 168.004 143.196 168.102 143.29 168.32C143.387 168.538 143.288 168.793 143.07 168.887C140.919 169.829 138.83 169.616 137.772 169.297C136.09 170.655 135.156 171.272 134.648 173.314C134.641 173.344 134.63 173.371 134.618 173.399C139.318 174.713 142.481 175.213 149.623 173.227C149.853 173.162 150.09 173.298 150.155 173.525C150.219 173.754 150.083 173.993 149.853 174.055C141.312 176.431 138.315 175.358 131.911 173.516C129.047 172.692 127.588 172.929 126.24 173.158C124.89 173.387 123.645 173.612 121.384 172.906L121.377 172.91ZM131.906 163.971C131.225 165.398 130.56 167.304 130.638 169.203C130.724 169.118 130.816 169.02 130.894 168.912C131.455 168.148 132.138 166.733 132.621 164.68C132.401 164.462 132.164 164.225 131.904 163.971H131.906ZM135.409 161.893C137.376 162.842 137.471 163.065 138.524 163.322C138.853 163.402 139.09 163.411 139.258 163.372C139.295 163.363 139.325 163.351 139.352 163.335C139.244 163.193 139.092 163.069 138.917 162.952C138.455 162.645 137.829 162.416 137.16 162.241C136.583 162.09 135.975 161.977 135.407 161.895L135.409 161.893ZM133.567 164.4C133.723 164.553 133.873 164.7 134.02 164.843C133.946 164.317 133.857 163.881 133.746 163.455C133.691 163.78 133.631 164.097 133.567 164.397V164.4ZM132.833 163.677C132.934 163.127 133.022 162.542 133.088 161.918C133.091 161.893 133.095 161.867 133.102 161.844C132.932 162.104 132.64 162.562 132.315 163.163C132.499 163.345 132.67 163.514 132.833 163.675V163.677ZM120.641 30.3739C118.334 29.2568 116.484 28.0249 114.136 24.7263C113.998 24.5336 114.044 24.2629 114.237 24.1253C114.43 23.9877 114.702 24.0335 114.84 24.2262C117.264 27.6327 119.13 28.7269 121.6 29.8738C121.817 29.9747 121.911 30.2294 121.81 30.445C121.741 30.5918 121.6 30.6813 121.451 30.6927C121.444 30.7065 121.439 30.718 121.43 30.7317C119.47 34.1749 119.436 34.1359 117.6 37.6295C117.49 37.8405 117.23 37.9208 117.018 37.8107C116.806 37.7006 116.726 37.4414 116.836 37.2304C118.665 33.7436 118.711 33.762 120.641 30.3716V30.3739ZM141.144 83.6498C141.678 83.7737 142.11 83.8998 142.481 83.9824C142.713 84.0352 142.858 84.2646 142.807 84.4963C142.757 84.7279 142.527 84.8747 142.292 84.822C141.206 84.5788 139.522 83.9205 136.295 84.2049C136.058 84.2256 135.849 84.0512 135.828 83.815C135.807 83.5787 135.982 83.3699 136.219 83.3493C136.493 83.3241 136.757 83.308 137.013 83.2965C137.811 82.4891 138.515 82.1221 139.154 82.1542C139.817 82.1886 140.475 82.6428 141.147 83.6521L141.144 83.6498ZM138.326 83.2828C138.899 83.3011 139.41 83.3493 139.865 83.4112C139.617 83.1635 139.373 83.0259 139.106 83.0121C138.853 82.9983 138.598 83.0947 138.324 83.2828H138.326ZM91.0285 98.239C90.9802 98.0739 91.0331 97.8904 91.1781 97.778C94.3641 95.3028 96.7564 92.869 97.2096 92.4079C97.3775 92.2382 97.649 92.2359 97.8192 92.401C97.9894 92.5662 97.9917 92.8392 97.8261 93.0089C97.4419 93.3989 95.6868 95.1835 93.2369 97.2251C96.485 96.0736 97.1015 95.8511 101.141 93.6856C101.35 93.5732 101.612 93.6512 101.725 93.86C101.838 94.0687 101.76 94.3302 101.55 94.4426C96.7633 97.0095 96.7288 96.8833 91.6013 98.7207C91.3782 98.801 91.1297 98.684 91.0492 98.4615C91.0216 98.3858 91.017 98.3078 91.0308 98.2367L91.0285 98.239ZM87.2858 79.195C80.272 77.9082 80.1708 78.3945 78.4248 77.8187C78.1994 77.743 78.0315 77.704 77.7808 77.2452C77.5392 76.8025 77.1597 75.7748 76.297 73.224C76.2211 72.9992 76.343 72.7538 76.5685 72.6781C76.7939 72.6024 77.04 72.7239 77.1159 72.9487C77.8153 75.0156 78.1833 76.057 78.4225 76.5961C78.5652 76.9149 78.5905 76.9677 78.694 77.0021C80.1846 77.493 80.4607 77.1925 84.9878 77.9242C80.6792 75.4193 77.2747 72.7951 76.5247 72.2147C76.3361 72.0702 76.3016 71.7995 76.4465 71.6114C76.5915 71.4233 76.8629 71.3889 77.0515 71.5334C77.9142 72.1986 82.3263 75.6051 87.5642 78.3715L87.6217 78.383C87.7275 78.4036 87.8172 78.4587 87.8816 78.539C89.1514 79.1996 90.4649 79.8167 91.783 80.3466C92.0039 80.436 92.112 80.6861 92.0223 80.9063C91.9326 81.1265 91.6818 81.2343 91.461 81.1449C90.044 80.576 88.6362 79.9084 87.2812 79.195H87.2858ZM139.118 70.7053C139.302 70.8544 139.332 71.1251 139.182 71.3109C139.032 71.4967 138.761 71.5242 138.575 71.3751C137.972 70.8911 136.983 70.3406 136.472 70.1204C136.254 70.0263 136.152 69.7717 136.249 69.5538C136.343 69.3358 136.599 69.2349 136.817 69.3313C137.374 69.5721 138.455 70.1754 139.115 70.7053H139.118ZM126.723 14.6974C126.723 14.4588 126.916 14.2661 127.156 14.2684C127.395 14.2684 127.588 14.4611 127.586 14.6996C127.586 16.8857 128.14 19.2714 128.856 20.9941C128.92 21.1478 128.888 21.3267 128.775 21.4506L126.992 23.3844C126.831 23.5587 126.558 23.5702 126.383 23.4096C126.208 23.249 126.196 22.9761 126.357 22.8017L127.954 21.0698C127.25 19.2806 126.719 16.8949 126.721 14.6996L126.723 14.6974ZM122.113 26.0958C121.876 26.1187 121.665 25.9444 121.642 25.7081C121.619 25.4718 121.794 25.2608 122.03 25.2378C124.623 24.9901 124.614 25.075 125.594 25.0704C125.833 25.0704 126.026 25.2608 126.029 25.4971C126.029 25.7333 125.838 25.9283 125.601 25.9306C124.641 25.9375 124.651 25.8526 122.113 26.0958ZM125.771 13.8257C125.992 13.9151 126.098 14.1675 126.006 14.3877C125.916 14.6079 125.663 14.7134 125.442 14.6217C123.673 13.8991 120.061 13.5412 119.576 13.6284C119.341 13.6697 119.118 13.5137 119.075 13.2797C119.033 13.0457 119.19 12.8232 119.424 12.7796C119.949 12.6856 123.859 13.0434 125.771 13.8234V13.8257ZM128.264 14.6515C128.028 14.6767 127.816 14.5047 127.791 14.2684C127.765 14.0321 127.938 13.8211 128.175 13.7958C128.662 13.7454 129.081 13.6605 129.435 13.6353C129.739 13.6146 130.004 13.6353 130.229 13.7247C130.452 13.8096 130.563 14.0596 130.477 14.2799C130.392 14.5024 130.142 14.6125 129.921 14.5276C129.76 14.4657 129.564 14.484 129.334 14.5093C129.024 14.5437 128.667 14.6102 128.264 14.6515ZM109.068 20.6821C108.944 20.4803 109.006 20.2142 109.211 20.0903C109.413 19.9664 109.68 20.0284 109.804 20.2325C110.6 21.5263 111.511 22.6274 113.287 23.2536C113.512 23.3316 113.63 23.5793 113.549 23.8019C113.471 24.0267 113.222 24.1436 112.999 24.0634C111.003 23.3614 109.963 22.1365 109.068 20.6821ZM111.18 18.5282C110.968 18.4181 110.885 18.1589 110.996 17.9478C111.106 17.7368 111.366 17.6542 111.578 17.7643C112.449 18.2162 112.99 18.6497 113.354 19.1636C113.717 19.6797 113.906 20.2784 114.037 21.0859C114.076 21.3199 113.915 21.5424 113.68 21.5791C113.446 21.6181 113.222 21.4575 113.186 21.2235C113.08 20.5697 112.944 20.0766 112.65 19.6591C112.353 19.2393 111.897 18.8975 111.182 18.5282H111.18ZM111.656 29.61C111.637 29.3737 111.812 29.165 112.052 29.1467C112.288 29.1283 112.498 29.3026 112.516 29.5412C112.7 31.7686 112.723 31.7525 113.363 33.9065C114.285 37.0193 114.382 36.9757 115.007 40.1597C115.054 40.3937 114.902 40.6185 114.667 40.6643C114.432 40.7102 114.207 40.5588 114.161 40.3248C113.542 37.1799 113.446 37.2235 112.535 34.1497C111.87 31.9085 111.847 31.9269 111.656 29.61ZM118.52 40.5726C118.449 40.7997 118.207 40.9258 117.98 40.8547C117.752 40.7836 117.625 40.5428 117.697 40.3157C118.47 37.8428 118.757 36.6477 119.052 35.6476C119.118 35.4205 119.36 35.2897 119.588 35.3562C119.815 35.4228 119.946 35.6636 119.88 35.8907C119.585 36.8932 119.295 38.0906 118.522 40.5703L118.52 40.5726ZM115.555 43.2014C115.785 43.2656 115.918 43.5042 115.854 43.7313C115.79 43.9607 115.55 44.0937 115.323 44.0295C112.178 43.1509 111.258 42.8917 107.391 42.6302C107.154 42.6142 106.972 42.4077 106.988 42.1714C107.005 41.9352 107.212 41.7562 107.449 41.77C111.401 42.0384 112.339 42.3022 115.555 43.1991V43.2014ZM118.129 43.4216C117.934 43.557 117.664 43.5065 117.529 43.3115C117.393 43.1165 117.444 42.8481 117.639 42.7128C119.268 41.5957 119.275 41.5314 120.666 40.8846C120.883 40.7836 121.14 40.8777 121.239 41.0933C121.34 41.3089 121.246 41.5658 121.03 41.6645C119.693 42.2861 119.689 42.3527 118.127 43.4216H118.129ZM95.9651 76.6626C95.7328 76.6144 95.5809 76.385 95.6316 76.1533C95.6799 75.9216 95.9076 75.7702 96.1422 75.8207C98.3 76.268 98.2655 76.2267 100.389 76.713C100.621 76.7658 100.766 76.9975 100.713 77.2292C100.66 77.4609 100.428 77.6054 100.195 77.5526C98.0814 77.0686 98.1182 77.1099 95.9674 76.6649L95.9651 76.6626ZM99.6112 64.0599C99.5238 64.2801 99.273 64.3902 99.0522 64.303C98.8314 64.2159 98.7209 63.9658 98.8084 63.7456C99.5698 61.8027 99.4916 61.4907 99.694 59.589C99.7193 59.3528 99.9309 59.1807 100.168 59.206C100.405 59.2312 100.577 59.4422 100.552 59.6785C100.34 61.6834 100.416 62.0114 99.6135 64.0576L99.6112 64.0599ZM101.014 58.2655C100.915 58.4811 100.66 58.5774 100.442 58.4788C100.225 58.3802 100.129 58.1255 100.228 57.9076C100.529 57.2516 100.534 57.2561 100.646 56.5519C100.683 56.3179 100.906 56.1574 101.141 56.1964C101.376 56.2331 101.537 56.4556 101.497 56.6896C101.364 57.5108 101.362 57.5039 101.012 58.2678L101.014 58.2655ZM102.229 73.5383C101.992 73.5085 101.824 73.2928 101.854 73.0566C101.884 72.8203 102.1 72.6528 102.337 72.6827C103.301 72.8042 103.289 72.8019 104.221 73.0634C104.451 73.1277 104.585 73.3662 104.52 73.5933C104.456 73.8227 104.217 73.9558 103.989 73.8915C103.119 73.6484 103.131 73.6507 102.231 73.536L102.229 73.5383ZM136.258 90.0475C136.019 90.0429 135.83 89.8479 135.835 89.6094C135.84 89.3731 136.035 89.1827 136.274 89.1873C140.095 89.2561 140.884 89.2951 142.78 90.5086C142.98 90.637 143.037 90.9031 142.909 91.1027C142.78 91.3023 142.513 91.3596 142.313 91.2312C140.553 90.1026 139.81 90.1094 136.258 90.0452V90.0475ZM135.915 87.2742C135.679 87.2673 135.49 87.0677 135.497 86.8314C135.504 86.5952 135.704 86.4071 135.941 86.414C137.839 86.4713 140.436 86.4231 142.57 87.4324C142.787 87.5334 142.879 87.7903 142.775 88.0059C142.674 88.2216 142.414 88.311 142.2 88.2101C140.176 87.2535 137.712 87.3292 135.913 87.2742H135.915ZM133.765 71.8477L133.776 71.8293L133.85 71.7628L133.935 71.7169L134.043 71.6894H134.17C134.197 71.6963 134.222 71.7032 134.25 71.7123C134.604 71.8018 136.868 72.3179 137.751 72.3913C137.988 72.412 138.165 72.6207 138.145 72.857C138.124 73.0933 137.915 73.2699 137.678 73.2492C136.861 73.1804 134.906 72.7492 134.227 72.5909C133.746 73.0359 132.396 74.2333 131.43 74.6004C131.207 74.6852 130.958 74.5728 130.873 74.3503C130.788 74.1278 130.901 73.8801 131.124 73.7952C132.108 73.4213 133.519 72.0816 133.765 71.8431V71.8477ZM134.409 72.4234H134.406C134.406 72.4234 134.39 72.4418 134.36 72.4693C134.379 72.4556 134.395 72.4395 134.409 72.4234ZM133.063 68.7876C132.851 68.6798 132.766 68.4206 132.872 68.2095C132.98 67.9985 133.24 67.9136 133.452 68.0191L135.161 68.8817C135.373 68.9895 135.458 69.2487 135.352 69.4597C135.244 69.6708 134.984 69.7556 134.772 69.6501L133.063 68.7876ZM128.92 74.9376C128.906 75.1738 128.702 75.355 128.465 75.3413C128.228 75.3275 128.046 75.1234 128.06 74.8871C128.179 72.818 128.403 72.1734 129.219 70.7237C129.336 70.5172 129.599 70.4438 129.806 70.5585C130.013 70.6755 130.086 70.937 129.971 71.1457C129.228 72.4647 129.031 73.052 128.92 74.9353V74.9376ZM127.128 76.4263C126.905 76.5112 126.657 76.4011 126.571 76.1786C126.486 75.956 126.597 75.7083 126.82 75.6234L127.367 75.4124C127.59 75.3275 127.839 75.4376 127.924 75.6601C128.009 75.8826 127.899 76.1304 127.676 76.2153L127.128 76.4263ZM126.942 77.5251C126.705 77.532 126.505 77.3462 126.498 77.1076C126.491 76.8713 126.677 76.6717 126.916 76.6649L128.759 76.6075C128.996 76.6006 129.196 76.7864 129.203 77.025C129.21 77.2613 129.024 77.4608 128.784 77.4677L126.942 77.5251ZM129.774 77.8875C129.608 77.7155 129.613 77.4448 129.785 77.2796C129.958 77.1145 130.229 77.1191 130.395 77.2911C131.089 78.0091 131.177 78.0229 131.869 78.2087C132.099 78.2706 132.235 78.5069 132.173 78.7363C132.111 78.9656 131.874 79.101 131.644 79.0391C130.77 78.8028 130.652 78.7959 129.776 77.8875H129.774ZM135.676 75.2908C135.913 75.2862 136.111 75.4743 136.116 75.7129C136.12 75.9515 135.932 76.1464 135.692 76.151C134.354 76.1786 134.195 76.0226 132.548 76.0065C131.968 76.0019 131.986 76.0616 131.434 76.2084C131.204 76.2703 130.967 76.1327 130.908 75.9033C130.845 75.6739 130.984 75.4376 131.214 75.378C131.881 75.2014 131.86 75.1394 132.557 75.1463C134.19 75.1624 134.349 75.3161 135.674 75.2908H135.676ZM142.695 70.9507C142.46 70.914 142.299 70.6915 142.338 70.4576C142.375 70.2236 142.596 70.063 142.833 70.102C142.975 70.1249 144.139 70.2672 144.372 70.2626C144.611 70.2603 144.806 70.4507 144.809 70.687C144.813 70.9232 144.62 71.1205 144.383 71.1228C144.13 71.1251 142.853 70.976 142.695 70.9507ZM121.329 75.2495C121.191 75.4445 120.922 75.4904 120.726 75.3528C120.531 75.2151 120.485 74.9467 120.623 74.7517C121.984 72.8295 122.272 72.6414 127.648 71.6458C127.883 71.6022 128.108 71.7559 128.152 71.9899C128.195 72.2239 128.041 72.4487 127.807 72.4923C122.879 73.4052 122.576 73.4878 121.327 75.2495H121.329ZM53.6224 121.155C53.5533 121.382 53.3141 121.513 53.0841 121.444C52.854 121.375 52.7252 121.137 52.7942 120.907C53.2152 119.508 53.2704 119.182 54.6046 118.359C54.807 118.233 55.0739 118.297 55.1981 118.499C55.3246 118.701 55.2602 118.967 55.0578 119.091C53.9858 119.754 53.9582 120.029 53.6201 121.155H53.6224ZM53.2635 125.514C53.0266 125.491 52.854 125.28 52.877 125.043C52.9 124.807 53.1117 124.635 53.3486 124.658C56.1482 124.935 57.1925 124.041 58.6739 122.857C58.8603 122.708 59.1317 122.738 59.2812 122.924C59.4308 123.11 59.4009 123.38 59.2145 123.529C57.5606 124.851 56.3874 125.826 53.2635 125.516V125.514ZM129.589 138.224C129.707 138.018 129.969 137.944 130.178 138.061C130.385 138.176 130.459 138.44 130.344 138.646C129.065 140.917 129.134 140.935 127.494 142.943C126.098 144.652 125.831 145.429 125.739 145.624C125.637 145.84 125.38 145.932 125.164 145.828C124.947 145.725 124.858 145.468 124.959 145.255C125.058 145.046 125.338 144.216 126.824 142.397C128.419 140.449 128.347 140.428 129.589 138.222V138.224ZM137.213 114.083C137.162 113.851 137.312 113.622 137.544 113.571C137.776 113.521 138.007 113.67 138.057 113.902C138.193 114.535 138.209 115.081 139.053 115.563C139.26 115.68 139.334 115.943 139.214 116.15C139.097 116.356 138.832 116.427 138.625 116.31C137.473 115.657 137.395 114.946 137.211 114.081L137.213 114.083ZM128.078 116.771C127.984 116.554 128.083 116.299 128.301 116.205C128.52 116.109 128.775 116.209 128.869 116.427C129.24 117.269 129.428 117.733 129.426 118.173C129.422 118.627 129.221 119.079 128.713 119.884C128.587 120.086 128.32 120.146 128.117 120.02C127.915 119.893 127.855 119.627 127.982 119.426C128.361 118.822 128.559 118.506 128.561 118.164C128.566 117.808 128.375 117.448 128.078 116.771ZM113.754 106.947C113.632 106.743 113.696 106.479 113.901 106.357C114.106 106.236 114.37 106.3 114.492 106.504C115.339 107.906 115.566 107.733 116.397 109.153C117.191 110.509 118.288 111.305 118.488 111.45C118.681 111.59 118.723 111.858 118.582 112.051C118.442 112.243 118.173 112.285 117.98 112.145C117.756 111.982 116.533 111.094 115.652 109.587C114.823 108.172 114.596 108.344 113.752 106.947H113.754ZM70.9027 82.5969C70.6979 82.4776 70.6289 82.2138 70.7485 82.0074C70.8682 81.8032 71.1327 81.7344 71.3397 81.8537C79.6785 86.7305 84.0768 86.5608 88.6523 86.0194C91.7853 85.6478 94.9967 85.1156 99.5422 85.8359C99.7768 85.8726 99.9378 86.0951 99.901 86.3291C99.8642 86.5631 99.6411 86.7236 99.4064 86.6869C94.9621 85.9827 91.8176 86.5126 88.7535 86.875C84.0354 87.4347 79.4968 87.6228 70.9027 82.5969ZM73.7597 77.8967C73.5573 77.7728 73.4952 77.5067 73.6194 77.3049C73.7436 77.103 74.0105 77.0411 74.2129 77.1649C76.9848 78.8716 76.9894 78.8211 80.8057 80.5072C81.0243 80.6035 81.1209 80.8581 81.0266 81.0737C80.9299 81.2917 80.6746 81.3903 80.4561 81.294C76.58 79.5827 76.5754 79.6309 73.7597 77.8967ZM108.037 57.0428C107.978 56.8134 108.116 56.5772 108.346 56.5175C108.576 56.4579 108.813 56.5955 108.872 56.8249C110.145 61.6673 111.465 67.4296 113.331 72.2789C114.554 75.4606 116.008 78.2477 117.851 80.0988C118.019 80.2663 118.019 80.5393 117.851 80.7067C117.683 80.8742 117.409 80.8742 117.241 80.7067C115.325 78.7821 113.798 75.8941 112.528 72.5886C110.651 67.7095 109.321 61.9151 108.04 57.0451L108.037 57.0428ZM117.207 71.4279C117.207 71.6665 117.013 71.8591 116.774 71.8591C116.535 71.8591 116.342 71.6665 116.342 71.4279C116.342 66.1381 119.447 53.134 119.824 51.565C119.88 51.3333 120.112 51.1911 120.344 51.2461C120.577 51.3012 120.719 51.5329 120.664 51.7645C120.291 53.3175 117.204 66.1909 117.207 71.4279ZM126.668 64.9293C126.507 65.1036 126.233 65.1174 126.058 64.9568C125.884 64.7962 125.87 64.5232 126.031 64.3489C126.958 63.3373 126.928 63.3327 127.666 62.1789C127.795 61.9793 128.062 61.9197 128.262 62.0481C128.462 62.1766 128.522 62.4427 128.393 62.6422C127.616 63.858 127.646 63.8649 126.668 64.9315V64.9293ZM113.077 7.14812C112.921 7.32704 112.647 7.3431 112.468 7.18482C112.288 7.02883 112.272 6.75586 112.431 6.57693C113.059 5.86812 113.229 5.67084 114.267 5.12031C114.476 5.0079 114.738 5.08819 114.851 5.29694C114.964 5.50568 114.883 5.76719 114.674 5.87959C113.772 6.35901 113.625 6.53106 113.08 7.14812H113.077ZM108.412 10.3894C108.263 10.5729 107.989 10.6027 107.805 10.4513C107.621 10.3022 107.591 10.0293 107.743 9.84575C107.879 9.68059 109.397 7.81564 109.434 7.77206C109.586 7.58855 109.859 7.56331 110.041 7.717C110.225 7.8684 110.25 8.14138 110.096 8.3226C110.062 8.36389 108.546 10.2242 108.412 10.3894ZM117.929 2.88146C117.768 2.70712 117.777 2.43414 117.952 2.27357C118.127 2.113 118.401 2.12217 118.562 2.29651C119.208 2.99156 119.171 3.00762 119.59 3.87013C119.693 4.08346 119.604 4.34038 119.39 4.4459C119.176 4.54912 118.918 4.45966 118.812 4.24633C118.451 3.50081 118.488 3.48246 117.929 2.88375V2.88146ZM119.571 1.84002C119.341 1.78268 119.201 1.5487 119.259 1.31701C119.316 1.08762 119.551 0.947696 119.783 1.00504C121.787 1.5097 123.767 2.65895 124.639 4.02153C124.768 4.2211 124.708 4.48719 124.508 4.61565C124.308 4.74411 124.041 4.68446 123.912 4.48489C123.137 3.27371 121.354 2.28734 119.574 1.84002H119.571ZM109.565 96.8053C109.351 96.9086 109.093 96.8191 108.987 96.6058C108.884 96.3924 108.974 96.1355 109.188 96.03C110.752 95.273 110.674 95.0367 120.715 92.8759C120.947 92.8254 121.177 92.9745 121.228 93.2062C121.278 93.4379 121.129 93.6673 120.896 93.7177C111.028 95.8396 111.101 96.0598 109.565 96.803V96.8053ZM143.902 67.737C143.771 67.9343 143.502 67.9893 143.304 67.8586C143.106 67.7278 143.051 67.4594 143.182 67.2622C145.952 63.0873 148.54 60.4493 150.675 57.8342C152.761 55.2765 154.408 52.7417 155.344 48.7435C157.116 41.1782 154.022 36.3013 149.853 33.7436C149.651 33.6198 149.587 33.3537 149.713 33.1518C149.837 32.9499 150.104 32.8857 150.307 33.0119C154.739 35.7302 158.068 40.8983 156.186 48.9407C155.216 53.0904 153.511 55.7238 151.344 58.3802C149.225 60.9769 146.654 63.5942 143.902 67.7393V67.737ZM125.596 7.42339C125.421 7.26052 125.412 6.98754 125.575 6.8155C125.739 6.64116 126.012 6.63199 126.185 6.79486C127.816 8.31571 127.781 8.35012 128.886 10.3275C129.001 10.5339 128.927 10.7977 128.718 10.9124C128.508 11.0271 128.246 10.9537 128.131 10.745C127.094 8.8869 127.128 8.85249 125.596 7.42339ZM129.96 9.17593C129.831 8.97636 129.889 8.71026 130.089 8.58181C130.289 8.45335 130.556 8.5107 130.684 8.71026C131.368 9.76775 131.439 9.70123 132.822 12.1213C132.939 12.3278 132.868 12.5915 132.66 12.7085C132.453 12.8255 132.189 12.7544 132.072 12.548C130.705 10.1554 130.634 10.2219 129.958 9.17822L129.96 9.17593ZM121.191 8.37535C121.053 8.18267 121.097 7.91428 121.29 7.77435C121.483 7.63672 121.752 7.6803 121.892 7.87299C122.633 8.90295 122.612 8.88919 123.252 9.96962C123.374 10.1738 123.305 10.4376 123.1 10.5592C122.895 10.6807 122.631 10.6119 122.509 10.4078C121.89 9.36173 121.911 9.3732 121.193 8.37765L121.191 8.37535ZM134.579 84.1201C134.735 83.9411 135.009 83.9228 135.189 84.0788C135.368 84.2347 135.386 84.5077 135.23 84.6866L134.572 85.439C134.416 85.618 134.142 85.6363 133.962 85.4803C133.783 85.3244 133.765 85.0514 133.921 84.8725L134.579 84.1201ZM134.303 87.0356C134.457 86.8567 134.731 86.836 134.913 86.9897C135.094 87.1434 135.113 87.4164 134.959 87.5976L134.505 88.1229C134.351 88.3041 134.078 88.3225 133.896 88.1688C133.714 88.0151 133.696 87.7421 133.85 87.5609L134.303 87.0356ZM134.593 89.5979C134.752 89.4213 135.025 89.4075 135.202 89.5658C135.38 89.7241 135.393 89.997 135.235 90.1737L134.71 90.7563C134.551 90.9329 134.278 90.9467 134.101 90.7884C133.923 90.6302 133.91 90.3572 134.068 90.1805L134.593 89.5979Z" fill="black"/>
</svg>
