<svg width="156" height="189" viewBox="0 0 156 189" fill="none" xmlns="http://www.w3.org/2000/svg">
<ellipse cx="78" cy="173" rx="78" ry="16" fill="black" fill-opacity="0.14"/>
<path fill-rule="evenodd" clip-rule="evenodd" d="M36.4443 154.027L34.6179 148.728C34.6179 148.728 30.3834 134.963 29.8699 130.097C29.5117 126.707 31.5409 119.536 31.5409 119.536C31.5409 119.536 31.4312 115.418 30.9674 113.883C30.5077 112.367 29.8223 111.058 28.7538 110.327C26.1179 108.526 24.4945 105.771 23.1796 103.475C22.4135 98.6482 23.8691 95.2064 27.352 92.0395C31.6859 90.4675 35.0548 91.0359 38.6723 94.1529L43.9587 102.908C46.7002 106.271 44.642 112.245 44.2962 120.044C44.2962 120.044 44.7683 129.281 44.6979 133.903C44.6234 138.819 43.9939 150.389 43.822 153.471C42.4078 153.542 39.778 154.345 39.778 154.345L36.4422 154.029L36.4443 154.027ZM97.9987 148.607C94.8762 145.565 88.9955 139.785 86.9518 137.405C85.4153 135.619 84.674 132.804 83.0465 131.005C80.9531 128.691 74.2048 123.153 74.2048 123.153C67.0569 117.448 59.1904 112.33 53.2083 106.356C60.7186 104.087 67.823 101.359 73.8942 97.4718C74.6976 98.4483 76.6399 100.791 77.8181 102.067C83.1977 107.889 86.9663 115.47 90.8156 122.408C90.8156 122.408 95.2303 125.639 96.6218 127.921C98.5682 131.115 103.049 140.922 104.915 145.061C103.32 145.49 99.6656 147.21 98.0008 148.607H97.9987ZM35.732 22.6209C40.0389 19.6684 45.11 19.6809 51.7216 23.5162C53.7633 21.5257 55.3183 22.5001 54.8773 24.6697C54.4838 26.5978 53.6659 28.5071 52.4153 28.7112C52.4153 28.7112 52.5043 34.9992 52.1461 42.6782C52.0881 43.8879 51.8272 44.6562 51.8272 44.6562L50.6138 44.3293L48.7543 43.6193L45.667 42.3242C45.667 42.3242 43.1408 40.2879 42.3829 39.6195C41.6168 38.947 41.2482 38.1703 41.2482 38.1703L41.1322 37.8289C41.1322 37.8289 40.2729 37.1022 39.7408 36.4317C38.869 35.3303 37.051 32.8484 36.4815 30.5143C35.7982 27.7221 36.0011 25.5817 35.7299 22.6188L35.732 22.6209ZM96.7481 35.0242L96.7564 34.9451C96.8164 34.3642 98.4253 33.2731 99.7526 32.307C100.678 31.6324 101.761 30.6954 102.003 30.8391C103.107 31.4971 104.2 32.5027 105.619 34.7306L105.726 35.4011C106.586 36.1111 106.629 36.8253 106.468 37.5415C106.985 38.2807 107.12 38.822 106.751 39.5029C107.509 40.6064 107.184 41.3685 106.631 41.8224L104.453 39.8444C103.291 42.2201 102.099 44.7207 100.169 46.4906C92.3976 53.624 78.7416 60.1161 71.0118 61.2717C65.3693 62.115 61.6028 59.8267 54.9518 58.9501C55.8815 55.7686 57.2482 52.2997 59.2919 48.3832C60.2962 48.9142 61.3274 49.3868 62.4124 49.745L70.4072 42.6344L73.6292 45.2912C80.2035 44.4355 85.4671 41.4414 89.7782 36.8877C89.7782 36.8877 89.2626 30.8162 89.4324 28.2114C89.4159 27.6972 89.4304 27.2224 89.509 26.9663C89.6788 26.427 91.8965 24.1346 92.6916 24.7405C93.0644 25.0237 92.6295 26.7269 92.1305 27.7908L92.586 29.6127L94.0811 30.3894L96.7501 35.02L96.7481 35.0242ZM92.1015 43.6547L95.837 41.9328C95.837 41.9328 95.8846 41.5871 95.9591 41.0478L94.3502 41.8828L92.0994 43.6568L92.1015 43.6547ZM102.991 34.1997C102.618 33.8311 102.051 32.9837 101.428 33.7354C100.858 34.4225 101.705 34.5349 101.726 34.537C102.235 34.5828 102.43 34.2621 102.991 34.1997ZM97.7523 28.2302L98.3321 22.7104L98.3383 22.7021C99.3944 22.8978 99.5724 24.3491 98.9098 25.4568C99.7899 26.2043 99.8023 27.5181 99.2204 28.2926C99.9659 28.5571 100.152 29.4753 99.794 30.0354C99.6698 30.2311 99.3757 30.4248 99.1024 30.5726L97.7627 28.2468C97.7627 28.2468 97.7544 28.2364 97.7523 28.2302Z" fill="#E4572E"/>
<path fill-rule="evenodd" clip-rule="evenodd" d="M44.78 102.223V104.305C44.5729 103.799 44.3037 103.332 43.9579 102.91L38.7461 94.2793C41.2723 95.7826 43.3968 98.3082 44.78 102.223Z" fill="black"/>
<path fill-rule="evenodd" clip-rule="evenodd" d="M37.2228 163.916C37.14 163.631 37.0385 163.218 37.0489 162.977C37.0675 162.583 37.1545 161.834 37.1545 161.834C37.1545 161.834 36.3842 160.551 36.2392 159.962C36.1047 159.425 36.4794 158.64 36.291 158.021C35.7692 156.333 35.3944 154.667 36.4442 154.028L39.7801 154.344C39.7801 154.344 43.8572 153.097 44.5881 153.572C45.317 154.046 44.4453 156.437 44.5281 157.284C44.5757 157.774 45.0209 158.071 45.0851 158.65C45.1514 159.254 44.5819 160.907 44.5819 160.907L45.5158 163.526L42.563 163.862C42.563 163.862 42.5465 162.871 42.356 162.864C41.418 162.837 38.5998 162.852 37.6866 163.068C37.492 163.114 37.6659 163.858 37.6659 163.858L37.2249 163.916H37.2228ZM100.154 155.893C100.154 155.893 100.003 154.923 99.8395 154.517C99.6842 154.132 99.2701 153.87 99.1728 153.466C99.063 153.008 99.0175 152.25 98.7856 151.731C98.477 151.038 96.7833 150.115 97.3196 149.316C98.475 147.594 104.96 144.669 105.627 144.989C106.261 145.293 106.679 147.28 107.126 148.206C107.625 149.239 109.124 150.026 110.139 150.811C111.268 151.683 112.139 152.441 112.535 152.793L111.893 153.364C111.893 153.364 111.127 152.227 110.806 152.41C109.99 152.874 107.65 155.589 107.081 156.356C106.704 156.864 107.957 157.678 107.957 157.678C107.957 157.678 105.538 158.088 104.565 157.721C103.353 157.265 100.158 155.893 100.158 155.893H100.154Z" fill="#F7F4ED"/>
<path fill-rule="evenodd" clip-rule="evenodd" d="M24.4461 105.601C21.6673 102.366 18.7538 97.5289 17.5301 92.4589C17.5301 92.4589 17 91.0513 17 90.587C17 90.1227 17.1097 88.153 17.1097 88.153L17.9132 85.9355C19.228 86.0896 21.1641 84.553 22.9283 85.9605C28.1422 86.8059 33.2257 87.4659 38.3257 88.153C38.3257 88.153 53.1951 85.1339 53.4684 85.0631C53.6714 85.011 59.0323 82.5375 61.807 81.2528L64.7142 84.4843C64.7142 84.4843 66.6482 85.8606 67.2673 86.7309C67.874 87.5846 68.3875 89.8333 68.3875 89.8333C69.3918 90.8369 69.8577 91.88 70.9241 93.0377C72.3322 94.0517 73.647 95.2864 74.8107 96.8688C68.1763 101.325 60.2271 104.302 51.8223 106.767L46.4924 101.32L44.7758 102.222C43.3926 98.3076 41.2681 95.782 38.7419 94.2787L38.6674 94.1537C35.0499 91.0368 31.681 90.4683 27.3471 92.0404C23.8642 95.2073 22.4086 98.6491 23.1747 103.475C23.564 104.156 23.9823 104.877 24.4419 105.601H24.4461ZM36.0832 22.4115L36.1867 23.7878C34.8594 23.7149 33.381 22.2574 33.6688 20.9269C33.4493 20.9248 33.2257 19.8421 33.1263 18.7865C33.0621 18.0931 33.1491 17.5247 33.4141 16.6918C33.8697 15.2593 35.3916 13.9184 35.3916 13.9184C36.5884 10.4933 38.5804 9.15655 40.6221 8.71097C41.9784 7.67614 43.5935 7.6699 44.8442 8.1009C46.304 7.51166 48.0205 7.67198 49.002 8.52566C51.1348 8.50692 54.2139 10.4246 54.8351 12.4505C57.6325 14.1558 57.2474 18.6678 56.9575 18.7802C57.2764 19.9754 56.4274 22.2428 55.7027 21.9242C55.5018 23.7586 54.9738 24.3458 54.2822 25.0183L53.3007 24.2188L54.4168 23.9918C52.6795 17.1707 39.5681 15.4196 35.7333 20.1357V22.6197C35.8492 22.5468 35.9672 22.4781 36.0853 22.4094L36.0832 22.4115Z" fill="#2E2E2E"/>
<path fill-rule="evenodd" clip-rule="evenodd" d="M54.9209 23.5717C55.2957 23.5613 55.629 23.5675 55.9107 23.5925C58.6646 23.8382 61.9031 29.3372 61.9031 29.3372C63.92 31.4651 65.9285 33.7451 67.9122 36.481C67.9122 36.481 68.9765 36.962 69.2809 37.3034C69.5894 37.6532 69.8234 39.0399 69.8234 39.0399L71.7719 41.095C71.3681 41.6031 70.9188 42.1319 70.4384 42.667L70.4053 42.64L62.4105 49.7505C61.3254 49.3924 60.2942 48.9197 59.29 48.3888C57.2483 52.3032 55.8796 55.7741 54.9499 58.9556C57.532 59.295 59.6793 59.8489 61.6692 60.3486L58.412 71.7899C58.412 71.7899 60.7871 75.1068 60.5759 75.2005C60.1079 75.4087 60.0375 76.5539 60.3439 77.1202C60.8223 78.0031 63.4396 80.5016 63.4396 80.5016C63.4396 80.5016 53.7427 84.9991 53.4693 85.0678C53.196 85.1365 38.3266 88.1577 38.3266 88.1577C33.2245 87.4706 28.141 86.8105 22.9292 85.9652C21.165 84.5597 19.2289 86.0943 17.9141 85.9402L20.3077 81.4532L20.5314 78.8276L20.8275 76.6663C20.8275 76.6663 20.5397 75.3296 20.6618 74.8091C20.8399 74.0491 22.2707 71.7629 22.2707 71.7629C22.2707 71.7629 21.3203 69.5475 21.3162 68.5543C21.312 67.5861 22.2438 65.7996 22.2438 65.7996C21.3037 58.3247 20.7819 50.523 22.3391 41.1033C22.776 38.6652 23.2377 36.7225 24.7141 35.213C26.6812 33.2016 34.146 29.0353 34.146 29.0353L36.0137 27.5528C36.0924 28.5022 36.2228 29.4642 36.4817 30.5198C37.0532 32.8539 38.8691 35.3379 39.7409 36.4373C40.271 37.1077 41.1324 37.8344 41.1324 37.8344L41.2483 38.1759C41.2483 38.1759 41.6169 38.9525 42.383 39.625C43.1409 40.2913 45.6671 42.3297 45.6671 42.3297L48.7545 43.6248L50.6139 44.3348L51.8273 44.6617C51.8273 44.6617 52.0882 43.8934 52.1462 42.6837C52.5044 35.0048 52.4154 28.7167 52.4154 28.7167C53.6661 28.5126 54.486 26.6033 54.8774 24.6752C54.9623 24.2609 54.9726 23.8903 54.923 23.5738L54.9209 23.5717ZM53.7799 22.4369C53.2229 22.4245 52.5086 22.7513 51.7217 23.5176C45.1101 19.6823 40.0391 19.6719 35.7321 22.6223V20.1383C39.2584 15.8032 50.6139 16.9318 53.7799 22.4369Z" fill="#F7F4ED"/>
<path fill-rule="evenodd" clip-rule="evenodd" d="M37.6035 11.6241C38.5747 10.5184 38.8273 10.3789 39.728 9.96875Z" fill="#2B2B2B"/>
<path fill-rule="evenodd" clip-rule="evenodd" d="M37.8942 11.8825C37.7534 12.0449 37.507 12.0595 37.3455 11.9179C37.184 11.7763 37.1695 11.5285 37.3103 11.3661C38.3394 10.1939 38.6107 10.0481 39.5653 9.61294C39.7599 9.5234 39.9897 9.61294 40.0809 9.80866C40.1699 10.0044 40.0808 10.2376 39.8862 10.325C39.0414 10.7102 38.8053 10.8435 37.8942 11.8825ZM37.0535 12.6883C36.9086 12.8465 36.6622 12.859 36.5048 12.7132C36.3475 12.5675 36.335 12.3197 36.482 12.1615L36.5359 12.1011C36.6808 11.9429 36.9272 11.9304 37.0846 12.0761C37.244 12.2219 37.2544 12.4696 37.1095 12.6279L37.0556 12.6883H37.0535Z" fill="#F7F4ED"/>
<path fill-rule="evenodd" clip-rule="evenodd" d="M97.7515 28.2305C97.7515 28.2305 97.7598 28.2409 97.7618 28.2471L99.9981 32.1262C99.9153 32.1886 99.8325 32.249 99.7517 32.3094C98.4244 33.2755 96.8176 34.3665 96.7555 34.9475L96.7472 35.0266L94.0781 30.3959L97.7432 28.3033L97.7515 28.2326V28.2305ZM104.45 39.8509L106.693 43.7424C106.852 44.0214 106.659 44.4337 106.26 44.6669L104.019 45.9724C103.622 46.2035 103.168 46.166 103.007 45.8891L102.058 44.2442C102.982 42.87 103.721 41.3355 104.448 39.8488L104.45 39.8509Z" fill="#2E2E2E"/>
<path fill-rule="evenodd" clip-rule="evenodd" d="M89.4246 27.9747L85.4323 25.8988C81.8584 24.7162 78.0007 21.4222 76.2593 17.766C73.1616 11.2655 75.6257 5.26478 81.4774 1.85632C88.9732 -2.50993 95.0712 1.36701 98.171 7.86746C99.5542 10.7679 99.3285 13.9577 98.8564 17.7118L97.7465 28.3016L94.0815 30.3941L92.5865 29.6175L92.1288 27.7956C92.6279 26.7317 93.0627 25.0285 92.6921 24.7453C91.8969 24.1394 89.6772 26.4318 89.5095 26.9711C89.4432 27.1856 89.4225 27.5541 89.4266 27.9726L89.4246 27.9747Z" fill="#F7F4ED"/>
<path fill-rule="evenodd" clip-rule="evenodd" d="M90.3018 5.00549C90.4965 5.33446 90.395 5.75506 90.0761 5.94245C89.7573 6.12984 89.3411 6.01324 89.1464 5.68426C88.9518 5.35528 89.0512 4.93261 89.3721 4.74522C89.691 4.55782 90.1072 4.67442 90.3018 5.00549ZM92.0163 7.92257C92.211 8.25363 92.1116 8.67422 91.7906 8.86161C91.4718 9.049 91.0556 8.9324 90.8609 8.60134C90.6663 8.27028 90.7677 7.85177 91.0866 7.66438C91.4055 7.47699 91.8217 7.59359 92.0163 7.92257ZM93.7309 10.8396C93.9255 11.1707 93.8261 11.5913 93.5052 11.7787C93.1863 11.9661 92.7701 11.8495 92.5754 11.5184C92.3808 11.1874 92.4823 10.7689 92.8011 10.5815C93.12 10.3941 93.5362 10.5107 93.7309 10.8396ZM95.4474 13.7567C95.6421 14.0878 95.5427 14.5084 95.2217 14.6958C94.9029 14.8832 94.4866 14.7666 94.292 14.4355C94.0974 14.1044 94.1968 13.6839 94.5177 13.4965C94.8387 13.3091 95.2549 13.4277 95.4474 13.7567ZM87.6452 6.56501C87.8398 6.89399 87.7384 7.31458 87.4195 7.50197C87.1006 7.68937 86.6844 7.57277 86.4898 7.24379C86.2951 6.91481 86.3945 6.49213 86.7155 6.30474C87.0364 6.11735 87.4505 6.23395 87.6452 6.56501ZM89.3597 9.48209C89.5543 9.81315 89.4529 10.2337 89.134 10.4211C88.8151 10.6085 88.3989 10.4919 88.2043 10.1609C88.0096 9.83189 88.1111 9.4113 88.43 9.2239C88.7488 9.03651 89.1651 9.15311 89.3597 9.48209ZM91.0763 12.3992C91.2709 12.7302 91.1694 13.1508 90.8506 13.3382C90.5317 13.5256 90.1155 13.409 89.9208 13.0779C89.7262 12.7469 89.8277 12.3284 90.1465 12.141C90.4654 11.9536 90.8816 12.0702 91.0763 12.3992ZM92.7908 15.3163C92.9854 15.6473 92.884 16.0679 92.5651 16.2553C92.2462 16.4427 91.83 16.3261 91.6353 15.995C91.4407 15.664 91.5401 15.2434 91.8611 15.056C92.182 14.8686 92.5982 14.9873 92.7908 15.3163ZM84.9885 8.12453C85.1832 8.45351 85.0817 8.8741 84.7628 9.0615C84.4439 9.24889 84.0277 9.13229 83.8331 8.80331C83.6385 8.47433 83.7379 8.05166 84.0588 7.86427C84.3777 7.67687 84.7939 7.79347 84.9885 8.12453ZM86.7051 11.0416C86.8998 11.3727 86.7983 11.7933 86.4794 11.9807C86.1605 12.1681 85.7443 12.0515 85.5497 11.7204C85.355 11.3893 85.4565 10.9708 85.7754 10.7834C86.0943 10.596 86.5105 10.7126 86.7051 11.0416ZM88.4196 13.9587C88.6143 14.2898 88.5128 14.7103 88.1939 14.8977C87.875 15.0851 87.4588 14.9685 87.2642 14.6375C87.0695 14.3064 87.171 13.8879 87.4899 13.7005C87.8088 13.5131 88.225 13.6297 88.4196 13.9587ZM90.1362 16.8758C90.3308 17.2068 90.2294 17.6274 89.9105 17.8148C89.5916 18.0022 89.1754 17.8856 88.9808 17.5546C88.7861 17.2235 88.8855 16.8029 89.2065 16.6155C89.5253 16.4281 89.9436 16.5468 90.1362 16.8758ZM82.3339 9.68614C82.5286 10.0151 82.4271 10.4357 82.1082 10.6231C81.7894 10.8105 81.3732 10.6939 81.1785 10.3649C80.9839 10.0359 81.0833 9.61326 81.4042 9.42587C81.7252 9.23848 82.1393 9.35508 82.3339 9.68614ZM84.0485 12.6011C84.2431 12.9322 84.1416 13.3528 83.8228 13.5402C83.5039 13.7276 83.0877 13.611 82.893 13.2799C82.6984 12.9489 82.7998 12.5303 83.1187 12.343C83.4376 12.1556 83.8538 12.2722 84.0485 12.6011ZM85.765 15.5182C85.9597 15.8493 85.8582 16.2699 85.5393 16.4573C85.2204 16.6447 84.8042 16.5281 84.6096 16.197C84.415 15.8659 84.5164 15.4474 84.8353 15.26C85.1542 15.0726 85.5704 15.1892 85.765 15.5182ZM87.4795 18.4353C87.6742 18.7664 87.5727 19.187 87.2538 19.3743C86.935 19.5617 86.5188 19.4451 86.3241 19.1141C86.1295 18.783 86.2289 18.3624 86.5498 18.175C86.8687 17.9876 87.287 18.1063 87.4795 18.4353ZM79.6773 11.2457C79.8719 11.5746 79.7705 11.9952 79.4516 12.1826C79.1327 12.37 78.7144 12.2534 78.5219 11.9244C78.3293 11.5955 78.4287 11.1728 78.7476 10.9854C79.0665 10.798 79.4827 10.9146 79.6773 11.2457ZM81.3918 14.1607C81.5864 14.4917 81.485 14.9123 81.1661 15.0997C80.8472 15.2871 80.4289 15.1705 80.2343 14.8394C80.0397 14.5105 80.1411 14.0899 80.4621 13.9004C80.781 13.713 81.1972 13.8296 81.3918 14.1586V14.1607ZM83.1084 17.0777C83.303 17.4088 83.2016 17.8294 82.8827 18.0168C82.5638 18.2042 82.1455 18.0876 81.9509 17.7565C81.7562 17.4255 81.8577 17.0069 82.1786 16.8175C82.4975 16.6301 82.9137 16.7467 83.1084 17.0757V17.0777ZM84.8229 19.9948C85.0175 20.3259 84.9161 20.7465 84.5972 20.9339C84.2783 21.1213 83.86 21.0047 83.6654 20.6736C83.4707 20.3425 83.5722 19.9219 83.8911 19.7346C84.21 19.5472 84.6282 19.6658 84.8208 19.9948H84.8229ZM79.4578 7.38954C79.7891 7.1959 80.2115 7.29584 80.3979 7.61441C80.5842 7.93298 80.4662 8.3494 80.1349 8.54304C79.8036 8.73668 79.3833 8.63674 79.1969 8.32025C79.0105 8.00377 79.1265 7.58526 79.4578 7.38954ZM82.3795 5.67385C82.7108 5.48021 83.1312 5.58016 83.3196 5.89872C83.508 6.21729 83.39 6.63164 83.0587 6.82736C82.7274 7.021 82.305 6.92314 82.1186 6.60457C81.9322 6.286 82.0482 5.86749 82.3795 5.67385ZM85.3033 3.95609C85.6346 3.76245 86.0549 3.86239 86.2434 4.18096C86.4318 4.49952 86.3138 4.91387 85.9825 5.10959C85.6491 5.30531 85.2287 5.20537 85.0424 4.8868C84.856 4.56824 84.972 4.15181 85.3033 3.95609ZM87.4071 20.9089C87.7384 20.7152 88.1608 20.8152 88.3471 21.1338C88.5335 21.4523 88.4155 21.8687 88.0842 22.0624C87.7529 22.256 87.3325 22.1561 87.1462 21.8396C86.9598 21.5231 87.0758 21.1046 87.4071 20.9089ZM90.3308 19.1911C90.6621 18.9975 91.0825 19.0974 91.2709 19.416C91.4573 19.7346 91.3413 20.1489 91.01 20.3446C90.6787 20.5403 90.2563 20.4404 90.0699 20.1218C89.8836 19.8033 89.9995 19.3848 90.3308 19.1911ZM93.2525 17.4754C93.5838 17.2818 94.0042 17.3817 94.1926 17.7003C94.381 18.0189 94.263 18.4332 93.9317 18.6289C93.6004 18.8247 93.178 18.7247 92.9916 18.4061C92.8053 18.0876 92.9212 17.6712 93.2525 17.4754Z" fill="black"/>
<path fill-rule="evenodd" clip-rule="evenodd" d="M42.5612 163.862L45.5139 163.527C47.9097 168.072 48.27 173.067 47.4003 178.331C47.4003 178.331 44.8906 180.982 44.1121 181.275C42.1967 181.996 33.6697 182.475 31.8082 181.242C31.3713 180.952 30.8557 179.083 31.3506 177.536C31.8662 175.93 34.7465 174.421 35.7735 171.098L36.8068 163.971L37.664 163.86C37.664 163.86 37.4901 163.117 37.6848 163.071C38.5979 162.855 41.4161 162.838 42.3541 162.867C42.5425 162.873 42.5612 163.864 42.5612 163.864V163.862ZM111.891 153.364L112.535 152.794C112.535 152.794 115.618 155.226 116.747 155.925C118.666 157.118 121.954 159.327 124.669 160.91C125.39 161.33 126.067 161.705 126.671 162.005C128.661 162.996 130.374 165.241 129.931 167.452C128.736 171.745 123.938 173.321 120.956 172.174C116.703 170.538 110.8 166.54 110.8 166.54C110.8 166.54 104.733 165.388 101.896 162.813C99.3324 160.485 100.154 155.896 100.154 155.896C100.154 155.896 103.349 157.27 104.561 157.724C105.534 158.091 107.953 157.68 107.953 157.68C107.953 157.68 106.7 156.866 107.077 156.358C107.648 155.592 109.986 152.877 110.802 152.413C111.123 152.229 111.889 153.366 111.889 153.366L111.891 153.364Z" fill="#2B2B2B"/>
<path fill-rule="evenodd" clip-rule="evenodd" d="M51.4419 44.7077C51.4295 44.5994 51.4585 44.489 51.5372 44.4016C51.678 44.2392 51.9244 44.2246 52.0859 44.3683L52.1439 44.4308L52.1894 44.512L52.2184 44.666C52.2184 44.666 52.2184 44.6577 52.2184 44.6515C52.2184 44.6452 52.2101 44.6181 52.2101 44.6181C52.2101 44.6181 52.3737 44.8159 52.6595 45.0033C53.4608 45.528 55.3182 46.3776 59.6231 47.6414C59.8302 47.7018 59.9482 47.9183 59.8881 48.1266C59.8281 48.3327 59.6107 48.4534 59.4057 48.391C54.9703 47.0876 53.0612 46.1985 52.2371 45.6571C51.4958 45.1699 51.4585 44.8409 51.4481 44.7347V44.7139C51.4626 44.8555 51.5413 44.9201 51.5744 44.9513C51.502 44.8867 51.4585 44.8014 51.4481 44.7098V44.6744C51.4461 44.6848 51.4481 44.6973 51.4481 44.7077H51.4419ZM51.4419 44.7139V44.7056V44.7098V44.7139ZM64.4705 50.9166C63.7106 50.5918 63.8493 50.5647 62.669 50.0692C62.4723 49.9859 62.3771 49.7569 62.4599 49.5591C62.5427 49.3592 62.7705 49.2655 62.9693 49.3488C64.3732 49.938 63.899 49.861 65.3257 50.4211C65.334 50.4252 65.3402 50.4273 65.3485 50.4315C67.2949 49.4008 68.5166 49.1156 70.1586 48.9157V48.9115C70.9372 47.2229 71.7758 46.4817 73.2667 45.0554C73.422 44.9076 73.6684 44.9138 73.8154 45.07C73.9624 45.2261 73.9562 45.4739 73.8009 45.6217C72.5295 46.8377 71.753 47.5165 71.0718 48.8137C72.4322 48.6742 74.1363 48.518 76.6563 48.0787C89.0989 45.9049 94.1265 42.5943 95.4165 41.7948C95.5987 41.6823 95.8389 41.7385 95.9507 41.9218C96.0626 42.105 96.0067 42.3465 95.8244 42.459C94.5158 43.271 89.4178 46.642 76.7909 48.8491C69.6347 50.0983 69.1937 48.9677 64.2117 51.9743C64.0295 52.0847 63.7893 52.0243 63.6795 51.8411C63.5698 51.6558 63.6278 51.4163 63.812 51.306C64.0398 51.1686 64.2593 51.0374 64.4705 50.9166ZM31.1225 178.229C31.0832 178.146 31.0749 178.048 31.1018 177.952C31.2489 177.463 31.87 174.823 35.0278 173.64C35.2183 173.569 35.4129 173.551 35.6179 173.569C35.5972 173.494 35.5972 173.411 35.6262 173.332C36.2868 171.479 36.7423 169.653 37.0322 168.035L36.9929 168.043C36.674 168.102 36.1377 168.095 35.8478 167.95C35.8022 167.927 35.7629 167.902 35.7256 167.873L35.6097 167.76L35.5434 167.658L35.4978 167.542L35.4771 167.383L35.4937 167.233C35.5123 167.154 35.5455 167.067 35.6055 166.971C36.0528 166.251 36.7112 165.78 37.3697 165.476C37.4091 165.018 37.4277 164.595 37.4318 164.223C37.4339 164.006 37.6099 163.833 37.8253 163.835C38.0406 163.837 38.2125 164.014 38.2083 164.231C38.2063 164.52 38.1938 164.837 38.1711 165.176C38.8854 164.964 39.4818 164.918 39.6433 164.906C39.7323 164.899 39.8152 164.924 39.8856 164.97C39.9705 164.887 40.0926 164.845 40.2189 164.866C40.3867 164.895 41.159 165.022 41.9914 165.305C42.0059 164.878 42.0142 164.466 42.0183 164.069C42.0183 163.854 42.1964 163.679 42.4097 163.681C42.623 163.681 42.7969 163.858 42.7948 164.075C42.7907 164.564 42.7783 165.076 42.7576 165.609C43.4927 165.953 44.1366 166.44 44.3955 167.065C44.4928 167.298 44.4949 167.71 44.1884 168C44.0269 168.152 43.766 168.285 43.3436 168.283C43.0661 168.283 42.8445 168.262 42.6064 168.175C42.4677 169.986 42.2585 171.958 41.9894 174.032C42.5257 174.425 42.9294 174.904 43.3001 175.412C43.6107 175.837 43.8964 176.282 44.234 176.699C44.6854 176.357 45.1057 175.966 45.5012 175.558C45.4743 175.502 45.4619 175.437 45.466 175.372C45.6316 172.655 45.6668 171.45 46.5158 168.406C46.5738 168.197 46.7871 168.079 46.9941 168.135C47.2012 168.193 47.3213 168.408 47.2633 168.618C46.5117 171.3 46.4144 172.522 46.2839 174.69C46.5427 174.386 46.7891 174.082 47.0252 173.792C47.1598 173.626 47.4041 173.598 47.5719 173.734C47.7375 173.869 47.7644 174.115 47.6298 174.284C46.7539 175.372 45.7 176.599 44.4493 177.488C44.4431 177.496 44.4348 177.503 44.4286 177.509C44.3955 177.538 44.3582 177.563 44.3188 177.58C43.4223 178.194 42.4242 178.629 41.3226 178.718C37.1585 179.052 33.9801 178.898 31.4683 178.666C31.2551 178.646 31.0956 178.456 31.1163 178.242V178.227L31.1225 178.229ZM36.7216 173.898C36.9722 173.99 37.2372 174.069 37.5188 174.082C38.7094 174.14 39.4673 173.977 40.0181 173.84C39.4632 173.451 39.0552 173.163 38.726 172.938C37.8915 173.261 37.3739 173.594 36.7216 173.896V173.898ZM36.9121 171.887C36.7899 172.299 36.6595 172.714 36.5145 173.134C36.9908 172.907 37.4049 172.67 37.9309 172.428C37.6161 172.241 37.3283 172.093 36.91 171.887H36.9121ZM41.8651 167.731C41.7388 167.633 41.5959 167.519 41.4344 167.379C41.0534 167.604 40.7615 167.779 40.513 167.929C40.8381 168.214 41.1735 168.497 41.7657 168.98C41.803 168.556 41.8361 168.139 41.8651 167.731ZM41.5317 171.369C41.5856 170.875 41.6353 170.392 41.6808 169.915C41.1777 170.13 40.7615 170.292 40.4012 170.432C40.7325 170.711 41.0803 171.006 41.5317 171.369ZM37.8729 167.706C37.8211 168.029 37.7611 168.362 37.6948 168.701C38.4133 168.285 38.842 168.029 39.2105 167.806C39.0325 167.644 38.8233 167.456 38.5728 167.231C38.5355 167.26 38.4982 167.29 38.461 167.319C38.2705 167.465 38.0737 167.596 37.875 167.706H37.8729ZM39.8835 165.982C39.6619 166.215 39.4176 166.467 39.1629 166.713C39.4652 166.988 39.7034 167.202 39.9063 167.385C40.1548 167.235 40.4405 167.065 40.8215 166.838C40.5544 166.596 40.2459 166.313 39.8835 165.982ZM41.2667 174.494C40.9851 174.371 40.7242 174.471 40.3287 174.571C39.722 174.723 38.8772 174.933 37.4815 174.864C36.9825 174.842 36.5228 174.654 36.1025 174.498C35.8126 174.39 35.5496 174.279 35.3011 174.371C32.8764 175.279 32.1537 177.169 31.9218 177.923C34.3403 178.131 37.3656 178.252 41.2667 177.94C42.1136 177.873 42.888 177.573 43.5983 177.14C43.2711 176.728 42.9853 176.293 42.6789 175.872C42.3476 175.418 41.9914 174.985 41.5028 174.637C41.4054 174.621 41.3247 174.567 41.2667 174.492V174.494ZM42.6706 167.335C42.9087 167.469 43.093 167.5 43.3519 167.502C43.503 167.502 43.6045 167.485 43.6604 167.431C43.6832 167.41 43.6894 167.383 43.6832 167.367C43.5237 166.984 43.1531 166.692 42.7224 166.461C42.7079 166.746 42.6892 167.04 42.6706 167.335ZM41.012 173.659C41.0948 173.659 41.1756 173.663 41.2563 173.678C41.3185 173.188 41.3785 172.703 41.4344 172.226C40.718 172.355 40.1382 172.493 39.6495 172.632C39.9808 172.863 40.3825 173.145 40.8816 173.496C40.9416 173.538 40.9851 173.594 41.0141 173.659H41.012ZM38.8275 172.072C39.2975 171.91 39.8607 171.75 40.5772 171.598C40.1982 171.283 39.8918 171.019 39.5584 170.748C38.989 170.962 38.5086 171.156 37.8625 171.493C38.1773 171.66 38.4527 171.827 38.8275 172.072ZM39.8152 168.351C39.488 168.549 39.1505 168.753 38.6204 169.066C39.0573 169.368 39.399 169.624 39.7034 169.863C40.0678 169.726 40.4819 169.567 40.9954 169.355C40.4612 168.918 40.1568 168.658 39.8152 168.351ZM37.5747 169.286C37.4567 169.836 37.3221 170.402 37.1668 170.981C37.8398 170.611 38.3284 170.392 38.8461 170.188C38.5417 169.961 38.1876 169.709 37.7466 169.411C37.6803 169.388 37.6203 169.345 37.5747 169.286ZM37.2786 166.394C36.9287 166.611 36.6015 166.894 36.3447 167.265C36.498 167.279 36.734 167.294 36.85 167.273C36.9577 167.252 37.0653 167.221 37.1709 167.181C37.2124 166.911 37.2476 166.648 37.2786 166.394ZM38.0261 166.669C38.374 166.398 38.7053 166.078 39.0076 165.768C38.7426 165.813 38.4299 165.886 38.1027 166.003C38.08 166.217 38.0551 166.44 38.0261 166.669ZM41.9624 166.122C41.5545 165.97 41.1487 165.859 40.8174 165.782C41.2791 166.203 41.6373 166.528 41.9272 166.775C41.9397 166.555 41.9521 166.336 41.9624 166.122ZM120.109 169.316C120.72 169.42 121.271 169.445 121.78 169.405C123.387 169.284 124.553 168.537 125.741 167.735C126.708 167.083 129.009 164.66 126.764 162.519C126.609 162.372 126.603 162.124 126.75 161.968C126.897 161.811 127.143 161.805 127.298 161.953C130.052 164.583 127.358 167.583 126.172 168.385C124.874 169.259 123.592 170.053 121.838 170.186C120.105 170.315 117.896 169.796 114.725 168.002C111.769 166.323 109.249 165.457 106.983 164.602C104.658 163.725 102.593 162.857 100.593 161.187C100.428 161.049 100.405 160.804 100.541 160.637C100.678 160.471 100.922 160.448 101.088 160.585C103.02 162.195 105.014 163.023 107.257 163.869C109.557 164.737 112.11 165.618 115.108 167.319C116.761 168.256 118.136 168.835 119.308 169.141C119.219 168.376 119.103 167.396 119.202 166.582C119.254 166.149 119.368 165.763 119.56 165.453C114.81 162.796 112.301 161.166 110.342 159.775C109.793 160.212 109.331 160.267 109.031 160.146C108.799 160.054 108.619 159.858 108.53 159.559C108.449 159.292 108.443 158.915 108.549 158.463L108.122 158.147C107.95 158.02 107.913 157.774 108.041 157.601C108.168 157.429 108.412 157.393 108.584 157.52L108.803 157.685C109.58 155.775 111.222 154.332 111.247 154.31L111.255 154.301C111.414 154.166 111.675 154.001 111.996 153.837L111.976 153.82C111.818 153.674 111.81 153.427 111.955 153.268C112.1 153.11 112.346 153.1 112.504 153.246C112.568 153.304 112.655 153.385 112.764 153.485C113.102 153.35 113.46 153.225 113.808 153.127C114.547 152.919 115.251 152.852 115.663 152.998C116.02 153.121 116.353 153.346 116.541 153.589C116.728 153.829 116.788 154.091 116.722 154.332C116.659 154.555 116.473 154.801 116.042 154.965C115.68 155.105 115.289 155.19 114.893 155.24L114.883 155.276C116.891 156.856 120.043 159.053 124.095 160.941L124.11 160.914C124.211 160.725 124.447 160.652 124.636 160.754C124.824 160.856 124.894 161.093 124.795 161.283C124.087 162.609 123.234 164.002 120.48 165.605C120.148 165.799 120.028 166.211 119.97 166.68C119.867 167.531 120.024 168.576 120.107 169.318L120.109 169.316ZM110.859 159.188C111.46 159.615 112.114 160.062 112.872 160.558C112.86 160.479 112.872 160.398 112.907 160.329C112.897 160.275 112.895 160.219 112.907 160.162C113.1 159.261 113.253 158.528 113.406 157.849C112.599 158.014 111.847 158.239 111.197 158.499L111.18 158.54C111.096 158.763 110.99 158.984 110.859 159.19V159.188ZM113.363 160.875C114.858 161.836 116.746 162.973 119.337 164.435C119.223 163.511 119.173 162.667 119.161 161.936C118.219 162.088 117.295 162.311 116.506 162.628C116.467 162.642 116.427 162.653 116.386 162.655C116.22 162.665 116.065 162.565 116.001 162.409C115.986 162.369 115.976 162.33 115.974 162.288C115.92 161.372 115.933 160.66 115.982 160.033C115.117 160.26 114.603 160.548 113.363 160.877V160.875ZM120.18 164.876C122.155 163.712 123.062 162.669 123.675 161.682C122.697 161.634 121.329 161.659 119.931 161.828C119.943 162.686 120.014 163.723 120.177 164.876H120.18ZM118.749 158.926C118.156 158.557 117.595 158.193 117.074 157.837C117.003 158.266 116.933 158.659 116.873 159.063C117.544 158.969 118.214 158.936 118.747 158.926H118.749ZM115.61 156.804C115.268 156.552 114.947 156.31 114.651 156.079C114.572 156.358 114.5 156.627 114.433 156.893C114.821 156.848 115.214 156.816 115.612 156.804H115.61ZM122.217 160.887C121.457 160.498 120.732 160.1 120.047 159.702C119.995 160.006 119.954 160.464 119.937 161.045C120.728 160.954 121.509 160.904 122.217 160.887ZM109.249 158.984C109.24 159.082 109.242 159.173 109.255 159.25C109.267 159.33 109.267 159.398 109.321 159.421C109.356 159.436 109.402 159.421 109.456 159.405C109.524 159.382 109.596 159.346 109.675 159.296C109.532 159.192 109.391 159.088 109.251 158.984H109.249ZM113.746 159.954C114.703 159.663 115.189 159.409 116.069 159.209C116.142 158.67 116.235 158.159 116.328 157.581C115.62 157.564 114.914 157.612 114.237 157.708C114.079 158.38 113.93 159.088 113.746 159.956V159.954ZM113.961 154.524C114.566 154.524 115.204 154.447 115.769 154.232C115.85 154.201 115.931 154.145 115.964 154.122C115.955 154.108 115.945 154.087 115.935 154.074C115.881 154.003 115.802 153.939 115.711 153.881C115.62 153.822 115.514 153.772 115.409 153.735C115.098 153.627 114.574 153.724 114.017 153.881C113.821 153.935 113.62 153.999 113.421 154.07C113.582 154.21 113.763 154.362 113.959 154.526L113.961 154.524ZM116.726 161.716C117.477 161.464 118.314 161.281 119.161 161.149C119.175 160.548 119.215 160.056 119.264 159.7C118.67 159.7 117.705 159.717 116.775 159.867C116.726 160.398 116.703 160.985 116.728 161.716H116.726ZM111.824 155.065C111.708 155.873 111.754 156.504 111.526 157.206C111.51 157.262 111.487 157.393 111.45 157.57C112.104 157.345 112.833 157.154 113.601 157.016C113.717 156.54 113.841 156.067 113.99 155.557C113.876 155.465 113.765 155.373 113.659 155.286C112.893 155.259 112.214 155.144 111.822 155.065H111.824ZM110.52 158.074C110.53 158.045 110.539 158.018 110.547 157.991C110.696 157.506 110.75 157.077 110.787 156.964C110.928 156.531 110.957 156.127 110.988 155.686C110.468 156.279 109.818 157.16 109.454 158.166C109.706 158.353 109.965 158.543 110.23 158.736C110.356 158.532 110.447 158.303 110.52 158.084V158.074ZM112.615 154.397L112.574 154.418L112.653 154.428L112.617 154.397H112.615ZM43.4036 38.6986C43.0516 38.7777 42.7203 38.7777 42.3786 38.6945C41.9272 38.5841 41.4531 38.3176 40.8878 37.8512C40.7221 37.7138 40.6973 37.4681 40.8339 37.3015C40.9706 37.1349 41.2149 37.1099 41.3806 37.2474C41.832 37.6201 42.2026 37.847 42.5629 37.9345C42.9543 38.0302 43.327 37.947 43.7722 37.7471C44.2961 37.5097 44.9048 37.1183 45.7062 36.6144C49.6446 34.1408 50.5163 32.1669 51.121 30.141C51.2473 29.7183 51.6407 28.4524 51.7753 28.0318C51.8395 27.8257 52.059 27.7132 52.264 27.7799C52.4669 27.8465 52.5787 28.0672 52.5145 28.2713C52.3799 28.6898 51.9906 29.9474 51.8664 30.3659C51.2204 32.523 50.3134 34.6426 46.1183 37.2765C45.3231 37.7762 44.7081 38.1677 44.176 38.4196C44.675 39.0463 45.027 39.4544 46.2653 40.7953C46.4123 40.9536 46.4019 41.2013 46.2446 41.3471C46.0872 41.4928 45.8408 41.4845 45.6958 41.3263C44.3002 39.8167 44.0124 39.469 43.4036 38.6965V38.6986ZM31.282 56.2823C31.2157 56.3281 31.135 56.351 31.048 56.3468L28.0331 56.1969C27.8198 56.1865 27.6542 56.0033 27.6645 55.7868C27.6749 55.5723 27.8571 55.4057 28.0704 55.4161L29.613 55.4932C29.3604 55.3703 29.0892 55.2371 28.7993 55.0934C28.6067 54.9976 28.528 54.7644 28.6233 54.5708C28.7185 54.3771 28.9504 54.298 29.143 54.3938C33.0938 56.3531 33.1518 56.1511 37.173 57.9751C37.3676 58.0646 37.4546 58.2957 37.3676 58.4915C37.2786 58.6872 37.0488 58.7767 36.8541 58.6872C33.8952 57.3463 33.0752 57.0964 31.2841 56.2823H31.282ZM60.8386 41.8093C61.114 43.2377 61.2941 43.8124 61.4349 47.5665C61.4432 47.7809 61.2755 47.9641 61.0601 47.9725C60.8469 47.9808 60.6667 47.8122 60.6564 47.5977C60.4928 43.1752 60.2691 43.2314 59.8964 40.9744C59.5982 39.1713 59.5672 32.4335 59.563 31.6901C59.563 31.4736 59.7349 31.2987 59.9503 31.2987C60.1656 31.2987 60.3416 31.4715 60.3416 31.688C60.3458 32.3585 60.3665 37.9719 60.5942 40.2894C61.232 38.3551 61.2776 37.9969 61.9257 35.3505C61.9774 35.1402 62.1866 35.0132 62.3957 35.0653C62.6028 35.1173 62.7312 35.3276 62.6794 35.5379C61.9195 38.6486 61.9816 38.632 60.9649 41.6324C60.94 41.7052 60.8945 41.7677 60.8386 41.8135V41.8093ZM49.3816 78.7444C46.0768 80.5184 43.8592 81.1493 40.7387 81.9197C40.5295 81.9718 40.3204 81.8427 40.2686 81.6324C40.2169 81.4221 40.3453 81.2118 40.5523 81.1597C45.2362 80.0062 47.8514 79.1609 55.3575 74.1554C55.5356 74.0367 55.7779 74.0846 55.8959 74.2658C56.016 74.4448 55.9663 74.6884 55.7882 74.8071C54.7653 75.4901 53.8315 76.096 52.9701 76.6352C54.5169 76.0522 55.6909 75.6067 57.7429 74.6843C57.9376 74.5968 58.1674 74.6843 58.2544 74.8821C58.3434 75.0778 58.2544 75.311 58.0577 75.3984C54.7239 76.8955 53.701 77.1433 49.6674 78.7444C49.5721 78.7819 49.4707 78.7798 49.3795 78.7444H49.3816ZM44.9939 17.7085C45.29 18.5706 45.4805 19.8781 45.4598 21.7562C45.4577 21.9728 45.2817 22.1456 45.0664 22.1435C44.8531 22.1414 44.6791 21.9644 44.6812 21.7479C44.704 19.6762 44.4783 18.3561 44.1076 17.594C43.8985 17.163 43.6645 16.9361 43.3871 16.9132C43.1034 16.8903 42.8156 17.0693 42.5484 17.3358C42.3973 17.4878 42.1509 17.4858 41.9997 17.3338C41.8486 17.1797 41.8506 16.934 42.0018 16.782C42.4553 16.3302 42.9709 16.097 43.4533 16.1365C43.8757 16.1719 44.3023 16.4093 44.6502 16.9652C44.6874 16.9486 44.7268 16.9402 44.7703 16.9361C45.6006 16.8715 46.5986 17.2692 47.5698 18.0459C48.9364 19.139 50.2699 20.9754 51.005 23.1346C51.0733 23.3387 50.9657 23.5614 50.7627 23.6302C50.5598 23.6989 50.3383 23.5906 50.2699 23.3865C49.5866 21.3814 48.3566 19.6699 47.0873 18.6559C46.3626 18.0771 45.6337 17.721 44.996 17.7085H44.9939ZM48.1806 95.2538C45.6192 94.8477 41.3702 93.7796 35.4813 90.8813C35.2887 90.7855 35.21 90.5523 35.3032 90.3586C35.3985 90.165 35.6304 90.0838 35.8229 90.1796C41.7098 93.0758 45.9236 94.1127 48.4146 94.4979C48.5554 94.0399 48.6279 93.7692 48.7335 93.3465C48.7853 93.1383 48.9965 93.0113 49.2056 93.0633C49.4147 93.1154 49.539 93.3278 49.4872 93.5381C49.3878 93.9337 49.3174 94.1981 49.1953 94.6062C49.9552 94.6978 50.4915 94.7207 50.7979 94.7353C58.9087 95.0893 63.6236 93.8067 63.9383 93.7359C64.1475 93.688 64.3566 93.8212 64.4042 94.0315C64.4519 94.2418 64.3193 94.45 64.1102 94.4979C63.7913 94.5708 59.0019 95.8763 50.7648 95.5161C50.4294 95.5015 49.8268 95.4765 48.9613 95.3662C48.7294 96.1053 48.3628 97.2443 47.7272 99.2431C50.2948 99.2744 52.763 99.0599 60.0579 97.1652C60.265 97.111 60.4783 97.238 60.5321 97.4462C60.586 97.6545 60.4617 97.8689 60.2546 97.923C52.6139 99.9073 50.1809 100.07 47.4807 100.022L47.2406 100.776C52.3219 100.509 54.5645 100.617 56.0616 100.626C56.2748 100.626 56.4488 100.803 56.4467 101.019C56.4467 101.236 56.2707 101.409 56.0553 101.406C54.4651 101.396 52.03 101.275 46.2218 101.615C46.0085 101.627 45.8242 101.463 45.8118 101.248C45.7994 101.034 45.963 100.848 46.1762 100.836L46.4102 100.823L46.6732 99.9927C46.0893 99.9406 45.8139 99.7762 44.4017 99.1557C44.205 99.0682 44.1139 98.8392 44.2008 98.6414C44.2857 98.4436 44.5156 98.3541 44.7123 98.4394C46.11 99.0537 46.2591 99.189 46.9155 99.2244C47.5615 97.1901 47.9384 96.0179 48.1806 95.2558V95.2538ZM103.577 34.1387C105.165 34.2949 105.658 34.7196 106.143 35.286C106.283 35.4505 106.265 35.6962 106.101 35.8378C105.938 35.9793 105.693 35.9606 105.552 35.7961C105.18 35.3609 104.792 35.0632 103.697 34.932C102.881 34.8342 101.709 34.8258 99.9513 34.9237C99.7359 34.9362 99.5537 34.7696 99.5413 34.5552C99.5309 34.3407 99.6945 34.1554 99.9078 34.1429C100.214 34.1262 100.504 34.1117 100.777 34.1012C100.796 34.0429 100.829 33.9888 100.873 33.9451C101.455 33.3642 101.477 33.3975 101.86 33.0872C101.983 32.9873 102.154 32.9727 102.295 33.0518C102.622 33.2372 102.695 33.1435 103.577 34.1408V34.1387ZM101.867 34.0763C102.07 34.0763 102.264 34.0763 102.446 34.0804C102.314 33.9576 102.227 33.8972 102.148 33.8535C102.049 33.9284 101.972 33.9846 101.867 34.0783V34.0763ZM35.0382 14.1106C35.1976 13.9669 35.444 13.9773 35.5869 14.1377C35.7318 14.298 35.7194 14.5458 35.56 14.6894C34.8974 15.2933 34.6882 16.1428 34.5805 17.0194C34.4604 18.0063 34.4708 19.0286 34.2679 19.8594C34.0525 20.7422 33.6529 21.1607 33.3009 21.371C32.924 21.5959 32.5782 21.5917 32.4726 21.598C32.2573 21.6063 32.0771 21.4377 32.0688 21.2232C32.0605 21.0087 32.2262 20.8255 32.4416 20.8172C32.5016 20.8151 32.6942 20.8255 32.9033 20.7006C33.1373 20.5611 33.3713 20.2613 33.5142 19.6741C33.7109 18.8704 33.6922 17.8793 33.8082 16.9257C33.9386 15.8617 34.2327 14.8456 35.0382 14.1127V14.1106ZM35.6842 22.5558C35.7132 22.7702 35.5641 22.966 35.3508 22.9951C35.1375 23.0243 34.9429 22.8743 34.9139 22.6599C34.3424 18.3686 38.1214 15.7451 40.8401 16.9902C41.0348 17.0797 41.1218 17.3109 41.0327 17.5066C40.9437 17.7023 40.7138 17.7898 40.5171 17.7002C38.2456 16.6612 35.2038 18.9703 35.6821 22.5558H35.6842ZM96.164 40.7141C96.164 40.9307 95.988 41.1035 95.7727 41.1035C95.5594 41.1035 95.3854 40.9265 95.3854 40.712C95.3999 37.212 96.0419 35.488 96.2303 34.6967C96.28 34.4864 96.4891 34.3574 96.6983 34.4073C96.9053 34.4573 97.0358 34.6676 96.9861 34.8779C96.8018 35.6462 96.1764 37.3161 96.1619 40.7141H96.164ZM41.5069 25.3354C41.5276 25.121 41.716 24.9627 41.9293 24.9815C42.1426 25.0023 42.3 25.1918 42.2813 25.4062C42.0598 27.8257 41.5918 28.8584 41.0431 30.6803L42.1654 31.7734C42.3186 31.9233 42.3227 32.1711 42.1736 32.3252C42.0246 32.4793 41.7782 32.4834 41.6249 32.3335L40.3328 31.0738C40.2293 30.9718 40.19 30.8219 40.2314 30.6824C40.7946 28.7668 41.2833 27.7819 41.509 25.3313L41.5069 25.3354ZM42.3869 34.7779C42.1736 34.7634 42.0101 34.5781 42.0246 34.3636C42.0391 34.1491 42.2233 33.9846 42.4387 33.9992C43.7577 34.0867 43.7411 34.0846 45.056 34.1679C45.2693 34.1804 45.4329 34.3678 45.4204 34.5822C45.4059 34.7967 45.2237 34.9612 45.0084 34.9487C43.6935 34.8675 43.7101 34.8675 42.389 34.78L42.3869 34.7779ZM44.118 25.9955C43.9151 26.0621 43.6956 25.9497 43.6273 25.7456C43.561 25.5416 43.6728 25.3209 43.8778 25.2542C45.0767 24.8607 47.284 24.7191 49.1393 24.8232C49.3526 24.8357 49.5183 25.0189 49.5059 25.2355C49.4934 25.4499 49.3091 25.6165 49.0959 25.604C47.342 25.5062 45.2527 25.6269 44.118 25.9976V25.9955ZM53.3345 23.3345C53.5146 23.2179 53.7548 23.272 53.8708 23.4532C53.9847 23.6343 53.9329 23.8759 53.7528 23.9925C53.4525 24.1861 53.2351 24.5047 53.0695 24.9398C52.881 25.4375 52.7692 26.0767 52.7112 26.8637C52.6947 27.0782 52.5083 27.2406 52.295 27.2239C52.0818 27.2073 51.9202 27.0199 51.9368 26.8054C52.0735 24.9731 52.5352 23.8488 53.3366 23.3345H53.3345ZM96.8059 40.9182C96.8577 40.7079 97.0668 40.5788 97.2739 40.6308C97.483 40.6808 97.6114 40.8932 97.5617 41.1035C97.336 42.0363 97.0627 43.3959 96.6589 44.2996C96.5719 44.4953 96.3421 44.5848 96.1454 44.4974C95.9507 44.4099 95.8617 44.1788 95.9507 43.981C96.3359 43.1148 96.5906 41.8135 96.8059 40.9203V40.9182ZM91.8922 38.5112C92.0248 38.682 91.9937 38.9276 91.8218 39.0588C91.652 39.19 91.4098 39.1608 91.2773 38.9901C90.9315 38.5404 90.6913 38.38 90.4614 38.2135C90.1798 38.0115 89.9065 37.8033 89.5193 37.2328C89.3992 37.0558 89.4427 36.8122 89.6207 36.6894C89.7967 36.5686 90.039 36.6144 90.1612 36.7914C90.4697 37.2474 90.6892 37.4139 90.9149 37.5763C91.1903 37.7741 91.476 37.9699 91.8922 38.5091V38.5112ZM93.1636 41.0431C93.0187 40.8828 93.0311 40.6371 93.1906 40.4913C93.35 40.3456 93.5964 40.3581 93.7393 40.5184L94.4412 41.295C94.5862 41.4554 94.5738 41.7011 94.4143 41.8468C94.2549 41.9926 94.0105 41.9801 93.8656 41.8197L93.1636 41.0431ZM93.9546 36.477C93.8925 36.6831 93.6751 36.7997 93.4701 36.7372C93.2651 36.6748 93.1491 36.4561 93.2113 36.25C93.4535 35.4484 93.4887 35.2131 93.2506 34.1408C93.0787 33.36 92.7723 32.1711 92.3105 30.1244C92.2629 29.9141 92.3954 29.7038 92.6046 29.658C92.8137 29.6101 93.0228 29.7412 93.0705 29.9515C93.6502 32.523 93.9836 33.7452 94.1182 34.5052C94.2652 35.3401 94.199 35.6733 93.9546 36.477ZM35.6117 40.7474C35.796 40.6371 36.0341 40.6975 36.1439 40.8828C36.2536 41.0681 36.1936 41.3075 36.0093 41.4179C30.3647 44.8097 29.056 50.2649 28.3789 53.0154C28.3272 53.2236 28.1159 53.3527 27.9068 53.3007C27.6997 53.2486 27.5714 53.0362 27.6231 52.828C28.3313 49.9588 29.7207 44.285 35.6097 40.7474H35.6117ZM38.169 59.6075C37.9702 59.5284 37.8729 59.2993 37.9536 59.0994C38.0323 58.8996 38.2601 58.8017 38.4589 58.8808C45.2279 61.5959 45.1658 61.6626 51.4854 64.8316C51.6759 64.9274 51.7546 65.1626 51.6593 65.3563C51.5641 65.5499 51.3301 65.627 51.1375 65.5312C44.8469 62.3767 44.909 62.3101 38.169 59.6054V59.6075ZM52.3116 64.3069C52.2018 64.4922 51.9617 64.5526 51.7774 64.4422C51.5931 64.3319 51.533 64.0924 51.6428 63.9071C53.202 61.2732 53.1937 61.2898 54.6887 58.6289C54.7922 58.4415 55.0304 58.3749 55.2167 58.481C55.4052 58.5872 55.4694 58.8246 55.3637 59.0141C53.8646 61.6834 53.8729 61.6667 52.3075 64.309L52.3116 64.3069ZM36.7796 42.3903C36.5684 42.4256 36.3675 42.2799 36.3323 42.0675C36.2992 41.8551 36.4421 41.6532 36.6533 41.6199C38.8502 41.2597 38.8233 41.2846 41.217 41.1077C41.4303 41.091 41.6166 41.2534 41.6332 41.4679C41.6498 41.6823 41.4883 41.8697 41.275 41.8864C38.9165 42.0613 38.9434 42.0363 36.7796 42.3903ZM37.115 39.8771C36.9038 39.8417 36.7609 39.6397 36.7961 39.4274C36.8313 39.215 37.0322 39.0713 37.2434 39.1067C38.0717 39.2462 39.8379 39.4107 45.4867 41.7011C45.6855 41.7823 45.7828 42.0092 45.7021 42.2091C45.6213 42.409 45.3956 42.5069 45.1968 42.4256C39.6557 40.179 37.9267 40.0145 37.115 39.8771ZM63.0625 47.8663C62.9051 48.0141 62.6587 48.0058 62.5137 47.8496C62.3667 47.6935 62.375 47.4457 62.5303 47.2979C66.7772 43.2856 66.9739 43.0982 68.8769 39.2754C68.9742 39.0817 69.2061 39.0047 69.3987 39.1005C69.5892 39.1962 69.6679 39.4315 69.5705 39.6252C67.6138 43.55 67.4191 43.7478 63.0604 47.8684L63.0625 47.8663ZM24.4923 73.9389C24.2873 74.0013 24.0699 73.8868 24.0057 73.6807C23.9436 73.4745 24.0595 73.2559 24.2624 73.1935C29.2279 71.6589 29.2382 71.509 37.8977 64.513C38.0655 64.3777 38.3098 64.4047 38.4444 64.5734C38.579 64.742 38.5521 64.9877 38.3843 65.1231C29.5675 72.2461 29.5468 72.3793 24.4902 73.9409L24.4923 73.9389ZM32.7252 76.9871C32.5451 77.1037 32.3049 77.0517 32.1889 76.8726C32.073 76.6915 32.1227 76.4499 32.3028 76.3333C34.2306 75.0778 34.212 75.0757 35.8788 73.5016C36.0362 73.3538 36.2826 73.3621 36.4276 73.5183C36.5746 73.6744 36.5663 73.9222 36.411 74.07C34.6965 75.6941 34.7131 75.6941 32.7273 76.9892L32.7252 76.9871ZM35.5848 76.2292C35.4109 76.3541 35.1686 76.3146 35.0423 76.1397C34.916 75.9648 34.9574 75.7212 35.1313 75.5942C37.9681 73.5433 39.575 72.0066 43.3519 66.2724C43.4699 66.0934 43.7101 66.0434 43.8902 66.1621C44.0683 66.2807 44.118 66.5244 44 66.7034C40.1361 72.5667 38.4858 74.1304 35.5848 76.2292ZM22.5397 78.6861C22.3285 78.6508 22.1856 78.4488 22.2208 78.2364C22.256 78.024 22.4548 77.8804 22.668 77.9158C26.6768 78.5904 29.2486 78.9839 35.6966 77.6284C35.9058 77.5847 36.1128 77.72 36.1563 77.9303C36.2019 78.1406 36.0652 78.3488 35.8561 78.3926C29.2672 79.7793 26.6375 79.3753 22.5397 78.6861ZM57.2211 73.8056C57.1031 73.9868 56.8629 74.0367 56.6828 73.918C56.5047 73.7994 56.4529 73.5578 56.5709 73.3767C57.2729 72.2961 57.2729 72.321 57.9686 71.2404C58.0846 71.0593 58.3269 71.0072 58.5049 71.1259C58.6851 71.2425 58.7369 71.4861 58.6188 71.6673C57.921 72.7479 57.9231 72.725 57.2191 73.8056H57.2211ZM42.5112 83.1274C42.7244 83.0982 42.9191 83.2502 42.9481 83.4626C42.9771 83.677 42.828 83.8728 42.6147 83.9019C34.3238 85.0117 30.9155 83.4293 27.2152 81.699C27.0206 81.6074 26.9377 81.3763 27.0268 81.1806C27.1179 80.9848 27.3477 80.8995 27.5444 80.9911C31.1412 82.6735 34.4542 84.2059 42.5132 83.1274H42.5112ZM42.389 85.6551C42.6043 85.6488 42.7824 85.8196 42.7886 86.034C42.7948 86.2485 42.6251 86.4296 42.4118 86.4359C38.5914 86.5442 33.8662 86.0548 30.6297 85.2761C29.203 84.9326 28.06 84.5286 27.3912 84.1018C25.3081 82.7734 25.2646 82.0426 23.0035 81.2409C21.3718 80.6621 21.4505 80.4997 20.4442 79.1047C20.3178 78.9298 20.3572 78.6861 20.529 78.5591C20.703 78.4321 20.9453 78.4717 21.0716 78.6466C21.9371 79.848 21.8543 80.0062 23.2602 80.5039C25.598 81.3326 25.6539 82.0717 27.8053 83.4418C28.4245 83.8374 29.4888 84.1997 30.8099 84.5161C33.9883 85.2803 38.6328 85.7613 42.389 85.6551ZM46.0292 16.8486C45.8532 16.9715 45.6109 16.9277 45.4867 16.7528C45.3645 16.5759 45.408 16.3323 45.584 16.2094C46.9941 15.2183 49.9158 14.3771 52.3323 15.6243C53.9309 16.4489 55.3327 18.1812 55.898 21.4293C55.9352 21.6417 55.7944 21.8437 55.5832 21.8812C55.372 21.9186 55.1712 21.7771 55.1339 21.5647C54.6245 18.6476 53.4153 17.061 51.9782 16.3198C49.8454 15.2204 47.2716 15.9783 46.0292 16.8507V16.8486ZM45.5861 15.2016C45.4536 15.3703 45.2072 15.3974 45.0394 15.2641C44.8717 15.1288 44.8448 14.8831 44.9794 14.7144C46.903 12.2887 50.7482 10.1462 54.8813 12.3429C55.0697 12.4428 55.1422 12.6802 55.0428 12.8717C54.9413 13.0633 54.7073 13.1362 54.5189 13.0341C50.7855 11.0519 47.3234 13.0133 45.5861 15.2037V15.2016ZM45.0394 14.248C44.996 14.4583 44.791 14.5957 44.5798 14.552C44.3706 14.5083 44.234 14.3022 44.2774 14.0898C44.6419 12.3304 45.5488 11.002 46.8264 10.2357C48.0978 9.47368 49.7398 9.26754 51.6014 9.786C51.8084 9.8443 51.9285 10.0588 51.8705 10.267C51.8126 10.4752 51.5993 10.596 51.3922 10.5397C49.7668 10.0858 48.3318 10.242 47.2219 10.9062C46.1203 11.5662 45.35 12.7281 45.0374 14.248H45.0394ZM43.9627 14.779C44.0083 14.9893 43.8737 15.1975 43.6625 15.2412C43.4533 15.2849 43.2463 15.1517 43.2028 14.9393C42.77 12.8821 42.2896 11.3122 41.7388 10.3232C41.4282 9.76309 41.1176 9.39664 40.7552 9.29253C40.5482 9.23423 40.4281 9.01769 40.4881 8.80947C40.5461 8.60126 40.7615 8.48258 40.9685 8.54088C41.48 8.68871 41.9769 9.14886 42.418 9.94216C42.9936 10.9811 43.5092 12.6219 43.9627 14.7769V14.779ZM44.2692 10.3857C44.2692 10.6022 44.0973 10.7771 43.8819 10.7771C43.6687 10.7771 43.4947 10.6022 43.4927 10.3877C43.4906 9.34667 43.6314 8.6429 44.615 7.99744C44.7951 7.87876 45.0374 7.93081 45.1533 8.10987C45.2693 8.28894 45.2196 8.53255 45.0394 8.65123C44.3313 9.11555 44.2671 9.63817 44.2692 10.3857ZM49.5307 88.2224C49.5576 88.0079 49.7523 87.8559 49.9655 87.883C50.1788 87.91 50.33 88.1058 50.3031 88.3202L49.9117 91.4393C49.8848 91.6537 49.6901 91.8057 49.4769 91.7787C49.2636 91.7516 49.1145 91.5559 49.1393 91.3414L49.5307 88.2224ZM35.2038 109.073C35.1417 108.867 35.2576 108.648 35.4626 108.586C35.6676 108.523 35.8851 108.64 35.9472 108.846C36.558 110.855 36.9494 110.741 37.1668 112.842C37.1896 113.056 37.0343 113.248 36.821 113.271C36.6077 113.293 36.4172 113.137 36.3944 112.923C36.1853 110.899 35.7939 111.013 35.2038 109.075V109.073ZM42.1674 113.433C42.1674 113.649 41.9914 113.822 41.7761 113.822C41.5607 113.822 41.3889 113.645 41.3889 113.429L41.393 112.398C41.393 112.182 41.569 112.009 41.7844 112.009C41.9976 112.009 42.1716 112.186 42.1716 112.402L42.1674 113.433ZM42.3538 111.553C42.302 111.761 42.0908 111.89 41.8817 111.838C41.6746 111.786 41.5483 111.574 41.598 111.365C41.656 111.136 41.7637 110.926 41.8858 110.685C42.1177 110.233 42.3952 109.637 42.271 108.377C42.2482 108.163 42.4056 107.971 42.6188 107.951C42.8321 107.93 43.0226 108.086 43.0433 108.3C43.1903 109.798 42.8528 110.503 42.5774 111.043C42.4842 111.226 42.3952 111.382 42.3517 111.555L42.3538 111.553ZM33.1518 130.1C33.1518 129.884 33.3257 129.709 33.539 129.707C33.7543 129.707 33.9283 129.882 33.9283 130.096C33.9304 130.967 33.9428 136.418 34.7276 140.942C35.4109 144.871 34.8663 144.907 35.3964 148.873C35.4254 149.088 35.2763 149.285 35.063 149.312C34.8497 149.342 34.653 149.192 34.6261 148.977C34.0981 145.025 34.6427 144.992 33.9614 141.075C33.1642 136.495 33.1518 130.977 33.1497 130.096L33.1518 130.1ZM82.7813 128.426C82.6178 128.287 82.5991 128.039 82.7399 127.877C82.8787 127.712 83.123 127.694 83.2866 127.835C84.8417 129.174 84.9038 129.116 86.9102 129.545C87.1194 129.59 87.254 129.796 87.2105 130.007C87.1649 130.217 86.9599 130.352 86.7487 130.309C84.5518 129.84 84.4855 129.896 82.7813 128.429V128.426ZM89.6746 130.565C89.8671 130.661 89.9458 130.894 89.8526 131.089C89.7574 131.281 89.5255 131.362 89.3329 131.269L87.9725 130.598C87.7799 130.502 87.7012 130.269 87.7944 130.075C87.8897 129.882 88.1216 129.803 88.3142 129.896L89.6746 130.567V130.565ZM91.6376 126.769C91.7266 126.965 91.6417 127.196 91.4471 127.287C91.2524 127.377 91.0205 127.29 90.9315 127.094C90.5836 126.33 90.4946 125.818 90.4304 125.376C90.3455 124.81 90.3061 124.375 89.629 123.538C89.4944 123.371 89.5193 123.125 89.6849 122.988C89.8506 122.853 90.097 122.878 90.2316 123.044C90.917 123.892 91.0598 124.406 91.151 124.951C91.2276 125.42 91.2503 125.92 91.6376 126.771V126.769ZM84.7857 133.536C84.6284 133.392 84.616 133.145 84.7588 132.984C84.9038 132.824 85.1502 132.813 85.3076 132.957C86.5396 134.082 86.5251 134.065 87.8255 135.143C87.9911 135.281 88.0139 135.527 87.8793 135.693C87.7426 135.86 87.4983 135.883 87.3327 135.745C86.0178 134.654 86.0302 134.673 84.7837 133.534L84.7857 133.536ZM53.3697 15.7222C53.1564 15.691 53.0094 15.4931 53.0405 15.2787C53.0715 15.0663 53.2682 14.9164 53.4815 14.9476C56.4798 15.3828 57.2729 17.6086 57.48 19.6345C57.5027 19.849 57.3474 20.0405 57.1342 20.0634C56.9209 20.0864 56.7304 19.9302 56.7076 19.7157C56.5337 18.0042 55.9042 16.0907 53.3718 15.7222H53.3697ZM55.8214 89.6195C55.6081 89.6382 55.4176 89.48 55.399 89.2634C55.3803 89.049 55.5398 88.8595 55.753 88.8408C59.0806 88.5493 59.6769 88.3868 64.9778 85.7384C65.1683 85.6426 65.4023 85.7217 65.4996 85.9133C65.5949 86.1069 65.5162 86.3401 65.3236 86.438C59.8654 89.1656 59.2483 89.3196 55.8214 89.6195ZM109.348 151.474C109.338 151.347 109.325 151.159 109.329 150.98C109.338 150.764 109.518 150.595 109.731 150.603C109.946 150.61 110.114 150.791 110.106 151.005C110.095 151.311 110.143 151.511 110.141 151.638L110.126 151.778L110.091 151.892L110.037 151.99L109.961 152.075L109.785 152.182C109.725 152.204 109.646 152.223 109.543 152.236C109.228 152.269 108.975 152.406 108.932 152.431C106.238 153.899 106.321 154.203 103.012 154.639C102.798 154.666 102.604 154.516 102.577 154.301C102.548 154.087 102.699 153.891 102.912 153.864C106.074 153.45 105.989 153.146 108.563 151.744C108.623 151.711 108.942 151.54 109.352 151.474H109.348ZM107.923 153.56C108.108 153.452 108.348 153.516 108.453 153.704C108.561 153.889 108.495 154.128 108.311 154.237C106.956 155.02 104.148 156.808 100.885 155.848C100.678 155.788 100.56 155.571 100.62 155.363C100.68 155.157 100.898 155.038 101.103 155.099C104.105 155.981 106.677 154.28 107.921 153.56H107.923ZM43.4864 158.161C43.65 158.022 43.8944 158.039 44.0352 158.201C44.176 158.366 44.1573 158.611 43.9958 158.753C41.6104 160.829 41.6084 160.804 40.5896 161.595C40.4198 161.728 40.1775 161.697 40.045 161.524C39.9125 161.353 39.9456 161.11 40.1154 160.977C41.1238 160.194 41.1238 160.217 43.4885 158.159L43.4864 158.161ZM37.2931 89.9526C37.0798 89.9193 36.9349 89.7215 36.968 89.507C37.0011 89.2947 37.1999 89.1468 37.4111 89.1801C40.0222 89.582 41.2936 89.7569 41.6311 89.8027C41.8423 89.8319 41.9914 90.0297 41.9624 90.242C41.9335 90.4565 41.7367 90.6064 41.5255 90.5752C41.1859 90.5294 39.9125 90.3524 37.2931 89.9505V89.9526ZM19.9596 90.7563C19.8374 90.9333 19.5931 90.9749 19.4192 90.85C19.2432 90.7251 19.2018 90.4815 19.3239 90.3066C21.4671 87.2458 24.0678 85.9778 27.3436 86.4609C27.5548 86.4921 27.7018 86.6899 27.6708 86.9044C27.6418 87.1167 27.443 87.2646 27.2297 87.2333C24.2542 86.7961 21.906 87.9746 19.9596 90.7563ZM42.3269 16.1115C42.4097 16.3114 42.3165 16.5405 42.1177 16.6217C41.919 16.705 41.6912 16.6113 41.6084 16.4114C40.9872 14.9143 40.0761 14.2564 39.1401 14.1731C37.7424 14.0502 36.3447 15.1579 35.9762 16.4239C35.9161 16.63 35.7008 16.7487 35.4958 16.6883C35.2887 16.6279 35.1707 16.4114 35.2307 16.2032C35.6925 14.6166 37.4567 13.2382 39.2064 13.3944C40.368 13.4964 41.5525 14.2522 42.3248 16.1095L42.3269 16.1115ZM99.4336 44.8159C99.417 44.6015 99.5785 44.4141 99.7918 44.3974C100.005 44.3808 100.194 44.5432 100.21 44.7576C100.274 45.5926 100.312 45.5759 100.285 46.4234C100.276 46.6378 100.098 46.8086 99.8829 46.8023C99.6696 46.7961 99.5019 46.6149 99.5081 46.4005C99.533 45.5968 99.4957 45.6113 99.4357 44.8201L99.4336 44.8159ZM103.285 37.7263C103.088 37.643 102.995 37.4139 103.078 37.214C103.161 37.0142 103.391 36.9225 103.587 37.0058C104.724 37.4889 105.447 37.8449 106.824 39.3295C106.971 39.4877 106.963 39.7355 106.805 39.8813C106.648 40.027 106.401 40.0208 106.256 39.8625C104.991 38.4987 104.333 38.1698 103.287 37.7263H103.285ZM101.301 36.0064C101.088 35.9793 100.939 35.7836 100.966 35.5692C100.993 35.3547 101.187 35.2027 101.401 35.2298C103.357 35.4796 105.279 35.7441 106.697 37.1995C106.849 37.3536 106.844 37.6013 106.693 37.7512C106.54 37.9012 106.294 37.8991 106.145 37.745C104.855 36.4208 103.086 36.2313 101.303 36.0043L101.301 36.0064ZM101.647 37.2245C101.74 37.0308 101.972 36.9496 102.165 37.0433C102.359 37.137 102.438 37.3723 102.345 37.5659L102.045 38.1864C101.952 38.38 101.718 38.4613 101.525 38.3676C101.332 38.2739 101.252 38.0386 101.347 37.8449L101.647 37.2245ZM100.011 35.8961C100.123 35.7128 100.361 35.6545 100.546 35.767C100.73 35.8794 100.786 36.1209 100.674 36.3042L100.316 36.8934C100.204 37.0766 99.9657 37.1349 99.7815 37.0225C99.5992 36.9101 99.5413 36.6685 99.6531 36.4853L100.013 35.8961H100.011ZM98.6302 34.8987C98.7586 34.7259 99.0029 34.6884 99.1748 34.8154C99.3466 34.9424 99.3839 35.1881 99.2576 35.3609C99.0857 35.5941 99.0878 35.5817 98.9325 35.8336C98.8186 36.0168 98.5784 36.073 98.3962 35.9585C98.214 35.844 98.1581 35.6025 98.274 35.4192C98.4459 35.1423 98.4438 35.1548 98.6322 34.8987H98.6302ZM50.2803 34.8029C50.2761 34.5885 50.448 34.4094 50.6613 34.4052C50.8766 34.4011 51.0526 34.5739 51.0568 34.7884C51.0568 34.7988 51.0278 35.6858 51.0609 43.2398C51.0609 43.4563 50.8891 43.6312 50.6737 43.6312C50.4584 43.6312 50.2823 43.4584 50.2823 43.2418C50.2471 35.6982 50.2782 34.8113 50.2782 34.8008L50.2803 34.8029ZM40.5606 24.8586C40.7615 24.9336 40.865 25.1585 40.7904 25.3604C40.718 25.5624 40.4943 25.6665 40.2914 25.5915C39.1567 25.1709 38.4837 24.9711 36.9121 24.7899C36.6988 24.7649 36.5456 24.5713 36.5684 24.3568C36.5932 24.1424 36.7858 23.9883 36.9991 24.0133C38.6556 24.2027 39.3638 24.4151 40.5585 24.8565L40.5606 24.8586ZM46.0851 26.6347C46.4081 26.6347 46.6711 27.0803 46.6711 27.6279C46.6711 28.1755 46.4081 28.6211 46.0851 28.6211C45.7621 28.6211 45.4991 28.1755 45.4991 27.6279C45.4991 27.0803 45.7621 26.6347 46.0851 26.6347ZM38.2725 25.8435C38.5686 25.8435 38.813 26.2641 38.813 26.7804C38.813 27.2968 38.5707 27.7174 38.2725 27.7174C37.9744 27.7174 37.7342 27.2989 37.7342 26.7804C37.7342 26.262 37.9744 25.8435 38.2725 25.8435ZM98.0545 28.7543C98.2927 28.5981 98.5577 28.3899 98.9449 28.1068C99.1188 27.9798 99.3611 28.0214 99.4874 28.1963C99.6137 28.3712 99.5723 28.6148 99.3984 28.7418C98.978 29.0458 98.7026 29.2644 98.4459 29.4331C98.3796 29.3248 98.0628 28.7751 98.0545 28.7543ZM98.0297 25.5915C98.4397 25.3438 98.4604 25.3313 98.5846 25.2563C98.7689 25.1439 99.007 25.2043 99.1188 25.3875C99.2286 25.5728 99.1706 25.8122 98.9884 25.9247C98.8248 26.0246 98.8103 26.0642 97.9262 26.5868C97.9448 26.3765 97.9862 26.0559 98.0297 25.5936V25.5915Z" fill="black"/>
</svg>
