<svg width="346" height="346" viewBox="0 0 346 346" fill="none" xmlns="http://www.w3.org/2000/svg">
<g clip-path="url(#clip0_1031_414)">
<rect width="346" height="346" rx="173" fill="black"/>
<rect x="-29" y="-48" width="1110" height="1110" fill="#0A143C"/>
<path d="M197.96 35.6467C200.238 35.9624 202.271 36.8393 202.551 37.5758C202.832 38.3475 202.131 39.9258 201.08 40.7676C199.958 41.6444 199.783 41.5392 204.69 42.7669C209.387 43.9244 212.787 45.3975 216.292 47.7474C222.496 51.8512 225.091 56.9019 226.843 68.231C227.649 73.352 227.754 88.2586 226.983 91.5206C226.562 93.4497 225.371 95.2385 224.564 95.2385C224.039 95.2385 222.917 92.2923 221.409 86.996C217.379 72.896 211.42 63.6713 203.778 59.6378C195.682 55.3937 180.013 54.9027 166.343 58.4452C164.099 59.0415 161.61 59.7079 160.769 59.9184C159.367 60.2691 158.807 60.7251 159.718 60.7953C159.963 60.7953 161.506 60.9706 163.153 61.1811C164.801 61.3915 168.761 61.8825 171.951 62.2684C178.471 63.04 180.188 63.5661 180.539 64.8989C181.03 66.8982 180.048 67.4243 171.145 69.8094C161.646 72.3699 157.229 74.1236 154.46 76.4736C151.516 79.034 150.675 82.296 150.99 90.3281C151.271 97.799 151.621 98.1499 152.603 91.9065C153.969 82.9273 155.091 80.5773 158.386 79.6303C161.61 78.6833 167.394 79.7706 176.263 82.9975C177.91 83.5937 179.382 84.2251 179.487 84.4005C179.593 84.5758 179.908 84.7161 180.223 84.7161C180.714 84.7161 180.714 84.646 180.223 83.9094C179.347 82.5415 177.875 78.052 177.875 76.6841C177.875 75.737 178.12 75.0706 178.786 74.3691C180.399 72.6154 182.186 73.352 189.442 78.7534C191.755 80.5071 193.789 81.9101 193.929 81.9101C194.069 81.9101 194.7 80.893 195.296 79.6654C197.574 75.0706 199.993 71.949 202.166 70.8266C203.603 70.055 205.076 70.5109 206.758 72.2646C209.247 74.8251 210.964 78.3326 217.694 94.8878C221.69 104.638 222.356 106.111 222.566 105.235C223.793 99.7634 224.179 98.8511 225.756 97.799C226.632 97.2376 226.738 97.2376 227.93 97.9042C228.63 98.2551 229.472 99.0615 229.823 99.6229C231.996 103.411 233.222 115.828 232.066 122.246C231.435 125.648 230.804 127.051 229.262 128.56C228.21 129.576 227.719 129.752 226.317 129.787H224.67V135.223C224.705 141.467 225.055 143.396 226.913 146.974C228.42 149.92 232.136 153.813 236.237 156.725C237.779 157.847 239.426 159.039 239.917 159.425C240.653 160.021 242.196 160.267 249.556 161.004C259.301 161.985 261.018 162.266 265.926 163.494C276.932 166.265 285.695 171.456 294.248 180.33C299.469 185.731 302.137 190.606 303.957 197.902C304.941 201.971 304.904 200.673 304.867 219.578C304.867 222.84 304.867 227.049 304.867 228.943C304.867 232.801 304.204 235.081 302.768 236.239C301.642 237.116 300.874 237.116 299.785 236.239C298.244 235.046 298.281 233.502 300.101 225.225C301.295 219.789 301.116 217.719 298.98 211.02C294.388 196.745 287.763 188.572 278.65 185.871C277.248 185.486 275.355 185.24 273.041 185.24C268.555 185.24 265.26 186.152 259.686 188.853C249.311 193.939 239.462 201.971 224.004 217.965C213.804 228.522 209.632 232.521 207.845 233.397C206.337 234.134 206.197 234.169 205.391 233.643C203.568 232.45 204.374 229.539 208.931 220.876C214.75 209.792 217.098 205.233 217.028 205.198C216.958 205.128 207.669 214.878 202.271 220.7C200.168 222.981 194.034 229.82 188.601 235.888C173.634 252.688 170.409 255.881 168.516 255.881C167.114 255.881 164.415 252.969 162.172 249.076C161.015 247.147 158.807 243.078 157.229 240.097C154.18 234.379 153.163 232.766 152.812 233.117C152.497 233.433 153.444 240.132 154.916 248.339C156.353 256.196 156.878 263.632 156.178 265.771C155.546 267.665 153.058 269.735 149.062 271.664C147.099 272.646 145.627 273.418 145.767 273.418C145.907 273.418 147.87 272.962 150.114 272.366C152.392 271.804 160.91 269.63 169.112 267.525L184.009 263.737L184.114 262.685C184.325 260.721 185.306 257.809 186.673 255.179C191.58 245.744 201.781 237.221 211.525 234.485C214.82 233.538 221.024 233.187 224.249 233.748C233.643 235.397 245 242.272 253.097 251.215C256.813 255.319 258.986 258.371 262.841 264.719C264.349 267.21 265.716 269.279 265.891 269.384C266.697 269.91 275.005 263.491 279.771 258.616C283.733 254.618 283.172 255.74 286.011 246.059C288.219 238.659 290.147 234.695 291.97 233.853C293.091 233.327 293.722 233.608 294.563 234.941C295.545 236.554 295.756 238.273 295.3 240.833C294.739 243.955 293.092 247.217 289.411 252.443C286.431 256.687 284.924 259.598 285.205 260.51C285.275 260.721 286.747 259.037 288.465 256.722C292.671 251.075 295.475 248.164 296.702 248.164C297.859 248.164 298.807 249.146 298.807 250.374C298.807 251.706 297.788 255.915 294.809 266.824C288.465 290.043 285.695 304.318 284.013 322.171C283.417 328.485 283.417 351.494 284.048 356.895C285.169 367.032 287.308 378.852 289.516 386.884C293.547 401.581 298.034 412.418 306.55 427.956C311.285 436.585 311.737 438.374 309.534 439.356C307.745 440.198 301.258 438.339 285.835 432.586C269.571 426.519 266.452 425.466 254.183 421.748C252.852 421.363 251.73 421.082 251.625 421.152C251.309 421.503 256.427 427.43 262.736 434.059C274.899 446.827 275.285 447.353 273.427 449.107C272.656 449.808 272.481 449.843 271.079 449.492C269.081 448.966 264.243 446.406 258.039 442.548C212.051 413.962 182.221 400.563 160.874 398.809C155.301 398.354 148.641 400.002 144.05 402.984C138.862 406.386 130.554 416.382 130.554 419.258C130.554 420.801 131.571 422.976 132.307 423.116C132.622 423.151 133.99 421.819 135.637 419.819C144.365 409.227 146.223 407.718 152.146 406.491C155.547 405.789 164.765 405.965 169.638 406.841C189.653 410.455 209.317 419.363 227.824 433.218C234.379 438.128 238.41 441.671 246.577 449.738C250.924 454.017 255.656 458.471 257.093 459.629C262.982 464.364 270.027 467.38 275.075 467.38C283.382 467.38 290.042 461.873 298.312 448.089C299.822 445.599 302.942 442.127 303.709 442.127C304.551 442.127 306.693 444.757 308.166 447.599C315.773 462.295 333.228 513.398 338.52 536.478C340.309 544.159 340.903 547.666 341.114 551.981C341.287 555.347 341.256 555.839 340.519 557.312C340.098 558.224 339.182 559.346 338.557 559.872C337.783 560.434 337.4 560.995 337.536 561.311C337.957 562.433 339.498 570.745 339.993 574.463C341.324 584.915 341.918 597.998 341.918 615.711C341.918 631.6 341.497 639.667 340.519 642.859C338.272 650.155 329.403 659.802 315.104 670.534C309.986 674.359 303.536 678.598 299.68 680.671C295.861 682.701 295.229 682.738 292.11 681.16C288.675 679.44 279.842 672.917 276.266 669.482L274.899 668.182L275.39 669.234C278.44 676.252 283.592 680.529 294.248 684.843C296.281 685.684 298.209 686.594 298.522 686.879C299.259 687.51 299.364 689.751 298.77 690.914C298.386 691.651 298.386 691.651 299.018 691.087C299.364 690.772 300.454 690.172 301.363 689.788C305.814 687.894 307.076 689.404 311.985 702.382C317.84 717.991 321.554 725.987 326.952 734.615C330.455 740.259 331.123 741.627 331.928 744.647C332.596 747.278 332.597 748.435 331.897 750.781C331.086 753.553 327.936 756.604 324.395 758.047C318.503 760.497 308.865 761.481 299.296 760.64C291.514 759.94 287.238 758.362 283.312 754.68C279.281 750.886 277.318 746.362 275.846 737.561C275.39 734.825 274.829 732.232 274.619 731.842C274.409 731.421 272.866 729.49 271.219 727.528C264.664 719.675 255.901 707.29 253.447 702.451C251.59 698.768 251.309 697.153 252.045 693.965C252.992 689.645 255.62 685.369 258.46 683.512C259.266 682.949 259.336 682.986 260.283 684.143C260.843 684.775 262.175 686.842 263.262 688.668C270.167 700.383 276.897 706.411 284.363 707.711C286.501 708.064 286.958 708.064 287.378 707.643C287.658 707.358 288.956 705.044 290.252 702.556C291.549 700.031 292.951 697.505 293.372 696.942L294.143 695.89L292.18 696.837C289.411 698.242 285.66 698.91 280.928 698.91C271.99 698.91 267.398 695.612 265.365 687.752C264.314 683.685 264.769 676.283 266.416 670.602C267.609 666.393 268.52 664.605 269.747 664.079L270.798 663.621L270.553 660.291C270.167 654.331 271.324 646.402 273.532 639.878C275.496 634.125 279.807 626.935 282.541 624.971L283.452 624.269L281.84 618.868C278.65 608.17 269.712 573.446 269.712 571.763C269.712 570.184 273.077 569.553 289.341 568.045C305.257 566.607 316.961 564.993 323.132 563.45C327.41 562.397 332.559 560.644 333.259 560.047C333.822 559.521 333.822 559.487 333.259 558.82C332.702 558.223 332.312 558.154 329.477 558.364C324.079 558.785 318.014 559.592 305.288 561.591C272.831 566.712 263.367 567.834 252.01 567.834C239.532 567.869 238.866 567.519 236.622 559.837C236.132 558.154 234.87 552.787 233.783 547.947C228.666 524.727 226.457 516.45 223.934 510.873C222.356 507.506 221.129 505.682 219.868 505.051C218.921 504.56 218.746 504.594 217.098 505.507C216.117 506.033 214.785 507.085 214.119 507.857C210.333 512.276 206.408 521.711 202.412 535.951C198.906 548.438 198.03 550.788 195.682 553.699C194.209 555.523 190.529 557.943 187.795 558.89C179.768 561.591 169.778 560.083 167.219 555.768C166.658 554.751 166.658 554.611 167.149 553.839C167.955 552.612 168.411 552.436 173.493 551.384C184.15 549.175 188.04 546.789 189.723 541.423C190.634 538.477 190.599 524.061 189.653 519.116C188.566 513.293 185.762 506.138 182.642 501.228L181.731 499.825L181.941 503.683C182.291 509.996 181.17 516.836 178.752 523.009C178.12 524.657 175.982 528.761 173.984 532.163C158.982 558.118 152.812 578.602 154.355 596.981C154.846 602.698 155.126 604.803 156.493 612.414C158.001 621.007 158.351 625.217 157.895 629.285C157.229 635.493 156.212 638.369 151.095 648.681C144.961 661.096 142.367 668.429 136.689 689.472C134.586 697.295 133.429 700.451 132.518 701.046C131.571 701.677 121.231 701.151 107.35 699.783C105.807 699.61 105.668 699.678 105.457 700.414C105.352 700.872 105.317 701.646 105.387 702.067C105.492 702.834 105.737 702.939 107.771 703.15C109.032 703.292 115.167 703.571 121.441 703.781C127.681 703.961 133.079 704.202 133.394 704.307C133.92 704.487 134.025 705.644 134.235 714.414C134.375 719.848 134.411 729.069 134.375 734.862C134.235 744.505 134.165 745.52 133.604 746.151C133.008 746.82 133.008 746.993 133.464 748.398C134.095 750.254 134.866 755.063 135.988 764.39C137.425 776.211 138.967 782.035 143.103 791.189C146.258 798.207 147.414 801.605 147.625 804.73C147.765 806.624 147.941 807.255 148.326 807.255C148.607 807.255 152.427 806.692 156.774 806.024C186.848 801.469 198.801 800.485 207.845 801.815C213.488 802.657 217.554 805.114 217.028 807.361C216.257 810.337 210.158 812.832 194.875 816.341C182.887 819.107 180.679 819.633 180.784 819.776C180.854 819.813 182.152 819.918 183.693 819.918C187.795 819.986 269.116 819.25 301.958 818.829C317.661 818.656 343.849 818.303 360.147 818.129C376.444 817.919 408.624 817.529 431.65 817.251C454.682 816.972 486.787 816.582 502.986 816.372C551.216 815.815 587.11 815.32 611.646 814.973C624.372 814.794 646.103 814.515 659.95 814.373L685.08 814.162L684.869 815.357C684.727 816.025 684.622 816.582 684.591 816.582C684.38 816.83 641.195 817.529 610.24 817.777C588.651 817.987 563.905 818.266 555.245 818.476C546.586 818.655 521.493 818.971 499.513 819.182C477.503 819.392 452.825 819.708 444.623 819.881C436.422 820.091 410.481 820.407 386.96 820.58C363.44 820.791 337.257 821.075 328.777 821.286C320.291 821.459 281.805 821.843 243.212 822.159C180.013 822.685 172.968 822.685 171.811 822.196C170.795 821.812 170.514 821.459 170.514 820.791C170.514 818.792 171.916 818.34 189.091 814.62C196.558 813.005 203.533 811.216 207.319 810.022C211.034 808.834 214.329 807.361 214.329 806.903C214.329 806.624 210.894 805.467 207.669 804.73C204.48 803.994 192.842 804.204 184.885 805.114C177.945 805.919 160.559 808.338 151.866 809.743L147.064 810.48L146.118 811.885C142.472 817.108 132.903 819.844 112.503 821.527C101.041 822.443 61.7122 822.443 52.5632 821.527C30.0601 819.25 15.0575 815.425 -4.18616 807.113C-6.67441 806.024 -8.77765 805.151 -8.84821 805.151C-9.23383 805.151 -7.58615 807.602 -6.18419 809.112C-3.90577 811.532 -1.1718 813.389 4.85757 816.582C12.2536 820.475 13.6203 821.985 11.5177 823.916C10.2203 825.104 8.01185 825.457 -0.891381 825.841C-19.3638 826.652 -253.758 826.157 -307.422 825.21L-320.742 824.968V822.864L-283.587 822.895C-263.151 822.895 -196.973 823.037 -136.543 823.18C-54.065 823.421 -22.4482 823.39 -9.82929 823.074C-0.575728 822.827 7.5216 822.548 8.18761 822.443C9.30918 822.264 9.20398 822.159 5.20793 820.129C-6.35934 814.305 -10.2149 810.969 -11.3718 805.813C-11.6169 804.656 -11.5822 804.099 -11.1966 803.325C-10.2848 801.537 -8.7077 801.852 -0.435202 805.362C13.8308 811.427 26.4496 814.899 42.679 817.288C54.9469 819.076 59.5737 819.318 79.7291 819.318C112.012 819.355 129.468 817.777 138.406 814.026C140.159 813.283 144.575 810.833 144.575 810.585C144.575 810.548 143.594 810.727 142.367 810.969C135.637 812.337 123.053 813.5 111.977 813.779C105.352 813.952 103.143 813.884 100.62 813.463C92.9787 812.126 88.1415 807.497 85.9683 799.538C85.267 796.944 85.1618 795.75 85.1618 790.242C85.1618 783.997 85.3722 782.035 86.7742 775.444C88.7722 765.9 93.4696 752.08 96.5539 746.782C98.3768 743.663 98.5872 743.595 106.719 743.626C110.47 743.626 115.272 743.837 117.41 744.047C119.513 744.257 122.878 744.542 124.841 744.678C129.152 744.963 129.293 744.783 126.874 742.085C124.56 739.523 122.317 738.508 119.022 738.508C116.078 738.545 114.29 738.891 107.596 740.754C105.107 741.454 102.548 742.017 101.917 742.017C99.4983 742.017 99.0774 739.597 99.6735 728.859C100.059 722.163 101.181 709.357 101.671 706.201C101.882 705.044 101.777 704.87 101.075 704.66C98.1663 703.75 97.08 701.714 96.2035 695.612C95.082 687.857 94.7663 681.513 94.5559 663.973C94.2055 633.739 96.0284 604.382 99.3931 586.108C101.041 577.164 102.373 572.779 111.907 544.895C115.272 535.109 116.253 530.725 116.288 525.604C116.323 521.746 116.253 521.5 114.08 515.433C112.152 509.996 111.486 506.243 111.732 501.579C112.082 494.318 114.185 488.881 118.251 484.532C123.124 479.306 129.538 476.85 138.336 476.85C149.412 476.85 163.118 480.99 172.231 487.093C173.634 488.039 174.861 488.741 174.965 488.635C175.071 488.53 174.089 486.812 172.757 484.848C167.745 477.272 161.12 472.501 151.41 469.38C145.802 467.591 143.875 467.275 138.792 467.24C134.936 467.205 133.814 467.345 131.606 468.012C123.229 470.677 118.041 475.553 112.117 486.496C110.294 489.828 109.628 490.354 108.402 489.232C107.736 488.635 107.7 488.355 107.911 485.058C108.612 473.904 112.923 453.386 117.235 440.373C119.618 433.253 121.581 428.448 124.806 422.064L127.4 416.838L127.961 411.507C129.152 399.231 133.079 377.239 139.633 345.847C143.068 329.362 144.33 324.451 145.136 324.136C146.433 323.645 152.603 326.45 164.555 332.974C194.244 349.144 214.82 357.246 226.212 357.246C229.682 357.246 231.4 356.685 233.117 354.966C237.779 350.302 236.868 341.182 229.437 318.559C225.581 306.738 224.95 304.283 225.546 302.915C226.072 301.583 227.298 300.986 228.806 301.267C230.734 301.618 235.746 305.02 244.719 312C249.276 315.577 254.604 319.611 256.567 321.014C259.827 323.364 265.681 326.731 266.487 326.731C266.662 326.731 266.907 326.38 267.048 325.924C267.363 324.732 273.357 298.005 274.935 290.534C276.162 284.782 277.423 279.45 277.984 277.521C278.369 276.294 277.528 276.995 276.371 278.924C275.005 281.204 267.258 291.516 263.928 295.515C261.159 298.812 257.969 301.899 256.427 302.705C255.305 303.266 255.2 303.266 254.324 302.635C252.781 301.478 252.151 299.022 252.361 295.234C252.711 289.166 254.92 279.029 256.322 277.03C257.759 274.926 257.479 274.891 255.936 276.96C254.815 278.433 245.49 284.501 233.432 291.551C215.486 302.004 194.77 311.474 179.803 316.034C165.011 320.523 155.091 321.54 143.243 319.787C135.567 318.629 123.264 317.647 113.975 317.366L106.018 317.156V317.997C105.983 319.155 104.861 321.505 103.88 322.417C101.777 324.346 93.2591 325.539 84.1102 325.188C77.2403 324.942 69.3887 324.1 68.2671 323.504C67.8109 323.294 67.1102 322.382 66.6893 321.505C66.3037 320.628 65.9181 319.857 65.8481 319.787C65.8129 319.716 64.5514 320.102 63.0442 320.593C61.2567 321.189 59.5737 322.066 58.2769 323.084C55.8586 324.977 54.6318 325.503 51.5469 326.065C48.6724 326.556 45.2378 326.1 41.1718 324.732C38.3326 323.75 39.3136 323.75 27.396 324.592C22.4183 324.942 19.2987 324.662 17.5817 323.68C15.9693 322.733 14.7419 320.137 14.6719 317.261C14.5667 314.981 14.5667 314.981 13.5151 314.876C12.183 314.736 10.1856 312.771 9.58958 311.053C9.20397 309.895 9.30917 307.3 9.80001 304.809C10.0098 303.862 9.90525 303.722 8.99351 303.372C8.29284 303.091 7.66149 302.425 7.17065 301.442C6.22425 299.654 6.36477 297.759 7.66151 294.988L8.50269 293.165L7.4164 292.674C5.17326 291.692 3.84125 288.114 4.68242 285.343C5.13798 283.8 7.45103 281.064 9.34383 279.871C10.1503 279.345 10.6759 278.749 10.6759 278.328C10.6759 276.89 8.18764 269.945 6.47 266.543C3.03473 259.809 -0.225389 256.372 -10.5306 248.655C-23.009 239.325 -29.3887 233.994 -37.6612 225.892C-58.0964 205.899 -69.8388 186.012 -73.8348 164.511C-74.8865 158.934 -74.9917 149.569 -74.0453 144.974C-72.1871 135.75 -69.3832 129.437 -64.1957 122.807C-51.7167 106.883 -27.671 97.3082 -0.0149511 97.2729C18.7032 97.2376 33.1444 102.499 43.6253 113.091C47.8665 117.37 50.5305 121.159 53.2292 126.841C61.7469 144.624 61.7469 170.824 53.2292 194.429C51.4417 199.375 47.06 209.441 45.0273 213.23C44.326 214.597 41.347 220.385 38.4372 226.067C32.5836 237.536 31.0411 241.535 30.0947 247.848C29.3941 252.303 29.2536 260.791 29.7444 265.947L30.0601 269.139L28.9732 269.7C27.6065 270.401 27.0104 270.401 25.9588 269.735C23.6457 268.227 21.5771 258.686 21.0163 247.111C20.5255 237.291 22.4536 228.382 26.1693 223.156C26.8699 222.139 26.9052 222.104 26.2392 222.384C24.5568 223.12 1.2824 230.592 -2.60843 231.644C-4.04567 232.029 -5.27244 232.416 -5.343 232.521C-5.90379 233.082 -0.786156 239.676 4.92753 245.708C9.83471 250.935 15.0928 257.248 17.5817 260.966C20.5608 265.42 22.5941 270.366 22.5941 273.172C22.5941 274.505 22.6287 274.505 23.6457 274.295C25.2928 273.944 31.6372 274.049 33.8104 274.47C37.7712 275.207 43.4848 277.451 50.6358 280.959C57.471 284.361 61.5717 285.974 64.7619 286.571C65.9534 286.817 66.1985 286.711 67.6011 285.413C70.5102 282.748 77.0997 281.31 86.7395 281.31C92.9088 281.31 95.5023 281.73 97.08 282.958C98.6571 284.186 97.9911 286.185 95.5375 287.448C91.7167 289.377 84.8467 290.429 75.803 290.429H68.8625L68.6174 292.007C68.2671 294.077 68.2671 314.35 68.6174 315.613C68.7573 316.139 69.003 316.524 69.1429 316.419C70.1945 315.788 84.7062 314.595 95.4323 314.244L103.249 313.999L103.073 312.736C102.968 312.035 102.232 307.615 101.461 302.915C99.4284 290.569 99.5683 286.711 102.127 285.378C102.478 285.168 110.189 282.537 119.198 279.556C128.206 276.574 135.707 274.014 135.847 273.839C135.988 273.698 135.742 271.98 135.286 269.981C134.235 265.315 133.148 258.231 132.447 250.97C132.132 247.778 131.816 245.148 131.781 245.077C131.606 244.867 122.037 248.375 119.162 249.707C117.41 250.549 113.589 252.583 110.715 254.232C107.805 255.915 104.546 257.669 103.424 258.195C99.2532 260.089 95.5722 260.581 93.6794 259.458C92.733 258.897 92.6278 258.897 92.2428 259.423C91.5415 260.37 86.1435 263.878 82.8487 265.526C73.805 270.086 65.8481 272.085 60.0645 271.313C52.9142 270.331 45.0972 266.438 39.7345 261.141C35.8437 257.318 35.1424 255.179 36.0888 250.093C37.9816 239.956 43.5901 220.104 45.7633 215.825C46.1489 215.088 46.6744 214.492 46.9548 214.492C48.3574 214.492 55.5077 218.841 60.3449 222.594L62.4835 224.278L63.9201 222.419C66.5841 218.946 72.3677 214.562 73.735 215.018C74.8919 215.369 76.6089 218.982 82.7435 233.959C86.0383 242.026 91.2611 252.583 92.5232 253.776C93.2938 254.512 93.5042 254.548 93.7846 254.127C94.7663 252.654 92.9435 247.568 87.8611 237.642C85.8278 233.678 82.9539 228.066 81.4814 225.155C78.467 219.227 76.5742 214.387 76.5742 212.528C76.5742 210.143 79.0278 206.776 84.7062 201.304C97.5356 188.993 119.408 174.367 135.356 167.492C146.784 162.547 156.669 159.811 163.013 159.776C167.674 159.776 168.165 160.407 167.674 165.774C166.869 175.279 169.883 183.556 175.631 187.485C180.784 191.063 187.164 192.605 192.948 191.729C204.234 189.975 218.15 181.347 231.4 167.913C233.958 165.317 236.062 163.073 236.062 162.933C236.062 162.792 234.694 162.336 232.977 161.915C228.491 160.793 223.863 158.443 221.48 156.058C220.428 154.971 219.482 154.164 219.447 154.234C219.377 154.269 218.991 154.971 218.606 155.777C216.643 159.671 210.859 164.862 205.812 167.247C200.378 169.842 192.702 171.596 188.461 171.21C178.786 170.334 169.708 162.898 161.435 149.078C158.771 144.624 154.671 136.487 153.303 132.909L152.462 130.769L151.375 131.962C149.973 133.435 148.852 133.47 147.205 131.997C145.662 130.664 144.611 128.665 143.384 124.771C140.825 116.669 139.773 106.392 141.211 103.656C142.858 100.5 145.171 100.429 148.046 103.446C148.712 104.148 149.378 104.708 149.518 104.708C149.868 104.708 148.957 101.131 148.291 99.9738C147.975 99.3772 147.239 98.2897 146.678 97.5186C145.416 95.7997 144.435 93.3094 143.278 88.9251C142.087 84.4005 141.736 74.6848 142.612 69.634C144.786 56.937 150.289 47.8527 158.737 43.0124C167.745 37.8564 179.032 35.1907 191.265 35.296C193.823 35.331 196.838 35.4713 197.96 35.6467ZM181.906 38.8034C175.351 39.54 167.57 41.6444 163.013 43.9244C154.285 48.3087 149.062 55.3236 146.328 66.3721C145.066 71.5632 144.75 75.7721 145.207 81.5243C145.592 86.1191 146.819 92.187 147.695 93.7654C147.835 94.0109 147.871 92.4326 147.8 90.2229C147.625 85.5579 148.186 80.6825 149.167 78.3676C151.025 74.0534 157.615 70.2654 168.586 67.2841C171.075 66.5825 174.159 65.846 175.421 65.6005C177.665 65.2146 177.629 65.1796 171.565 64.9691C165.887 64.7937 160.629 64.1273 158.071 63.3206C157.475 63.1101 156.598 62.5841 156.073 62.093C154.776 60.9005 155.161 59.9534 157.58 58.4803C162.557 55.4639 174.65 53.149 185.482 53.149C199.748 53.149 207.774 56.3057 214.084 64.4781C217.975 69.4586 219.797 73.0363 222.952 81.5594L224.81 86.6452V82.4363C224.845 77.1751 224.074 69.1781 223.093 64.443C221.83 58.1296 220.498 55.4639 217.063 52.237C213.172 48.6243 207.949 46.3795 199.853 44.8713C194.91 43.9594 193.999 43.6087 193.999 42.6616C193.999 41.9251 195.821 40.1713 197.61 39.2243L198.731 38.593L195.051 38.4176C190.774 38.1721 186.357 38.3124 181.906 38.8034ZM200.834 76.5438C199.678 78.3326 198.1 80.7527 197.329 81.9803C196.558 83.2079 195.506 84.4005 194.98 84.7161C194.104 85.1721 193.894 85.1721 192.527 84.4706C191.685 84.0848 188.846 82.1557 186.218 80.1915C183.589 78.2624 181.275 76.649 181.065 76.649C180.679 76.649 180.925 77.5609 182.221 81.0333C183.659 84.7863 183.904 86.1542 183.273 87.0661C182.957 87.5923 182.432 87.8728 181.801 87.8728C181.275 87.8728 178.086 86.9258 174.72 85.7333C165.817 82.6468 160.945 81.6646 158.771 82.4714C157.72 82.8923 156.773 85.4878 155.757 90.9945C154.39 98.325 154.53 97.9394 153.163 99.3425C151.726 100.815 151.761 100.64 152.532 105.34C153.023 108.391 153.023 109.058 152.637 109.795C152.146 110.706 150.85 111.267 150.219 110.847C150.009 110.741 148.536 109.023 146.959 107.059L144.05 103.516L143.769 105.059C143.384 107.199 143.699 113.407 144.4 116.809C145.136 120.422 147.414 127.296 148.466 129.05L149.273 130.418L149.693 129.12C150.429 127.086 151.516 125.754 152.497 125.754C153.444 125.754 153.724 126.28 157.194 134.171C164.94 151.849 174.265 163.424 183.659 167.001C192.807 170.473 207.529 165.668 214.084 157.04C216.958 153.252 217.624 151.779 217.554 149.464C217.414 146.272 218.711 144.869 220.288 146.448C220.814 146.974 220.989 147.605 220.989 148.868C220.989 150.341 221.2 150.832 222.391 152.375C224.109 154.55 227.088 156.619 230.839 158.198C234.344 159.706 234.835 159.741 232.907 158.338C229.157 155.602 225.02 150.656 223.443 146.939C221.866 143.255 221.27 137.433 221.62 128.384C221.69 126.841 221.62 124.456 221.48 123.088C221.27 120.808 221.304 120.528 222.006 119.826C222.882 118.949 224.88 118.843 225.546 119.615C225.932 120.071 225.932 120.527 225.616 121.931C224.81 125.333 225.266 127.051 226.843 126.736C228.49 126.42 229.998 119.16 229.577 113.478C229.226 108.146 227.614 100.149 226.913 100.149C226.773 100.149 226.422 101.517 226.107 103.201C225.336 107.445 224.95 108.707 224.109 109.759C223.198 110.917 222.251 110.917 221.094 109.689C219.973 108.497 218.991 106.357 214.679 95.5893C210.333 84.6811 208.966 81.5945 207.424 78.7534C205.881 75.9124 203.778 73.1064 203.288 73.2468C203.112 73.2818 201.991 74.79 200.834 76.5438ZM-8.42732 100.535C-29.2834 102.324 -46.0383 108.812 -57.1147 119.405C-74.6061 136.171 -76.5335 160.758 -62.548 188.186C-52.2428 208.389 -35.5579 226.242 -7.16524 247.357C-3.80054 249.848 -0.225376 252.654 0.791588 253.565C5.31314 257.704 9.76474 265.175 12.2883 272.997C13.0248 275.242 13.6556 277.136 13.6556 277.206C13.7608 277.381 19.4039 274.119 19.6144 273.734C19.9647 273.207 18.8085 269.63 17.4412 266.929C15.0575 262.194 9.90525 255.53 2.68438 247.848C-1.8378 243.043 -4.88683 239.36 -7.20053 235.888C-8.95345 233.292 -9.23384 233.012 -9.96979 233.433C-10.2848 233.573 -11.1966 233.819 -12.0025 233.959C-14.8417 234.415 -18.1371 232.31 -26.0233 224.944C-44.286 207.933 -58.7624 187.415 -64.1604 170.824C-66.2636 164.371 -66.9297 160.548 -66.8944 154.865C-66.8591 147.465 -65.1414 141.958 -60.9356 135.679C-51.9618 122.281 -34.6814 112.916 -13.5097 109.9C-8.56782 109.199 5.97914 109.338 10.5007 110.11C23.996 112.39 33.3901 117.16 40.2254 125.227C50.2149 136.942 53.1593 155.567 48.5325 177.769C45.3077 193.377 38.7175 208.915 32.6535 215.334C30.7607 217.333 29.9196 217.684 28.5176 216.947C27.2908 216.281 27.7816 212.809 30.796 199.831C35.4581 179.839 37.5613 163.213 36.6849 153.392C35.9836 145.605 34.4764 140.73 31.9176 137.784C30.2 135.82 26.4849 134.031 22.068 133.049C17.0203 131.926 7.06543 131.962 -0.365274 133.084C-16.9449 135.574 -34.3658 140.905 -44.4958 146.588C-47.7912 148.447 -47.1951 148.692 -40.3598 148.412C-32.7187 148.061 -26.6547 147.395 -3.345 144.378C10.1503 142.624 21.3673 142.028 23.6804 142.905C27.4313 144.308 25.8189 147.395 20.5608 149.008C16.9503 150.13 10.9916 151.253 -2.11817 153.322C-22.9037 156.584 -33.5246 159.635 -36.0834 163.038C-37.0298 164.301 -36.539 165.633 -34.8213 166.51C-30.8958 168.544 -21.8874 168.193 -3.69532 165.178C18.7379 161.53 23.7503 161.459 25.9588 164.897C27.3261 166.966 24.732 170.439 20.2451 172.613C15.3732 174.963 8.50267 177.103 -7.20053 181.171C-21.7122 184.89 -29.2482 187.66 -29.5638 189.309C-30.0194 191.659 -21.2567 190.922 -1.24174 186.994C13.4804 184.083 19.6497 183.487 22.3836 184.714C23.5052 185.24 24.3464 186.678 24.3464 188.081C24.3464 189.203 22.8039 192.746 22.3137 192.746C21.5771 192.746 21.5771 193.869 22.3137 195.236C22.8392 196.289 23.0843 197.516 23.2248 199.901C23.4 203.689 22.9092 205.162 20.9464 206.671C18.7732 208.319 13.866 208.985 9.93991 208.144C8.15233 207.758 8.04712 207.758 7.38111 208.635C6.96083 209.126 6.04909 209.792 5.27785 210.108C2.29876 211.371 -6.21885 211.055 -9.51423 209.617C-10.741 209.056 -11.0561 209.021 -11.792 209.441C-12.2482 209.687 -13.475 210.073 -14.4913 210.283C-15.473 210.494 -16.3142 210.809 -16.3142 210.985C-16.3142 212.178 -8.67244 228.487 -7.55087 229.715C-7.20054 230.066 -3.45022 228.978 9.62423 224.769C24.3464 219.999 27.2908 219.192 28.4823 219.613C29.0085 219.789 29.5692 220.35 29.7444 220.911C30.0601 221.718 29.8143 222.454 27.9215 226.172C24.6268 232.696 24.1712 234.906 24.2065 244.656C24.2412 249.006 24.4163 253.811 24.6621 255.354C25.3281 259.668 26.4496 265.456 26.6601 265.666C26.8 265.771 26.7653 264.544 26.5895 262.895C25.9941 256.477 26.6601 248.129 28.2019 241.991C29.2888 237.852 31.4973 232.626 35.2124 225.541C48.9881 199.375 53.2992 188.256 55.7181 172.754C56.4893 167.808 56.805 154.69 56.2789 149.534C53.8953 126.455 42.5737 110.706 23.5751 104.077C14.3915 100.851 2.78961 99.5529 -8.42732 100.535ZM-14.5266 112.986C-29.3534 115.196 -43.9004 121.825 -52.6984 130.418C-58.4467 136.03 -62.3728 143.116 -63.5996 150.096C-64.1604 153.147 -64.0552 158.899 -63.4244 162.266C-62.0571 169.562 -57.2199 180.75 -51.7519 189.449C-43.9003 201.901 -30.8958 216.947 -19.6443 226.558C-16.0685 229.61 -13.7201 230.977 -12.0378 230.977C-11.3018 230.977 -10.7057 230.907 -10.7057 230.802C-10.7057 230.732 -11.7221 228.627 -12.9489 226.172C-14.1757 223.717 -16.1737 219.403 -17.3658 216.597C-18.5926 213.791 -19.609 211.476 -19.6443 211.406C-19.6789 211.371 -20.941 211.16 -22.4129 211.02C-26.7599 210.529 -27.671 209.547 -27.6357 205.373C-27.6011 201.199 -26.0939 199.059 -23.4645 199.585C-21.7822 199.901 -20.7305 201.094 -18.9782 204.672C-17.6809 207.337 -17.4005 207.653 -16.4894 207.758C-14.6312 207.898 -14.4214 207.442 -15.473 205.443C-17.2253 202.076 -16.9449 198.533 -14.877 197.481C-12.2129 196.078 -8.46261 197.692 -6.81492 200.883C-5.65807 203.128 -5.6234 204.672 -6.6744 206.075C-7.55086 207.232 -7.55086 207.302 -6.85019 207.548C-4.71166 208.319 4.71707 208.249 4.71707 207.442C4.71707 207.267 3.9811 206.776 3.0347 206.39C-0.820845 204.672 -2.32802 203.83 -3.45021 202.742C-6.70969 199.551 -5.20252 196.113 -0.540454 196.078C2.85953 196.078 5.97913 198.674 7.83665 203.058C8.67783 204.952 9.34448 205.303 12.9196 205.583C15.9693 205.864 17.9667 205.373 19.4039 204.005C20.3503 203.093 20.4908 202.777 20.4908 201.024C20.4908 198.814 19.8595 195.552 19.4392 195.552C19.2987 195.552 18.3176 195.938 17.2307 196.394C14.8824 197.446 12.0785 198.007 10.5707 197.692C9.23926 197.411 7.87193 195.587 7.87193 194.079C7.87193 192.641 8.78305 191.063 10.0804 190.291C11.7628 189.239 15.3026 189.344 17.5464 190.466C18.4928 190.957 19.4392 191.343 19.6843 191.343C20.3157 191.343 21.6124 188.993 21.4719 188.116C21.2268 186.292 15.6183 186.678 0.861516 189.59C-14.3861 192.571 -17.9613 193.132 -23.5351 193.343C-27.9867 193.518 -28.6174 193.482 -30.0893 192.816C-31.9475 192.009 -33.0338 190.291 -32.6481 188.782C-32.3331 187.415 -30.3697 185.766 -27.3554 184.328C-23.605 182.539 -20.8011 181.697 -5.79856 177.804C1.24715 175.98 8.88828 173.841 11.202 173.069C16.0039 171.456 21.1568 169.001 22.9444 167.492C24.6967 165.949 24.066 165.598 19.5791 165.458C15.0928 165.283 11.7275 165.668 -0.891381 167.667C-15.0175 169.912 -21.3619 170.649 -26.6547 170.649C-33.9802 170.649 -36.9945 169.702 -38.6069 166.931C-41.201 162.547 -37.801 158.829 -28.4769 155.742C-23.675 154.164 -15.8234 152.585 1.21184 149.78C14.4967 147.57 24.4869 145.395 22.5941 145.115C20.3157 144.764 5.27786 146.202 -13.5097 148.552C-39.8343 151.849 -47.0899 152.13 -49.2984 149.92C-49.6487 149.569 -49.9644 148.798 -49.9644 148.236C-49.9644 142.8 -19.2933 132.207 3.94585 129.576C9.55431 128.945 20.6307 129.331 24.1712 130.278C32.2333 132.418 36.2993 136.451 38.3326 144.343C40.4352 152.585 40.26 165.388 37.8064 179.944C35.9489 191.168 32.3032 207.933 30.6908 212.914C30.3405 214.071 30.2 214.738 30.4104 214.387C30.6561 214.001 31.4267 212.809 32.128 211.686C35.9836 205.688 39.3836 198.148 42.3986 189.063C46.0789 177.944 47.5861 169.141 47.5861 158.724C47.5861 151.779 47.2358 148.272 45.9038 143.116C43.0646 131.821 36.264 123.158 26.3091 118.142C20.3156 115.126 11.3772 112.916 2.26349 112.285C-1.31167 112.039 -10.811 112.425 -14.5266 112.986ZM156.809 163.494C146.994 165.178 132.728 171.105 119.864 178.821C111.136 184.047 100.48 191.553 93.399 197.446C87.1951 202.602 79.3782 210.775 79.3782 212.107C79.3782 213.72 82.1474 219.964 88.3167 232.205C93.399 242.272 95.6075 247.042 96.133 249.076C97.1147 252.654 97.08 253.075 96.0284 255.179C95.5375 256.126 95.1519 257.003 95.1519 257.108C95.1519 257.213 95.6774 257.283 96.3434 257.283C98.4467 257.283 102.898 255.425 107.946 252.478C114.606 248.585 120.775 245.639 126.594 243.604L131.431 241.921L131.676 235.923C131.992 226.803 132.763 223.647 134.971 221.893C136.058 221.016 137.214 220.946 138.616 221.683C139.948 222.384 140.86 223.752 141.561 226.032C142.963 230.837 141.28 236.554 137.109 241.008L135.006 243.289L135.216 247.568C135.357 249.918 135.777 254.302 136.163 257.283C136.829 262.159 137.284 264.789 138.616 270.858L139.002 272.681L140.475 272.155C143.454 271.033 151.095 267.139 152.287 266.122L153.514 265.07L153.478 261.107C153.444 257.178 152.988 254.127 151.025 243.955C149.833 237.957 149.693 232.345 150.639 230.907C150.99 230.416 151.656 229.89 152.146 229.785C154.285 229.223 156.212 231.609 160.735 240.167C164.135 246.621 166.378 250.374 167.64 251.952L168.621 253.145L172.617 248.971C174.825 246.691 179.242 241.921 182.432 238.378C200.414 218.245 204.34 213.931 208.195 210.003C212.472 205.583 216.502 202.216 217.519 202.216C218.325 202.216 219.587 203.514 219.622 204.426C219.692 205.899 219.517 206.635 218.395 209.266C217.309 211.757 211.735 222.56 208.686 227.961C207.915 229.294 207.354 230.451 207.424 230.487C207.494 230.556 210.018 227.961 213.102 224.734C237.253 199.235 251.695 187.766 265.155 183.451C269.186 182.153 274.759 181.873 278.65 182.75C284.363 184.013 289.656 187.766 294.003 193.623C296.106 196.464 299.822 203.654 301.326 207.828C302.032 209.862 302.137 210.003 302.242 209.056C302.453 207.372 301.642 200.743 300.905 197.797C299.995 194.324 297.263 188.642 295.159 185.836C292.565 182.434 286.467 176.857 282.085 173.946C272.971 167.878 264.734 165.423 248.365 163.95L239.812 163.178L239.146 164.02C236.903 166.756 231.82 171.946 228.28 175.068C217.764 184.293 208.23 190.255 199.572 193.027C190.984 195.798 184.289 195.482 177.384 192.045C168.516 187.66 164.205 179.347 164.625 167.387L164.801 162.933H162.452C161.155 162.933 158.631 163.178 156.809 163.494ZM11.3419 193.132C10.1856 194.289 10.6759 194.675 13.1647 194.57C15.7935 194.465 16.9157 193.763 15.7935 192.886C14.7419 192.115 12.2183 192.255 11.3419 193.132ZM-2.29335 199.235C-2.29335 199.515 -1.94241 200.077 -1.52214 200.498C-0.505791 201.48 4.85757 204.005 4.99746 203.584C5.24319 202.988 3.27984 200.778 1.63277 199.726C-0.120146 198.603 -2.29335 198.323 -2.29335 199.235ZM-13.6502 201.69C-13.2998 203.444 -12.7038 204.426 -11.5469 205.092C-10.6005 205.654 -10.4253 205.654 -9.72406 205.162C-8.53255 204.321 -8.70772 202.602 -10.1097 201.269C-12.3881 199.059 -14.1757 199.27 -13.6502 201.69ZM-24.5161 202.427C-24.6214 202.742 -24.7266 203.97 -24.7266 205.198C-24.7266 207.723 -24.341 208.179 -22.273 208.179C-21.2567 208.179 -21.1514 208.109 -21.3619 207.337C-21.7122 205.934 -23.675 201.865 -23.9906 201.865C-24.1658 201.865 -24.4109 202.111 -24.5161 202.427ZM45.2378 226.768C40.8561 241.184 38.1921 252.618 38.7176 254.512C39.6293 257.669 45.1326 262.51 50.8809 265.245C54.6665 267.034 60.0645 268.508 62.8691 268.508C69.4586 268.508 79.2729 264.894 87.2298 259.598C88.9127 258.441 90.3846 257.318 90.4898 257.073C90.5598 256.862 90.0696 255.775 89.4036 254.723C86.669 250.444 82.603 241.71 76.3991 226.768C74.5063 222.244 72.8586 218.42 72.7533 218.281C72.6135 218.14 70.7207 219.789 68.5475 221.998L64.5861 225.997L66.339 228.207C68.1266 230.521 69.2135 232.626 69.2135 233.853C69.2135 235.993 66.8645 238.343 64.7619 238.343C62.6586 238.343 60.1345 235.853 59.3985 233.047C58.9782 231.539 59.3639 229.364 60.2397 227.996C60.5554 227.54 60.8005 227.084 60.8005 226.979C60.8005 226.663 55.9286 223.015 52.0377 220.385C48.2169 217.86 48.0064 217.754 47.7613 218.456C47.6561 218.877 46.4992 222.63 45.2378 226.768ZM136.233 224.384C135.602 225.19 135.111 228.908 134.901 234.31L134.726 239.571L135.497 238.694C136.688 237.361 138.231 233.748 138.686 231.328C139.177 228.838 138.686 225.716 137.705 224.629C137.004 223.857 136.724 223.822 136.233 224.384ZM62.4129 229.785C61.8174 231.328 62.3083 233.222 63.7102 234.73C64.6913 235.818 65.6377 235.747 66.0586 234.625C66.3743 233.853 66.269 233.433 65.5325 232.17C64.6213 230.662 63.3593 229.223 62.8691 229.223C62.7286 229.223 62.5181 229.469 62.4129 229.785ZM211.876 237.466C202.692 240.377 193.683 247.988 189.267 256.582C188.636 257.844 186.989 262.51 186.989 263.106C186.989 263.176 187.409 263.246 187.935 263.246C191.125 263.246 192.737 264.684 191.896 266.754C190.914 269.139 188.496 269.56 186.218 267.77L184.85 266.648L178.471 268.157C174.966 268.963 169.182 270.437 165.607 271.384C148.396 276.013 140.439 277.592 138.441 276.89C137.6 276.574 137.109 276.574 136.794 276.82C136.548 277.03 135.146 277.521 133.709 277.942C126.699 280.012 104.336 287.518 103.6 288.009C102.793 288.57 102.758 288.746 102.968 291.832C103.109 294.392 105.737 312.315 106.228 313.999C106.298 314.35 107.876 314.455 112.398 314.455C121.476 314.455 134.2 315.437 144.05 316.84C150.394 317.752 159.999 317.647 165.431 316.63C182.151 313.473 201.43 305.791 224.845 292.954C236.342 286.676 250.959 277.557 255.726 273.768C258.46 271.559 258.811 271.418 259.477 272.085C260.143 272.751 260.002 273.628 258.145 280.363C257.198 283.87 256.181 288.395 255.866 290.394C255.27 294.427 255.165 300.214 255.656 300.004C257.408 299.408 273.041 279.17 278.965 269.875C279.596 268.858 282.085 261.843 281.875 261.633C281.805 261.562 280.508 262.58 278.965 263.947C273.532 268.753 267.784 272.366 265.435 272.436C264.068 272.471 263.577 271.874 260.177 266.227C253.903 255.705 248.154 249.356 240.022 243.885C229.717 236.905 220.393 234.8 211.876 237.466ZM291.76 238.589C290.813 241.008 288.324 248.164 288.429 248.164C288.499 248.164 289.06 247.392 289.692 246.41C291.024 244.306 291.97 241.921 292.426 239.466C292.776 237.501 292.39 237.01 291.76 238.589ZM289.026 261.317C286.326 264.965 283.733 268.753 283.277 269.735C282.226 271.874 280.894 277.416 274.794 304.915C272.2 316.77 269.817 326.976 269.571 327.608C267.748 331.922 262.07 329.362 246.156 316.981C242.231 313.929 238.094 310.737 236.938 309.86C234.73 308.141 228.49 303.933 228.21 303.933C228 303.933 229.157 308.036 231.224 314.455C235.045 326.416 235.781 328.8 236.762 332.553C240.794 348.372 238.866 357.141 230.839 359.631C228.385 360.368 222.987 360.368 218.991 359.561C206.723 357.211 189.757 349.951 164.029 336.096C161.506 334.763 156.598 332.168 153.093 330.379L146.714 327.152L146.468 328.415C146.363 329.116 145.416 333.43 144.4 337.955C138.932 361.981 133.674 389.655 131.816 404.071C131.361 407.718 130.835 411.051 130.695 411.437C130.379 412.313 130.554 412.138 133.324 408.771C136.654 404.632 140.965 401.125 145.452 398.88C154.11 394.565 164.625 394.846 180.959 399.897C199.572 405.684 221.129 416.522 257.794 438.654C262.701 441.635 267.188 444.266 267.784 444.512C268.52 444.862 267.749 443.846 264.945 441.004C256.672 432.517 249.942 424.765 248.751 422.274C247.979 420.661 248.435 419.398 249.977 418.767C251.134 418.276 251.554 418.276 254.885 418.942C259.477 419.89 267.609 422.59 283.031 428.307C294.984 432.727 307.565 436.971 307.85 436.69C307.918 436.62 306.482 433.884 304.656 430.657C294.669 412.98 288.99 398.459 284.96 380.43C278.86 353.072 278.825 327.924 284.784 296.181C286.572 286.641 290.918 268.613 293.897 258.301C295.124 254.057 295.195 253.355 294.458 254.127C294.178 254.407 291.724 257.634 289.026 261.317ZM278.159 275.697C278.159 275.873 278.369 275.663 278.65 275.171C278.93 274.68 279.141 274.119 279.141 273.944C279.141 273.734 278.93 273.979 278.65 274.47C278.369 274.961 278.159 275.487 278.159 275.697ZM24.2764 277.451C18.0719 278.784 11.9732 281.415 9.16869 284.01C7.69679 285.413 7.52161 285.729 7.52161 287.132C7.52161 287.974 7.76673 289.061 8.0824 289.482C8.99352 290.78 9.9752 290.429 12.3588 287.974C14.532 285.729 16.7052 284.291 17.9667 284.291C18.8431 284.291 20.4908 285.94 20.4908 286.817C20.4908 288.044 17.4059 290.885 14.6719 292.182C11.9027 293.516 10.851 294.743 9.93991 297.9C9.44907 299.549 9.90526 301.127 10.8517 301.127C11.1321 301.127 12.3236 300.285 13.4451 299.233C15.934 296.918 17.5817 296.427 19.0183 297.514C21.8928 299.654 20.1752 302.705 15.3732 304.108C13.3399 304.704 12.534 305.546 12.3935 307.265C12.2183 309.475 12.4641 310.597 13.27 311.544C13.9712 312.351 14.1811 312.42 14.6372 312.035C14.9523 311.789 15.3026 311.123 15.4079 310.562C15.7235 309.159 17.2307 307.44 18.1425 307.44C19.5092 307.475 20.8412 309.018 20.8412 310.562C20.8412 310.983 20.0353 312.175 19.0889 313.228C18.1072 314.28 17.336 315.472 17.336 315.858C17.336 317.577 18.1425 320.032 18.9484 320.804C19.7549 321.54 20.2451 321.645 23.4 321.786C25.398 321.856 29.5692 321.611 32.7588 321.294L38.5424 320.663L41.9077 321.75C49.3384 324.136 52.458 323.925 56.4194 320.768C58.3122 319.26 60.1345 318.348 63.0789 317.437C65.0769 316.805 65.5325 316.524 65.4625 315.998C65.3926 315.647 65.2521 311.86 65.1469 307.615C64.937 300.846 65.0769 297.304 65.8129 290.464C65.8834 289.903 65.4978 289.727 63.4299 289.342C59.9593 288.71 57.7861 287.869 50.3201 284.15C37.6313 277.872 30.7607 276.084 24.2764 277.451ZM84.8115 284.291C76.3991 284.817 72.0873 285.589 70.4403 286.922C69.8089 287.448 70.335 287.482 77.0997 287.307C84.7762 287.132 88.5271 286.641 92.8735 285.273L95.3271 284.466L93.9251 284.256C91.7519 283.905 91.1912 283.905 84.8115 284.291ZM83.935 317.647C77.4507 317.997 70.2298 318.769 69.5285 319.19C69.003 319.541 69.1782 320.663 69.8089 320.909C71.2462 321.47 80.7807 322.171 87.0199 322.171C97.2898 322.171 102.092 321.154 103.073 318.804C103.354 318.173 103.564 317.471 103.564 317.296C103.564 316.91 94.8016 317.05 83.935 317.647ZM150.885 409.823C147.59 410.875 145.346 412.874 139.563 419.924C138.266 421.503 136.373 423.502 135.427 424.379C133.954 425.712 133.394 425.993 132.272 425.993C130.8 425.993 128.697 424.484 128.241 423.116C128.136 422.73 127.89 422.555 127.75 422.695C127.295 423.151 123.474 431.99 121.967 435.989C117.69 447.318 114.08 461.453 112.362 473.589C111.942 476.36 111.486 479.236 111.311 480.007C111.135 480.779 111.101 481.41 111.241 481.41C111.346 481.41 112.222 480.182 113.203 478.674C115.587 474.992 120.249 470.397 123.719 468.363C125.262 467.45 128.031 466.188 129.854 465.592C132.728 464.61 133.814 464.434 137.74 464.294C141 464.189 143.243 464.294 145.522 464.715C154.986 466.363 164.169 470.923 170.374 477.061C173.774 480.393 176.368 484.251 179.207 490.179C180.364 492.599 182.221 495.791 183.343 497.264C187.444 502.595 189.863 507.681 191.546 514.205C193.228 520.694 193.473 522.833 193.473 530.866C193.473 538.898 193.193 541.073 191.685 544.475C189.477 549.455 182.467 553.208 173.143 554.401C171.215 554.611 169.883 554.927 170.058 555.102C170.233 555.278 171.32 555.768 172.477 556.189C174.229 556.856 175.281 556.961 179.452 556.996C185.271 556.996 187.234 556.505 190.564 554.26C194.56 551.56 195.682 549.28 198.906 537.179C202.587 523.429 207.038 512.171 210.508 507.682C214.399 502.736 217.904 500.982 221.059 502.385C225.896 504.524 229.366 513.995 235.36 541.563C237.885 553.243 239.287 558.855 240.303 561.556C240.969 563.345 241.214 563.661 242.687 564.327C244.158 564.993 244.86 565.064 251.485 565.064C261.229 565.028 271.605 563.871 297.052 559.942C322.043 556.084 329.087 555.208 332.138 555.488C333.574 555.628 334.138 555.909 335.258 556.996L336.626 558.329L337.325 557.137C338.452 555.313 338.588 553.243 337.926 548.438C337.084 542.335 333.964 529.042 331.402 520.869C331.055 519.712 330.176 516.8 329.477 514.381C326.493 504.314 319.871 484.637 315.631 473.343C311.354 461.874 308.692 455.56 305.393 448.861L303.604 445.283L301.958 448.019C293.758 461.663 287.729 467.591 279.807 469.695C277.353 470.326 272.13 470.326 269.571 469.661C262.035 467.696 256.077 463.558 245.351 452.894C235.15 442.758 228.455 437.076 219.307 430.938C205.356 421.573 191.019 415.084 176.298 411.471C172.091 410.419 169.883 410.034 162.627 409.016C159.998 408.631 153.128 409.121 150.885 409.823ZM130.73 480.533C120.6 483.164 114.641 491.582 114.641 503.157C114.641 507.26 115.062 509.294 117.305 515.959C120.705 526.06 120.109 530.725 112.853 551.384C106.754 568.746 104.266 576.778 102.758 584.004C97.8859 607.153 95.8179 659.171 98.482 689.404C99.1826 697.048 99.814 699.993 101.075 701.436L102.057 702.488L102.513 700.309C102.758 699.084 103.179 697.889 103.459 697.611C104.3 696.806 106.684 696.837 120.284 697.858C125.717 698.279 130.414 698.52 130.695 698.415C131.291 698.174 131.781 696.596 134.761 685.369C139.458 667.866 142.612 659.028 148.326 647.664C152.427 639.527 154.075 635.142 154.776 630.758C155.407 626.69 154.951 620.025 153.549 612.239C151.2 599.366 150.605 590.317 151.551 583.127C153.829 566.256 159.683 550.929 171.636 530.409C175.947 523.044 177.77 518.169 178.576 511.925C179.277 506.524 178.821 498.737 177.7 496.002C176.859 494.037 172.231 490.389 166.658 487.268C161.26 484.286 149.973 480.814 143.173 480.043C139.318 479.586 133.394 479.832 130.73 480.533ZM110.68 483.409C110.785 483.76 110.855 483.55 110.855 482.989C110.855 482.393 110.785 482.147 110.68 482.357C110.61 482.603 110.61 483.094 110.68 483.409ZM334.101 562.923C332.491 563.976 325.936 565.905 319.833 567.133C313.737 568.361 306.414 569.307 293.372 570.5C280.858 571.657 273.287 572.569 273.041 572.955C272.866 573.236 279.105 598.279 281.489 606.978C282.365 610.169 283.803 615.01 284.644 617.71L286.221 622.691L287.273 622.165C289.937 620.832 293.407 624.094 295.124 629.496C297.298 636.405 294.914 640.825 290.568 637.983C289.271 637.142 287.308 634.02 285.835 630.443C285.099 628.619 284.399 627.18 284.258 627.216C283.697 627.426 279.807 633.108 278.545 635.599C276.897 638.896 275.25 643.876 274.444 648.015C273.743 651.628 273.427 658.923 273.813 662.042L274.093 664.326L278.019 667.303C280.157 668.956 283.908 671.796 286.361 673.69C290.988 677.199 294.354 679.229 295.58 679.229C297.052 679.229 306.377 673.375 314.089 667.656C326.147 658.676 334.559 649.804 337.325 643.21C338.378 640.649 338.73 636.51 338.972 623.287C339.219 611.397 338.761 593.895 337.889 582.951C337.468 577.69 335.332 562.433 334.98 562.433C334.942 562.433 334.521 562.643 334.101 562.923ZM287.518 625.882C287.763 628.198 291.899 636.089 292.846 636.089C293.337 636.089 293.267 633.775 292.706 631.67C292.075 629.32 290.568 626.269 289.621 625.462C288.57 624.55 287.378 624.796 287.518 625.882ZM269.396 671.202C266.943 680.739 267.468 688.562 270.868 692.418C274.689 696.806 284.889 697.258 293.022 693.402C295.124 692.387 295.861 691.576 296.211 689.893C296.422 688.804 296.386 688.804 293.652 687.857C281.699 683.617 274.689 677.335 271.639 668.04C270.903 665.725 270.798 665.867 269.396 671.202ZM256.988 689.299C254.288 695.191 254.113 696.837 255.971 700.699C258.039 705.118 266.662 717.286 273.603 725.566C275.46 727.807 277.178 729.948 277.353 730.332C277.563 730.722 278.159 733.315 278.65 736.088C280.297 745.279 282.015 749.45 285.345 752.538C288.85 755.732 293.372 757.205 301.401 757.836C318.261 759.13 329.477 755.063 329.403 747.661C329.372 744.858 328.319 742.469 324.711 736.719C322.953 733.946 320.149 728.896 318.472 725.529C315.699 719.99 314.089 716.097 307.219 698.521C306.061 695.544 304.867 692.771 304.588 692.418C304.099 691.756 304.025 691.756 301.747 692.734C300.484 693.297 298.943 694.102 298.386 694.597C297.788 695.123 296.351 697.468 294.879 700.414C293.512 703.15 292.11 705.78 291.724 706.306C290.918 707.464 291.199 707.538 293.372 706.591C300.138 703.676 303.22 703.818 305.814 707.08C308.55 710.589 311.316 718.759 311.669 724.514L311.88 727.528L310.685 728.407C308.587 729.985 303.994 731 296.597 731.496C290.778 731.916 287.553 731.564 286.326 730.406C285.871 729.985 285.485 729.354 285.485 729.039C285.485 727.46 288.99 724.83 295.229 721.705C297.193 720.727 298.807 719.848 298.807 719.811C298.807 719.743 297.263 719.743 295.37 719.848C290.953 720.021 286.712 719.464 285.52 718.585C284.083 717.496 283.873 716.413 284.679 714.061C285.065 712.941 285.485 711.784 285.626 711.499C285.801 711.041 285.345 710.868 283.242 710.552C278.615 709.815 274.829 707.643 270.132 703.014C266.312 699.257 261.054 691.929 259.301 687.962C258.986 687.195 258.6 686.594 258.495 686.594C258.355 686.594 257.689 687.826 256.988 689.299ZM104.616 706.133C104.616 706.306 104.23 710.273 103.739 715.008C103.249 719.743 102.758 727.145 102.618 731.458C102.407 739.102 102.407 739.312 103.073 739.139C103.424 739.034 105.703 738.365 108.121 737.666C113.8 735.983 118.216 735.246 120.53 735.525C124.701 736.088 128.171 738.087 130.099 741.033C130.765 742.017 131.115 742.258 131.29 741.943C131.466 741.701 131.536 736.441 131.466 730.264C131.396 724.094 131.326 716.339 131.29 713.046L131.256 707.012L122.387 706.764C117.55 706.622 112.117 706.381 110.4 706.238C105.807 705.885 104.616 705.855 104.616 706.133ZM294.774 709.184L289.201 711.078L288.184 713.43C287.624 714.73 287.273 715.992 287.378 716.271C287.518 716.623 288.36 716.76 290.638 716.797C297.788 716.834 300.905 717.638 301.19 719.495C301.363 720.69 299.154 722.726 295.09 725.146C288.885 728.828 289.446 728.407 290.252 728.686C291.129 728.964 299.965 728.513 302.558 728.017C305.888 727.355 308.692 726.476 308.865 725.987C309.113 725.319 308.376 721.321 307.324 717.812C305.603 711.92 302.874 707.29 301.116 707.29C300.732 707.29 297.859 708.132 294.774 709.184ZM99.9192 746.82C99.5682 747.067 97.6408 751.239 95.8526 755.695C92.733 763.48 90.069 772.844 88.8075 780.42C87.7559 786.627 87.7206 794.314 88.7722 798.207C90.8402 805.813 94.3807 809.285 101.461 810.622C103.88 811.111 105.843 811.148 111.977 811.006C116.113 810.864 121.231 810.622 123.369 810.412C128.486 809.917 144.12 807.955 144.716 807.744C145.031 807.602 145.101 807.113 144.891 805.745C144.295 801.574 143.348 798.764 140.264 792.173C136.023 783.05 134.34 776.143 132.307 759.204C131.886 755.837 131.256 751.907 130.94 750.434L130.274 747.804L129.117 747.909C128.451 747.977 124.771 747.729 120.915 747.414C107.455 746.331 101.075 746.151 99.9192 746.82Z" fill="#43B4FF"/>
</g>
<defs>
<clipPath id="clip0_1031_414">
<rect width="346" height="346" rx="173" fill="white"/>
</clipPath>
</defs>
</svg>
