<svg width="342" height="306" viewBox="0 0 342 306" fill="none" xmlns="http://www.w3.org/2000/svg">
<path d="M206.848 0.917424C272.846 -7.22039 332.946 39.685 341.084 105.683C346.937 153.15 324.318 197.565 286.602 221.792L286.683 221.87L283.191 223.902C282.495 224.317 281.794 224.724 281.089 225.125L172.928 288.105L179.561 253.789L50.6738 304.991L73.2246 260.261L0 305.204L68.875 195.612L35.0918 203.097L117.1 60.5014L117.124 60.5239C135.345 28.8017 167.745 5.73906 206.848 0.917424ZM278.574 36.4243C284.065 47.8326 285.711 60.7006 282.877 72.5239C280.503 82.4581 275.136 91.2282 267.435 97.8666C265.228 99.7679 262.82 101.512 260.251 103.031C239.057 115.665 213.853 111.803 191.643 108.377C186.628 107.596 181.893 106.871 177.252 106.331C153.747 103.557 133.174 113.568 123.588 132.438C123.572 132.472 122.475 134.873 121.298 138.356C123.807 152.533 129.385 166.386 138.227 178.95C167.764 220.905 223.262 233.688 267.636 210.916C263.644 172.064 270.046 143.808 286.227 129.164C295.624 120.533 308.359 117.08 322.997 118.913C322.735 99.1524 316.696 79.2656 304.473 61.894C297.225 51.6028 288.406 43.0626 278.576 36.3891L278.574 36.4243ZM322.807 126.462C309.981 124.657 299.363 127.413 291.258 134.698L291.256 134.734C277.365 147.304 271.708 172.234 274.8 206.889C276.499 205.822 278.201 204.72 279.872 203.544C306.185 185.006 321.006 156.288 322.807 126.462ZM264.2 28.2993C232.348 13.4963 193.651 15.6308 162.813 37.3403C133.666 57.8587 118.594 90.9365 119.768 124.097C131.771 105.531 153.573 95.9852 178.118 98.8901L178.101 98.8705C182.865 99.4371 187.671 100.168 192.757 100.955C214.758 104.329 237.516 107.814 256.398 96.5747C266.327 90.6354 272.968 81.7278 275.56 70.7768C278.404 58.812 275.971 45.5308 268.86 34.3588C268.778 34.2639 267.229 31.6211 264.2 28.2993Z" fill="#A5351C"/>
</svg>
