<svg width="184" height="185" viewBox="0 0 184 185" fill="none" xmlns="http://www.w3.org/2000/svg">
<path d="M15.2216 104.431C10.3404 104.431 6.80796 103.661 4.62427 102.119C2.44059 100.578 1.15607 98.9081 0.770712 97.1097C0.256904 95.3114 0 93.9627 0 93.0635C0.128451 91.3936 0.899163 90.0449 2.31214 89.0172C3.59666 87.9896 5.07386 87.4758 6.74373 87.4758C7.77135 87.4758 8.67051 87.7327 9.44122 88.2465C10.2119 88.6319 10.5973 89.5311 10.5973 90.944C10.5973 92.2286 10.1477 93.1277 9.24855 93.6415C8.34938 94.1553 7.38599 94.4122 6.35838 94.4122C5.45921 94.4122 4.6885 94.2838 4.04624 94.0269C3.27553 93.77 2.89017 93.6415 2.89017 93.6415C2.89017 97.1097 4.17469 99.4219 6.74373 100.578C9.31277 101.734 12.2029 102.312 15.4142 102.312C20.4239 102.312 25.562 100.899 30.8285 98.0731C36.2235 95.2472 41.7469 91.5221 47.3988 86.8978C53.0507 82.1451 58.831 76.8785 64.7398 71.0982C70.7771 65.1894 76.9428 59.2806 83.2369 53.3718C90.0449 46.9492 96.7886 40.5908 103.468 34.2967C110.276 27.8741 116.827 22.0937 123.121 16.9557C129.415 11.8176 135.26 7.70712 140.655 4.62427C146.05 1.54142 150.867 0 155.106 0C156.519 0 157.097 0.256901 156.84 0.770702C156.711 1.28451 155.684 1.66987 153.757 1.92678C149.261 2.69749 144.316 4.75272 138.921 8.09247C133.654 11.3038 128.067 15.4785 122.158 20.6165C116.249 25.6262 110.148 31.1496 103.853 37.1869C97.6878 43.0957 91.3936 49.0687 84.971 55.1059C79.0622 60.7578 73.0892 66.4739 67.052 72.2543C61.1432 78.0346 55.2344 83.3654 49.3256 88.2465C43.5452 93.1277 37.7649 97.0455 31.9846 99.9999C26.3327 102.954 20.745 104.431 15.2216 104.431ZM74.5664 95.761C73.7957 96.0179 72.8965 96.2106 71.8689 96.339C70.9697 96.339 70.7128 96.0179 71.0982 95.3756C71.4836 94.7334 72.19 93.6415 73.2177 92.1001C74.3737 90.4302 75.4013 88.4392 76.3005 86.1271C77.3281 83.8149 77.8419 81.4386 77.8419 78.998C77.8419 75.7867 77.2639 72.1258 76.1078 68.0153C75.0802 63.7764 73.3461 59.666 70.9055 55.6839C68.5934 51.7019 65.4463 48.4264 61.4643 45.8574C57.6107 43.1599 52.858 41.8111 47.2061 41.8111C43.481 41.8111 40.2697 42.7103 37.5722 44.5086C35.0032 46.3069 33.0122 48.4906 31.5992 51.0597C30.3147 53.5003 29.6724 55.8766 29.6724 58.1888C29.6724 63.1984 31.1496 67.9511 34.104 72.4469C37.1869 76.9428 41.8111 80.6036 47.9768 83.4296C54.1425 86.1271 61.7854 87.4758 70.9055 87.4758C80.9248 87.4758 89.9164 85.7417 97.8805 82.2735C105.844 78.8053 112.524 74.3095 117.919 68.7861C123.314 63.2626 127.103 57.4823 129.287 51.445C129.929 49.5182 130.443 48.876 130.828 49.5183C131.342 50.0321 131.599 50.5459 131.599 51.0597C131.599 55.427 130.122 59.8586 127.168 64.3545C124.213 68.8503 120.038 73.025 114.643 76.8785C109.248 80.6036 103.019 83.6223 95.9537 85.9344C88.8888 88.2465 81.1817 89.4026 72.8323 89.4026C64.226 89.4026 56.262 88.1823 48.9402 85.7417C41.7469 83.3011 35.9023 79.7045 31.4065 74.9518C27.0392 70.199 24.8555 64.4829 24.8555 57.8034C24.8555 53.3076 26.718 49.1971 30.4431 45.472C34.2967 41.6185 39.8844 39.6917 47.2061 39.6917C53.3718 39.6917 58.5099 41.1046 62.6204 43.9306C66.8593 46.7565 70.2633 50.2247 72.8323 54.3352C75.4013 58.4457 77.2639 62.5561 78.42 66.6666C79.576 70.7771 80.1541 74.181 80.1541 76.8785C80.1541 79.8329 79.7687 82.7873 78.998 85.7417C78.2273 88.5677 77.3924 90.944 76.4932 92.8708C75.7225 94.6691 75.0802 95.6325 74.5664 95.761ZM63.1984 104.046C63.3269 103.918 64.6114 102.376 67.052 99.4219C69.4926 96.4675 72.7039 92.5497 76.6859 87.6685C80.6679 82.7873 85.1637 77.3281 90.1733 71.2909C95.183 65.1252 100.385 58.831 105.78 52.4084C111.175 45.9858 116.442 39.7559 121.58 33.7187C126.846 27.553 131.663 22.0295 136.031 17.1483C140.527 12.1387 144.252 8.1567 147.206 5.2023C150.289 2.2479 152.28 0.706477 153.179 0.578027C153.821 0.321126 154.399 0.321126 154.913 0.578027C155.427 0.834935 155.299 1.28452 154.528 1.92678C154.014 2.31213 152.216 4.43159 149.133 8.28515C146.05 12.0103 142.132 16.9557 137.379 23.1214C132.755 29.1586 127.681 35.8381 122.158 43.1599C116.763 50.3532 111.368 57.5465 105.973 64.7398C100.578 71.8047 95.6325 78.3557 91.1367 84.393C86.7694 90.3018 83.1727 95.0545 80.3467 98.6512C77.6493 102.248 76.2363 104.046 76.1078 104.046C75.594 103.918 74.6949 103.789 73.4103 103.661C72.2543 103.532 71.0982 103.468 69.9421 103.468C68.7861 103.468 67.4373 103.532 65.8959 103.661C64.4829 103.918 63.5838 104.046 63.1984 104.046Z" fill="white"/>
<path d="M99.5086 184.153C98.3525 183.383 97.068 181.456 95.655 178.373C94.3705 175.29 93.7282 170.473 93.7282 163.922C93.7282 159.683 94.5632 155.38 96.2331 151.013C97.9029 146.517 100.215 142.406 103.169 138.681C106.124 134.828 109.592 131.745 113.574 129.433C117.556 127.121 121.859 125.965 126.484 125.965C130.337 125.965 133.227 127.185 135.154 129.625C137.081 131.938 138.044 134.571 138.044 137.525C138.044 140.865 136.631 144.654 133.805 148.893C130.979 153.004 126.74 156.536 121.089 159.491C115.565 162.445 108.629 163.922 100.279 163.922C95.5266 163.922 90.9023 163.28 86.4065 161.995C82.0391 160.582 78.4424 158.335 75.6165 155.252C72.7906 152.169 71.3776 148.123 71.3776 143.113C71.3776 136.562 73.4328 130.589 77.5433 125.194C81.7822 119.799 87.2414 115.496 93.9209 112.284C100.729 109.073 107.922 107.468 115.501 107.468C117.685 107.468 120.51 107.724 123.979 108.238C127.447 108.624 130.53 109.394 133.227 110.55C135.925 111.706 137.273 113.312 137.273 115.367C137.273 116.266 136.952 116.909 136.31 117.294C135.668 117.551 134.897 117.679 133.998 117.679C130.658 117.679 127.383 116.78 124.171 114.982C120.96 113.055 118.263 110.55 116.079 107.468C114.024 104.385 112.996 101.045 112.996 97.4483C112.996 90.3834 115.116 84.025 119.354 78.3731C123.722 72.5928 129.374 68.0328 136.31 64.693C143.375 61.3532 150.954 59.6834 159.046 59.6834C167.267 59.6834 173.433 61.1606 177.543 64.115C181.654 66.9409 183.709 70.8587 183.709 75.8683C183.709 80.2357 181.525 84.5388 177.158 88.7778C172.919 93.0167 167.074 96.4849 159.624 99.1824C152.174 101.88 143.76 103.229 134.383 103.229C124.236 103.229 115.95 102.265 109.528 100.338C103.105 98.4117 98.0956 96.0995 94.499 93.402C90.9023 90.5761 88.3333 87.9428 86.7918 85.5022C85.3789 82.9332 84.4797 81.1349 84.0943 80.1072C83.709 79.0796 83.709 78.5016 84.0943 78.3731C84.4797 78.1162 84.9935 78.3089 85.6358 78.9512C86.0211 79.5934 86.7918 81.0706 87.9479 83.3828C89.2324 85.6949 91.3519 88.1997 94.3063 90.8972C97.3891 93.5947 101.885 95.9711 107.794 98.0263C113.703 99.9531 121.538 100.916 131.3 100.916C136.695 100.916 142.283 100.274 148.063 98.9897C153.972 97.7052 159.367 95.9068 164.248 93.5947C169.258 91.2826 173.304 88.5851 176.387 85.5022C179.47 82.2909 181.011 78.8227 181.011 75.0976C181.011 71.244 179.406 68.0327 176.194 65.4637C172.983 62.8947 167.974 61.6101 161.166 61.6101C155.385 61.6101 149.99 62.9589 144.981 65.6564C139.971 68.3539 135.539 71.7579 131.686 75.8683C127.961 79.8503 125.006 83.9608 122.823 88.1997C120.639 92.3102 119.547 95.7784 119.547 98.6043C119.547 101.43 120.254 104.192 121.667 106.889C123.208 109.587 125.071 111.771 127.254 113.441C129.566 115.11 131.878 115.945 134.191 115.945C135.09 115.945 135.539 115.624 135.539 114.982C135.539 114.468 134.961 113.826 133.805 113.055C132.649 112.284 131.044 111.642 128.988 111.128C127.062 110.486 124.814 110.165 122.245 110.165C117.107 110.165 112.033 111.257 107.023 113.441C102.013 115.624 97.3891 118.514 93.1502 122.111C89.0397 125.579 85.7 129.433 83.1309 133.672C80.6904 137.911 79.4701 142.085 79.4701 146.196C79.4701 149.279 80.1765 151.976 81.5895 154.288C83.1309 156.6 85.3146 158.463 88.1406 159.876C90.9665 161.16 94.499 161.803 98.7379 161.803C102.977 161.803 107.216 160.904 111.455 159.105C115.694 157.178 119.547 154.738 123.015 151.783C126.612 148.829 129.438 145.81 131.493 142.728C133.677 139.516 134.769 136.69 134.769 134.25C134.769 132.323 134.062 130.782 132.649 129.625C131.236 128.341 129.245 127.699 126.676 127.699C122.437 127.699 118.455 128.855 114.73 131.167C111.005 133.351 107.665 136.305 104.711 140.03C101.885 143.627 99.637 147.673 97.9672 152.169C96.2973 156.536 95.5266 160.904 95.655 165.271C95.7835 169.253 96.2331 172.785 97.0038 175.868C97.9029 179.08 99.1232 181.52 100.665 183.19C100.922 183.575 100.986 183.961 100.857 184.346C100.729 184.731 100.279 184.667 99.5086 184.153Z" fill="white"/>
</svg>
