<svg width="346" height="346" viewBox="0 0 346 346" fill="none" xmlns="http://www.w3.org/2000/svg">
<g clip-path="url(#clip0_1031_420)">
<rect width="346" height="346" rx="173" fill="black"/>
<rect x="-29" y="-48" width="1110" height="1110" fill="#410746"/>
<path d="M387.667 -36.8163C371.173 -35.2043 351.74 -26.4003 338.385 -14.5375C320.607 1.25183 307.169 28.6975 300.058 63.6653C297.494 76.2307 296.047 87.4733 294.848 103.883C294.6 107.355 294.559 107.479 293.443 107.686C290.755 108.223 287.2 109.918 283.644 112.356C277.896 116.283 275.83 117.151 260.159 122.442C236.096 130.502 229.729 133.064 198.927 146.828C191.195 150.301 181.273 154.682 176.849 156.624C165.397 161.585 145.84 170.719 138.563 174.522C131.286 178.242 127.524 180.515 124.175 183.078C122.852 184.111 121.736 184.897 121.653 184.814C121.611 184.731 121.322 183.532 121.074 182.169C120.785 180.804 120.454 179.316 120.33 178.862C120.165 178.118 120.702 177.87 125.829 176.258C134.884 173.405 146.006 169.272 151.132 166.834C158.946 163.155 165.066 158.567 166.554 155.302C166.926 154.516 167.34 154.268 168.373 154.268C172.342 154.268 179.123 152.285 184.58 149.557C188.301 147.696 188.674 147.2 188.012 145.34C186.772 141.868 180.363 131.783 176.973 127.898C174.492 125.087 173.83 124.715 172.715 125.666C172.012 126.245 171.557 127.774 170.399 133.478C168.456 143.315 166.678 148.771 165.355 149.226C164.569 149.474 164.694 147.986 165.809 143.315C166.885 138.851 168.745 130.171 169.117 127.815C169.324 126.741 169.861 125.914 171.184 124.797C173.541 122.813 175.03 119.796 175.608 115.622C176.642 108.14 174.451 101.692 170.027 99.4191C168.166 98.4271 164.197 98.5508 162.048 99.6257C158.822 101.279 157.293 103.8 155.68 110.041C155.019 112.563 154.522 113.886 154.522 113.142C154.44 111.158 152.579 100.659 151.628 96.9385C151.132 95.0789 150.181 91.9372 149.478 89.9947C148.775 88.0107 148.279 86.3577 148.362 86.2748C148.445 86.2334 152.951 88.3002 158.409 90.863C163.866 93.4252 169.324 95.7814 170.523 96.0294C174.161 96.8563 174.12 96.8977 174.038 85.7374C173.955 73.6265 173.541 70.0309 172.012 67.7989C168.786 63.1278 156.3 54.1172 146.171 49.0744C134.222 43.164 123.596 40.8078 115.368 42.2957C107.43 43.7014 99.988 47.8759 93.538 54.6546C89.4861 58.9119 86.3442 63.7481 82.9538 70.8577C80.7214 75.5696 80.1007 76.5616 79.3983 76.5616C77.4132 76.5616 68.6899 79.083 65.7131 80.5295C61.6612 82.472 58.5187 85.5308 57.5265 88.5067C55.707 94.0869 57.6915 99.6257 62.4464 102.312C68.9378 105.908 80.0599 107.024 80.6385 104.131C80.7622 103.635 80.9279 99.5014 81.0521 94.9546C81.2172 88.0108 81.3829 86.1511 82.2095 83.1746L83.1603 79.6612L84.8141 79.3724C85.7241 79.2067 90.9748 78.835 96.4733 78.587C107.926 77.9667 127.813 78.587 133.395 79.6612C136.537 80.2815 140.879 82.1826 141.127 83.0094C141.251 83.2989 140.3 83.5883 138.687 83.7534C134.759 84.208 131.369 85.0763 124.299 87.3911C114.335 90.6564 112.64 90.4907 99.9052 85.2414C96.1432 83.6705 92.2978 82.2655 91.347 82.1003C89.0731 81.7695 87.0057 82.5134 85.4756 84.208C83.8632 86.0682 83.3674 87.9693 83.3674 92.2681C83.3674 95.5749 85.0626 109.256 86.4678 117.11C87.1293 121.119 89.6518 131.08 90.5612 133.478C93.8687 142.282 95.6468 145.754 98.7892 149.928C102.055 154.227 105.156 156.046 110.241 156.707L112.102 156.955L112.433 159.849C112.598 161.419 113.467 165.511 114.335 168.942C115.244 172.331 115.823 175.266 115.699 175.39C115.534 175.514 113.508 176.051 111.193 176.589L106.975 177.539L105.28 176.382C103.503 175.142 97.8378 169.396 97.8378 168.818C97.8378 168.611 98.9543 168.156 100.277 167.784C106.314 166.09 109.415 164.313 109.415 162.494C109.415 159.559 106.934 158.402 102.262 159.105C96.474 159.972 92.0499 162.411 92.0499 164.726C92.0499 165.883 91.7605 166.048 88.5352 166.462C87.4193 166.586 82.3751 167.536 77.3724 168.528C63.315 171.381 57.4022 173.323 55.707 175.72C51.6965 181.342 55.9141 205.026 67.2426 240.242C71.3774 253.179 73.6927 259.628 74.5193 260.537C74.8914 260.95 75.7594 261.322 76.4216 261.322C77.7854 261.322 77.7446 261.074 76.9588 265.249C76.5866 267.067 76.2973 270.498 76.2973 272.896C76.2145 279.467 77.8682 284.634 83.1603 294.678C88.7838 305.383 96.3497 316.626 116.278 344.113C126.49 358.249 131.204 365.234 133.478 369.739C134.346 371.517 136.372 376.932 137.984 381.727C141.333 391.771 144.393 398.136 147.659 401.732L149.768 404.088L148.817 409.048C146.419 421.406 142.822 444.222 140.465 462.203C136.744 490.144 136.661 491.715 139.101 490.971C140.01 490.681 143.69 486.672 147.907 481.423C156.92 470.18 185.945 435.832 190.7 430.872L192.932 428.516L190.452 433.269C182.554 448.273 179.288 455.548 179.288 458.028C179.288 459.557 179.908 459.93 183.712 460.715C189.294 461.872 193.346 462.327 226.008 465.509C245.978 467.452 256.976 469.147 260.739 470.841C261.896 471.379 261.069 471.337 252.056 470.262C239.197 468.774 229.151 468.279 211.124 468.238C192.518 468.196 190.079 468.361 181.356 470.097C168.538 472.66 159.277 477.703 149.478 487.416C133.85 502.957 121.694 527.923 116.485 555.245C115.203 561.899 114.459 570.414 114.17 581.656C113.467 609.268 110.159 659.488 106.686 696.11C105.694 706.689 105.569 710.657 106.272 712.352C106.521 712.848 106.066 713.388 104.371 714.461C101.683 716.156 100.236 717.933 95.7296 724.877C83.1189 744.428 70.3023 758.686 58.1051 766.829C55.9555 768.235 53.2681 770.219 52.1101 771.211C47.7275 774.934 45.495 779.894 46.5287 783.611C47.3139 786.549 50.4978 789.644 54.2189 791.095C55.2526 791.465 53.8468 791.591 46.5701 791.591C35.2002 791.672 24.0782 792.294 20.4399 793.116C17.6696 793.738 15.1478 795.27 15.1478 796.343C15.1478 797.002 17.0909 798.823 18.6618 799.564C21.1842 800.851 26.9721 802.458 44.875 806.922C72.6176 813.91 83.7804 817.878 80.845 819.78C78.7776 821.099 71.501 822.091 59.8003 822.675C45.04 823.378 -21.2365 822.919 -55.1392 821.846C-91.5235 820.728 -137.54 818.995 -167.392 817.671C-206.794 815.894 -250.702 813.866 -255.664 813.577C-258.972 813.414 -261.783 813.332 -261.948 813.414C-262.403 813.659 -262.362 815.272 -261.907 815.976C-261.411 816.723 -256.863 817.093 -241.607 817.671C-234.909 817.916 -224.655 818.374 -218.867 818.707C-213.078 818.995 -205.14 819.404 -201.295 819.529C-197.408 819.655 -188.974 820.025 -182.483 820.358C-175.991 820.691 -167.144 821.061 -162.844 821.186C-158.502 821.306 -149.407 821.683 -142.585 822.009C-135.762 822.342 -126.543 822.712 -122.119 822.838C-117.695 822.963 -107.73 823.334 -99.9988 823.666C-92.2672 823.993 -78.4169 824.451 -69.1966 824.696C-59.9769 824.947 -48.6483 825.318 -43.9763 825.525C-28.9681 826.184 54.4668 826.517 63.1079 825.977C77.0002 825.067 81.5065 824.118 83.7396 821.595C84.4419 820.772 85.0212 819.655 85.0212 819.115C85.0212 816.886 81.0936 813.992 74.9328 811.675C70.3437 809.942 61.6612 807.588 41.7739 802.584C31.2719 799.978 21.9694 797.58 21.1014 797.254L19.489 796.714L21.1428 796.425C25.2769 795.766 33.918 795.307 48.6375 795.1C63.5215 794.855 64.9273 794.893 70.1366 795.722C82.2094 797.624 87.8323 797.994 103.213 797.994C119.172 798.038 124.423 797.668 140.217 795.307C160.187 792.413 186.152 786.631 221.874 777.163C245.11 771.048 262.392 767.243 267.188 767.243C269.586 767.243 269.586 768.072 267.229 770.301C264.791 772.617 260.656 774.89 250.154 779.687C233.368 787.334 228.489 790.724 228.489 794.73C228.489 798.409 234.278 801.837 242.629 803.161C251.27 804.568 275.25 805.604 309.732 806.1C359.264 806.841 528.818 806.345 589.226 805.315C604.026 805.064 633.674 804.649 655.17 804.442C676.673 804.197 700.773 803.865 708.712 803.657C716.696 803.45 734.639 803.161 748.61 802.998C762.587 802.873 776.15 802.665 778.711 802.54L783.343 802.295V799.03L776.646 799.237C772.924 799.357 760.811 799.564 749.646 799.69C738.524 799.815 712.353 800.186 691.553 800.518C434.675 804.568 274.382 804.323 243.787 799.853C238.04 799.03 231.797 796.381 231.797 794.774C231.797 793.901 234.608 791.547 237.916 789.607C240.562 788.075 248.624 784.188 255.777 781.049C265.369 776.83 270.62 773.069 272.232 769.309C272.77 768.028 272.729 767.739 272.109 766.54C270.909 764.349 269.132 763.771 264.294 764.06C257.679 764.43 250.402 766.044 221.667 773.484C169.655 787.001 145.426 791.917 119.958 794.108C113.425 794.648 97.7555 794.774 88.9488 794.315L81.9201 793.945L88.9488 793.242C104.743 791.672 110.903 789.688 118.18 783.818C125.25 778.117 129.715 775.8 138.977 773.032C152.083 769.145 153.654 768.028 154.274 762.446C155.184 754.473 148.817 725.084 145.385 721.198C143.607 719.258 142.243 719.465 136.661 722.686C131.286 725.787 128.93 726.698 125.87 726.779C121.405 726.942 117.767 724.921 113.673 720.043C109.787 715.453 110.531 715.497 120.04 720.413C127.111 724.048 128.599 724.425 130.914 723.226C135.999 720.576 159.732 670.645 171.681 637.294C178.296 618.899 179.082 612.614 176.807 594.055C175.608 584.013 175.361 578.267 175.981 574.175C177.304 565.495 180.818 560.163 189.997 552.847C192.188 551.111 194.793 548.92 195.785 548.052L197.604 546.399L198.348 548.838C198.762 550.202 200.581 554.253 202.4 557.89C212.323 577.895 234.07 608.69 248.541 623.237C253.172 627.864 254.909 629.352 257.265 630.551C261.234 632.579 269.793 635.806 296.916 645.475C309.526 649.939 362.076 667.217 379.401 672.547C414.46 683.296 435.008 688.708 441.253 688.751C448.113 688.833 458.45 683.007 470.895 672.133C478.383 665.603 478.213 665.729 478.213 666.677C478.213 668.786 472.176 677.011 466.433 682.718C455.726 693.341 445.182 698.627 438.893 696.48C437.406 695.984 434.305 694.044 431.908 692.06C426.824 687.885 425.663 691.357 423.843 716.401C423.14 725.951 422.437 733.353 422.148 733.805C422.067 733.968 421.408 734.175 420.661 734.345C419.92 734.464 416.82 735.337 413.757 736.241C402.303 739.713 397.426 743.31 396.353 749.099C395.362 754.266 397.759 758.604 402.843 760.959C409.169 763.897 416.362 764.926 429.843 764.889C437.613 764.889 439.803 764.726 443.236 764.022C451.916 762.202 454.853 759.678 460.395 749.262C466.759 737.358 474.95 728.305 493.308 712.848C504.925 703.091 511.785 695.488 512.983 691.068C513.234 690.114 513.316 688.544 513.191 687.552C512.281 680.772 501.906 671.888 484.088 662.546L478.502 659.651L477.554 660.813L476.644 661.968L471.146 659.651C468.084 658.415 460.684 655.395 454.646 653.04C424.96 641.3 407.512 632.868 388.539 621.172C375.635 613.192 365.631 607.817 355.378 603.398C340.411 596.95 325.031 592.693 312.337 591.538C309.526 591.249 306.838 590.916 306.342 590.708C303.737 589.758 296.667 576.903 291.541 563.883C284.305 545.572 274.424 515.358 268.18 492.665C266.816 487.664 265.783 485.763 264.459 485.763C262.93 485.763 257.1 489.152 252.676 492.583C247.591 496.551 234.484 508.083 227.249 514.986C223.445 518.623 222.37 519.449 221.833 519.119C221.295 518.788 221.833 518.127 224.934 515.316C235.766 505.52 259.085 480.472 262.185 475.264C262.557 474.644 263.012 474.603 268.18 475.182C279.468 476.421 289.143 477.165 291.458 476.959C293.07 476.793 294.393 476.38 295.427 475.719C298.239 473.859 299.148 470.883 299.934 460.88C300.141 458.442 300.43 456.292 300.596 456.127C300.761 455.962 305.308 455.589 310.725 455.3C325.444 454.597 330.612 453.44 332.059 450.671C332.597 449.555 332.597 449.224 331.852 446.827C330.943 443.934 320.73 423.39 314.115 411.156C311.758 406.816 309.112 401.897 308.161 400.203C304.73 393.796 292.698 372.84 288.316 365.689C278.93 350.272 271.778 340.765 268.552 339.442C267.478 338.988 266.94 338.988 265.121 339.566C263.922 339.938 262.02 340.848 260.904 341.592C258.258 343.328 248.294 353.289 236.882 365.689C213.233 391.357 199.506 402.145 184.87 406.65C181.356 407.767 180.735 407.808 172.88 407.849C164.859 407.849 164.486 407.808 161.345 406.692C157.954 405.493 154.895 403.881 154.027 402.848C153.654 402.393 153.696 402.104 154.233 401.484C155.556 400.037 159.691 399.086 172.673 397.268C184.952 395.614 191.485 393.589 194.999 390.406C197.397 388.257 197.811 387.306 196.901 385.943C195.744 384.165 193.924 384 178.916 384.289C164.817 384.537 162.254 384.372 162.006 383.173C161.717 381.561 169.324 379.329 187.764 375.609C211.703 370.773 219.228 368.417 223.403 364.532C225.347 362.713 225.884 360.853 224.892 359.199C223.031 356.017 216.458 356.017 196.653 359.199C180.983 361.762 177.51 362.176 171.846 362.176C164.073 362.176 162.502 360.977 166.637 358.249C173.376 353.744 189.955 349.611 226.215 343.369C254.867 338.409 260.449 337.045 261.772 334.441C262.103 333.821 262.392 332.994 262.392 332.663C262.392 331.506 260.408 329.729 256.397 327.249C250.981 323.901 248.335 320.966 245.11 314.725C241.017 306.789 239.239 301.87 236.551 290.793C234.567 282.526 233.12 279.964 228.448 276.368C227.125 275.334 226.008 274.342 226.008 274.136C226.008 273.97 226.422 273.722 226.96 273.557C227.455 273.433 228.654 272.689 229.606 271.862L231.301 270.416L232.334 272.192C234.029 275.045 243.414 287.404 248.046 292.859C250.402 295.629 255.405 301.168 259.126 305.135C269.628 316.296 272.522 320.139 279.964 332.622C289.597 348.742 292.45 352.256 306.177 365.028C315.149 373.419 326.436 385.901 343.016 405.783C355.171 420.373 368.732 437.733 370.219 440.544C370.47 441.04 371.004 443.355 371.38 445.71C372.824 455.01 375.717 459.847 384.152 467.039C390.19 472.206 392.587 475.14 395.399 480.596C398.048 485.804 398.625 486.589 399.824 486.589C401.311 486.589 403.382 484.978 404.167 483.242L404.951 481.547L406.521 483.572C407.431 484.688 409.332 487.333 410.82 489.442C415.326 495.889 418.389 499.568 419.625 499.982C420.623 500.354 420.912 500.23 421.903 499.279C422.939 498.246 423.021 497.873 422.977 495.145C422.895 490.227 419.958 481.919 416.154 475.719C415.495 474.644 415.037 473.776 415.119 473.776C415.207 473.776 416.694 475.512 418.389 477.579C420.127 479.687 422.688 482.58 424.138 483.986C428.97 488.698 431.286 489.607 433.15 487.623C435.341 485.267 433.314 479.893 426.203 469.27C422.895 464.311 422.236 463.154 423.309 463.98C429.221 468.734 435.837 472.454 438.937 472.825C440.713 473.032 441.046 472.95 442.037 471.958C443.029 470.966 443.155 470.635 442.904 469.105C442.74 468.155 442.163 466.625 441.623 465.716C439.64 462.327 430.998 453.605 426.95 450.919C425.914 450.257 425.456 449.844 425.914 450.009C426.366 450.175 429.924 450.588 433.765 450.96C439.307 451.456 441.171 451.497 442.533 451.084C444.598 450.505 445.552 449.679 445.552 448.439C445.552 445.008 437.945 441.123 421.157 435.956C416.939 434.674 411.648 432.69 409.376 431.616C400.734 427.441 388.659 416.198 375.058 399.582C366.29 388.877 362.034 382.719 352.277 366.474C336.028 339.401 327.346 327.414 307.665 304.929C292.946 288.106 288.068 281.079 273.349 255.535C261.276 234.538 254.082 224.536 243.332 213.83C228.986 199.446 213.77 189.815 205.418 189.815C202.4 189.815 202.028 190.228 202.028 193.659C202.028 195.312 202.317 198.784 202.648 201.389C204.84 217.55 210.049 253.965 210.711 257.767C211.166 260.247 211.455 262.356 211.413 262.438C211.166 262.645 209.222 257.892 207.817 253.675C205.914 248.178 203.062 237.514 200.953 228.09C198.514 217.219 196.777 210.441 195.95 208.291C194.379 204.323 192.147 201.885 190.534 202.422C187.806 203.248 185.986 206.844 182.182 218.749C174.864 241.854 171.226 250.328 165.479 258.098C158.368 267.646 149.313 270.622 140.631 266.282C135.173 263.596 131.121 259.132 122.645 246.648C113.88 233.67 111.027 231.19 106.231 232.347C102.303 233.339 98.1685 236.274 91.0576 243.094C87.4601 246.566 87.5015 246.442 91.967 239.043C93.6622 236.233 95.6882 232.678 96.4325 231.149L97.8792 228.379L99.6158 228.71C103.668 229.454 115.41 229.991 123.265 229.785C133.23 229.495 137.033 228.669 144.228 225.238C148.775 223.088 161.303 216.021 164.611 213.788C165.52 213.169 166.72 212.425 167.215 212.177C168.952 211.268 167.753 212.756 164.859 215.07C147.7 228.875 136.248 234.042 127.235 231.934C125.25 231.479 124.092 231.686 123.762 232.554C123.348 233.628 124.671 238.506 126.201 241.523C131.617 252.311 139.556 258.428 148.072 258.428C153.158 258.428 157.499 256.155 161.51 251.361C167.381 244.334 173.252 230.529 176.807 215.442C177.552 212.383 178.337 209.366 178.544 208.705C178.792 208.084 180.405 206.307 182.141 204.778C185.283 201.967 200.705 189.361 204.798 186.26C205.997 185.393 210.256 182.127 214.307 179.069C227.373 169.107 238.742 161.419 244.903 158.319C248.872 156.335 250.526 156.211 255.777 157.575C259.994 158.691 263.467 158.526 266.32 157.162C267.354 156.666 268.305 156.335 268.429 156.418C268.511 156.542 267.56 157.41 266.32 158.36C261.565 161.956 260.449 165.015 262.765 168.156C266.154 172.869 271.819 175.224 275.333 173.447C278.641 171.711 282.445 167.578 284.553 163.362C285.711 161.047 285.711 161.377 284.884 154.31C284.636 152.533 284.719 152.119 285.174 152.285C285.546 152.408 285.959 153.979 286.414 156.583C286.786 158.857 287.406 161.419 287.82 162.246C289.432 165.676 293.401 164.354 296.006 159.476C296.75 158.113 296.916 157.12 296.916 154.062V150.341L298.57 149.515C300.636 148.482 302.497 145.133 302.497 142.447C302.497 140.794 302.58 140.67 303.862 140.422C306.301 139.926 306.631 139.761 307.252 138.561C308.368 136.412 308.037 134.47 306.011 131.122C303.82 127.443 303.696 126.781 305.515 128.559C306.26 129.262 307.459 130.047 308.203 130.336C312.048 131.659 317.381 125.293 317.381 119.3C317.381 114.299 315.149 112.728 304.895 110.662L298.156 109.297H301.505C306.673 109.339 307.252 109.091 308.451 106.611C309.029 105.412 310.229 102.684 311.097 100.535L312.668 96.6083L317.96 93.8389C329.909 87.5976 338.054 81.8931 338.054 79.8684C338.054 78.4627 331.976 74.7842 327.139 73.2962C323.211 72.0977 320.11 72.1385 318.828 73.4199C317.753 74.4948 316.43 77.0576 314.859 80.9012C313.247 85.0348 313.495 82.4306 315.521 74.6191C317.919 65.2776 317.588 66.1038 318.704 66.6826C322.177 68.5429 348.266 76.1478 351.119 76.1478C353.558 76.1478 367.696 66.7241 371.211 62.7562C372.704 61.1025 372.661 60.2762 371.048 59.0771C368.361 57.0523 363.192 54.9026 345.083 48.2482C339.956 46.3879 333.01 43.7429 329.62 42.42L323.5 39.9815L323.707 35.6413C325.237 7.57587 351.987 -19.9109 382.872 -25.2016C389.449 -26.3176 398.87 -26.1109 404.123 -24.7056C420.372 -20.4482 429.429 -9.41222 429.429 6.04653C429.429 11.8746 427.734 16.7932 423.68 22.9519C419.092 29.8546 411.692 37.5424 401.726 45.8505C386.55 58.416 359.347 75.9413 332.472 90.4084C313.619 100.576 315.066 99.4599 315.479 103.552C315.935 108.223 317.133 110.868 319.49 112.646C320.565 113.431 320.689 113.431 322.798 112.728C324.782 112.108 329.578 109.711 338.261 105.082C345.207 101.362 361.993 92.5161 368.443 89.1678C388.125 78.9587 392.462 76.603 397.922 73.0068C404.908 68.4186 407.889 66.1452 413.713 61.0202C434.268 42.9989 445.759 22.1253 445.715 2.78117C445.715 -1.97215 445.552 -3.0055 444.56 -6.10549C442.081 -13.6696 436.954 -20.6549 429.843 -26.1109C423.021 -31.3189 412.395 -35.4936 402.88 -36.6923C399.698 -37.0643 391.018 -37.147 387.667 -36.8163ZM407.556 -32.3936C425.293 -28.3016 438.441 -17.1002 441.667 -3.29487C442.615 0.714533 442.245 9.27051 440.839 14.6026C438.316 24.2746 433.063 34.2362 425.544 43.7014C421.86 48.2896 412.307 57.7134 406.891 62.0536C397.878 69.2869 390.767 73.6679 373.815 82.3483C368.361 85.1585 355.709 91.8135 345.703 97.1457C328.007 106.611 322.012 109.628 320.979 109.628C320.358 109.628 318.373 102.891 318.787 102.229C318.953 101.981 320.689 100.948 322.674 99.8737C349.134 85.6137 364.432 76.6438 379.357 66.6412C410.657 45.6854 427.816 28.4495 431.989 13.8585C433.395 9.02252 433.27 1.29315 431.745 -3.83217C428.889 -13.2976 423.102 -20.2416 414.334 -24.5816C399.824 -31.8563 379.483 -30.8229 361.869 -21.9775C336.979 -9.45353 320.276 14.6026 320.276 37.9147V42.0477L324.121 43.7837C326.188 44.7348 333.795 47.6693 340.948 50.3144C348.101 52.9601 356.494 56.1426 359.553 57.424C362.613 58.7054 365.757 59.9868 366.541 60.2762C368.317 61.0202 368.192 61.1853 362.282 65.3598C355.832 69.948 351.698 72.4279 350.54 72.4279C349.589 72.4279 345.91 71.5188 337.847 69.2869C335.821 68.708 330.736 67.1372 326.602 65.7321C320.482 63.7482 319.035 63.0864 319.035 62.5082C319.035 62.0944 319.407 60.1934 319.862 58.2923C320.276 56.3906 320.937 53.2081 321.309 51.1827C321.888 47.8345 321.888 47.4214 321.268 46.4708C319.862 44.3626 316.017 46.3879 312.544 51.0584C308.534 56.5149 308.823 60.6065 313.412 63.9547L314.529 64.7816L311.221 77.595C309.402 84.6217 307.706 91.607 307.417 93.0535C306.921 95.5749 306.962 95.74 307.748 96.2774C308.616 96.8563 308.575 96.8977 306.921 100.824C305.97 102.973 304.812 105.04 304.357 105.33C303.862 105.66 302.373 106.032 300.967 106.156L298.487 106.446L298.652 102.973C298.859 97.9719 299.52 89.9118 300.264 84.208C305.763 39.6507 320.772 4.76519 342.106 -13.1736C353.558 -22.8042 368.361 -29.8722 382.627 -32.5589C388.947 -33.7163 389.242 -33.7576 396.56 -33.5923C401.726 -33.4683 404.123 -33.2203 407.556 -32.3936ZM127.606 46.0163C131.7 46.6774 138.605 49.1159 144.434 51.9681C155.721 57.4654 169.117 67.7575 169.903 71.4774C170.316 73.2548 171.143 92.2681 170.854 92.5575C170.73 92.7226 166.76 90.9452 162.006 88.6719C153.53 84.4974 150.015 83.1746 147.783 83.1746C146.998 83.1746 145.964 82.5549 144.434 81.1906C140.341 77.4707 135.834 76.0656 125.705 75.3216C117.477 74.7013 96.3497 74.7013 89.8168 75.2802C87.1293 75.5282 84.8141 75.6519 84.7318 75.5696C84.4011 75.2802 88.7831 66.8892 91.0162 63.5416C95.1917 57.2174 100.319 52.4641 106.149 49.3639C109.043 47.793 113.301 46.2228 115.616 45.8505C117.767 45.4788 125.002 45.6025 127.606 46.0163ZM317.009 54.2829C316.347 56.8866 315.562 59.5322 315.314 60.2348L314.818 61.4748L314.032 60.4828C313.081 59.3251 313.04 58.0443 313.867 56.0603C314.57 54.3652 317.836 49.1987 318.084 49.4053C318.167 49.4882 317.671 51.6787 317.009 54.2829ZM325.733 76.5616C328.379 77.3878 333.92 79.7441 333.92 80.0335C333.92 80.3229 326.023 85.3243 320.565 88.4239C317.588 90.1604 314.942 91.7721 314.777 92.0201C314.281 92.6812 314.818 90.9044 316.43 86.4814C318.333 81.3972 320.11 77.4293 320.979 76.4787C321.805 75.5282 322.467 75.5282 325.733 76.5616ZM79.0676 80.9426C78.199 83.1746 77.5789 89.375 77.5789 95.6578V102.643L75.0157 102.395C65.2995 101.362 60.2139 98.0134 60.2139 92.6404C60.2139 87.5976 64.7617 83.9185 74.0649 81.3563C78.6126 80.1164 79.3984 80.0335 79.0676 80.9426ZM96.3083 87.5562C104.205 90.7801 107.141 91.7721 110.696 92.5161C115.286 93.4252 118.014 93.1364 125.002 90.863C132.651 88.3831 137.075 87.3496 141.085 87.0602L144.434 86.7708L145.757 90.4493C147.494 95.244 149.272 102.271 150.388 108.76C150.843 111.612 151.504 114.547 151.793 115.291C152.496 116.986 153.737 117.688 155.019 117.027C157.086 115.952 157.789 114.795 159.277 110.207C161.22 104.172 162.46 102.602 165.562 102.271C168.208 102.023 169.283 102.684 170.895 105.371C171.97 107.231 172.053 107.644 172.053 112.108C172.053 116.572 171.97 117.027 170.812 119.341C170.151 120.664 169.407 121.821 169.158 121.863C168.952 121.946 168.166 121.202 167.505 120.251C166.802 119.3 165.934 118.474 165.562 118.391C164.735 118.226 162.088 120.499 161.262 122.069C160.972 122.69 160.683 123.682 160.683 124.26C160.683 125.501 162.502 127.36 164.114 127.691C165.603 127.98 165.562 128.435 163.618 137.033C161.055 148.275 161.014 148.688 162.998 151.582L164.032 153.152L161.758 155.467C158.533 158.732 153.365 161.833 145.674 165.139C139.679 167.702 121.363 174.109 119.999 174.109C119.379 174.109 118.304 170.554 116.691 162.948C116.154 160.345 115.616 157.947 115.575 157.616C115.451 157.203 116.568 156.79 119.585 156.087C125.54 154.764 130.832 152.863 135.999 150.301C143.442 146.58 145.757 144.638 145.22 142.53C144.848 141.042 142.946 140.794 138.728 141.662C128.392 143.77 116.857 148.565 112.681 152.45C111.689 153.4 111.482 153.442 109.663 153.029C106.686 152.367 104.784 151.251 102.551 148.771C99.7401 145.712 97.7555 142.158 95.3574 135.958C91.5948 126.368 89.776 117.895 87.4601 99.0882C86.427 90.7801 86.5507 88.4239 88.1223 86.7293C89.5275 85.1999 90.9333 85.3657 96.3083 87.5562ZM301.257 113.555C313.288 116.2 314.074 116.49 314.074 118.35C314.074 121.243 310.932 126.988 309.36 126.988C309.071 126.988 308.327 126.41 307.624 125.707C305.805 123.764 302.704 121.615 301.753 121.615C300.471 121.615 298.362 123.599 298.362 124.757C298.362 126.079 299.065 127.402 301.877 131.535C304.234 134.966 304.854 137.321 303.489 137.321C302.828 137.321 302.539 137.033 299.52 133.188C297.122 130.171 294.311 128.435 292.698 128.931C291.127 129.427 290.011 131.618 290.549 133.147C291.169 134.883 294.145 137.652 296.833 139.017C298.404 139.802 299.19 140.463 299.19 140.959C299.19 142.24 297.949 145.464 297.164 146.167C296.254 146.994 295.923 146.663 294.89 143.852C293.898 141.124 291.334 137.281 289.432 135.751C287.117 133.849 285.174 134.056 283.933 136.412C282.568 139.017 285.628 143.811 291.954 149.061C293.153 150.011 293.195 150.176 293.195 153.524C293.195 156.914 292.243 160.014 291.127 160.345C290.838 160.427 290.466 158.897 290.176 156.542C289.639 152.367 289.101 150.879 287.654 149.557C286.827 148.813 286.579 148.771 284.099 149.267C281.783 149.722 281.328 149.722 280.502 149.143C278.682 147.861 275.747 148.275 271.654 150.383C261.772 155.508 262.185 155.426 255.901 154.02C251.601 153.028 250.774 152.946 248.459 153.318C247.012 153.566 244.407 154.475 242.671 155.343C233.905 159.683 206.7 179.606 186.317 196.594C179.205 202.546 177.882 203.538 177.139 203.248C176.27 202.918 171.433 205.439 160.476 212.012C137.653 225.651 135.71 226.354 118.511 226.312C105.694 226.312 97.9621 225.486 97.0526 224.04C94.4066 219.864 85.3105 214.243 81.1757 214.202C76.7931 214.202 74.85 218.253 77.6617 221.477C79.4391 223.502 82.6645 224.99 88.9488 226.602C93.6208 227.842 94.0344 228.049 93.6622 228.71C93.4557 229.123 91.3884 232.678 89.1145 236.604C86.7986 240.531 83.6567 246.277 82.0858 249.336C80.5557 252.394 78.8191 255.659 78.2818 256.527L77.2896 258.14L76.3387 255.701C73.7749 248.922 68.4414 232.554 65.5889 222.675C60.5861 205.233 58.188 193.742 57.8572 185.268C57.6093 178.696 57.8572 177.663 60.0897 176.712C64.1416 175.018 79.6048 171.546 92.4635 169.396C93.8273 169.19 93.993 169.272 94.9438 170.885C96.5562 173.571 101.6 178.407 104.081 179.606C106.686 180.928 108.05 180.97 112.722 179.895C114.665 179.44 116.444 179.069 116.65 179.069C116.899 179.069 117.436 180.97 117.849 183.326L118.593 187.583L116.691 190.394C114.583 193.453 114.376 194.693 115.658 196.47C116.65 197.875 117.684 197.999 119.503 196.842C121.488 195.643 122.686 193.205 122.397 191.014L122.149 189.195L125.953 186.343C128.02 184.814 131.41 182.54 133.436 181.342C137.86 178.738 151.38 172 160.269 167.991C163.784 166.42 168.001 164.519 169.572 163.775C171.184 163.031 178.71 159.683 186.317 156.335C193.924 152.987 205.005 148.069 210.918 145.382C229.895 136.867 238.04 133.726 260.697 126.12C276.739 120.706 279.096 119.714 284.305 116.241C288.109 113.679 290.631 112.315 292.946 111.488C294.228 111.075 294.559 111.075 295.469 111.777C296.047 112.191 298.652 112.977 301.257 113.555ZM176.022 132.031C176.642 133.023 178.71 136.371 180.694 139.471C182.637 142.571 184.25 145.299 184.25 145.506C184.25 145.919 180.735 147.573 177.593 148.73C175.898 149.309 170.027 150.962 169.613 150.962C169.489 150.962 170.027 149.184 170.854 146.994C172.26 143.026 174.327 133.974 174.327 131.576C174.327 129.84 174.74 129.964 176.022 132.031ZM134.387 146.869C133.684 147.986 121.116 152.904 119.999 152.491C119.462 152.285 124.092 150.093 128.434 148.482C130.129 147.861 131.989 147.159 132.568 146.911C133.933 146.332 134.759 146.291 134.387 146.869ZM281.204 154.971C281.328 155.384 281.576 156.872 281.7 158.278C281.948 160.758 281.866 160.964 280.419 163.196C278.227 166.462 275.747 169.066 273.845 170.016L272.274 170.843L270.455 169.975C268.305 168.942 264.873 166.007 264.873 165.222C264.873 163.94 270 160.097 276.822 156.252C278.765 155.178 280.502 154.268 280.625 154.268C280.791 154.268 281.039 154.599 281.204 154.971ZM103.503 161.956C103.378 162.081 103.006 162.121 102.717 161.998C102.386 161.873 102.51 161.75 102.965 161.75C103.42 161.708 103.668 161.833 103.503 161.956ZM101.559 162.535C101.228 162.742 100.65 162.907 100.319 162.907C99.9052 162.907 99.988 162.783 100.525 162.535C101.642 162.039 102.303 162.039 101.559 162.535ZM100.897 163.734C101.146 164.106 99.4507 164.726 99.12 164.395C99.0371 164.271 99.1614 164.188 99.4508 164.188C99.7401 164.188 99.8223 163.982 99.6986 163.775C99.5744 163.527 99.7401 163.362 100.071 163.362C100.402 163.362 100.774 163.527 100.897 163.734ZM209.925 194.362C218.194 197.131 225.347 201.843 236.096 211.639C242.753 217.715 248.5 224.04 253.669 230.942C258.671 237.638 262.062 243.011 270.868 258.222C285.463 283.518 290.259 290.255 308.492 311.17C324.823 329.853 333.506 342.046 349.548 368.789C362.613 390.613 371.751 402.476 387.667 418.389C396.184 426.945 401.726 431.533 406.69 434.261C408.177 435.047 413.594 437.113 418.677 438.767C433.565 443.686 441.912 446.992 441.171 447.736C440.964 447.943 438.774 447.902 436.251 447.695C423.761 446.537 422.236 446.579 421.445 447.777C420.535 449.183 421.615 450.588 428.06 456.54C434.224 462.162 437.035 465.179 438.981 468.32C439.477 469.064 439.64 469.643 439.389 469.643C438.441 469.643 434.883 467.576 430.458 464.435C417.479 455.259 417.272 455.176 415.703 457.284C414.874 458.359 414.874 458.359 415.784 460.178C416.318 461.17 417.893 463.691 419.337 465.799C426.366 475.926 430.627 483.076 430.665 484.895C430.665 485.804 429.221 484.316 422.851 477.083C415.163 468.32 412.477 465.509 411.648 465.509C411.234 465.509 410.406 465.923 409.79 466.377C408.259 467.617 408.466 468.403 412.891 477.29C416.569 484.771 419.173 491.425 419.669 494.856L419.958 496.716L419.048 495.27C415.533 489.814 411.981 484.688 409.828 481.919C406.069 477.041 405.159 475.553 404.167 472.619C402.347 467.204 397.175 463.484 394.615 465.799C393.334 466.956 393.749 468.155 396.435 471.379C401.274 477.124 402.058 479.149 400.734 482.25L400.238 483.448L399.246 480.431C397.508 474.975 394.408 471.007 387.422 465.261C381.673 460.549 379.276 457.78 377.33 453.771C375.843 450.629 374.481 445.545 374.437 442.9C374.355 440.048 372.824 437.61 362.489 424.382C341.61 397.598 319.366 372.302 305.888 359.943C295.964 350.933 292.533 346.593 284.181 332.788C275.664 318.651 272.274 314.063 263.633 304.929C252.056 292.694 243.952 282.857 237.378 273.102L233.45 267.315L233.74 263.596C234.112 257.561 232.21 252.89 228.655 251.195C227.29 250.534 226.96 250.534 226.05 251.03C225.512 251.361 224.685 252.105 224.231 252.766L223.362 253.882L224.272 256.734C224.768 258.263 226.091 261.322 227.207 263.513L229.233 267.439L228.365 268.307C227.249 269.299 224.272 270.664 222.288 271.035C221.047 271.242 220.551 271.118 219.187 270.002C215.713 267.233 215.838 267.605 212.943 248.84C208.189 218.005 208.437 219.658 205.543 195.064C205.377 193.742 205.46 193.122 205.791 193.122C206.039 193.122 207.899 193.659 209.925 194.362ZM192.891 210.771C194.627 216.31 195.372 219.327 198.514 233.009C202.855 251.774 205.749 260.372 210.132 267.398C212.364 271.035 214.638 273.019 217.698 274.136C220.84 275.293 226.38 279.095 228.861 281.823C231.135 284.303 231.879 286.205 233.657 293.769C235.642 302.201 237.461 307.326 241.223 314.973C245.193 322.992 250.237 328.406 256.397 331.382L259.291 332.746L257.844 333.367C255.777 334.234 248.624 335.722 232.21 338.574C209.305 342.625 206.328 343.162 198.927 344.651C184.291 347.668 172.797 350.933 167.298 353.702C165.768 354.488 163.825 355.893 162.833 356.967C160.683 359.324 160.476 361.349 162.171 363.374C165.107 366.888 172.673 366.805 196.447 362.961C209.305 360.895 215.465 360.109 219.104 360.109C221.585 360.109 221.915 360.192 221.791 360.812C221.708 361.225 220.757 362.135 219.682 362.879C216.003 365.317 210.297 367.094 196.074 370.07C169.076 375.774 165.189 376.766 161.551 378.998C159.029 380.569 158.326 381.85 158.822 383.917C159.567 386.81 163.784 388.216 171.887 388.216C176.394 388.216 189.955 387.513 192.023 387.183C196.24 386.439 189.749 389.91 183.96 391.481C182.141 391.977 175.898 393.093 170.109 394.003C155.267 396.276 153.737 396.689 151.752 398.838L150.678 399.996L149.561 398.673C147.287 395.945 144.558 389.869 141.292 380.239C139.431 374.824 137.447 369.451 136.827 368.252C134.925 364.656 127.11 353.289 115.616 337.376C94.448 308.153 85.5584 293.893 81.2586 282.196C79.977 278.682 79.8942 278.186 79.8942 272.896C79.8942 266.902 80.7622 262.066 82.5816 258.222C84.3597 254.461 99.7401 239.457 104.412 236.977C108.009 235.076 109.125 235.199 111.73 237.969C112.929 239.209 116.196 243.631 119.007 247.806C129.178 262.852 133.808 267.481 141.582 270.291C147.369 272.4 154.027 271.862 159.029 268.845C164.363 265.621 168.125 261.487 172.053 254.502C176.229 247.186 178.255 242.102 183.382 226.395C187.888 212.631 190.493 205.522 191.03 205.522C191.155 205.522 191.981 207.878 192.891 210.771ZM173.748 212.838C173.665 213.251 173.004 215.731 172.301 218.335C169.324 229.743 165.355 239.374 160.89 246.07C156.673 252.394 152.91 254.874 147.659 254.833C144.186 254.791 141.333 253.758 138.191 251.402C134.759 248.798 132.403 245.574 128.558 238.134L126.904 234.951L128.268 235.53C134.264 238.052 147.411 232.843 161.345 222.427C165.189 219.534 172.756 213.086 173.004 212.466C173.293 211.804 173.955 212.177 173.748 212.838ZM85.2277 219.12C86.675 219.823 88.9074 221.229 90.2304 222.262C91.512 223.296 92.8765 224.122 93.2072 224.122C93.5794 224.122 93.7451 224.246 93.6208 224.37C93.2901 224.701 88.1216 223.13 84.5248 221.559C80.9279 220.071 79.2327 218.914 79.2327 218.046C79.2327 217.054 82.0858 217.591 85.2277 219.12ZM230.06 258.759C230.474 260.537 230.143 261.322 229.399 260.372C228.861 259.751 227.249 255.163 227.249 254.337C227.249 253.179 229.688 257.023 230.06 258.759ZM271.116 346.552C280.708 358.58 298.156 388.092 317.092 424.382C322.55 434.922 328.958 448.15 328.958 448.976C328.958 450.257 322.095 451.332 310.311 451.869C304.606 452.159 300.223 452.531 299.603 452.82C299.065 453.109 298.156 454.143 297.618 455.093C296.75 456.623 296.585 457.738 296.295 462.616C295.924 468.692 295.261 471.131 293.443 472.702C292.657 473.404 291.954 473.528 288.109 473.446C282.941 473.363 265.328 471.544 264.873 471.007C264.666 470.841 264.46 470.222 264.377 469.684C264.005 466.708 255.942 465.055 229.151 462.41C200.291 459.599 183.257 457.615 182.679 457.036C182.596 456.954 184.911 452.283 187.806 446.62C198.968 424.961 199.754 423.184 198.803 421.118C198.473 420.332 198.018 420.043 197.191 420.043C196.281 420.043 195.124 420.993 191.485 424.672C188.963 427.235 184.87 431.74 182.389 434.716C179.908 437.651 176.559 441.577 174.947 443.396C173.335 445.214 170.978 447.943 169.738 449.431C168.538 450.919 165.189 454.887 162.337 458.276C155.184 466.75 150.264 472.66 145.303 478.736C141.292 483.696 141.126 483.82 141.374 482.25C141.54 481.34 142.325 475.388 143.111 469.022C145.716 448.439 149.106 426.243 151.67 413.14L152.993 406.402L154.233 407.271C159.484 410.743 169.448 412.437 178.751 411.404C189.872 410.205 198.555 405.906 212.571 394.664C217.078 391.068 235.311 373.088 242.133 365.482C250.774 355.893 255.239 351.264 258.878 347.998C262.434 344.857 266.154 342.336 267.229 342.336C267.519 342.336 269.297 344.237 271.116 346.552ZM232.582 472.123C239.983 472.577 248.417 473.239 251.353 473.569C254.289 473.9 257.017 474.19 257.472 474.19C257.885 474.19 258.258 474.355 258.258 474.52C258.258 475.016 253.958 480.059 247.466 487.21C242.091 493.12 222.949 512.258 206.039 528.543L196.612 537.636L196.653 539.951C196.653 542.183 196.57 542.348 194.71 544.084C193.594 545.118 190.575 547.722 187.971 549.871C175.981 559.832 172.797 565.66 172.384 578.557C172.218 582.938 172.425 586.038 173.087 591.368C174.244 600.547 174.616 611.829 173.913 616.871C173.004 623.57 169.738 633.615 162.833 650.893C156.053 667.876 148.362 684.865 140.217 701.07C134.676 712.145 131.535 717.563 129.632 719.503L128.434 720.746L121.446 717.148C116.526 714.587 113.839 713.469 112.35 713.262C110.531 713.017 110.118 712.81 109.746 711.9C109.167 710.368 109.538 702.765 110.986 686.435C113.012 664.115 112.929 665.026 115.41 628.567C116.444 613.361 116.816 605.633 117.27 591.161C117.932 569.132 118.469 562.684 120.206 553.963C124.134 534.123 132.568 514.614 143.649 499.692C147.204 494.897 155.763 486.135 160.063 482.952C163.453 480.389 170.895 476.628 174.823 475.429C180.363 473.735 189.335 472.288 198.307 471.585C204.137 471.131 220.716 471.379 232.582 472.123ZM264.046 490.351C264.046 491.384 264.129 491.673 267.188 502.09C282.899 555.699 296.544 589.138 304.565 593.559C305.598 594.181 307.748 594.551 312.213 595.01C334.953 597.364 358.107 606.33 385.439 623.281C401.023 632.95 413.55 639.441 432.322 647.459C439.514 650.56 464.035 660.562 469.86 662.797C472.176 663.701 473.211 664.322 473.167 664.737C473.004 665.603 464.155 673.376 459.611 676.641C452.826 681.519 446.832 684.576 442.822 685.236C437.945 685.983 416.857 680.565 376.916 668.209C336.69 655.765 277.524 635.637 263.219 629.559C255.818 626.376 252.345 623.4 243.167 612.407C229.398 595.832 213.522 572.356 206.039 557.435C204.178 553.715 200.788 545.324 200.788 544.415C200.788 544.001 203.145 541.604 206.039 539C208.932 536.438 212.819 532.925 214.638 531.229C225.347 521.227 247.839 501.139 253.09 496.841C256.273 494.278 263.178 489.483 263.715 489.483C263.88 489.483 264.046 489.896 264.046 490.351ZM483.096 665.892C483.711 666.306 485.902 667.55 487.929 668.661C495.705 672.798 503.682 678.706 506.783 682.636C509.387 685.857 510.172 687.923 509.638 689.907C508.521 694.082 502.446 700.574 488.757 712.063C471.435 726.698 463.948 735.129 457.169 747.736C455.764 750.336 454.069 753.274 453.366 754.266C449.437 759.967 442.533 761.706 425.293 761.335C408.962 760.959 402.014 758.73 399.905 753.148C398.995 750.712 399.491 748.44 401.518 746.204C403.96 743.517 407.512 741.904 416.939 739.097C423.102 737.277 424.671 736.617 425.293 735.456C425.914 734.219 426.447 729.755 427.358 717.023C427.816 710.657 428.475 703.054 428.807 700.159C429.14 697.227 429.429 694.659 429.429 694.415C429.429 694.207 430.213 694.829 431.205 695.821C433.15 697.842 436.458 699.582 439.596 700.285C447.165 702.018 459.115 695.614 470.563 683.71C477.059 676.929 481.395 670.274 481.603 666.677C481.646 665.854 481.772 665.151 481.854 665.151C481.935 665.151 482.513 665.478 483.096 665.892ZM112.847 724.299C114.831 726.283 116.65 727.608 118.842 728.682C121.777 730.17 122.232 730.251 125.705 730.251C128.971 730.251 129.839 730.088 132.403 728.97C134.015 728.267 136.992 726.654 139.101 725.373C141.168 724.092 142.946 723.182 143.028 723.345C143.152 723.515 144.062 726.409 145.096 729.837C148.61 741.577 150.76 752.903 150.76 759.803V764.267L149.478 765.341C148.775 765.962 146.46 766.954 144.02 767.701C127.152 772.862 123.514 774.601 116.236 780.886C112.598 784.025 108.712 785.965 103.42 787.334C95.3574 789.355 81.6722 790.843 70.3437 790.969C65.4646 791.013 64.0587 790.843 61.2476 790.059C55.1284 788.282 50.3321 785.099 49.6298 782.286C48.8854 779.31 52.3995 774.934 59.4696 770.219C72.9483 761.21 86.9229 745.627 99.7401 725.291C101.311 722.811 103.585 719.791 104.784 718.555L107.017 716.364L108.505 718.925C109.373 720.331 111.317 722.767 112.847 724.299Z" fill="#F36EFF"/>
</g>
<defs>
<clipPath id="clip0_1031_420">
<rect width="346" height="346" rx="173" fill="white"/>
</clipPath>
</defs>
</svg>
