<svg width="299" height="379" viewBox="0 0 299 379" fill="none" xmlns="http://www.w3.org/2000/svg">
<path d="M258.323 70.5955C271.323 145.096 229.823 265.096 147.323 362.096C258.323 262.095 285.913 124.595 273.823 57.0949C267.823 23.5947 244.823 11.1544 222.823 21.5949C193.323 35.5949 161.323 77.0949 156.323 111.595L163.323 133.595C182.74 88.1213 195.823 66.051 222.823 45.5955C239.323 33.0949 252.652 38.0951 258.323 70.5955Z" fill="#D80822"/>
<path d="M52.8231 94.0947C83.1523 89.8628 114.911 115.418 166.323 151.095L175.824 187.095L163.323 197.595C129.459 162.416 89.8242 126.517 68.3242 122.595C24.4717 114.595 53.9042 167.095 113.824 239.095C134.026 263.369 144.28 277.43 158.824 304.095C95.4239 244.744 39.1598 183.595 29.3231 160.095C11.3242 117.095 29.3242 97.3737 52.8231 94.0947Z" fill="#D80822"/>
<path d="M160.354 101.714C165.354 100.286 169.138 111.83 170.854 128.714C178.354 131.714 179.854 136.714 172.354 140.214L181.354 184.214C181.854 186.714 181.854 188.714 181.354 190.214L167.854 225.214C166.854 228.214 167.139 230.699 167.854 234.214C168.817 252.309 168.422 262.65 164.854 281.714C167.073 284.997 167.623 287.64 167.854 293.214C167.854 301.214 166.583 307.773 163.854 318.214C163.07 321.214 163.507 323.227 166.354 324.714C167.354 325.236 166.647 326.921 165.354 328.714V332.714C168.18 335.102 168.946 336.897 168.354 341.214C167.937 342.292 167.663 342.868 166.854 343.714V347.714L173.854 347.214L172.854 348.715L137.854 351.215C133.854 351.715 134.688 348.725 136.354 346.215C140.007 340.715 145.708 336.683 152.354 331.215L153.354 322.215L157.354 319.715V292.215C151.3 282.5 149.452 270.953 148.854 239.715C148.854 237.714 146.785 237.997 143.354 238.715C123.354 242.897 108.354 232.714 106.854 212.214C106.489 207.214 109.474 200.097 113.854 192.214C114.855 190.413 115.276 176.731 115.854 161.214C116.188 159.226 115.855 159.714 118.854 155.714L137.854 127.214C140.354 123.714 142.355 122.714 146.854 121.714C152.228 111.48 156.854 102.714 160.354 101.714ZM147.824 345.594C140.832 345.74 138.809 346.594 138.824 349.594L147.824 349.094V345.594ZM163.824 343.595C154.824 343.595 149.824 344.095 149.824 346.595V349.095L163.824 348.095V343.595ZM149.324 133.095C148.605 135.495 147.895 136.711 145.824 138.595C140.986 150.482 138.459 157.175 130.324 168.595V177.095C130.324 178.595 130.983 176.015 132.824 175.095C133.824 174.595 135.824 175.595 138.824 177.595L150.824 186.095C151.824 187.095 151.547 189.92 150.824 194.095C152.422 195.157 152.916 195.999 152.824 198.095C152.693 201.095 146.937 208.223 143.824 204.595C143.015 203.715 142.479 203.468 141.324 203.595C139.824 203.759 139.404 204.346 138.824 205.595C138.324 206.595 135.824 205.595 136.324 203.095C136.46 202.416 130.824 201.595 130.824 202.595V209.595C134.324 216.595 139.824 220.095 142.824 216.595C145.396 213.595 148.824 211.595 152.824 210.595L170.324 187.095C171.324 185.095 171.386 183.817 170.824 181.595C165.026 165.851 163.892 156.844 163.824 140.595C156.098 142.219 153.11 140.158 149.324 133.095ZM155.324 128.095C155.755 121.147 156.488 113.83 155.824 114.595C154.467 116.159 153.795 117.672 152.824 122.095C154.826 123.787 155.283 128.756 155.324 128.095ZM160.824 106.095C159.358 106.906 158.849 107.573 158.324 109.095C161.324 110.595 162.324 107.595 160.824 106.095Z" fill="white"/>
<mask id="mask0_58_1476" style="mask-type:alpha" maskUnits="userSpaceOnUse" x="106" y="101" width="76" height="251">
<path d="M160.355 101.714C165.355 100.287 169.139 111.831 170.855 128.714C178.355 131.714 179.855 136.714 172.355 140.214L181.355 184.215C181.855 186.715 181.855 188.715 181.355 190.215L167.855 225.215C166.856 228.215 167.14 230.7 167.855 234.215C168.818 252.31 168.423 262.651 164.855 281.715C167.074 284.998 167.624 287.641 167.855 293.215C167.855 301.215 166.584 307.774 163.855 318.215C163.072 321.215 163.508 323.228 166.355 324.715C167.355 325.237 166.648 326.922 165.355 328.715V332.715C168.181 335.103 168.948 336.898 168.355 341.215C167.938 342.293 167.664 342.869 166.855 343.715V347.715L173.855 347.215L172.854 348.715L137.854 351.215C133.854 351.715 134.688 348.725 136.354 346.215C140.007 340.715 145.708 336.683 152.354 331.215L153.354 322.215L157.354 319.715V292.215C151.3 282.5 149.452 270.953 148.854 239.715C148.854 237.714 146.786 237.997 143.354 238.715C123.354 242.897 108.354 232.714 106.854 212.214C106.489 207.214 109.475 200.097 113.854 192.214C114.855 190.413 115.276 176.731 115.854 161.214C116.188 159.226 115.855 159.714 118.855 155.714L137.855 127.214C140.355 123.714 142.356 122.714 146.855 121.714C152.229 111.48 156.855 102.714 160.355 101.714ZM147.824 345.595C140.832 345.74 138.809 346.595 138.824 349.595L147.824 349.095V345.595ZM163.824 343.595C154.824 343.595 149.824 344.095 149.824 346.595V349.095L163.824 348.095V343.595ZM149.324 133.095C148.606 135.495 147.896 136.711 145.824 138.595C140.987 150.482 138.459 157.174 130.324 168.595V177.095C130.324 178.595 130.983 176.015 132.824 175.095C133.824 174.595 135.824 175.595 138.824 177.595L150.824 186.095C151.824 187.095 151.547 189.92 150.824 194.095C152.422 195.157 152.916 195.998 152.824 198.095C152.693 201.095 146.937 208.223 143.824 204.595C143.015 203.715 142.48 203.468 141.324 203.595C139.824 203.759 139.404 204.346 138.824 205.595C138.324 206.595 135.824 205.595 136.324 203.095C136.46 202.416 130.824 201.595 130.824 202.595V209.595C134.324 216.595 139.824 220.095 142.824 216.595C145.396 213.595 148.824 211.595 152.824 210.595L170.324 187.095C171.324 185.095 171.386 183.817 170.824 181.595C165.026 165.851 163.892 156.844 163.824 140.595C156.098 142.219 153.111 140.157 149.324 133.095ZM155.324 128.095C155.755 121.147 156.489 113.829 155.824 114.595C154.468 116.159 153.795 117.672 152.824 122.095C154.827 123.787 155.283 128.755 155.324 128.095ZM160.824 106.095C159.358 106.906 158.849 107.573 158.324 109.095C161.324 110.595 162.324 107.595 160.824 106.095Z" fill="white"/>
</mask>
<g mask="url(#mask0_58_1476)">
<path d="M193.324 223.095L103.824 306.595L110.824 363.095L183.824 355.595L193.324 223.095Z" fill="#D80822"/>
<path d="M156.324 176.095C131.426 191.517 121.787 204.855 111.324 236.095L123.324 298.095L179.324 246.095L192.824 188.095L175.824 141.595C170.417 153.843 165.986 161.487 156.324 176.095Z" fill="#1164CE"/>
</g>
<path d="M160.081 100.752C161.801 100.261 163.34 100.95 164.589 102.269C165.811 103.559 166.864 105.544 167.774 108.001C169.56 112.82 170.922 119.804 171.787 128.02C173.482 128.748 174.896 129.594 175.967 130.533C177.151 131.57 177.973 132.773 178.213 134.098C178.687 136.707 176.87 139.017 173.489 140.77L182.335 184.014L182.336 184.018C182.851 186.595 182.882 188.794 182.303 190.531L182.296 190.552L182.288 190.575L168.797 225.547C168.004 227.937 168.087 229.97 168.592 232.764L168.835 234.015L168.849 234.087L168.853 234.162C169.813 252.201 169.426 262.603 165.91 281.503C168.088 284.858 168.627 287.713 168.854 293.173L168.855 293.194V293.214C168.855 301.343 167.558 308 164.823 318.467C164.45 319.894 164.417 320.917 164.689 321.706C164.948 322.457 165.544 323.162 166.818 323.828L167.006 323.94C167.423 324.22 167.682 324.632 167.781 325.103C167.883 325.592 167.803 326.092 167.672 326.526C167.436 327.313 166.94 328.186 166.355 329.03V332.26C167.635 333.389 168.564 334.498 169.076 335.897C169.63 337.412 169.649 339.134 169.345 341.35L169.33 341.466L169.288 341.576C168.893 342.595 168.584 343.27 167.855 344.101V346.64L173.784 346.217L175.818 346.072L174.687 347.769L173.687 349.27L173.416 349.678L172.926 349.712L137.943 352.21C136.873 352.34 135.94 352.267 135.221 351.876C134.42 351.441 134.048 350.705 133.983 349.927C133.923 349.206 134.119 348.444 134.395 347.754C134.677 347.048 135.079 346.33 135.522 345.663C139.222 340.091 144.977 335.967 151.406 330.699L152.361 322.105L152.415 321.624L152.825 321.368L156.355 319.161V292.494C150.257 282.562 148.447 270.676 147.855 239.735V239.715C147.855 239.549 147.834 239.45 147.815 239.396C147.799 239.35 147.784 239.333 147.777 239.327C147.761 239.311 147.658 239.226 147.297 239.192C146.534 239.12 145.321 239.326 143.56 239.694C133.356 241.828 124.304 240.319 117.588 235.536C110.862 230.745 106.625 222.774 105.858 212.288C105.66 209.579 106.37 206.392 107.637 202.951C108.91 199.493 110.779 195.693 112.981 191.729C113.019 191.66 113.113 191.396 113.221 190.817C113.323 190.277 113.421 189.564 113.514 188.687C113.701 186.935 113.863 184.592 114.014 181.804C114.316 176.23 114.567 168.942 114.856 161.177L114.858 161.113L114.869 161.049C115.017 160.167 115.041 159.561 115.472 158.75C115.851 158.038 116.583 157.076 118.035 155.141L137.023 126.66L137.032 126.646L137.042 126.633C138.341 124.814 139.562 123.573 141.096 122.667C142.509 121.831 144.129 121.317 146.183 120.842C148.784 115.89 151.231 111.259 153.462 107.719C154.607 105.901 155.717 104.337 156.782 103.154C157.824 101.996 158.926 101.083 160.08 100.753L160.081 100.752ZM170.855 128.714C169.139 111.831 165.355 100.287 160.355 101.714C156.855 102.715 152.229 111.48 146.855 121.714C142.355 122.714 140.355 123.715 137.855 127.214L118.855 155.714C115.855 159.714 116.189 159.227 115.855 161.214C115.277 176.731 114.856 190.413 113.855 192.214C109.475 200.098 106.49 207.214 106.855 212.214C108.355 232.714 123.355 242.897 143.355 238.715C146.786 237.998 148.855 237.715 148.855 239.715C149.453 270.953 151.3 282.5 157.355 292.215V319.715L153.355 322.215L152.355 331.215C145.708 336.683 140.008 340.715 136.355 346.215C134.688 348.725 133.855 351.715 137.855 351.215L172.855 348.715L173.855 347.214L166.855 347.714V343.714C167.663 342.869 167.937 342.293 168.355 341.214C168.947 336.898 168.18 335.102 165.355 332.714V328.714C166.647 326.921 167.354 325.237 166.355 324.714C163.508 323.227 163.071 321.214 163.855 318.214C166.584 307.774 167.855 301.214 167.855 293.214C167.623 287.64 167.073 284.998 164.855 281.714C168.423 262.651 168.818 252.31 167.855 234.214C167.139 230.7 166.855 228.214 167.855 225.214L181.355 190.214C181.855 188.715 181.855 186.714 181.355 184.214L172.355 140.214C179.855 136.714 178.355 131.715 170.855 128.714ZM147.825 349.094L138.825 349.594C138.81 346.595 140.833 345.74 147.825 345.594V349.094ZM163.825 348.095L149.825 349.095V346.595C149.825 344.095 154.825 343.595 163.825 343.595V348.095ZM146.825 346.624C143.921 346.723 142.151 346.976 141.1 347.439C140.555 347.679 140.27 347.949 140.103 348.232C140.052 348.319 140.007 348.418 139.968 348.529L146.825 348.148V346.624ZM162.825 344.599C158.81 344.618 155.732 344.754 153.63 345.141C152.487 345.352 151.736 345.619 151.294 345.909C150.898 346.167 150.825 346.383 150.825 346.595V348.021L162.825 347.164V344.599ZM149.325 133.095C153.111 140.158 156.099 142.219 163.825 140.595C163.893 156.844 165.027 165.852 170.825 181.595C171.386 183.817 171.325 185.095 170.325 187.095L152.825 210.595C148.825 211.595 145.396 213.595 142.825 216.595C139.825 220.095 134.325 216.595 130.825 209.595V202.595C130.825 201.595 136.46 202.417 136.325 203.095C135.825 205.595 138.325 206.595 138.825 205.595C139.405 204.347 139.825 203.759 141.325 203.595C142.48 203.469 143.015 203.716 143.825 204.595C146.937 208.223 152.693 201.095 152.825 198.095C152.917 195.999 152.423 195.157 150.825 194.095C151.548 189.921 151.824 187.096 150.825 186.095L138.825 177.595C135.825 175.595 133.825 174.596 132.825 175.095C130.984 176.016 130.325 178.594 130.325 177.095V168.595C138.46 157.175 140.987 150.482 145.825 138.595C147.896 136.712 148.606 135.495 149.325 133.095ZM149.519 135.472C149.344 135.852 149.152 136.215 148.929 136.57C148.368 137.465 147.65 138.268 146.667 139.177C141.918 150.851 139.339 157.613 131.325 168.912V174.931C131.629 174.657 131.978 174.4 132.378 174.201L132.565 174.119C133.006 173.95 133.472 173.941 133.907 174.004C134.404 174.077 134.932 174.254 135.475 174.492C136.424 174.907 137.547 175.565 138.823 176.396L139.379 176.763L139.403 176.779L151.403 185.279L151.472 185.329L151.532 185.388C151.965 185.821 152.198 186.389 152.325 186.965C152.452 187.545 152.489 188.212 152.47 188.93C152.437 190.219 152.219 191.816 151.913 193.642C152.516 194.099 153.013 194.6 153.347 195.25C153.776 196.082 153.873 197.022 153.824 198.139C153.78 199.132 153.299 200.31 152.663 201.393C152.01 202.505 151.12 203.643 150.121 204.566C149.136 205.476 147.961 206.254 146.73 206.511C145.429 206.783 144.118 206.453 143.089 205.272V205.273C142.717 204.868 142.5 204.715 142.325 204.643C142.163 204.577 141.929 204.535 141.433 204.589C140.803 204.658 140.549 204.799 140.393 204.937C140.2 205.108 140.024 205.389 139.732 206.017L139.725 206.03L139.719 206.042C139.388 206.706 138.742 206.963 138.179 206.978C137.631 206.992 137.081 206.795 136.627 206.477C135.807 205.903 135.206 204.878 135.264 203.558C135.253 203.554 135.24 203.55 135.228 203.546C134.793 203.412 134.164 203.286 133.507 203.209C132.857 203.131 132.248 203.109 131.825 203.149V209.352C133.506 212.642 135.596 215.017 137.527 216.175C138.508 216.764 139.388 217.005 140.122 216.964C140.825 216.925 141.482 216.625 142.065 215.945C144.709 212.86 148.2 210.792 152.229 209.719L169.465 186.574C169.905 185.682 170.109 185.008 170.164 184.346C170.22 183.667 170.126 182.925 169.865 181.883C164.182 166.438 162.956 157.377 162.835 141.8C159.472 142.376 156.856 142.204 154.618 140.98C152.623 139.889 151.056 138.03 149.519 135.472ZM156.088 115.404C156.096 115.748 156.09 116.185 156.072 116.699C156.09 116.185 156.096 115.748 156.088 115.404ZM156.062 114.96V114.961V114.96Z" fill="white"/>
</svg>
