<svg width="349" height="42" viewBox="0 0 349 42" fill="none" xmlns="http://www.w3.org/2000/svg">
<path d="M11.584 32L14.368 10.176H17.92L15.168 32H11.584ZM2.016 27.04V23.808H20.16V27.04H2.016ZM4.256 32L7.008 10.176H10.592L7.84 32H4.256ZM2.016 18.336V15.136H20.16V18.336H2.016ZM31.7875 32.32C30.0595 32.32 28.5875 32.0107 27.3715 31.392C26.1555 30.752 25.2275 29.7707 24.5875 28.448C23.9475 27.1253 23.6275 25.4293 23.6275 23.36C23.6275 21.2267 23.9902 19.488 24.7155 18.144C25.4408 16.8 26.4435 15.808 27.7235 15.168C29.0248 14.528 30.5182 14.208 32.2035 14.208C33.3982 14.208 34.4328 14.3253 35.3075 14.56C36.2035 14.7947 36.9822 15.072 37.6435 15.392L36.2355 19.072C35.4888 18.7733 34.7848 18.528 34.1235 18.336C33.4835 18.144 32.8435 18.048 32.2035 18.048C31.3715 18.048 30.6782 18.2507 30.1235 18.656C29.5688 19.04 29.1528 19.6267 28.8755 20.416C28.6195 21.184 28.4915 22.1547 28.4915 23.328C28.4915 24.48 28.6302 25.44 28.9075 26.208C29.2062 26.9547 29.6328 27.52 30.1875 27.904C30.7422 28.2667 31.4142 28.448 32.2035 28.448C33.2062 28.448 34.0915 28.32 34.8595 28.064C35.6275 27.7867 36.3742 27.4133 37.0995 26.944V31.008C36.3742 31.4773 35.6062 31.808 34.7955 32C34.0062 32.2133 33.0035 32.32 31.7875 32.32ZM56.769 32H52.001V18.112H47.617C47.4037 20.672 47.137 22.8587 46.817 24.672C46.5183 26.464 46.1343 27.9253 45.665 29.056C45.217 30.1867 44.641 31.0187 43.937 31.552C43.233 32.064 42.369 32.32 41.345 32.32C40.7903 32.32 40.289 32.2773 39.841 32.192C39.393 32.1067 38.9877 31.9787 38.625 31.808V28C38.8597 28.0853 39.105 28.16 39.361 28.224C39.617 28.288 39.8837 28.32 40.161 28.32C40.4597 28.32 40.737 28.2027 40.993 27.968C41.2703 27.7333 41.5263 27.3173 41.761 26.72C42.017 26.1227 42.2517 25.3013 42.465 24.256C42.6783 23.2107 42.8703 21.8987 43.041 20.32C43.233 18.72 43.4037 16.7893 43.553 14.528H56.769V32ZM68.946 14.208C70.5673 14.208 71.954 14.5173 73.106 15.136C74.2793 15.7547 75.186 16.6507 75.826 17.824C76.466 18.9973 76.786 20.4373 76.786 22.144V24.448H65.522C65.5647 25.792 65.9593 26.848 66.706 27.616C67.474 28.384 68.53 28.768 69.874 28.768C71.0047 28.768 72.0287 28.6613 72.946 28.448C73.8633 28.2133 74.8127 27.8613 75.794 27.392V31.072C74.9407 31.4987 74.034 31.808 73.074 32C72.1353 32.2133 70.994 32.32 69.65 32.32C67.9007 32.32 66.354 32 65.01 31.36C63.666 30.6987 62.61 29.7067 61.842 28.384C61.074 27.0613 60.69 25.3973 60.69 23.392C60.69 21.344 61.0313 19.648 61.714 18.304C62.418 16.9387 63.3887 15.9147 64.626 15.232C65.8633 14.5493 67.3033 14.208 68.946 14.208ZM68.978 17.6C68.0607 17.6 67.2927 17.8987 66.674 18.496C66.0767 19.0933 65.7247 20.0213 65.618 21.28H72.306C72.306 20.576 72.178 19.9467 71.922 19.392C71.6873 18.8373 71.3247 18.4 70.834 18.08C70.3433 17.76 69.7247 17.6 68.978 17.6ZM96.3643 14.528V28.512H98.9243V38.272H94.6363V32H82.8923V38.272H78.6043V28.512H80.0763C80.8443 27.3387 81.4949 26.0053 82.0283 24.512C82.5616 22.9973 82.9883 21.3867 83.3083 19.68C83.6283 17.9733 83.8629 16.256 84.0123 14.528H96.3643ZM88.0123 18.112C87.8416 19.392 87.6283 20.64 87.3723 21.856C87.1163 23.0507 86.7963 24.2027 86.4123 25.312C86.0496 26.4213 85.6016 27.488 85.0683 28.512H91.5963V18.112H88.0123ZM99.4062 14.528H104.622L107.918 24.352C108.025 24.672 108.11 24.992 108.174 25.312C108.26 25.632 108.324 25.9627 108.366 26.304C108.43 26.6453 108.473 27.008 108.494 27.392H108.59C108.654 26.8373 108.74 26.3147 108.846 25.824C108.974 25.312 109.113 24.8213 109.262 24.352L112.494 14.528H117.614L110.222 34.24C109.774 35.4347 109.188 36.4373 108.462 37.248C107.758 38.0587 106.937 38.6667 105.998 39.072C105.06 39.4773 104.036 39.68 102.926 39.68C102.393 39.68 101.924 39.648 101.518 39.584C101.134 39.5413 100.793 39.488 100.494 39.424V35.648C100.729 35.6907 101.006 35.7333 101.326 35.776C101.668 35.8187 102.02 35.84 102.382 35.84C103.044 35.84 103.609 35.7013 104.078 35.424C104.569 35.1467 104.974 34.7627 105.294 34.272C105.614 33.8027 105.87 33.2907 106.062 32.736L106.35 31.872L99.4062 14.528ZM136.857 7.008C136.75 8.11733 136.441 9.09867 135.929 9.952C135.417 10.784 134.617 11.4347 133.529 11.904C132.441 12.3733 130.98 12.608 129.145 12.608C127.268 12.608 125.796 12.384 124.729 11.936C123.684 11.4667 122.937 10.816 122.489 9.984C122.041 9.152 121.774 8.16 121.689 7.008H125.945C126.052 8.18133 126.35 8.96 126.841 9.344C127.332 9.728 128.132 9.92 129.241 9.92C130.158 9.92 130.905 9.71733 131.481 9.312C132.078 8.88533 132.43 8.11733 132.537 7.008H136.857ZM124.729 21.44C124.729 21.8027 124.708 22.2507 124.665 22.784C124.644 23.3173 124.612 23.8613 124.569 24.416C124.548 24.9707 124.516 25.4613 124.473 25.888C124.43 26.3147 124.398 26.6133 124.377 26.784L132.441 14.528H138.169V32H133.561V25.024C133.561 24.448 133.582 23.8187 133.625 23.136C133.668 22.432 133.71 21.7813 133.753 21.184C133.817 20.5653 133.86 20.096 133.881 19.776L125.849 32H120.121V14.528H124.729V21.44ZM142.992 37.504V32.864H160.08V37.504H142.992ZM171.27 14.208C172.529 14.208 173.702 14.3787 174.79 14.72C175.9 15.04 176.785 15.5413 177.446 16.224C178.129 16.9067 178.47 17.7813 178.47 18.848C178.47 19.8933 178.15 20.7253 177.51 21.344C176.892 21.9627 176.049 22.4107 174.982 22.688V22.848C175.729 23.0187 176.401 23.264 176.998 23.584C177.596 23.8827 178.065 24.2987 178.406 24.832C178.769 25.344 178.95 26.0373 178.95 26.912C178.95 27.872 178.641 28.768 178.022 29.6C177.425 30.4107 176.486 31.072 175.206 31.584C173.948 32.0747 172.326 32.32 170.342 32.32C169.404 32.32 168.518 32.2773 167.686 32.192C166.854 32.1067 166.097 31.9893 165.414 31.84C164.732 31.6693 164.134 31.4667 163.622 31.232V27.296C164.348 27.6373 165.233 27.9467 166.278 28.224C167.345 28.5013 168.476 28.64 169.67 28.64C170.545 28.64 171.324 28.576 172.006 28.448C172.71 28.32 173.265 28.1067 173.67 27.808C174.097 27.5093 174.31 27.1147 174.31 26.624C174.31 26.1547 174.129 25.7707 173.766 25.472C173.404 25.152 172.86 24.9173 172.134 24.768C171.409 24.6187 170.481 24.544 169.35 24.544H167.494V21.248H169.254C170.833 21.248 172.049 21.12 172.902 20.864C173.777 20.608 174.214 20.128 174.214 19.424C174.214 18.8693 173.937 18.4533 173.382 18.176C172.828 17.8773 171.921 17.728 170.662 17.728C169.83 17.728 168.924 17.824 167.942 18.016C166.961 18.208 166.033 18.4853 165.158 18.848L163.75 15.52C164.753 15.136 165.852 14.8267 167.046 14.592C168.241 14.336 169.649 14.208 171.27 14.208ZM189.82 14.176C192.167 14.176 193.959 14.688 195.196 15.712C196.455 16.7147 197.084 18.2613 197.084 20.352V32H193.756L192.828 29.632H192.7C192.21 30.2507 191.698 30.7627 191.164 31.168C190.652 31.5733 190.055 31.8613 189.372 32.032C188.711 32.224 187.89 32.32 186.908 32.32C185.884 32.32 184.956 32.128 184.124 31.744C183.314 31.3387 182.674 30.7307 182.204 29.92C181.735 29.088 181.5 28.0427 181.5 26.784C181.5 24.928 182.151 23.5627 183.452 22.688C184.754 21.792 186.706 21.3013 189.308 21.216L192.348 21.12V20.352C192.348 19.4347 192.103 18.7627 191.612 18.336C191.143 17.9093 190.482 17.696 189.628 17.696C188.775 17.696 187.943 17.824 187.132 18.08C186.322 18.3147 185.511 18.6133 184.7 18.976L183.132 15.744C184.071 15.2533 185.106 14.8693 186.236 14.592C187.388 14.3147 188.583 14.176 189.82 14.176ZM190.492 23.968C188.956 24.0107 187.89 24.288 187.292 24.8C186.695 25.312 186.396 25.984 186.396 26.816C186.396 27.5413 186.61 28.064 187.036 28.384C187.463 28.6827 188.018 28.832 188.7 28.832C189.724 28.832 190.588 28.5333 191.292 27.936C191.996 27.3173 192.348 26.4533 192.348 25.344V23.904L190.492 23.968ZM201.805 37.504V32.864H218.893V37.504H201.805ZM245.731 14.528V32H241.283V23.424C241.283 22.5707 241.293 21.7387 241.315 20.928C241.357 20.1173 241.411 19.3707 241.475 18.688H241.379L236.547 32H232.963L228.067 18.656H227.939C228.024 19.36 228.077 20.1173 228.099 20.928C228.141 21.7173 228.163 22.592 228.163 23.552V32H223.715V14.528H230.467L234.819 26.368L239.235 14.528H245.731ZM257.915 14.208C259.536 14.208 260.923 14.5173 262.075 15.136C263.248 15.7547 264.155 16.6507 264.795 17.824C265.435 18.9973 265.755 20.4373 265.755 22.144V24.448H254.491C254.533 25.792 254.928 26.848 255.675 27.616C256.443 28.384 257.499 28.768 258.843 28.768C259.973 28.768 260.997 28.6613 261.915 28.448C262.832 28.2133 263.781 27.8613 264.763 27.392V31.072C263.909 31.4987 263.003 31.808 262.043 32C261.104 32.2133 259.963 32.32 258.619 32.32C256.869 32.32 255.323 32 253.979 31.36C252.635 30.6987 251.579 29.7067 250.811 28.384C250.043 27.0613 249.659 25.3973 249.659 23.392C249.659 21.344 250 19.648 250.683 18.304C251.387 16.9387 252.357 15.9147 253.595 15.232C254.832 14.5493 256.272 14.208 257.915 14.208ZM257.947 17.6C257.029 17.6 256.261 17.8987 255.643 18.496C255.045 19.0933 254.693 20.0213 254.587 21.28H261.275C261.275 20.576 261.147 19.9467 260.891 19.392C260.656 18.8373 260.293 18.4 259.803 18.08C259.312 17.76 258.693 17.6 257.947 17.6ZM273.813 20.928C273.813 21.6747 273.994 22.24 274.357 22.624C274.741 23.008 275.264 23.2 275.925 23.2C276.842 23.2 277.696 23.104 278.485 22.912C279.274 22.6987 280.064 22.4213 280.853 22.08V14.528H285.621V32H280.853V25.056C280.106 25.4613 279.253 25.8347 278.293 26.176C277.333 26.496 276.245 26.656 275.029 26.656C273.216 26.656 271.765 26.1867 270.677 25.248C269.589 24.3093 269.045 22.9013 269.045 21.024V14.528H273.813V20.928ZM305.085 18.112H299.357V32H294.589V18.112H288.861V14.528H305.085V18.112ZM323.868 23.232C323.868 24.6827 323.665 25.9733 323.26 27.104C322.876 28.2347 322.311 29.1947 321.564 29.984C320.839 30.752 319.953 31.3387 318.908 31.744C317.863 32.128 316.679 32.32 315.356 32.32C314.14 32.32 313.009 32.128 311.964 31.744C310.94 31.3387 310.055 30.752 309.308 29.984C308.561 29.1947 307.975 28.2347 307.548 27.104C307.143 25.9733 306.94 24.6827 306.94 23.232C306.94 21.2907 307.281 19.6587 307.964 18.336C308.647 16.992 309.628 15.968 310.908 15.264C312.188 14.56 313.703 14.208 315.452 14.208C317.095 14.208 318.545 14.56 319.804 15.264C321.063 15.968 322.055 16.992 322.78 18.336C323.505 19.6587 323.868 21.2907 323.868 23.232ZM311.804 23.232C311.804 24.384 311.921 25.3547 312.156 26.144C312.412 26.912 312.807 27.4987 313.34 27.904C313.873 28.288 314.567 28.48 315.42 28.48C316.273 28.48 316.956 28.288 317.468 27.904C318.001 27.4987 318.385 26.912 318.62 26.144C318.876 25.3547 319.004 24.384 319.004 23.232C319.004 22.08 318.876 21.12 318.62 20.352C318.385 19.584 318.001 19.008 317.468 18.624C316.935 18.24 316.241 18.048 315.388 18.048C314.129 18.048 313.212 18.4853 312.636 19.36C312.081 20.2133 311.804 21.504 311.804 23.232ZM344.545 7.008C344.438 8.11733 344.129 9.09867 343.617 9.952C343.105 10.784 342.305 11.4347 341.217 11.904C340.129 12.3733 338.667 12.608 336.833 12.608C334.955 12.608 333.483 12.384 332.417 11.936C331.371 11.4667 330.625 10.816 330.177 9.984C329.729 9.152 329.462 8.16 329.377 7.008H333.633C333.739 8.18133 334.038 8.96 334.529 9.344C335.019 9.728 335.819 9.92 336.929 9.92C337.846 9.92 338.593 9.71733 339.169 9.312C339.766 8.88533 340.118 8.11733 340.225 7.008H344.545ZM332.417 21.44C332.417 21.8027 332.395 22.2507 332.353 22.784C332.331 23.3173 332.299 23.8613 332.257 24.416C332.235 24.9707 332.203 25.4613 332.161 25.888C332.118 26.3147 332.086 26.6133 332.065 26.784L340.129 14.528H345.857V32H341.249V25.024C341.249 24.448 341.27 23.8187 341.312 23.136C341.355 22.432 341.398 21.7813 341.441 21.184C341.505 20.5653 341.547 20.096 341.569 19.776L333.536 32H327.809V14.528H332.417V21.44Z" fill="white"/>
<mask id="mask0_58_1488" style="mask-type:alpha" maskUnits="userSpaceOnUse" x="2" y="7" width="344" height="33">
<path d="M11.584 32L14.368 10.176H17.92L15.168 32H11.584ZM2.016 27.04V23.808H20.16V27.04H2.016ZM4.256 32L7.008 10.176H10.592L7.84 32H4.256ZM2.016 18.336V15.136H20.16V18.336H2.016ZM31.7875 32.32C30.0595 32.32 28.5875 32.0107 27.3715 31.392C26.1555 30.752 25.2275 29.7707 24.5875 28.448C23.9475 27.1253 23.6275 25.4293 23.6275 23.36C23.6275 21.2267 23.9902 19.488 24.7155 18.144C25.4408 16.8 26.4435 15.808 27.7235 15.168C29.0248 14.528 30.5182 14.208 32.2035 14.208C33.3982 14.208 34.4328 14.3253 35.3075 14.56C36.2035 14.7947 36.9822 15.072 37.6435 15.392L36.2355 19.072C35.4888 18.7733 34.7848 18.528 34.1235 18.336C33.4835 18.144 32.8435 18.048 32.2035 18.048C31.3715 18.048 30.6782 18.2507 30.1235 18.656C29.5688 19.04 29.1528 19.6267 28.8755 20.416C28.6195 21.184 28.4915 22.1547 28.4915 23.328C28.4915 24.48 28.6302 25.44 28.9075 26.208C29.2062 26.9547 29.6328 27.52 30.1875 27.904C30.7422 28.2667 31.4142 28.448 32.2035 28.448C33.2062 28.448 34.0915 28.32 34.8595 28.064C35.6275 27.7867 36.3742 27.4133 37.0995 26.944V31.008C36.3742 31.4773 35.6062 31.808 34.7955 32C34.0062 32.2133 33.0035 32.32 31.7875 32.32ZM56.769 32H52.001V18.112H47.617C47.4037 20.672 47.137 22.8587 46.817 24.672C46.5183 26.464 46.1343 27.9253 45.665 29.056C45.217 30.1867 44.641 31.0187 43.937 31.552C43.233 32.064 42.369 32.32 41.345 32.32C40.7903 32.32 40.289 32.2773 39.841 32.192C39.393 32.1067 38.9877 31.9787 38.625 31.808V28C38.8597 28.0853 39.105 28.16 39.361 28.224C39.617 28.288 39.8837 28.32 40.161 28.32C40.4597 28.32 40.737 28.2027 40.993 27.968C41.2703 27.7333 41.5263 27.3173 41.761 26.72C42.017 26.1227 42.2517 25.3013 42.465 24.256C42.6783 23.2107 42.8703 21.8987 43.041 20.32C43.233 18.72 43.4037 16.7893 43.553 14.528H56.769V32ZM68.946 14.208C70.5673 14.208 71.954 14.5173 73.106 15.136C74.2793 15.7547 75.186 16.6507 75.826 17.824C76.466 18.9973 76.786 20.4373 76.786 22.144V24.448H65.522C65.5647 25.792 65.9593 26.848 66.706 27.616C67.474 28.384 68.53 28.768 69.874 28.768C71.0047 28.768 72.0287 28.6613 72.946 28.448C73.8633 28.2133 74.8127 27.8613 75.794 27.392V31.072C74.9407 31.4987 74.034 31.808 73.074 32C72.1353 32.2133 70.994 32.32 69.65 32.32C67.9007 32.32 66.354 32 65.01 31.36C63.666 30.6987 62.61 29.7067 61.842 28.384C61.074 27.0613 60.69 25.3973 60.69 23.392C60.69 21.344 61.0313 19.648 61.714 18.304C62.418 16.9387 63.3887 15.9147 64.626 15.232C65.8633 14.5493 67.3033 14.208 68.946 14.208ZM68.978 17.6C68.0607 17.6 67.2927 17.8987 66.674 18.496C66.0767 19.0933 65.7247 20.0213 65.618 21.28H72.306C72.306 20.576 72.178 19.9467 71.922 19.392C71.6873 18.8373 71.3247 18.4 70.834 18.08C70.3433 17.76 69.7247 17.6 68.978 17.6ZM96.3643 14.528V28.512H98.9243V38.272H94.6363V32H82.8923V38.272H78.6043V28.512H80.0763C80.8443 27.3387 81.4949 26.0053 82.0283 24.512C82.5616 22.9973 82.9883 21.3867 83.3083 19.68C83.6283 17.9733 83.8629 16.256 84.0123 14.528H96.3643ZM88.0123 18.112C87.8416 19.392 87.6283 20.64 87.3723 21.856C87.1163 23.0507 86.7963 24.2027 86.4123 25.312C86.0496 26.4213 85.6016 27.488 85.0683 28.512H91.5963V18.112H88.0123ZM99.4062 14.528H104.622L107.918 24.352C108.025 24.672 108.11 24.992 108.174 25.312C108.26 25.632 108.324 25.9627 108.366 26.304C108.43 26.6453 108.473 27.008 108.494 27.392H108.59C108.654 26.8373 108.74 26.3147 108.846 25.824C108.974 25.312 109.113 24.8213 109.262 24.352L112.494 14.528H117.614L110.222 34.24C109.774 35.4347 109.188 36.4373 108.462 37.248C107.758 38.0587 106.937 38.6667 105.998 39.072C105.06 39.4773 104.036 39.68 102.926 39.68C102.393 39.68 101.924 39.648 101.518 39.584C101.134 39.5413 100.793 39.488 100.494 39.424V35.648C100.729 35.6907 101.006 35.7333 101.326 35.776C101.668 35.8187 102.02 35.84 102.382 35.84C103.044 35.84 103.609 35.7013 104.078 35.424C104.569 35.1467 104.974 34.7627 105.294 34.272C105.614 33.8027 105.87 33.2907 106.062 32.736L106.35 31.872L99.4062 14.528ZM136.857 7.008C136.75 8.11733 136.441 9.09867 135.929 9.952C135.417 10.784 134.617 11.4347 133.529 11.904C132.441 12.3733 130.98 12.608 129.145 12.608C127.268 12.608 125.796 12.384 124.729 11.936C123.684 11.4667 122.937 10.816 122.489 9.984C122.041 9.152 121.774 8.16 121.689 7.008H125.945C126.052 8.18133 126.35 8.96 126.841 9.344C127.332 9.728 128.132 9.92 129.241 9.92C130.158 9.92 130.905 9.71733 131.481 9.312C132.078 8.88533 132.43 8.11733 132.537 7.008H136.857ZM124.729 21.44C124.729 21.8027 124.708 22.2507 124.665 22.784C124.644 23.3173 124.612 23.8613 124.569 24.416C124.548 24.9707 124.516 25.4613 124.473 25.888C124.43 26.3147 124.398 26.6133 124.377 26.784L132.441 14.528H138.169V32H133.561V25.024C133.561 24.448 133.582 23.8187 133.625 23.136C133.668 22.432 133.71 21.7813 133.753 21.184C133.817 20.5653 133.86 20.096 133.881 19.776L125.849 32H120.121V14.528H124.729V21.44ZM142.992 37.504V32.864H160.08V37.504H142.992ZM171.27 14.208C172.529 14.208 173.702 14.3787 174.79 14.72C175.9 15.04 176.785 15.5413 177.446 16.224C178.129 16.9067 178.47 17.7813 178.47 18.848C178.47 19.8933 178.15 20.7253 177.51 21.344C176.892 21.9627 176.049 22.4107 174.982 22.688V22.848C175.729 23.0187 176.401 23.264 176.998 23.584C177.596 23.8827 178.065 24.2987 178.406 24.832C178.769 25.344 178.95 26.0373 178.95 26.912C178.95 27.872 178.641 28.768 178.022 29.6C177.425 30.4107 176.486 31.072 175.206 31.584C173.948 32.0747 172.326 32.32 170.342 32.32C169.404 32.32 168.518 32.2773 167.686 32.192C166.854 32.1067 166.097 31.9893 165.414 31.84C164.732 31.6693 164.134 31.4667 163.622 31.232V27.296C164.348 27.6373 165.233 27.9467 166.278 28.224C167.345 28.5013 168.476 28.64 169.67 28.64C170.545 28.64 171.324 28.576 172.006 28.448C172.71 28.32 173.265 28.1067 173.67 27.808C174.097 27.5093 174.31 27.1147 174.31 26.624C174.31 26.1547 174.129 25.7707 173.766 25.472C173.404 25.152 172.86 24.9173 172.134 24.768C171.409 24.6187 170.481 24.544 169.35 24.544H167.494V21.248H169.254C170.833 21.248 172.049 21.12 172.902 20.864C173.777 20.608 174.214 20.128 174.214 19.424C174.214 18.8693 173.937 18.4533 173.382 18.176C172.828 17.8773 171.921 17.728 170.662 17.728C169.83 17.728 168.924 17.824 167.942 18.016C166.961 18.208 166.033 18.4853 165.158 18.848L163.75 15.52C164.753 15.136 165.852 14.8267 167.046 14.592C168.241 14.336 169.649 14.208 171.27 14.208ZM189.82 14.176C192.167 14.176 193.959 14.688 195.196 15.712C196.455 16.7147 197.084 18.2613 197.084 20.352V32H193.756L192.828 29.632H192.7C192.21 30.2507 191.698 30.7627 191.164 31.168C190.652 31.5733 190.055 31.8613 189.372 32.032C188.711 32.224 187.89 32.32 186.908 32.32C185.884 32.32 184.956 32.128 184.124 31.744C183.314 31.3387 182.674 30.7307 182.204 29.92C181.735 29.088 181.5 28.0427 181.5 26.784C181.5 24.928 182.151 23.5627 183.452 22.688C184.754 21.792 186.706 21.3013 189.308 21.216L192.348 21.12V20.352C192.348 19.4347 192.103 18.7627 191.612 18.336C191.143 17.9093 190.482 17.696 189.628 17.696C188.775 17.696 187.943 17.824 187.132 18.08C186.322 18.3147 185.511 18.6133 184.7 18.976L183.132 15.744C184.071 15.2533 185.106 14.8693 186.236 14.592C187.388 14.3147 188.583 14.176 189.82 14.176ZM190.492 23.968C188.956 24.0107 187.89 24.288 187.292 24.8C186.695 25.312 186.396 25.984 186.396 26.816C186.396 27.5413 186.61 28.064 187.036 28.384C187.463 28.6827 188.018 28.832 188.7 28.832C189.724 28.832 190.588 28.5333 191.292 27.936C191.996 27.3173 192.348 26.4533 192.348 25.344V23.904L190.492 23.968ZM201.805 37.504V32.864H218.893V37.504H201.805ZM245.731 14.528V32H241.283V23.424C241.283 22.5707 241.293 21.7387 241.315 20.928C241.357 20.1173 241.411 19.3707 241.475 18.688H241.379L236.547 32H232.963L228.067 18.656H227.939C228.024 19.36 228.077 20.1173 228.099 20.928C228.141 21.7173 228.163 22.592 228.163 23.552V32H223.715V14.528H230.467L234.819 26.368L239.235 14.528H245.731ZM257.915 14.208C259.536 14.208 260.923 14.5173 262.075 15.136C263.248 15.7547 264.155 16.6507 264.795 17.824C265.435 18.9973 265.755 20.4373 265.755 22.144V24.448H254.491C254.533 25.792 254.928 26.848 255.675 27.616C256.443 28.384 257.499 28.768 258.843 28.768C259.973 28.768 260.997 28.6613 261.915 28.448C262.832 28.2133 263.781 27.8613 264.763 27.392V31.072C263.909 31.4987 263.003 31.808 262.043 32C261.104 32.2133 259.963 32.32 258.619 32.32C256.869 32.32 255.323 32 253.979 31.36C252.635 30.6987 251.579 29.7067 250.811 28.384C250.043 27.0613 249.659 25.3973 249.659 23.392C249.659 21.344 250 19.648 250.683 18.304C251.387 16.9387 252.357 15.9147 253.595 15.232C254.832 14.5493 256.272 14.208 257.915 14.208ZM257.947 17.6C257.029 17.6 256.261 17.8987 255.643 18.496C255.045 19.0933 254.693 20.0213 254.587 21.28H261.275C261.275 20.576 261.147 19.9467 260.891 19.392C260.656 18.8373 260.293 18.4 259.803 18.08C259.312 17.76 258.693 17.6 257.947 17.6ZM273.813 20.928C273.813 21.6747 273.994 22.24 274.357 22.624C274.741 23.008 275.264 23.2 275.925 23.2C276.842 23.2 277.696 23.104 278.485 22.912C279.274 22.6987 280.064 22.4213 280.853 22.08V14.528H285.621V32H280.853V25.056C280.106 25.4613 279.253 25.8347 278.293 26.176C277.333 26.496 276.245 26.656 275.029 26.656C273.216 26.656 271.765 26.1867 270.677 25.248C269.589 24.3093 269.045 22.9013 269.045 21.024V14.528H273.813V20.928ZM305.085 18.112H299.357V32H294.589V18.112H288.861V14.528H305.085V18.112ZM323.868 23.232C323.868 24.6827 323.665 25.9733 323.26 27.104C322.876 28.2347 322.311 29.1947 321.564 29.984C320.839 30.752 319.953 31.3387 318.908 31.744C317.863 32.128 316.679 32.32 315.356 32.32C314.14 32.32 313.009 32.128 311.964 31.744C310.94 31.3387 310.055 30.752 309.308 29.984C308.561 29.1947 307.975 28.2347 307.548 27.104C307.143 25.9733 306.94 24.6827 306.94 23.232C306.94 21.2907 307.281 19.6587 307.964 18.336C308.647 16.992 309.628 15.968 310.908 15.264C312.188 14.56 313.703 14.208 315.452 14.208C317.095 14.208 318.545 14.56 319.804 15.264C321.063 15.968 322.055 16.992 322.78 18.336C323.505 19.6587 323.868 21.2907 323.868 23.232ZM311.804 23.232C311.804 24.384 311.921 25.3547 312.156 26.144C312.412 26.912 312.807 27.4987 313.34 27.904C313.873 28.288 314.567 28.48 315.42 28.48C316.273 28.48 316.956 28.288 317.468 27.904C318.001 27.4987 318.385 26.912 318.62 26.144C318.876 25.3547 319.004 24.384 319.004 23.232C319.004 22.08 318.876 21.12 318.62 20.352C318.385 19.584 318.001 19.008 317.468 18.624C316.935 18.24 316.241 18.048 315.388 18.048C314.129 18.048 313.212 18.4853 312.636 19.36C312.081 20.2133 311.804 21.504 311.804 23.232ZM344.545 7.008C344.438 8.11733 344.129 9.09867 343.617 9.952C343.105 10.784 342.305 11.4347 341.217 11.904C340.129 12.3733 338.667 12.608 336.833 12.608C334.955 12.608 333.483 12.384 332.417 11.936C331.371 11.4667 330.625 10.816 330.177 9.984C329.729 9.152 329.462 8.16 329.377 7.008H333.633C333.739 8.18133 334.038 8.96 334.529 9.344C335.019 9.728 335.819 9.92 336.929 9.92C337.846 9.92 338.593 9.71733 339.169 9.312C339.766 8.88533 340.118 8.11733 340.225 7.008H344.545ZM332.417 21.44C332.417 21.8027 332.395 22.2507 332.353 22.784C332.331 23.3173 332.299 23.8613 332.257 24.416C332.235 24.9707 332.203 25.4613 332.161 25.888C332.118 26.3147 332.086 26.6133 332.065 26.784L340.129 14.528H345.857V32H341.249V25.024C341.249 24.448 341.27 23.8187 341.312 23.136C341.355 22.432 341.398 21.7813 341.441 21.184C341.505 20.5653 341.547 20.096 341.569 19.776L333.536 32H327.809V14.528H332.417V21.44Z" fill="white"/>
</mask>
<g mask="url(#mask0_58_1488)">
<path d="M182.5 43L148 25L201.5 23L198 41.5H225L226.5 36.5L213.5 27L356.5 14L361 30.5L290 48.5L182.5 43Z" fill="#D80822"/>
<path d="M215 19.5L-2 29.5L-14.5 39L129 46.5L136.5 36L145.5 29.5L171.5 27H215V19.5Z" fill="#1164CE"/>
</g>
</svg>
