<?xml version="1.0" standalone="no"?>
<svg xmlns="http://www.w3.org/2000/svg" width="500" height="500" xmlns:xlink="http://www.w3.org/1999/xlink" viewBox="0 0 500 500"><defs><clipPath id="clip-path-background-color-3"><rect x="0" y="0" width="500" height="500"/></clipPath><clipPath id="clip-path-dot-color-3"><rect x="187" y="25" width="18" height="18" transform="rotate(0,196,34)"/><rect x="205" y="25" width="18" height="18" transform="rotate(0,214,34)"/><rect x="241" y="25" width="18" height="18" transform="rotate(0,250,34)"/><rect x="259" y="25" width="18" height="18" transform="rotate(0,268,34)"/><rect x="169" y="43" width="18" height="18" transform="rotate(0,178,52)"/><rect x="259" y="43" width="18" height="18" transform="rotate(0,268,52)"/><rect x="169" y="61" width="18" height="18" transform="rotate(0,178,70)"/><rect x="205" y="61" width="18" height="18" transform="rotate(0,214,70)"/><rect x="223" y="61" width="18" height="18" transform="rotate(0,232,70)"/><rect x="241" y="61" width="18" height="18" transform="rotate(0,250,70)"/><rect x="259" y="61" width="18" height="18" transform="rotate(0,268,70)"/><rect x="295" y="61" width="18" height="18" transform="rotate(0,304,70)"/><rect x="313" y="61" width="18" height="18" transform="rotate(0,322,70)"/><rect x="205" y="79" width="18" height="18" transform="rotate(0,214,88)"/><rect x="223" y="79" width="18" height="18" transform="rotate(0,232,88)"/><rect x="241" y="79" width="18" height="18" transform="rotate(0,250,88)"/><rect x="259" y="79" width="18" height="18" transform="rotate(0,268,88)"/><rect x="277" y="79" width="18" height="18" transform="rotate(0,286,88)"/><rect x="295" y="79" width="18" height="18" transform="rotate(0,304,88)"/><rect x="313" y="79" width="18" height="18" transform="rotate(0,322,88)"/><rect x="241" y="97" width="18" height="18" transform="rotate(0,250,106)"/><rect x="295" y="97" width="18" height="18" transform="rotate(0,304,106)"/><rect x="313" y="97" width="18" height="18" transform="rotate(0,322,106)"/><rect x="205" y="115" width="18" height="18" transform="rotate(0,214,124)"/><rect x="241" y="115" width="18" height="18" transform="rotate(0,250,124)"/><rect x="169" y="133" width="18" height="18" transform="rotate(0,178,142)"/><rect x="205" y="133" width="18" height="18" transform="rotate(0,214,142)"/><rect x="241" y="133" width="18" height="18" transform="rotate(0,250,142)"/><rect x="277" y="133" width="18" height="18" transform="rotate(0,286,142)"/><rect x="313" y="133" width="18" height="18" transform="rotate(0,322,142)"/><rect x="205" y="151" width="18" height="18" transform="rotate(0,214,160)"/><rect x="241" y="151" width="18" height="18" transform="rotate(0,250,160)"/><rect x="277" y="151" width="18" height="18" transform="rotate(0,286,160)"/><rect x="313" y="151" width="18" height="18" transform="rotate(0,322,160)"/><rect x="43" y="169" width="18" height="18" transform="rotate(0,52,178)"/><rect x="61" y="169" width="18" height="18" transform="rotate(0,70,178)"/><rect x="79" y="169" width="18" height="18" transform="rotate(0,88,178)"/><rect x="115" y="169" width="18" height="18" transform="rotate(0,124,178)"/><rect x="133" y="169" width="18" height="18" transform="rotate(0,142,178)"/><rect x="205" y="169" width="18" height="18" transform="rotate(0,214,178)"/><rect x="277" y="169" width="18" height="18" transform="rotate(0,286,178)"/><rect x="313" y="169" width="18" height="18" transform="rotate(0,322,178)"/><rect x="421" y="169" width="18" height="18" transform="rotate(0,430,178)"/><rect x="439" y="169" width="18" height="18" transform="rotate(0,448,178)"/><rect x="97" y="187" width="18" height="18" transform="rotate(0,106,196)"/><rect x="115" y="187" width="18" height="18" transform="rotate(0,124,196)"/><rect x="187" y="187" width="18" height="18" transform="rotate(0,196,196)"/><rect x="241" y="187" width="18" height="18" transform="rotate(0,250,196)"/><rect x="277" y="187" width="18" height="18" transform="rotate(0,286,196)"/><rect x="313" y="187" width="18" height="18" transform="rotate(0,322,196)"/><rect x="367" y="187" width="18" height="18" transform="rotate(0,376,196)"/><rect x="439" y="187" width="18" height="18" transform="rotate(0,448,196)"/><rect x="25" y="205" width="18" height="18" transform="rotate(0,34,214)"/><rect x="43" y="205" width="18" height="18" transform="rotate(0,52,214)"/><rect x="97" y="205" width="18" height="18" transform="rotate(0,106,214)"/><rect x="133" y="205" width="18" height="18" transform="rotate(0,142,214)"/><rect x="151" y="205" width="18" height="18" transform="rotate(0,160,214)"/><rect x="205" y="205" width="18" height="18" transform="rotate(0,214,214)"/><rect x="241" y="205" width="18" height="18" transform="rotate(0,250,214)"/><rect x="313" y="205" width="18" height="18" transform="rotate(0,322,214)"/><rect x="349" y="205" width="18" height="18" transform="rotate(0,358,214)"/><rect x="367" y="205" width="18" height="18" transform="rotate(0,376,214)"/><rect x="25" y="223" width="18" height="18" transform="rotate(0,34,232)"/><rect x="115" y="223" width="18" height="18" transform="rotate(0,124,232)"/><rect x="187" y="223" width="18" height="18" transform="rotate(0,196,232)"/><rect x="223" y="223" width="18" height="18" transform="rotate(0,232,232)"/><rect x="259" y="223" width="18" height="18" transform="rotate(0,268,232)"/><rect x="277" y="223" width="18" height="18" transform="rotate(0,286,232)"/><rect x="295" y="223" width="18" height="18" transform="rotate(0,304,232)"/><rect x="313" y="223" width="18" height="18" transform="rotate(0,322,232)"/><rect x="349" y="223" width="18" height="18" transform="rotate(0,358,232)"/><rect x="385" y="223" width="18" height="18" transform="rotate(0,394,232)"/><rect x="403" y="223" width="18" height="18" transform="rotate(0,412,232)"/><rect x="421" y="223" width="18" height="18" transform="rotate(0,430,232)"/><rect x="25" y="241" width="18" height="18" transform="rotate(0,34,250)"/><rect x="61" y="241" width="18" height="18" transform="rotate(0,70,250)"/><rect x="97" y="241" width="18" height="18" transform="rotate(0,106,250)"/><rect x="115" y="241" width="18" height="18" transform="rotate(0,124,250)"/><rect x="133" y="241" width="18" height="18" transform="rotate(0,142,250)"/><rect x="151" y="241" width="18" height="18" transform="rotate(0,160,250)"/><rect x="205" y="241" width="18" height="18" transform="rotate(0,214,250)"/><rect x="223" y="241" width="18" height="18" transform="rotate(0,232,250)"/><rect x="331" y="241" width="18" height="18" transform="rotate(0,340,250)"/><rect x="349" y="241" width="18" height="18" transform="rotate(0,358,250)"/><rect x="385" y="241" width="18" height="18" transform="rotate(0,394,250)"/><rect x="421" y="241" width="18" height="18" transform="rotate(0,430,250)"/><rect x="439" y="241" width="18" height="18" transform="rotate(0,448,250)"/><rect x="457" y="241" width="18" height="18" transform="rotate(0,466,250)"/><rect x="43" y="259" width="18" height="18" transform="rotate(0,52,268)"/><rect x="241" y="259" width="18" height="18" transform="rotate(0,250,268)"/><rect x="277" y="259" width="18" height="18" transform="rotate(0,286,268)"/><rect x="295" y="259" width="18" height="18" transform="rotate(0,304,268)"/><rect x="313" y="259" width="18" height="18" transform="rotate(0,322,268)"/><rect x="349" y="259" width="18" height="18" transform="rotate(0,358,268)"/><rect x="367" y="259" width="18" height="18" transform="rotate(0,376,268)"/><rect x="385" y="259" width="18" height="18" transform="rotate(0,394,268)"/><rect x="457" y="259" width="18" height="18" transform="rotate(0,466,268)"/><rect x="43" y="277" width="18" height="18" transform="rotate(0,52,286)"/><rect x="61" y="277" width="18" height="18" transform="rotate(0,70,286)"/><rect x="79" y="277" width="18" height="18" transform="rotate(0,88,286)"/><rect x="97" y="277" width="18" height="18" transform="rotate(0,106,286)"/><rect x="133" y="277" width="18" height="18" transform="rotate(0,142,286)"/><rect x="205" y="277" width="18" height="18" transform="rotate(0,214,286)"/><rect x="241" y="277" width="18" height="18" transform="rotate(0,250,286)"/><rect x="259" y="277" width="18" height="18" transform="rotate(0,268,286)"/><rect x="331" y="277" width="18" height="18" transform="rotate(0,340,286)"/><rect x="421" y="277" width="18" height="18" transform="rotate(0,430,286)"/><rect x="439" y="277" width="18" height="18" transform="rotate(0,448,286)"/><rect x="25" y="295" width="18" height="18" transform="rotate(0,34,304)"/><rect x="61" y="295" width="18" height="18" transform="rotate(0,70,304)"/><rect x="97" y="295" width="18" height="18" transform="rotate(0,106,304)"/><rect x="115" y="295" width="18" height="18" transform="rotate(0,124,304)"/><rect x="151" y="295" width="18" height="18" transform="rotate(0,160,304)"/><rect x="205" y="295" width="18" height="18" transform="rotate(0,214,304)"/><rect x="277" y="295" width="18" height="18" transform="rotate(0,286,304)"/><rect x="313" y="295" width="18" height="18" transform="rotate(0,322,304)"/><rect x="349" y="295" width="18" height="18" transform="rotate(0,358,304)"/><rect x="367" y="295" width="18" height="18" transform="rotate(0,376,304)"/><rect x="385" y="295" width="18" height="18" transform="rotate(0,394,304)"/><rect x="403" y="295" width="18" height="18" transform="rotate(0,412,304)"/><rect x="457" y="295" width="18" height="18" transform="rotate(0,466,304)"/><rect x="79" y="313" width="18" height="18" transform="rotate(0,88,322)"/><rect x="115" y="313" width="18" height="18" transform="rotate(0,124,322)"/><rect x="133" y="313" width="18" height="18" transform="rotate(0,142,322)"/><rect x="169" y="313" width="18" height="18" transform="rotate(0,178,322)"/><rect x="187" y="313" width="18" height="18" transform="rotate(0,196,322)"/><rect x="241" y="313" width="18" height="18" transform="rotate(0,250,322)"/><rect x="295" y="313" width="18" height="18" transform="rotate(0,304,322)"/><rect x="313" y="313" width="18" height="18" transform="rotate(0,322,322)"/><rect x="331" y="313" width="18" height="18" transform="rotate(0,340,322)"/><rect x="349" y="313" width="18" height="18" transform="rotate(0,358,322)"/><rect x="367" y="313" width="18" height="18" transform="rotate(0,376,322)"/><rect x="385" y="313" width="18" height="18" transform="rotate(0,394,322)"/><rect x="403" y="313" width="18" height="18" transform="rotate(0,412,322)"/><rect x="421" y="313" width="18" height="18" transform="rotate(0,430,322)"/><rect x="439" y="313" width="18" height="18" transform="rotate(0,448,322)"/><rect x="457" y="313" width="18" height="18" transform="rotate(0,466,322)"/><rect x="169" y="331" width="18" height="18" transform="rotate(0,178,340)"/><rect x="205" y="331" width="18" height="18" transform="rotate(0,214,340)"/><rect x="241" y="331" width="18" height="18" transform="rotate(0,250,340)"/><rect x="259" y="331" width="18" height="18" transform="rotate(0,268,340)"/><rect x="313" y="331" width="18" height="18" transform="rotate(0,322,340)"/><rect x="385" y="331" width="18" height="18" transform="rotate(0,394,340)"/><rect x="457" y="331" width="18" height="18" transform="rotate(0,466,340)"/><rect x="205" y="349" width="18" height="18" transform="rotate(0,214,358)"/><rect x="223" y="349" width="18" height="18" transform="rotate(0,232,358)"/><rect x="259" y="349" width="18" height="18" transform="rotate(0,268,358)"/><rect x="313" y="349" width="18" height="18" transform="rotate(0,322,358)"/><rect x="349" y="349" width="18" height="18" transform="rotate(0,358,358)"/><rect x="385" y="349" width="18" height="18" transform="rotate(0,394,358)"/><rect x="403" y="349" width="18" height="18" transform="rotate(0,412,358)"/><rect x="421" y="349" width="18" height="18" transform="rotate(0,430,358)"/><rect x="439" y="349" width="18" height="18" transform="rotate(0,448,358)"/><rect x="457" y="349" width="18" height="18" transform="rotate(0,466,358)"/><rect x="169" y="367" width="18" height="18" transform="rotate(0,178,376)"/><rect x="187" y="367" width="18" height="18" transform="rotate(0,196,376)"/><rect x="277" y="367" width="18" height="18" transform="rotate(0,286,376)"/><rect x="295" y="367" width="18" height="18" transform="rotate(0,304,376)"/><rect x="313" y="367" width="18" height="18" transform="rotate(0,322,376)"/><rect x="385" y="367" width="18" height="18" transform="rotate(0,394,376)"/><rect x="439" y="367" width="18" height="18" transform="rotate(0,448,376)"/><rect x="187" y="385" width="18" height="18" transform="rotate(0,196,394)"/><rect x="223" y="385" width="18" height="18" transform="rotate(0,232,394)"/><rect x="241" y="385" width="18" height="18" transform="rotate(0,250,394)"/><rect x="277" y="385" width="18" height="18" transform="rotate(0,286,394)"/><rect x="313" y="385" width="18" height="18" transform="rotate(0,322,394)"/><rect x="331" y="385" width="18" height="18" transform="rotate(0,340,394)"/><rect x="349" y="385" width="18" height="18" transform="rotate(0,358,394)"/><rect x="367" y="385" width="18" height="18" transform="rotate(0,376,394)"/><rect x="385" y="385" width="18" height="18" transform="rotate(0,394,394)"/><rect x="439" y="385" width="18" height="18" transform="rotate(0,448,394)"/><rect x="169" y="403" width="18" height="18" transform="rotate(0,178,412)"/><rect x="223" y="403" width="18" height="18" transform="rotate(0,232,412)"/><rect x="295" y="403" width="18" height="18" transform="rotate(0,304,412)"/><rect x="331" y="403" width="18" height="18" transform="rotate(0,340,412)"/><rect x="349" y="403" width="18" height="18" transform="rotate(0,358,412)"/><rect x="385" y="403" width="18" height="18" transform="rotate(0,394,412)"/><rect x="421" y="403" width="18" height="18" transform="rotate(0,430,412)"/><rect x="439" y="403" width="18" height="18" transform="rotate(0,448,412)"/><rect x="457" y="403" width="18" height="18" transform="rotate(0,466,412)"/><rect x="169" y="421" width="18" height="18" transform="rotate(0,178,430)"/><rect x="187" y="421" width="18" height="18" transform="rotate(0,196,430)"/><rect x="205" y="421" width="18" height="18" transform="rotate(0,214,430)"/><rect x="223" y="421" width="18" height="18" transform="rotate(0,232,430)"/><rect x="241" y="421" width="18" height="18" transform="rotate(0,250,430)"/><rect x="277" y="421" width="18" height="18" transform="rotate(0,286,430)"/><rect x="331" y="421" width="18" height="18" transform="rotate(0,340,430)"/><rect x="349" y="421" width="18" height="18" transform="rotate(0,358,430)"/><rect x="367" y="421" width="18" height="18" transform="rotate(0,376,430)"/><rect x="385" y="421" width="18" height="18" transform="rotate(0,394,430)"/><rect x="403" y="421" width="18" height="18" transform="rotate(0,412,430)"/><rect x="421" y="421" width="18" height="18" transform="rotate(0,430,430)"/><rect x="439" y="421" width="18" height="18" transform="rotate(0,448,430)"/><rect x="169" y="439" width="18" height="18" transform="rotate(0,178,448)"/><rect x="187" y="439" width="18" height="18" transform="rotate(0,196,448)"/><rect x="259" y="439" width="18" height="18" transform="rotate(0,268,448)"/><rect x="295" y="439" width="18" height="18" transform="rotate(0,304,448)"/><rect x="331" y="439" width="18" height="18" transform="rotate(0,340,448)"/><rect x="385" y="439" width="18" height="18" transform="rotate(0,394,448)"/><rect x="421" y="439" width="18" height="18" transform="rotate(0,430,448)"/><rect x="187" y="457" width="18" height="18" transform="rotate(0,196,466)"/><rect x="205" y="457" width="18" height="18" transform="rotate(0,214,466)"/><rect x="277" y="457" width="18" height="18" transform="rotate(0,286,466)"/><rect x="331" y="457" width="18" height="18" transform="rotate(0,340,466)"/><rect x="349" y="457" width="18" height="18" transform="rotate(0,358,466)"/><rect x="367" y="457" width="18" height="18" transform="rotate(0,376,466)"/><rect x="385" y="457" width="18" height="18" transform="rotate(0,394,466)"/><rect x="403" y="457" width="18" height="18" transform="rotate(0,412,466)"/><rect x="421" y="457" width="18" height="18" transform="rotate(0,430,466)"/><rect x="439" y="457" width="18" height="18" transform="rotate(0,448,466)"/><rect x="457" y="457" width="18" height="18" transform="rotate(0,466,466)"/></clipPath><clipPath id="clip-path-corners-square-color-0-0-3"><path clip-rule="evenodd" d="M 25 25v 126h 126v -126zM 43 43h 90v 90h -90z" transform="rotate(0,88,88)"/></clipPath><clipPath id="clip-path-corners-dot-color-0-0-3"><rect x="61" y="61" width="54" height="54" transform="rotate(0,88,88)"/></clipPath><clipPath id="clip-path-corners-square-color-1-0-3"><path clip-rule="evenodd" d="M 349 25v 126h 126v -126zM 367 43h 90v 90h -90z" transform="rotate(90,412,88)"/></clipPath><clipPath id="clip-path-corners-dot-color-1-0-3"><rect x="385" y="61" width="54" height="54" transform="rotate(90,412,88)"/></clipPath><clipPath id="clip-path-corners-square-color-0-1-3"><path clip-rule="evenodd" d="M 25 349v 126h 126v -126zM 43 367h 90v 90h -90z" transform="rotate(-90,88,412)"/></clipPath><clipPath id="clip-path-corners-dot-color-0-1-3"><rect x="61" y="385" width="54" height="54" transform="rotate(-90,88,412)"/></clipPath></defs><rect x="0" y="0" height="500" width="500" clip-path="url('#clip-path-background-color-3')" fill="#ffffff"/><rect x="0" y="0" height="500" width="500" clip-path="url('#clip-path-dot-color-3')" fill="#000000"/><rect x="25" y="25" height="126" width="126" clip-path="url('#clip-path-corners-square-color-0-0-3')" fill="#000000"/><rect x="61" y="61" height="54" width="54" clip-path="url('#clip-path-corners-dot-color-0-0-3')" fill="#000000"/><rect x="349" y="25" height="126" width="126" clip-path="url('#clip-path-corners-square-color-1-0-3')" fill="#000000"/><rect x="385" y="61" height="54" width="54" clip-path="url('#clip-path-corners-dot-color-1-0-3')" fill="#000000"/><rect x="25" y="349" height="126" width="126" clip-path="url('#clip-path-corners-square-color-0-1-3')" fill="#000000"/><rect x="61" y="385" height="54" width="54" clip-path="url('#clip-path-corners-dot-color-0-1-3')" fill="#000000"/></svg>