<svg width="500" height="500" viewBox="0 0 500 500" fill="none" xmlns="http://www.w3.org/2000/svg">
<path d="M500 0H0V500H500V0Z" fill="black"/>
<path d="M500 0H0V500H500V0Z" fill="white"/>
<path d="M205 25H187V43H205V25Z" fill="black"/>
<path d="M223 25H205V43H223V25Z" fill="black"/>
<path d="M259 25H241V43H259V25Z" fill="black"/>
<path d="M277 25H259V43H277V25Z" fill="black"/>
<path d="M187 43H169V61H187V43Z" fill="black"/>
<path d="M277 43H259V61H277V43Z" fill="black"/>
<path d="M187 61H169V79H187V61Z" fill="black"/>
<path d="M223 61H205V79H223V61Z" fill="black"/>
<path d="M241 61H223V79H241V61Z" fill="black"/>
<path d="M259 61H241V79H259V61Z" fill="black"/>
<path d="M277 61H259V79H277V61Z" fill="black"/>
<path d="M313 61H295V79H313V61Z" fill="black"/>
<path d="M331 61H313V79H331V61Z" fill="black"/>
<path d="M223 79H205V97H223V79Z" fill="black"/>
<path d="M241 79H223V97H241V79Z" fill="black"/>
<path d="M259 79H241V97H259V79Z" fill="black"/>
<path d="M277 79H259V97H277V79Z" fill="black"/>
<path d="M295 79H277V97H295V79Z" fill="black"/>
<path d="M313 79H295V97H313V79Z" fill="black"/>
<path d="M331 79H313V97H331V79Z" fill="black"/>
<path d="M259 97H241V115H259V97Z" fill="black"/>
<path d="M313 97H295V115H313V97Z" fill="black"/>
<path d="M331 97H313V115H331V97Z" fill="black"/>
<path d="M223 115H205V133H223V115Z" fill="black"/>
<path d="M259 115H241V133H259V115Z" fill="black"/>
<path d="M187 133H169V151H187V133Z" fill="black"/>
<path d="M223 133H205V151H223V133Z" fill="black"/>
<path d="M259 133H241V151H259V133Z" fill="black"/>
<path d="M295 133H277V151H295V133Z" fill="black"/>
<path d="M331 133H313V151H331V133Z" fill="black"/>
<path d="M223 151H205V169H223V151Z" fill="black"/>
<path d="M259 151H241V169H259V151Z" fill="black"/>
<path d="M295 151H277V169H295V151Z" fill="black"/>
<path d="M331 151H313V169H331V151Z" fill="black"/>
<path d="M61 169H43V187H61V169Z" fill="black"/>
<path d="M79 169H61V187H79V169Z" fill="black"/>
<path d="M97 169H79V187H97V169Z" fill="black"/>
<path d="M133 169H115V187H133V169Z" fill="black"/>
<path d="M151 169H133V187H151V169Z" fill="black"/>
<path d="M223 169H205V187H223V169Z" fill="black"/>
<path d="M295 169H277V187H295V169Z" fill="black"/>
<path d="M331 169H313V187H331V169Z" fill="black"/>
<path d="M439 169H421V187H439V169Z" fill="black"/>
<path d="M457 169H439V187H457V169Z" fill="black"/>
<path d="M115 187H97V205H115V187Z" fill="black"/>
<path d="M133 187H115V205H133V187Z" fill="black"/>
<path d="M205 187H187V205H205V187Z" fill="black"/>
<path d="M259 187H241V205H259V187Z" fill="black"/>
<path d="M295 187H277V205H295V187Z" fill="black"/>
<path d="M331 187H313V205H331V187Z" fill="black"/>
<path d="M385 187H367V205H385V187Z" fill="black"/>
<path d="M457 187H439V205H457V187Z" fill="black"/>
<path d="M43 205H25V223H43V205Z" fill="black"/>
<path d="M61 205H43V223H61V205Z" fill="black"/>
<path d="M115 205H97V223H115V205Z" fill="black"/>
<path d="M151 205H133V223H151V205Z" fill="black"/>
<path d="M169 205H151V223H169V205Z" fill="black"/>
<path d="M223 205H205V223H223V205Z" fill="black"/>
<path d="M259 205H241V223H259V205Z" fill="black"/>
<path d="M331 205H313V223H331V205Z" fill="black"/>
<path d="M367 205H349V223H367V205Z" fill="black"/>
<path d="M385 205H367V223H385V205Z" fill="black"/>
<path d="M43 223H25V241H43V223Z" fill="black"/>
<path d="M133 223H115V241H133V223Z" fill="black"/>
<path d="M205 223H187V241H205V223Z" fill="black"/>
<path d="M241 223H223V241H241V223Z" fill="black"/>
<path d="M277 223H259V241H277V223Z" fill="black"/>
<path d="M295 223H277V241H295V223Z" fill="black"/>
<path d="M313 223H295V241H313V223Z" fill="black"/>
<path d="M331 223H313V241H331V223Z" fill="black"/>
<path d="M367 223H349V241H367V223Z" fill="black"/>
<path d="M403 223H385V241H403V223Z" fill="black"/>
<path d="M421 223H403V241H421V223Z" fill="black"/>
<path d="M439 223H421V241H439V223Z" fill="black"/>
<path d="M43 241H25V259H43V241Z" fill="black"/>
<path d="M79 241H61V259H79V241Z" fill="black"/>
<path d="M115 241H97V259H115V241Z" fill="black"/>
<path d="M133 241H115V259H133V241Z" fill="black"/>
<path d="M151 241H133V259H151V241Z" fill="black"/>
<path d="M169 241H151V259H169V241Z" fill="black"/>
<path d="M223 241H205V259H223V241Z" fill="black"/>
<path d="M241 241H223V259H241V241Z" fill="black"/>
<path d="M349 241H331V259H349V241Z" fill="black"/>
<path d="M367 241H349V259H367V241Z" fill="black"/>
<path d="M403 241H385V259H403V241Z" fill="black"/>
<path d="M439 241H421V259H439V241Z" fill="black"/>
<path d="M457 241H439V259H457V241Z" fill="black"/>
<path d="M475 241H457V259H475V241Z" fill="black"/>
<path d="M61 259H43V277H61V259Z" fill="black"/>
<path d="M259 259H241V277H259V259Z" fill="black"/>
<path d="M295 259H277V277H295V259Z" fill="black"/>
<path d="M313 259H295V277H313V259Z" fill="black"/>
<path d="M331 259H313V277H331V259Z" fill="black"/>
<path d="M367 259H349V277H367V259Z" fill="black"/>
<path d="M385 259H367V277H385V259Z" fill="black"/>
<path d="M403 259H385V277H403V259Z" fill="black"/>
<path d="M475 259H457V277H475V259Z" fill="black"/>
<path d="M61 277H43V295H61V277Z" fill="black"/>
<path d="M79 277H61V295H79V277Z" fill="black"/>
<path d="M97 277H79V295H97V277Z" fill="black"/>
<path d="M115 277H97V295H115V277Z" fill="black"/>
<path d="M151 277H133V295H151V277Z" fill="black"/>
<path d="M223 277H205V295H223V277Z" fill="black"/>
<path d="M259 277H241V295H259V277Z" fill="black"/>
<path d="M277 277H259V295H277V277Z" fill="black"/>
<path d="M349 277H331V295H349V277Z" fill="black"/>
<path d="M439 277H421V295H439V277Z" fill="black"/>
<path d="M457 277H439V295H457V277Z" fill="black"/>
<path d="M43 295H25V313H43V295Z" fill="black"/>
<path d="M79 295H61V313H79V295Z" fill="black"/>
<path d="M115 295H97V313H115V295Z" fill="black"/>
<path d="M133 295H115V313H133V295Z" fill="black"/>
<path d="M169 295H151V313H169V295Z" fill="black"/>
<path d="M223 295H205V313H223V295Z" fill="black"/>
<path d="M295 295H277V313H295V295Z" fill="black"/>
<path d="M331 295H313V313H331V295Z" fill="black"/>
<path d="M367 295H349V313H367V295Z" fill="black"/>
<path d="M385 295H367V313H385V295Z" fill="black"/>
<path d="M403 295H385V313H403V295Z" fill="black"/>
<path d="M421 295H403V313H421V295Z" fill="black"/>
<path d="M475 295H457V313H475V295Z" fill="black"/>
<path d="M97 313H79V331H97V313Z" fill="black"/>
<path d="M133 313H115V331H133V313Z" fill="black"/>
<path d="M151 313H133V331H151V313Z" fill="black"/>
<path d="M187 313H169V331H187V313Z" fill="black"/>
<path d="M205 313H187V331H205V313Z" fill="black"/>
<path d="M259 313H241V331H259V313Z" fill="black"/>
<path d="M313 313H295V331H313V313Z" fill="black"/>
<path d="M331 313H313V331H331V313Z" fill="black"/>
<path d="M349 313H331V331H349V313Z" fill="black"/>
<path d="M367 313H349V331H367V313Z" fill="black"/>
<path d="M385 313H367V331H385V313Z" fill="black"/>
<path d="M403 313H385V331H403V313Z" fill="black"/>
<path d="M421 313H403V331H421V313Z" fill="black"/>
<path d="M439 313H421V331H439V313Z" fill="black"/>
<path d="M457 313H439V331H457V313Z" fill="black"/>
<path d="M475 313H457V331H475V313Z" fill="black"/>
<path d="M187 331H169V349H187V331Z" fill="black"/>
<path d="M223 331H205V349H223V331Z" fill="black"/>
<path d="M259 331H241V349H259V331Z" fill="black"/>
<path d="M277 331H259V349H277V331Z" fill="black"/>
<path d="M331 331H313V349H331V331Z" fill="black"/>
<path d="M403 331H385V349H403V331Z" fill="black"/>
<path d="M475 331H457V349H475V331Z" fill="black"/>
<path d="M223 349H205V367H223V349Z" fill="black"/>
<path d="M241 349H223V367H241V349Z" fill="black"/>
<path d="M277 349H259V367H277V349Z" fill="black"/>
<path d="M331 349H313V367H331V349Z" fill="black"/>
<path d="M367 349H349V367H367V349Z" fill="black"/>
<path d="M403 349H385V367H403V349Z" fill="black"/>
<path d="M421 349H403V367H421V349Z" fill="black"/>
<path d="M439 349H421V367H439V349Z" fill="black"/>
<path d="M457 349H439V367H457V349Z" fill="black"/>
<path d="M475 349H457V367H475V349Z" fill="black"/>
<path d="M187 367H169V385H187V367Z" fill="black"/>
<path d="M205 367H187V385H205V367Z" fill="black"/>
<path d="M295 367H277V385H295V367Z" fill="black"/>
<path d="M313 367H295V385H313V367Z" fill="black"/>
<path d="M331 367H313V385H331V367Z" fill="black"/>
<path d="M403 367H385V385H403V367Z" fill="black"/>
<path d="M457 367H439V385H457V367Z" fill="black"/>
<path d="M205 385H187V403H205V385Z" fill="black"/>
<path d="M241 385H223V403H241V385Z" fill="black"/>
<path d="M259 385H241V403H259V385Z" fill="black"/>
<path d="M295 385H277V403H295V385Z" fill="black"/>
<path d="M331 385H313V403H331V385Z" fill="black"/>
<path d="M349 385H331V403H349V385Z" fill="black"/>
<path d="M367 385H349V403H367V385Z" fill="black"/>
<path d="M385 385H367V403H385V385Z" fill="black"/>
<path d="M403 385H385V403H403V385Z" fill="black"/>
<path d="M457 385H439V403H457V385Z" fill="black"/>
<path d="M187 403H169V421H187V403Z" fill="black"/>
<path d="M241 403H223V421H241V403Z" fill="black"/>
<path d="M313 403H295V421H313V403Z" fill="black"/>
<path d="M349 403H331V421H349V403Z" fill="black"/>
<path d="M367 403H349V421H367V403Z" fill="black"/>
<path d="M403 403H385V421H403V403Z" fill="black"/>
<path d="M439 403H421V421H439V403Z" fill="black"/>
<path d="M457 403H439V421H457V403Z" fill="black"/>
<path d="M475 403H457V421H475V403Z" fill="black"/>
<path d="M187 421H169V439H187V421Z" fill="black"/>
<path d="M205 421H187V439H205V421Z" fill="black"/>
<path d="M223 421H205V439H223V421Z" fill="black"/>
<path d="M241 421H223V439H241V421Z" fill="black"/>
<path d="M259 421H241V439H259V421Z" fill="black"/>
<path d="M295 421H277V439H295V421Z" fill="black"/>
<path d="M349 421H331V439H349V421Z" fill="black"/>
<path d="M367 421H349V439H367V421Z" fill="black"/>
<path d="M385 421H367V439H385V421Z" fill="black"/>
<path d="M403 421H385V439H403V421Z" fill="black"/>
<path d="M421 421H403V439H421V421Z" fill="black"/>
<path d="M439 421H421V439H439V421Z" fill="black"/>
<path d="M457 421H439V439H457V421Z" fill="black"/>
<path d="M187 439H169V457H187V439Z" fill="black"/>
<path d="M205 439H187V457H205V439Z" fill="black"/>
<path d="M277 439H259V457H277V439Z" fill="black"/>
<path d="M313 439H295V457H313V439Z" fill="black"/>
<path d="M349 439H331V457H349V439Z" fill="black"/>
<path d="M403 439H385V457H403V439Z" fill="black"/>
<path d="M439 439H421V457H439V439Z" fill="black"/>
<path d="M205 457H187V475H205V457Z" fill="black"/>
<path d="M223 457H205V475H223V457Z" fill="black"/>
<path d="M295 457H277V475H295V457Z" fill="black"/>
<path d="M349 457H331V475H349V457Z" fill="black"/>
<path d="M367 457H349V475H367V457Z" fill="black"/>
<path d="M385 457H367V475H385V457Z" fill="black"/>
<path d="M403 457H385V475H403V457Z" fill="black"/>
<path d="M421 457H403V475H421V457Z" fill="black"/>
<path d="M439 457H421V475H439V457Z" fill="black"/>
<path d="M457 457H439V475H457V457Z" fill="black"/>
<path d="M475 457H457V475H475V457Z" fill="black"/>
<path fill-rule="evenodd" clip-rule="evenodd" d="M25 25V151H151V25H25ZM43 43H133V133H43V43Z" fill="black"/>
<path d="M115 61H61V115H115V61Z" fill="black"/>
<path fill-rule="evenodd" clip-rule="evenodd" d="M475 25H349V151H475V25ZM457 43V133H367V43H457Z" fill="black"/>
<path d="M439 115V61H385V115H439Z" fill="black"/>
<path fill-rule="evenodd" clip-rule="evenodd" d="M25 475H151V349H25L25 475ZM43 457V367H133V457H43Z" fill="black"/>
<path d="M61 385V439H115V385H61Z" fill="black"/>
<path d="M115 385H61V439H115V385Z" fill="black"/>
</svg>
