<svg width="122" height="122" viewBox="0 0 122 122" fill="none" xmlns="http://www.w3.org/2000/svg">
<path d="M60.416 5C63.3475 5.00004 66.2784 5.75186 68.8565 7.26074C86.2873 17.4516 104.039 38.5619 110.227 55.9678C111.258 58.8696 111.258 62.0425 110.227 64.9443C104.05 82.3157 86.2858 103.516 68.8418 113.729C66.2556 115.24 63.3137 116 60.374 116C57.4426 116 54.5116 115.246 51.9336 113.734C34.7261 103.649 17.5059 82.6984 10.8955 65.3164C9.70475 62.182 9.69987 58.7409 10.8906 55.6064C17.4665 38.2826 34.7438 17.4087 51.9434 7.28125C54.5296 5.75896 57.4737 5 60.416 5ZM41.1895 58L41.1914 58.002L31.9277 67.1602C30.6512 68.4221 29.3308 69.7908 29.0693 71.5527C29.0287 71.8267 29.0057 72.1069 29.001 72.3916C29.0004 72.4274 29 72.464 29 72.5C29 75.9518 31.7302 78.75 35.0977 78.75C36.3432 78.7499 37.5016 78.3671 38.4668 77.71C39.0232 77.3312 39.5151 76.8608 39.9229 76.3203C39.9236 76.3801 39.9238 76.44 39.9238 76.5L39.9248 76.5244L39.9238 76.5723V76.6143L39.9229 76.6982C39.8894 78.9917 39.2752 81.1412 38.2246 83H41.1943V58.0039L66.5947 83V58L41.1895 33V58ZM66.5947 58L92 83V58L66.5947 33V58Z" fill="#6B2A32"/>
</svg>
