<svg width="24" height="24" viewBox="0 0 24 24" fill="none" xmlns="http://www.w3.org/2000/svg">
<path fill-rule="evenodd" clip-rule="evenodd" d="M13.9348 11.5L5.8697 4V11.5L13.9348 19V11.5Z" fill="white"/>
<path fill-rule="evenodd" clip-rule="evenodd" d="M22 11.5L13.9348 4V11.5L22 19V11.5Z" fill="white"/>
<path fill-rule="evenodd" clip-rule="evenodd" d="M5.46644 17.05C5.46644 17.0573 5.46642 17.0646 5.46638 17.0719L5.46645 17.0573L5.46644 17.05Z" fill="white"/>
<path fill-rule="evenodd" clip-rule="evenodd" d="M2.92939 14.2479C2.52412 14.6265 2.10513 15.0371 2.02212 15.5657C2.00919 15.648 2.00178 15.7321 2.00029 15.8176C2.0001 15.8283 2 15.8392 2 15.85C2 16.8855 2.86661 17.725 3.93563 17.725C4.33111 17.725 4.69887 17.6101 5.00531 17.4129C5.18194 17.2993 5.3382 17.1583 5.46764 16.9962C5.46788 17.0141 5.46801 17.032 5.46801 17.05L5.46803 17.0573L5.46801 17.0718V17.0843L5.46755 17.1095C5.45692 17.7975 5.26204 18.4424 4.92853 19H5.87127V11.5L2.92939 14.2479Z" fill="white"/>
</svg>
