<svg width="119" height="95" viewBox="0 0 119 95" fill="none" xmlns="http://www.w3.org/2000/svg">
<path fill-rule="evenodd" clip-rule="evenodd" d="M71.0123 47.5L23.0247 0V47.5L71.0123 95V47.5Z" fill="white"/>
<path fill-rule="evenodd" clip-rule="evenodd" d="M119 47.5L71.0123 0V47.5L119 95V47.5Z" fill="white"/>
<path fill-rule="evenodd" clip-rule="evenodd" d="M20.6253 82.65C20.6253 82.6961 20.6252 82.7426 20.625 82.7887L20.6254 82.6961L20.6253 82.65Z" fill="white"/>
<path fill-rule="evenodd" clip-rule="evenodd" d="M5.52984 64.9035C3.11853 67.3013 0.625552 69.9015 0.13161 73.2493C0.0546646 73.7704 0.0106107 74.3033 0.00169881 74.8448C0.000585833 74.9127 0 74.9816 0 75.05C0 81.6083 5.15631 86.925 11.517 86.925C13.8701 86.925 16.0583 86.1973 17.8816 84.9485C18.9326 84.2289 19.8623 83.3359 20.6325 82.309C20.6339 82.4225 20.6347 82.536 20.6347 82.65L20.6348 82.6961L20.6347 82.7882V82.8671L20.6319 83.0267C20.5687 87.3843 19.4092 91.4684 17.4247 95H23.0341V47.5L5.52984 64.9035Z" fill="white"/>
</svg>
