<svg width="24" height="24" viewBox="0 0 24 24" fill="none" xmlns="http://www.w3.org/2000/svg">
<path d="M12 2C6.477 2 2 6.477 2 12C2 17.523 6.477 22 12 22C17.523 22 22 17.523 22 12C22 6.477 17.523 2 12 2ZM12 3.5C12.5126 3.5 13.0122 3.55327 13.5 3.64062V5.68164C13.0176 5.56706 12.5169 5.5 12 5.5C11.4831 5.5 10.9824 5.56706 10.5 5.68164V3.64062C10.9878 3.55327 11.4874 3.5 12 3.5ZM5.66016 6.35742L7.43359 7.38184C6.72028 8.08722 6.17257 8.95691 5.84473 9.92773L4.08887 8.91406C4.45968 7.96691 4.99448 7.10448 5.66016 6.35742ZM18.3398 6.35742C19.0055 7.10448 19.5403 7.96691 19.9111 8.91406L18.1553 9.92773C17.8274 8.95691 17.2797 8.08722 16.5664 7.38184L18.3398 6.35742ZM12 7C14.757 7 17 9.243 17 12C17 14.757 14.757 17 12 17C9.243 17 7 14.757 7 12C7 9.243 9.243 7 12 7ZM5.71875 13.6445C5.97986 14.6405 6.46975 15.542 7.13184 16.292L5.37207 17.3086C4.74729 16.5301 4.259 15.6398 3.9375 14.6729L5.71875 13.6445ZM18.2812 13.6445L20.0625 14.6729C19.741 15.6398 19.2527 16.5301 18.6279 17.3086L16.8672 16.293C17.5297 15.5427 18.02 14.6409 18.2812 13.6445ZM10.499 18.3184C10.9817 18.4331 11.4827 18.5 12 18.5C12.5166 18.5 13.0169 18.4328 13.499 18.3184V20.3594C13.0115 20.4466 12.5122 20.5 12 20.5C11.4871 20.5 10.9871 20.4468 10.499 20.3594V18.3184Z" fill="white"/>
</svg>
