<svg width="24" height="24" viewBox="0 0 24 24" fill="none" xmlns="http://www.w3.org/2000/svg">
<path d="M5.50879 2.5C3.85179 2.5 2.50879 3.843 2.50879 5.5V16.5C2.50879 18.157 3.85179 19.5 5.50879 19.5H12.0088C13.6658 19.5 15.0088 18.157 15.0088 16.5V5.5C15.0088 3.843 13.6658 2.5 12.0088 2.5H5.50879ZM15.8955 4.57227C15.9665 4.87027 16.0088 5.18 16.0088 5.5V16.5C16.0088 18.7055 14.2143 20.5 12.0088 20.5H9.56934L14.9434 21.9023C15.1974 21.9688 15.4516 22 15.7021 22C17.0316 22 18.2456 21.1092 18.6006 19.7637L21.4082 9.11426C21.8317 7.50826 20.8697 5.86379 19.2617 5.44629L15.8955 4.57227ZM8.75 6.5C9.07019 6.5 9.39062 6.61613 9.64062 6.84863C10.7496 7.87913 12.5 9.7173 12.5 11.0498C12.5 12.1268 11.6111 13 10.5146 13C10.1741 13 9.85955 12.9073 9.58105 12.7578L10.4727 14.3164C10.6032 14.6444 10.3613 15 10.0078 15H7.50195C7.15045 15 6.90768 14.6478 7.03418 14.3203L7.93262 12.75C7.65062 12.904 7.33185 13 6.98535 13C5.88885 13 5 12.1268 5 11.0498C5 9.7173 6.75038 7.87913 7.85938 6.84863C8.10963 6.61613 8.42981 6.5 8.75 6.5Z" fill="white"/>
</svg>
