<svg width="374" height="237" viewBox="0 0 374 237" fill="none" xmlns="http://www.w3.org/2000/svg">
<g clip-path="url(#clip0_8_800)">
<rect width="374" height="237" fill="#93BFE4"/>
<path fill-rule="evenodd" clip-rule="evenodd" d="M383.441 -33.0942L372.615 -73.3198L357.904 -47.8381L368.729 -7.61255L383.441 -33.0942Z" fill="#6D95B6"/>
<path fill-rule="evenodd" clip-rule="evenodd" d="M408.867 -18.4144L398.153 -58.5759L383.441 -33.0942L394.155 7.06725L408.867 -18.4144Z" fill="#6D95B6"/>
<path fill-rule="evenodd" clip-rule="evenodd" d="M404.98 47.2929L394.155 7.06732L379.443 32.549L390.268 72.7746L404.98 47.2929Z" fill="#6D95B6"/>
<path fill-rule="evenodd" clip-rule="evenodd" d="M430.406 61.9727L419.692 21.8112L404.98 47.2929L415.694 87.4544L430.406 61.9727Z" fill="#6D95B6"/>
<path fill-rule="evenodd" clip-rule="evenodd" d="M354.017 17.8696L343.192 -22.356L328.48 3.12572L339.305 43.3513L354.017 17.8696Z" fill="#6D95B6"/>
<path fill-rule="evenodd" clip-rule="evenodd" d="M379.443 32.5494L368.729 -7.61205L354.017 17.8696L364.731 58.0311L379.443 32.5494Z" fill="#6D95B6"/>
<path fill-rule="evenodd" clip-rule="evenodd" d="M303.053 -11.5544L292.228 -51.78L277.516 -26.2983L288.342 13.9272L303.053 -11.5544Z" fill="#6D95B6"/>
<path fill-rule="evenodd" clip-rule="evenodd" d="M328.48 3.12536L317.765 -37.0361L303.053 -11.5544L313.768 28.607L328.48 3.12536Z" fill="#6D95B6"/>
<path fill-rule="evenodd" clip-rule="evenodd" d="M375.556 98.256L364.731 58.0305L350.019 83.5121L360.845 123.738L375.556 98.256Z" fill="#6D95B6"/>
<path fill-rule="evenodd" clip-rule="evenodd" d="M400.983 112.936L390.268 72.7744L375.556 98.256L386.271 138.418L400.983 112.936Z" fill="#6D95B6"/>
<path fill-rule="evenodd" clip-rule="evenodd" d="M324.593 68.832L313.768 28.6064L299.056 54.0881L309.882 94.3137L324.593 68.832Z" fill="#6D95B6"/>
<path fill-rule="evenodd" clip-rule="evenodd" d="M350.02 83.5118L339.305 43.3503L324.593 68.832L335.308 108.993L350.02 83.5118Z" fill="#6D95B6"/>
<path fill-rule="evenodd" clip-rule="evenodd" d="M273.63 39.4086L262.805 -0.816956L248.093 24.6647L258.918 64.8903L273.63 39.4086Z" fill="#6D95B6"/>
<path fill-rule="evenodd" clip-rule="evenodd" d="M299.056 54.0884L288.342 13.927L273.63 39.4086L284.344 79.5701L299.056 54.0884Z" fill="#6D95B6"/>
<path fill-rule="evenodd" clip-rule="evenodd" d="M222.666 9.98456L211.841 -30.241L197.129 -4.75935L207.955 35.4662L222.666 9.98456Z" fill="#6D95B6"/>
<path fill-rule="evenodd" clip-rule="evenodd" d="M248.093 24.6644L237.378 -15.4971L222.666 9.98456L233.381 50.146L248.093 24.6644Z" fill="#6D95B6"/>
<path fill-rule="evenodd" clip-rule="evenodd" d="M171.703 -19.4387L160.878 -59.6643L146.166 -34.1826L156.991 6.04296L171.703 -19.4387Z" fill="#6D95B6"/>
<path fill-rule="evenodd" clip-rule="evenodd" d="M197.129 -4.75891L186.415 -44.9204L171.703 -19.4387L182.418 20.7228L197.129 -4.75891Z" fill="#6D95B6"/>
<path fill-rule="evenodd" clip-rule="evenodd" d="M397.096 178.643L386.271 138.418L371.559 163.899L382.384 204.125L397.096 178.643Z" fill="#6D95B6"/>
<path fill-rule="evenodd" clip-rule="evenodd" d="M422.522 193.323L411.808 153.162L397.096 178.643L407.811 218.805L422.522 193.323Z" fill="#6D95B6"/>
<path fill-rule="evenodd" clip-rule="evenodd" d="M346.133 149.219L335.307 108.994L320.596 134.475L331.421 174.701L346.133 149.219Z" fill="#6D95B6"/>
<path fill-rule="evenodd" clip-rule="evenodd" d="M371.559 163.899L360.845 123.737L346.133 149.219L356.847 189.381L371.559 163.899Z" fill="#6D95B6"/>
<path fill-rule="evenodd" clip-rule="evenodd" d="M295.17 119.796L284.344 79.5703L269.632 105.052L280.458 145.278L295.17 119.796Z" fill="#6D95B6"/>
<path fill-rule="evenodd" clip-rule="evenodd" d="M320.596 134.476L309.881 94.3142L295.17 119.796L305.884 159.957L320.596 134.476Z" fill="#6D95B6"/>
<path fill-rule="evenodd" clip-rule="evenodd" d="M244.206 90.3726L233.381 50.147L218.669 75.6287L229.494 115.854L244.206 90.3726Z" fill="#6D95B6"/>
<path fill-rule="evenodd" clip-rule="evenodd" d="M269.632 105.052L258.918 64.8909L244.206 90.3726L254.92 130.534L269.632 105.052Z" fill="#6D95B6"/>
<path fill-rule="evenodd" clip-rule="evenodd" d="M193.243 60.9485L182.417 20.723L167.706 46.2046L178.531 86.4302L193.243 60.9485Z" fill="#6D95B6"/>
<path fill-rule="evenodd" clip-rule="evenodd" d="M218.669 75.6284L207.955 35.4669L193.243 60.9485L203.957 101.11L218.669 75.6284Z" fill="#6D95B6"/>
<path fill-rule="evenodd" clip-rule="evenodd" d="M142.28 31.5252L131.454 -8.70038L116.742 16.7813L127.568 57.0069L142.28 31.5252Z" fill="#6D95B6"/>
<path fill-rule="evenodd" clip-rule="evenodd" d="M167.706 46.205L156.991 6.04353L142.28 31.5252L152.994 71.6867L167.706 46.205Z" fill="#6D95B6"/>
<path fill-rule="evenodd" clip-rule="evenodd" d="M91.3161 2.10114L80.4907 -38.1245L65.7789 -12.6428L76.6042 27.5828L91.3161 2.10114Z" fill="#6D95B6"/>
<path fill-rule="evenodd" clip-rule="evenodd" d="M116.742 16.7809L106.028 -23.3805L91.3161 2.10114L102.03 42.2626L116.742 16.7809Z" fill="#6D95B6"/>
<path fill-rule="evenodd" clip-rule="evenodd" d="M40.3526 -27.3221L29.5272 -67.5477L14.8154 -42.066L25.6407 -1.84046L40.3526 -27.3221Z" fill="#6D95B6"/>
<path fill-rule="evenodd" clip-rule="evenodd" d="M65.7787 -12.6423L55.0644 -52.8038L40.3526 -27.3221L51.0669 12.8393L65.7787 -12.6423Z" fill="#6D95B6"/>
<path fill-rule="evenodd" clip-rule="evenodd" d="M367.673 229.606L356.847 189.381L342.135 214.862L352.961 255.088L367.673 229.606Z" fill="#6D95B6"/>
<path fill-rule="evenodd" clip-rule="evenodd" d="M393.099 244.286L382.384 204.125L367.673 229.606L378.387 269.768L393.099 244.286Z" fill="#6D95B6"/>
<path fill-rule="evenodd" clip-rule="evenodd" d="M316.709 200.183L305.884 159.958L291.172 185.439L301.997 225.665L316.709 200.183Z" fill="#6D95B6"/>
<path fill-rule="evenodd" clip-rule="evenodd" d="M342.135 214.863L331.421 174.701L316.709 200.183L327.423 240.345L342.135 214.863Z" fill="#6D95B6"/>
<path fill-rule="evenodd" clip-rule="evenodd" d="M265.746 170.759L254.921 130.533L240.209 156.015L251.034 196.241L265.746 170.759Z" fill="#6D95B6"/>
<path fill-rule="evenodd" clip-rule="evenodd" d="M291.172 185.439L280.458 145.277L265.746 170.759L276.46 210.92L291.172 185.439Z" fill="#6D95B6"/>
<path fill-rule="evenodd" clip-rule="evenodd" d="M214.782 141.336L203.957 101.11L189.245 126.592L200.071 166.817L214.782 141.336Z" fill="#6D95B6"/>
<path fill-rule="evenodd" clip-rule="evenodd" d="M240.209 156.015L229.494 115.854L214.782 141.336L225.497 181.497L240.209 156.015Z" fill="#6D95B6"/>
<path fill-rule="evenodd" clip-rule="evenodd" d="M163.819 111.912L152.994 71.686L138.282 97.1677L149.107 137.393L163.819 111.912Z" fill="#6D95B6"/>
<path fill-rule="evenodd" clip-rule="evenodd" d="M189.245 126.591L178.531 86.4299L163.819 111.912L174.533 152.073L189.245 126.591Z" fill="#6D95B6"/>
<path fill-rule="evenodd" clip-rule="evenodd" d="M112.856 82.4876L102.031 42.262L87.3187 67.7436L98.144 107.969L112.856 82.4876Z" fill="#6D95B6"/>
<path fill-rule="evenodd" clip-rule="evenodd" d="M138.282 97.1674L127.568 57.0059L112.856 82.4876L123.57 122.649L138.282 97.1674Z" fill="#6D95B6"/>
<path fill-rule="evenodd" clip-rule="evenodd" d="M61.8924 53.0642L51.067 12.8386L36.3552 38.3203L47.1805 78.5459L61.8924 53.0642Z" fill="#6D95B6"/>
<path fill-rule="evenodd" clip-rule="evenodd" d="M87.3185 67.744L76.6042 27.5825L61.8924 53.0642L72.6067 93.2257L87.3185 67.744Z" fill="#6D95B6"/>
<path fill-rule="evenodd" clip-rule="evenodd" d="M10.9292 23.6401L0.103882 -16.5854L-14.608 8.89623L-3.78263 49.1218L10.9292 23.6401Z" fill="#6D95B6"/>
<path fill-rule="evenodd" clip-rule="evenodd" d="M36.3554 38.3199L25.6411 -1.84154L10.9292 23.6401L21.6435 63.8016L36.3554 38.3199Z" fill="#6D95B6"/>
<path fill-rule="evenodd" clip-rule="evenodd" d="M-40.0343 -5.78308L-50.8596 -46.0087L-65.5715 -20.527L-54.7461 19.6986L-40.0343 -5.78308Z" fill="#6D95B6"/>
<path fill-rule="evenodd" clip-rule="evenodd" d="M-14.6081 8.89673L-25.3224 -31.2648L-40.0343 -5.78308L-29.32 34.3784L-14.6081 8.89673Z" fill="#6D95B6"/>
<path fill-rule="evenodd" clip-rule="evenodd" d="M287.285 251.146L276.46 210.921L261.748 236.402L272.574 276.628L287.285 251.146Z" fill="#6D95B6"/>
<path fill-rule="evenodd" clip-rule="evenodd" d="M312.712 265.826L301.997 225.665L287.285 251.146L298 291.308L312.712 265.826Z" fill="#6D95B6"/>
<path fill-rule="evenodd" clip-rule="evenodd" d="M236.322 221.722L225.497 181.497L210.785 206.978L221.611 247.204L236.322 221.722Z" fill="#6D95B6"/>
<path fill-rule="evenodd" clip-rule="evenodd" d="M261.749 236.402L251.034 196.24L236.322 221.722L247.037 261.884L261.749 236.402Z" fill="#6D95B6"/>
<path fill-rule="evenodd" clip-rule="evenodd" d="M185.359 192.298L174.533 152.072L159.822 177.554L170.647 217.78L185.359 192.298Z" fill="#6D95B6"/>
<path fill-rule="evenodd" clip-rule="evenodd" d="M210.785 206.978L200.071 166.816L185.359 192.298L196.073 232.459L210.785 206.978Z" fill="#6D95B6"/>
<path fill-rule="evenodd" clip-rule="evenodd" d="M134.396 162.875L123.57 122.649L108.858 148.131L119.684 188.356L134.396 162.875Z" fill="#6D95B6"/>
<path fill-rule="evenodd" clip-rule="evenodd" d="M159.822 177.555L149.108 137.393L134.396 162.875L145.11 203.036L159.822 177.555Z" fill="#6D95B6"/>
<path fill-rule="evenodd" clip-rule="evenodd" d="M83.4322 133.451L72.6068 93.2258L57.895 118.708L68.7203 158.933L83.4322 133.451Z" fill="#6D95B6"/>
<path fill-rule="evenodd" clip-rule="evenodd" d="M108.858 148.131L98.144 107.97L83.4322 133.451L94.1465 173.613L108.858 148.131Z" fill="#6D95B6"/>
<path fill-rule="evenodd" clip-rule="evenodd" d="M32.4687 104.027L21.6433 63.8017L6.93145 89.2834L17.7568 129.509L32.4687 104.027Z" fill="#6D95B6"/>
<path fill-rule="evenodd" clip-rule="evenodd" d="M57.8948 118.707L47.1805 78.5456L32.4687 104.027L43.183 144.189L57.8948 118.707Z" fill="#6D95B6"/>
<path fill-rule="evenodd" clip-rule="evenodd" d="M-18.4944 74.6041L-29.3198 34.3785L-44.0316 59.8602L-33.2063 100.086L-18.4944 74.6041Z" fill="#6D95B6"/>
<path fill-rule="evenodd" clip-rule="evenodd" d="M6.93174 89.2839L-3.78257 49.1224L-18.4944 74.6041L-7.78011 114.766L6.93174 89.2839Z" fill="#6D95B6"/>
<path fill-rule="evenodd" clip-rule="evenodd" d="M206.899 272.685L196.073 232.46L181.361 257.941L192.187 298.167L206.899 272.685Z" fill="#6D95B6"/>
<path fill-rule="evenodd" clip-rule="evenodd" d="M232.325 287.365L221.61 247.204L206.899 272.685L217.613 312.847L232.325 287.365Z" fill="#6D95B6"/>
<path fill-rule="evenodd" clip-rule="evenodd" d="M155.935 243.262L145.11 203.036L130.398 228.518L141.223 268.744L155.935 243.262Z" fill="#6D95B6"/>
<path fill-rule="evenodd" clip-rule="evenodd" d="M181.361 257.942L170.647 217.78L155.935 243.262L166.65 283.423L181.361 257.942Z" fill="#6D95B6"/>
<path fill-rule="evenodd" clip-rule="evenodd" d="M104.972 213.839L94.1462 173.613L79.4344 199.095L90.2597 239.32L104.972 213.839Z" fill="#6D95B6"/>
<path fill-rule="evenodd" clip-rule="evenodd" d="M130.398 228.518L119.683 188.357L104.972 213.839L115.686 254L130.398 228.518Z" fill="#6D95B6"/>
<path fill-rule="evenodd" clip-rule="evenodd" d="M54.0086 184.415L43.1832 144.189L28.4714 169.671L39.2967 209.896L54.0086 184.415Z" fill="#6D95B6"/>
<path fill-rule="evenodd" clip-rule="evenodd" d="M79.4347 199.094L68.7204 158.933L54.0086 184.415L64.7229 224.576L79.4347 199.094Z" fill="#6D95B6"/>
<path fill-rule="evenodd" clip-rule="evenodd" d="M3.04495 154.991L-7.7804 114.766L-22.4923 140.247L-11.6669 180.473L3.04495 154.991Z" fill="#6D95B6"/>
<path fill-rule="evenodd" clip-rule="evenodd" d="M28.4711 169.671L17.7568 129.51L3.04495 154.991L13.7593 195.153L28.4711 169.671Z" fill="#6D95B6"/>
<path fill-rule="evenodd" clip-rule="evenodd" d="M75.5479 264.802L64.7225 224.576L50.0107 250.058L60.836 290.283L75.5479 264.802Z" fill="#6D95B6"/>
<path fill-rule="evenodd" clip-rule="evenodd" d="M100.974 279.482L90.2597 239.32L75.5479 264.802L86.2622 304.963L100.974 279.482Z" fill="#6D95B6"/>
<path fill-rule="evenodd" clip-rule="evenodd" d="M24.5849 235.378L13.7595 195.152L-0.952334 220.634L9.87301 260.859L24.5849 235.378Z" fill="#6D95B6"/>
<path fill-rule="evenodd" clip-rule="evenodd" d="M50.011 250.057L39.2967 209.896L24.5849 235.378L35.2992 275.539L50.011 250.057Z" fill="#6D95B6"/>
<path fill-rule="evenodd" clip-rule="evenodd" d="M-26.3787 205.954L-37.204 165.729L-51.9159 191.21L-41.0906 231.436L-26.3787 205.954Z" fill="#6D95B6"/>
<path fill-rule="evenodd" clip-rule="evenodd" d="M-0.952534 220.634L-11.6668 180.473L-26.3787 205.954L-15.6644 246.116L-0.952534 220.634Z" fill="#6D95B6"/>
</g>
<defs>
<clipPath id="clip0_8_800">
<rect width="374" height="237" fill="white"/>
</clipPath>
</defs>
</svg>
