<svg width="122" height="122" viewBox="0 0 122 122" fill="none" xmlns="http://www.w3.org/2000/svg">
<path d="M53.8574 8.4609C58.0443 5.21243 63.8641 5.16494 68.0537 8.40816C85.9783 22.2853 130.235 60.6995 107.787 86.3466C104.808 89.7484 100.955 92.3283 96.7285 93.8984C86.5579 97.6754 76.7526 95.6845 69.5712 90.332L78.5732 106.044C81.3716 110.926 77.8367 117 72.2001 117H49.7997C44.1635 117 40.6291 110.926 43.4247 106.044L52.4179 90.3427C44.5475 96.2133 33.5024 98.0244 22.3037 92.6455C18.1433 90.6472 14.4227 87.6602 11.9052 83.7695C-4.83473 57.8923 36.598 21.8541 53.8574 8.4609ZM62.1865 35.0019C58.6441 34.9927 55.1492 35.8199 51.9872 37.417C48.1983 39.3106 45.0111 42.2217 42.7831 45.8242C40.5552 49.4268 39.3746 53.5795 39.373 57.8154C39.364 61.283 40.1568 64.7046 41.6884 67.8134C41.7517 67.9418 41.763 68.0907 41.7177 68.2265L37.0283 82.2939C36.8884 82.7135 37.2873 83.1125 37.707 82.9726L51.7753 78.2841C51.9111 78.239 52.0591 78.2492 52.1874 78.3125C55.2964 79.8442 58.7186 80.6379 62.1865 80.6289C66.4222 80.6271 70.5742 79.4456 74.1767 77.2177C77.7792 74.9898 80.6903 71.8026 82.5839 68.0136C84.1809 64.8518 85.0091 61.3576 84.9999 57.8154V56.4726C84.6912 50.8785 82.3298 45.5944 78.3681 41.6328C74.4064 37.6711 69.1224 35.3106 63.5283 35.0019H62.1865Z" fill="#6B2A32"/>
</svg>
