<svg width="24" height="24" viewBox="0 0 24 24" fill="none" xmlns="http://www.w3.org/2000/svg">
<path d="M11.9883 0.989227C11.7895 0.992332 11.6002 1.07419 11.4617 1.21683C11.3233 1.35947 11.2471 1.55122 11.25 1.74997V3.74997C11.2486 3.84935 11.267 3.94803 11.304 4.04025C11.3411 4.13248 11.3961 4.21642 11.4659 4.2872C11.5357 4.35797 11.6188 4.41418 11.7105 4.45254C11.8022 4.4909 11.9006 4.51065 12 4.51065C12.0994 4.51065 12.1978 4.4909 12.2895 4.45254C12.3812 4.41418 12.4643 4.35797 12.5341 4.2872C12.6039 4.21642 12.6589 4.13248 12.696 4.04025C12.733 3.94803 12.7514 3.84935 12.75 3.74997V1.74997C12.7514 1.64959 12.7327 1.54994 12.6949 1.45692C12.6571 1.36391 12.6011 1.27943 12.53 1.20849C12.459 1.13754 12.3745 1.08158 12.2814 1.04392C12.1883 1.00626 12.0887 0.987659 11.9883 0.989227ZM18.2197 3.63962C18.0249 3.63545 17.8362 3.70725 17.6934 3.83981L16.207 5.1777C16.1314 5.24293 16.0696 5.3226 16.0252 5.41204C15.9807 5.50149 15.9546 5.5989 15.9483 5.69857C15.9421 5.79824 15.9558 5.89816 15.9886 5.99246C16.0215 6.08677 16.0728 6.17356 16.1397 6.24776C16.2065 6.32195 16.2875 6.38205 16.3779 6.42453C16.4683 6.46701 16.5662 6.49101 16.666 6.49513C16.7658 6.49924 16.8654 6.48339 16.959 6.44851C17.0525 6.41362 17.1382 6.3604 17.2109 6.29196L18.6973 4.95407C18.8111 4.8545 18.8922 4.72286 18.9298 4.57641C18.9675 4.42995 18.96 4.27553 18.9084 4.13339C18.8568 3.99126 18.7634 3.86805 18.6405 3.77993C18.5176 3.69182 18.3709 3.64291 18.2197 3.63962ZM5.75781 3.64059C5.60874 3.64834 5.46537 3.7004 5.34604 3.79009C5.22672 3.87979 5.13688 4.00305 5.08801 4.1441C5.03914 4.28515 5.03347 4.43758 5.07172 4.58187C5.10997 4.72616 5.19041 4.85575 5.30273 4.95407L6.78906 6.29196C6.86179 6.3604 6.94746 6.41362 7.04103 6.44851C7.13461 6.48339 7.23421 6.49924 7.33399 6.49513C7.43377 6.49101 7.53172 6.46701 7.62211 6.42453C7.71249 6.38205 7.79348 6.32195 7.86032 6.24776C7.92717 6.17356 7.97853 6.08677 8.01138 5.99246C8.04424 5.89816 8.05793 5.79824 8.05166 5.69857C8.04538 5.5989 8.01927 5.50149 7.97485 5.41204C7.93043 5.3226 7.86859 5.24293 7.79297 5.1777L6.30664 3.83981C6.23312 3.7716 6.14667 3.71883 6.05241 3.68461C5.95814 3.65039 5.85797 3.63543 5.75781 3.64059ZM10.8955 5.99997C9.8842 5.99997 8.99063 6.68302 8.72461 7.65817L7.67676 11.5H5.75C3.682 11.5 2 13.182 2 15.25V18.25C2 20.318 3.682 22 5.75 22H18.25C20.318 22 22 20.318 22 18.25V15.25C22 13.182 20.318 11.5 18.25 11.5H16.3232L15.2744 7.65817C15.0085 6.68256 14.1145 5.99997 13.1035 5.99997H10.8955ZM10.8955 7.49997H13.1035C13.4456 7.49997 13.7371 7.72232 13.8271 8.0527L14.7676 11.5H9.23145L10.1719 8.0527C10.2619 7.72285 10.5538 7.49997 10.8955 7.49997ZM3.76953 8.98825C3.67024 8.98639 3.57156 9.00427 3.47923 9.04085C3.38689 9.07742 3.30274 9.13197 3.23166 9.20133C3.16058 9.27069 3.10398 9.35347 3.06514 9.44487C3.0263 9.53628 3.006 9.63449 3.00542 9.7338C3.00484 9.83311 3.02399 9.93155 3.06175 10.0234C3.09951 10.1153 3.15514 10.1987 3.22541 10.2689C3.29567 10.3391 3.37918 10.3946 3.47107 10.4323C3.56297 10.4699 3.66143 10.4889 3.76074 10.4883L5.75684 10.5C5.85613 10.5018 5.95481 10.484 6.04714 10.4474C6.13947 10.4108 6.22362 10.3562 6.29471 10.2869C6.36579 10.2175 6.42239 10.1348 6.46123 10.0433C6.50007 9.95194 6.52036 9.85373 6.52095 9.75442C6.52153 9.65511 6.50238 9.55667 6.46462 9.46482C6.42686 9.37296 6.37123 9.28952 6.30096 9.21934C6.2307 9.14915 6.14719 9.09362 6.05529 9.05596C5.9634 9.01831 5.86494 8.99927 5.76562 8.99997L3.76953 8.98825ZM20.2305 8.98825L18.2461 8.99997C18.1468 8.99918 18.0483 9.01813 17.9563 9.05571C17.8644 9.0933 17.7808 9.14877 17.7105 9.21891C17.6401 9.28906 17.5844 9.37247 17.5466 9.46431C17.5088 9.55615 17.4896 9.6546 17.4901 9.75393C17.4906 9.85326 17.5108 9.95149 17.5496 10.0429C17.5884 10.1344 17.645 10.2172 17.716 10.2866C17.7871 10.356 17.8712 10.4106 17.9636 10.4472C18.0559 10.4839 18.1546 10.5018 18.2539 10.5L20.2393 10.4883C20.3386 10.4889 20.437 10.4699 20.5289 10.4323C20.6208 10.3946 20.7043 10.3391 20.7746 10.2689C20.8449 10.1987 20.9005 10.1153 20.9383 10.0234C20.976 9.93155 20.9952 9.83311 20.9946 9.7338C20.994 9.63449 20.9737 9.53628 20.9349 9.44487C20.896 9.35347 20.8394 9.27069 20.7683 9.20133C20.6973 9.13197 20.6131 9.07742 20.5208 9.04085C20.4284 9.00427 20.3298 8.98639 20.2305 8.98825ZM13 14.5C13.276 14.5 13.5 14.724 13.5 15V18.5C13.5 18.776 13.276 19 13 19C12.724 19 12.5 18.776 12.5 18.5V15C12.5 14.724 12.724 14.5 13 14.5ZM16 14.5C16.0135 14.5 16.0246 14.5063 16.0381 14.5078C16.0731 14.5108 16.1061 14.5183 16.1396 14.5283C16.1696 14.5373 16.1981 14.5465 16.2256 14.5605C16.2536 14.5745 16.2777 14.5928 16.3027 14.6123C16.3302 14.6338 16.3554 14.6551 16.3779 14.6816C16.3869 14.6921 16.3992 14.6984 16.4072 14.7099L18 16.9394V15C18 14.724 18.224 14.5 18.5 14.5C18.776 14.5 19 14.724 19 15V18.5C19 18.514 18.9932 18.525 18.9922 18.539C18.9892 18.5735 18.9812 18.6061 18.9717 18.6396C18.9627 18.6701 18.954 18.699 18.9395 18.7265C18.925 18.7545 18.9072 18.7787 18.8877 18.8037C18.8662 18.8307 18.8449 18.8559 18.8184 18.8779C18.8079 18.8869 18.8015 18.8992 18.79 18.9072C18.7705 18.9212 18.748 18.9274 18.7275 18.9384C18.71 18.9474 18.6938 18.9573 18.6748 18.9648C18.6178 18.9858 18.56 19 18.501 19H18.5C18.424 19 18.3536 18.9807 18.2891 18.9502C18.2711 18.9417 18.2572 18.927 18.2402 18.916C18.1942 18.887 18.1536 18.8545 18.1191 18.8125C18.1116 18.8035 18.0998 18.8 18.0928 18.79L16.5 16.5605V18.5C16.5 18.776 16.276 19 16 19C15.724 19 15.5 18.776 15.5 18.5V15C15.5 14.986 15.5068 14.9749 15.5078 14.9609C15.5108 14.9264 15.5188 14.8938 15.5283 14.8603C15.5373 14.8298 15.546 14.8009 15.5605 14.7734C15.575 14.7454 15.5928 14.7213 15.6123 14.6963C15.6338 14.6693 15.6551 14.644 15.6816 14.622C15.6921 14.613 15.6985 14.6007 15.71 14.5927C15.725 14.5817 15.7428 14.5803 15.7588 14.5713C15.7878 14.5548 15.8161 14.5407 15.8486 14.5302C15.8826 14.5192 15.9152 14.5132 15.9502 14.5097C15.9672 14.5082 15.982 14.5 16 14.5ZM7.99902 14.5009C8.02002 14.5009 8.0415 14.5102 8.0625 14.5127C8.1065 14.5182 8.15091 14.522 8.19141 14.539C8.19341 14.54 8.19527 14.5395 8.19727 14.54C8.21877 14.5495 8.23293 14.5671 8.25293 14.5791C8.28793 14.6001 8.32354 14.6184 8.35254 14.6474C8.38104 14.6759 8.3999 14.7111 8.4209 14.7451C8.4329 14.7651 8.45046 14.7807 8.45996 14.8027L9.40625 17.0097L10.0195 14.8623C10.0955 14.5968 10.3722 14.443 10.6377 14.5185C10.9032 14.595 11.0565 14.8722 10.9805 15.1377L9.98047 18.6377C9.97797 18.6472 9.97175 18.6541 9.96875 18.6631C9.96125 18.6846 9.95043 18.7031 9.94043 18.7236C9.92293 18.7586 9.90293 18.7903 9.87793 18.8193C9.86393 18.8358 9.84951 18.8507 9.83301 18.8652C9.80101 18.8942 9.76652 18.918 9.72852 18.9375C9.71702 18.9435 9.70927 18.9544 9.69727 18.9599C9.69177 18.9624 9.68519 18.9609 9.67969 18.9629C9.62269 18.9854 9.563 19 9.5 19C9.4545 19 9.4078 18.9934 9.3623 18.9804L9.36133 18.9795C9.30433 18.963 9.2521 18.9344 9.2041 18.8984C9.1901 18.8879 9.17852 18.8757 9.16602 18.8642C9.13502 18.8362 9.10894 18.8045 9.08594 18.7685C9.07594 18.753 9.06514 18.7381 9.05664 18.7216C9.05214 18.7126 9.04454 18.7058 9.04004 18.6963L8 16.2685L6.95996 18.6972C6.95596 18.7067 6.94786 18.7136 6.94336 18.7226C6.93486 18.7391 6.92456 18.753 6.91406 18.7685C6.89056 18.8045 6.86448 18.8372 6.83398 18.8652C6.82148 18.8767 6.8099 18.8879 6.7959 18.8984C6.7479 18.9339 6.69567 18.9639 6.63867 18.9804L6.6377 18.9814C6.5917 18.9944 6.545 19 6.5 19C6.437 19 6.37731 18.9854 6.32031 18.9629C6.31481 18.9609 6.30823 18.9615 6.30273 18.959C6.29023 18.954 6.28298 18.943 6.27148 18.9365C6.23348 18.9165 6.19899 18.8942 6.16699 18.8652C6.15099 18.8502 6.13607 18.8358 6.12207 18.8193C6.09757 18.7903 6.07757 18.7576 6.05957 18.7226C6.04907 18.7021 6.03825 18.6836 6.03125 18.6621C6.02825 18.6531 6.02203 18.6462 6.01953 18.6367L5.01953 15.1367C4.94353 14.8712 5.09778 14.5945 5.36328 14.5185C5.62928 14.4425 5.90595 14.5968 5.98145 14.8623L6.59473 17.0107L7.54004 14.8027C7.54954 14.7802 7.56758 14.7656 7.58008 14.7451C7.60058 14.7111 7.61896 14.6769 7.64746 14.6484C7.67796 14.6179 7.71545 14.5976 7.75195 14.5761C7.76995 14.5656 7.78273 14.5485 7.80273 14.54C7.80423 14.5395 7.80612 14.5395 7.80762 14.539C7.85462 14.5195 7.90553 14.5133 7.95703 14.5088C7.97153 14.5078 7.98502 14.5009 7.99902 14.5009Z" fill="white"/>
</svg>
